*
G04 Mass Parameters ***
*
G04 Image ***
*
%IND:\UTENTI\00.LAVORI IN CORSO\METALTRONICA\22-305-0\22-305-0.DRD*%
%ICAS*%
%MOIN*%
%IPPOS*%
%ASAXBY*%
G74*%FSLAN2X34Y34*%
*
G04 Aperture Definitions ***
*
%ADD10R,0.0380X0.0320*%
%ADD11R,0.0320X0.0380*%
%ADD12R,0.0905X0.0886*%
%ADD13R,0.0510X0.1024*%
%ADD14R,0.0197X0.0315*%
%ADD15R,0.0501X0.0404*%
%ADD16R,0.0404X0.0501*%
%ADD17C,0.2756*%
%ADD18R,0.1220X0.0905*%
%ADD19R,0.1200X0.0600*%
%ADD20C,0.0512*%
%ADD21C,0.0866*%
%ADD22C,0.0669*%
%ADD23O,0.0787X0.0630*%
%ADD24C,0.0610*%
%ADD25R,0.0610X0.0610*%
%ADD26O,0.1181X0.0787*%
%ADD27R,0.0669X0.0669*%
%ADD28C,0.0787*%
%ADD29C,0.0433*%
%ADD30R,0.0787X0.0787*%
%ADD31C,0.0187*%
%ADD32R,0.0710X0.0400*%
%ADD33R,0.0400X0.0710*%
%ADD34R,0.0850X0.1080*%
%ADD35R,0.0354X0.0512*%
%ADD36R,0.0512X0.0354*%
%ADD37R,0.0315X0.0236*%
%ADD38R,0.0512X0.0236*%
%ADD39R,0.3701X0.4252*%
%ADD40R,0.1811X0.0531*%
%ADD41C,0.0800*%
%ADD42C,0.0276*%
%ADD43C,0.0394*%
%ADD44C,0.0050*%
%ADD45C,0.0100*%
%ADD46C,0.0120*%
%ADD47C,0.0250*%
%ADD48C,0.0276*%
%ADD49C,0.0500*%
%ADD50C,0.0150*%
%ADD51C,0.0400*%
%ADD52C,0.0060*%
%ADD53C,0.0276*%
%ADD54C,0.0590*%
%ADD55C,0.0709*%
%ADD56R,0.1772X0.0492*%
%ADD57C,0.0039*%
%ADD58C,0.0079*%
%ADD59C,0.0059*%
%ADD60C,0.0078*%
*
G04 Plot Data ***
*
G54D45*
G01X0025958Y-0022905D02*
X0025292D01*
X0025625Y-0022238D01*
X0025792D01*
Y-0023238D01*
X0024508D02*
X0025008Y-0022238D01*
X0024342D01*
X0024058Y-0023238D02*
X0023392D01*
X0024058Y-0022572D01*
Y-0022405D01*
X0023975Y-0022238D01*
X0023475D01*
X0023392Y-0022405D01*
X0013562Y-0023238D02*
X0012979D01*
Y-0022238D01*
X0012696Y-0022905D02*
X0012029D01*
X0012696Y-0023238D02*
Y-0022738D01*
X0012446Y-0022238D01*
X0012279D01*
X0012029Y-0022738D01*
Y-0023238D01*
X0011412D02*
Y-0022238D01*
X0011746D02*
X0011079D01*
X0010212Y-0023238D02*
X0010129Y-0023072D01*
Y-0022405D01*
X0010212Y-0022238D01*
X0010712D01*
X0010796Y-0022405D01*
Y-0023072D01*
X0010712Y-0023238D01*
X0010212D01*
X0009512D02*
Y-0022238D01*
X0009846D02*
X0009179D01*
X0025569Y-0021044D02*
X0025903D01*
X0025958Y-0021155D01*
Y-0021266D01*
X0025903Y-0021377D01*
X0025569D01*
X0025514Y-0021266D01*
Y-0021155D01*
X0025736Y-0020711D01*
X0012119Y-0021377D02*
Y-0021044D01*
X0012342Y-0021377D02*
Y-0021044D01*
X0012286Y-0020933D01*
X0012175D01*
X0012119Y-0021044D01*
X0012064Y-0020933D01*
X0011953D01*
X0011897Y-0021044D01*
Y-0021377D01*
X0011419D02*
Y-0021044D01*
X0011642Y-0021377D02*
Y-0021044D01*
X0011586Y-0020933D01*
X0011475D01*
X0011419Y-0021044D01*
X0011364Y-0020933D01*
X0011253D01*
X0011197Y-0021044D01*
Y-0021377D01*
X0009714D02*
X0009603Y-0021266D01*
X0009547Y-0021155D01*
Y-0020933D01*
X0009603Y-0020822D01*
X0009714Y-0020711D01*
X0009825D01*
X0009936Y-0020822D01*
X0009992Y-0020933D01*
Y-0021155D01*
X0009936Y-0021266D01*
X0009825Y-0021377D01*
X0009714D01*
X0009014D02*
X0008903Y-0021266D01*
X0008847Y-0021155D01*
Y-0020933D01*
X0008903Y-0020822D01*
X0009014Y-0020711D01*
X0009125D01*
X0009236Y-0020822D01*
X0009292Y-0020933D01*
Y-0021155D01*
X0009236Y-0021266D01*
X0009125Y-0021377D01*
X0009014D01*
X0008147Y-0021266D02*
X0008203Y-0021377D01*
X0008536D01*
X0008592Y-0021266D01*
Y-0021044D01*
X0008480Y-0020933D01*
X0008147D01*
Y-0020711D01*
X0008592D01*
X0007781Y-0021377D02*
X0007892D01*
Y-0021266D01*
X0007781D01*
Y-0021377D01*
X0006969Y-0021266D02*
X0007081Y-0021377D01*
X0007303D01*
X0007414Y-0021266D01*
Y-0021155D01*
X0007192Y-0020933D01*
X0007414Y-0020711D01*
X0006969D01*
X0025903Y-0019544D02*
X0025958Y-0019433D01*
Y-0019322D01*
X0025903Y-0019211D01*
X0025569D01*
X0025514Y-0019322D01*
Y-0019433D01*
X0025569Y-0019544D01*
X0025903D01*
X0025958Y-0019655D01*
Y-0019766D01*
X0025903Y-0019877D01*
X0025569D01*
X0025514Y-0019766D01*
Y-0019655D01*
X0025569Y-0019544D01*
X0012119Y-0019877D02*
Y-0019544D01*
X0012342Y-0019877D02*
Y-0019544D01*
X0012286Y-0019433D01*
X0012175D01*
X0012119Y-0019544D01*
X0012064Y-0019433D01*
X0011953D01*
X0011897Y-0019544D01*
Y-0019877D01*
X0011419D02*
Y-0019544D01*
X0011642Y-0019877D02*
Y-0019544D01*
X0011586Y-0019433D01*
X0011475D01*
X0011419Y-0019544D01*
X0011364Y-0019433D01*
X0011253D01*
X0011197Y-0019544D01*
Y-0019877D01*
X0009714D02*
X0009603Y-0019766D01*
X0009547Y-0019655D01*
Y-0019433D01*
X0009603Y-0019322D01*
X0009714Y-0019211D01*
X0009825D01*
X0009936Y-0019322D01*
X0009992Y-0019433D01*
Y-0019655D01*
X0009936Y-0019766D01*
X0009825Y-0019877D01*
X0009714D01*
X0009014D02*
X0008903Y-0019766D01*
X0008847Y-0019655D01*
Y-0019433D01*
X0008903Y-0019322D01*
X0009014Y-0019211D01*
X0009125D01*
X0009236Y-0019322D01*
X0009292Y-0019433D01*
Y-0019655D01*
X0009236Y-0019766D01*
X0009125Y-0019877D01*
X0009014D01*
X0008203Y-0019544D02*
X0008536D01*
X0008592Y-0019655D01*
Y-0019766D01*
X0008536Y-0019877D01*
X0008203D01*
X0008147Y-0019766D01*
Y-0019655D01*
X0008369Y-0019211D01*
X0007781Y-0019877D02*
X0007892D01*
Y-0019766D01*
X0007781D01*
Y-0019877D01*
X0007414D02*
X0007192D01*
X0007303D02*
Y-0019211D01*
X0007192Y-0019322D01*
X0033814Y-0018377D02*
Y-0017711D01*
X0033758Y-0018377D02*
X0034091D01*
X0034203Y-0018155D01*
Y-0017933D01*
X0034091Y-0017711D01*
X0033758D01*
X0033391Y-0018044D02*
X0033058D01*
X0033503Y-0018377D02*
X0033058D01*
Y-0017711D01*
X0033503D01*
X0032580Y-0018377D02*
Y-0017711D01*
X0032803D02*
X0032358D01*
X0032103Y-0018155D02*
X0031658D01*
X0032103Y-0018377D02*
Y-0018044D01*
X0031936Y-0017711D01*
X0031825D01*
X0031658Y-0018044D01*
Y-0018377D01*
X0031403D02*
X0031014D01*
Y-0017711D01*
X0030314Y-0018044D02*
X0030647D01*
X0030758Y-0017933D01*
Y-0017822D01*
X0030647Y-0017711D01*
X0030314D01*
Y-0018377D01*
X0030058Y-0018044D02*
X0029614D01*
X0029358Y-0017711D02*
Y-0018377D01*
X0029247Y-0018266D01*
X0029025Y-0017822D01*
X0028914Y-0017711D01*
Y-0018377D01*
X0028269D02*
X0028214Y-0018266D01*
Y-0017822D01*
X0028269Y-0017711D01*
X0028603D01*
X0028658Y-0017822D01*
Y-0018266D01*
X0028603Y-0018377D01*
X0028269D01*
X0027958Y-0017711D02*
Y-0018377D01*
X0027847Y-0018266D01*
X0027625Y-0017822D01*
X0027514Y-0017711D01*
Y-0018377D01*
X0025569Y-0018044D02*
X0025903D01*
X0025958Y-0018155D01*
Y-0018266D01*
X0025903Y-0018377D01*
X0025569D01*
X0025514Y-0018266D01*
Y-0018155D01*
X0025736Y-0017711D01*
X0012119Y-0018377D02*
Y-0018044D01*
X0012342Y-0018377D02*
Y-0018044D01*
X0012286Y-0017933D01*
X0012175D01*
X0012119Y-0018044D01*
X0012064Y-0017933D01*
X0011953D01*
X0011897Y-0018044D01*
Y-0018377D01*
X0011419D02*
Y-0018044D01*
X0011642Y-0018377D02*
Y-0018044D01*
X0011586Y-0017933D01*
X0011475D01*
X0011419Y-0018044D01*
X0011364Y-0017933D01*
X0011253D01*
X0011197Y-0018044D01*
Y-0018377D01*
X0009714D02*
X0009603Y-0018266D01*
X0009547Y-0018155D01*
Y-0017933D01*
X0009603Y-0017822D01*
X0009714Y-0017711D01*
X0009825D01*
X0009936Y-0017822D01*
X0009992Y-0017933D01*
Y-0018155D01*
X0009936Y-0018266D01*
X0009825Y-0018377D01*
X0009714D01*
X0009014D02*
X0008903Y-0018266D01*
X0008847Y-0018155D01*
Y-0017933D01*
X0008903Y-0017822D01*
X0009014Y-0017711D01*
X0009125D01*
X0009236Y-0017822D01*
X0009292Y-0017933D01*
Y-0018155D01*
X0009236Y-0018266D01*
X0009125Y-0018377D01*
X0009014D01*
X0008147Y-0018266D02*
X0008258Y-0018377D01*
X0008480D01*
X0008592Y-0018266D01*
Y-0018155D01*
X0008369Y-0017933D01*
X0008592Y-0017711D01*
X0008147D01*
X0007781Y-0018377D02*
X0007892D01*
Y-0018266D01*
X0007781D01*
Y-0018377D01*
X0007414D02*
X0007192D01*
X0007303D02*
Y-0017711D01*
X0007192Y-0017822D01*
X0025680Y-0016877D02*
X0025569Y-0016766D01*
X0025514Y-0016655D01*
Y-0016433D01*
X0025569Y-0016322D01*
X0025680Y-0016211D01*
X0025792D01*
X0025903Y-0016322D01*
X0025958Y-0016433D01*
Y-0016655D01*
X0025903Y-0016766D01*
X0025792Y-0016877D01*
X0025680D01*
X0024925D02*
X0025258Y-0016211D01*
X0024814D01*
X0012119Y-0016877D02*
Y-0016544D01*
X0012342Y-0016877D02*
Y-0016544D01*
X0012286Y-0016433D01*
X0012175D01*
X0012119Y-0016544D01*
X0012064Y-0016433D01*
X0011953D01*
X0011897Y-0016544D01*
Y-0016877D01*
X0011419D02*
Y-0016544D01*
X0011642Y-0016877D02*
Y-0016544D01*
X0011586Y-0016433D01*
X0011475D01*
X0011419Y-0016544D01*
X0011364Y-0016433D01*
X0011253D01*
X0011197Y-0016544D01*
Y-0016877D01*
X0009714D02*
X0009603Y-0016766D01*
X0009547Y-0016655D01*
Y-0016433D01*
X0009603Y-0016322D01*
X0009714Y-0016211D01*
X0009825D01*
X0009936Y-0016322D01*
X0009992Y-0016433D01*
Y-0016655D01*
X0009936Y-0016766D01*
X0009825Y-0016877D01*
X0009714D01*
X0009014D02*
X0008903Y-0016766D01*
X0008847Y-0016655D01*
Y-0016433D01*
X0008903Y-0016322D01*
X0009014Y-0016211D01*
X0009125D01*
X0009236Y-0016322D01*
X0009292Y-0016433D01*
Y-0016655D01*
X0009236Y-0016766D01*
X0009125Y-0016877D01*
X0009014D01*
X0008592D02*
X0008147D01*
X0008592Y-0016433D01*
Y-0016322D01*
X0008536Y-0016211D01*
X0008203D01*
X0008147Y-0016322D01*
X0007781Y-0016877D02*
X0007892D01*
Y-0016766D01*
X0007781D01*
Y-0016877D01*
X0007414D02*
X0007192D01*
X0007303D02*
Y-0016211D01*
X0007192Y-0016322D01*
X0025958Y-0015377D02*
X0025736D01*
X0025847D02*
Y-0014711D01*
X0025736Y-0014822D01*
X0025369Y-0015377D02*
X0025147D01*
X0025258D02*
Y-0014711D01*
X0025147Y-0014822D01*
X0012119Y-0015377D02*
Y-0015044D01*
X0012342Y-0015377D02*
Y-0015044D01*
X0012286Y-0014933D01*
X0012175D01*
X0012119Y-0015044D01*
X0012064Y-0014933D01*
X0011953D01*
X0011897Y-0015044D01*
Y-0015377D01*
X0011419D02*
Y-0015044D01*
X0011642Y-0015377D02*
Y-0015044D01*
X0011586Y-0014933D01*
X0011475D01*
X0011419Y-0015044D01*
X0011364Y-0014933D01*
X0011253D01*
X0011197Y-0015044D01*
Y-0015377D01*
X0009714D02*
X0009603Y-0015266D01*
X0009547Y-0015155D01*
Y-0014933D01*
X0009603Y-0014822D01*
X0009714Y-0014711D01*
X0009825D01*
X0009936Y-0014822D01*
X0009992Y-0014933D01*
Y-0015155D01*
X0009936Y-0015266D01*
X0009825Y-0015377D01*
X0009714D01*
X0009014D02*
X0008903Y-0015266D01*
X0008847Y-0015155D01*
Y-0014933D01*
X0008903Y-0014822D01*
X0009014Y-0014711D01*
X0009125D01*
X0009236Y-0014822D01*
X0009292Y-0014933D01*
Y-0015155D01*
X0009236Y-0015266D01*
X0009125Y-0015377D01*
X0009014D01*
X0008592D02*
X0008369D01*
X0008480D02*
Y-0014711D01*
X0008369Y-0014822D01*
X0007892Y-0015377D02*
X0008003D01*
Y-0015266D01*
X0007892D01*
Y-0015377D01*
X0007525D02*
X0007303D01*
X0007414D02*
Y-0014711D01*
X0007303Y-0014822D01*
X0033814Y-0013877D02*
Y-0013211D01*
X0033758Y-0013877D02*
X0034091D01*
X0034203Y-0013655D01*
Y-0013433D01*
X0034091Y-0013211D01*
X0033758D01*
X0033391Y-0013544D02*
X0033058D01*
X0033503Y-0013877D02*
X0033058D01*
Y-0013211D01*
X0033503D01*
X0032580Y-0013877D02*
Y-0013211D01*
X0032803D02*
X0032358D01*
X0032103Y-0013655D02*
X0031658D01*
X0032103Y-0013877D02*
Y-0013544D01*
X0031936Y-0013211D01*
X0031825D01*
X0031658Y-0013544D01*
Y-0013877D01*
X0031403D02*
X0031014D01*
Y-0013211D01*
X0030314Y-0013544D02*
X0030647D01*
X0030758Y-0013433D01*
Y-0013322D01*
X0030647Y-0013211D01*
X0030314D01*
Y-0013877D01*
X0030058Y-0013544D02*
X0029614D01*
X0029358Y-0013211D02*
Y-0013877D01*
X0029247Y-0013766D01*
X0029025Y-0013322D01*
X0028914Y-0013211D01*
Y-0013877D01*
X0028269D02*
X0028214Y-0013766D01*
Y-0013322D01*
X0028269Y-0013211D01*
X0028603D01*
X0028658Y-0013322D01*
Y-0013766D01*
X0028603Y-0013877D01*
X0028269D01*
X0027958Y-0013211D02*
Y-0013877D01*
X0027847Y-0013766D01*
X0027625Y-0013322D01*
X0027514Y-0013211D01*
Y-0013877D01*
X0025958D02*
X0025514D01*
X0025958Y-0013433D01*
Y-0013322D01*
X0025903Y-0013211D01*
X0025569D01*
X0025514Y-0013322D01*
X0012119Y-0013877D02*
Y-0013544D01*
X0012342Y-0013877D02*
Y-0013544D01*
X0012286Y-0013433D01*
X0012175D01*
X0012119Y-0013544D01*
X0012064Y-0013433D01*
X0011953D01*
X0011897Y-0013544D01*
Y-0013877D01*
X0011419D02*
Y-0013544D01*
X0011642Y-0013877D02*
Y-0013544D01*
X0011586Y-0013433D01*
X0011475D01*
X0011419Y-0013544D01*
X0011364Y-0013433D01*
X0011253D01*
X0011197Y-0013544D01*
Y-0013877D01*
X0009714D02*
X0009603Y-0013766D01*
X0009547Y-0013655D01*
Y-0013433D01*
X0009603Y-0013322D01*
X0009714Y-0013211D01*
X0009825D01*
X0009936Y-0013322D01*
X0009992Y-0013433D01*
Y-0013655D01*
X0009936Y-0013766D01*
X0009825Y-0013877D01*
X0009714D01*
X0009014D02*
X0008903Y-0013766D01*
X0008847Y-0013655D01*
Y-0013433D01*
X0008903Y-0013322D01*
X0009014Y-0013211D01*
X0009125D01*
X0009236Y-0013322D01*
X0009292Y-0013433D01*
Y-0013655D01*
X0009236Y-0013766D01*
X0009125Y-0013877D01*
X0009014D01*
X0008592D02*
X0008369D01*
X0008480D02*
Y-0013211D01*
X0008369Y-0013322D01*
X0007892Y-0013877D02*
X0008003D01*
Y-0013766D01*
X0007892D01*
Y-0013877D01*
X0007525D02*
X0007303D01*
X0007414D02*
Y-0013211D01*
X0007303Y-0013322D01*
X0025680Y-0012377D02*
X0025569Y-0012266D01*
X0025514Y-0012155D01*
Y-0011933D01*
X0025569Y-0011822D01*
X0025680Y-0011711D01*
X0025792D01*
X0025903Y-0011822D01*
X0025958Y-0011933D01*
Y-0012155D01*
X0025903Y-0012266D01*
X0025792Y-0012377D01*
X0025680D01*
X0025258D02*
X0025036D01*
X0025147D02*
Y-0011711D01*
X0025036Y-0011822D01*
X0012119Y-0012377D02*
Y-0012044D01*
X0012342Y-0012377D02*
Y-0012044D01*
X0012286Y-0011933D01*
X0012175D01*
X0012119Y-0012044D01*
X0012064Y-0011933D01*
X0011953D01*
X0011897Y-0012044D01*
Y-0012377D01*
X0011419D02*
Y-0012044D01*
X0011642Y-0012377D02*
Y-0012044D01*
X0011586Y-0011933D01*
X0011475D01*
X0011419Y-0012044D01*
X0011364Y-0011933D01*
X0011253D01*
X0011197Y-0012044D01*
Y-0012377D01*
X0009714D02*
X0009603Y-0012266D01*
X0009547Y-0012155D01*
Y-0011933D01*
X0009603Y-0011822D01*
X0009714Y-0011711D01*
X0009825D01*
X0009936Y-0011822D01*
X0009992Y-0011933D01*
Y-0012155D01*
X0009936Y-0012266D01*
X0009825Y-0012377D01*
X0009714D01*
X0009014D02*
X0008903Y-0012266D01*
X0008847Y-0012155D01*
Y-0011933D01*
X0008903Y-0011822D01*
X0009014Y-0011711D01*
X0009125D01*
X0009236Y-0011822D01*
X0009292Y-0011933D01*
Y-0012155D01*
X0009236Y-0012266D01*
X0009125Y-0012377D01*
X0009014D01*
X0008536Y-0012044D02*
X0008592Y-0011933D01*
Y-0011822D01*
X0008536Y-0011711D01*
X0008203D01*
X0008147Y-0011822D01*
Y-0011933D01*
X0008203Y-0012044D01*
X0008536D01*
X0008592Y-0012155D01*
Y-0012266D01*
X0008536Y-0012377D01*
X0008203D01*
X0008147Y-0012266D01*
Y-0012155D01*
X0008203Y-0012044D01*
X0007781Y-0012377D02*
X0007892D01*
Y-0012266D01*
X0007781D01*
Y-0012377D01*
X0007136D02*
X0007025Y-0012266D01*
X0006969Y-0012155D01*
Y-0011933D01*
X0007025Y-0011822D01*
X0007136Y-0011711D01*
X0007247D01*
X0007358Y-0011822D01*
X0007414Y-0011933D01*
Y-0012155D01*
X0007358Y-0012266D01*
X0007247Y-0012377D01*
X0007136D01*
X0025958Y-0010877D02*
X0025736D01*
X0025847D02*
Y-0010211D01*
X0025736Y-0010322D01*
X0024980Y-0010544D02*
X0025314D01*
X0025369Y-0010655D01*
Y-0010766D01*
X0025314Y-0010877D01*
X0024980D01*
X0024925Y-0010766D01*
Y-0010655D01*
X0025147Y-0010211D01*
X0024669Y-0010877D02*
X0024447D01*
X0024558D02*
Y-0010211D01*
X0024447Y-0010322D01*
X0012119Y-0010877D02*
Y-0010544D01*
X0012342Y-0010877D02*
Y-0010544D01*
X0012286Y-0010433D01*
X0012175D01*
X0012119Y-0010544D01*
X0012064Y-0010433D01*
X0011953D01*
X0011897Y-0010544D01*
Y-0010877D01*
X0011419D02*
Y-0010544D01*
X0011642Y-0010877D02*
Y-0010544D01*
X0011586Y-0010433D01*
X0011475D01*
X0011419Y-0010544D01*
X0011364Y-0010433D01*
X0011253D01*
X0011197Y-0010544D01*
Y-0010877D01*
X0009714D02*
X0009603Y-0010766D01*
X0009547Y-0010655D01*
Y-0010433D01*
X0009603Y-0010322D01*
X0009714Y-0010211D01*
X0009825D01*
X0009936Y-0010322D01*
X0009992Y-0010433D01*
Y-0010655D01*
X0009936Y-0010766D01*
X0009825Y-0010877D01*
X0009714D01*
X0009014D02*
X0008903Y-0010766D01*
X0008847Y-0010655D01*
Y-0010433D01*
X0008903Y-0010322D01*
X0009014Y-0010211D01*
X0009125D01*
X0009236Y-0010322D01*
X0009292Y-0010433D01*
Y-0010655D01*
X0009236Y-0010766D01*
X0009125Y-0010877D01*
X0009014D01*
X0008592D02*
X0008147D01*
X0008592Y-0010433D01*
Y-0010322D01*
X0008536Y-0010211D01*
X0008203D01*
X0008147Y-0010322D01*
X0007781Y-0010877D02*
X0007892D01*
Y-0010766D01*
X0007781D01*
Y-0010877D01*
X0007136D02*
X0007025Y-0010766D01*
X0006969Y-0010655D01*
Y-0010433D01*
X0007025Y-0010322D01*
X0007136Y-0010211D01*
X0007247D01*
X0007358Y-0010322D01*
X0007414Y-0010433D01*
Y-0010655D01*
X0007358Y-0010766D01*
X0007247Y-0010877D01*
X0007136D01*
X0034362Y-0008738D02*
X0033862D01*
X0034529Y-0009238D02*
X0033862D01*
Y-0008238D01*
X0034529D01*
X0033246Y-0009238D02*
Y-0008238D01*
X0033579D02*
X0032912D01*
X0032046Y-0009238D02*
X0031962Y-0009072D01*
Y-0008405D01*
X0032046Y-0008238D01*
X0032546D01*
X0032629Y-0008405D01*
Y-0009072D01*
X0032546Y-0009238D01*
X0032046D01*
X0031679Y-0008238D02*
Y-0009238D01*
X0031512Y-0009072D01*
X0031179Y-0008405D01*
X0031012Y-0008238D01*
Y-0009238D01*
X0025175D02*
Y-0008738D01*
X0025508Y-0008238D02*
X0025258Y-0008738D01*
X0025092D01*
X0024842Y-0008238D01*
X0024225Y-0009238D02*
Y-0008238D01*
X0024558D02*
X0023892D01*
X0023275Y-0008905D02*
X0023608Y-0009238D01*
X0022942Y-0009072D02*
X0023025Y-0009238D01*
X0023358D01*
X0023442Y-0009072D01*
X0023608Y-0008905D01*
Y-0008405D01*
X0023525Y-0008238D01*
X0023025D01*
X0022942Y-0008405D01*
Y-0009072D01*
X0018658Y-0009238D02*
X0018075D01*
Y-0008238D01*
X0017208Y-0009238D02*
X0017125Y-0009072D01*
Y-0008405D01*
X0017208Y-0008238D01*
X0017708D01*
X0017792Y-0008405D01*
Y-0009072D01*
X0017708Y-0009238D01*
X0017208D01*
X0016508D02*
Y-0008238D01*
X0016842D02*
X0016175D01*
X0010837Y-0009238D02*
Y-0008238D01*
X0010671Y-0008405D01*
X0010504Y-0008738D01*
X0010337Y-0008405D01*
X0010171Y-0008238D01*
Y-0009238D01*
X0009887Y-0008905D02*
X0009221D01*
X0009887Y-0009238D02*
Y-0008738D01*
X0009637Y-0008238D01*
X0009471D01*
X0009221Y-0008738D01*
Y-0009238D01*
X0008937D02*
X0008604D01*
X0008771D02*
Y-0008238D01*
X0008937D02*
X0008604D01*
X0007571Y-0009238D02*
Y-0008238D01*
X0007487Y-0009238D02*
X0007987D01*
X0008154Y-0008905D01*
Y-0008572D01*
X0007987Y-0008238D01*
X0007487D01*
X0004400Y-0009238D02*
Y-0008238D01*
X0004233Y-0008405D01*
X0004067Y-0008738D01*
X0003900Y-0008405D01*
X0003733Y-0008238D01*
Y-0009238D01*
X0003117D02*
Y-0008738D01*
X0003450Y-0008238D02*
X0003200Y-0008738D01*
X0003033D01*
X0002783Y-0008238D01*
X0002500Y-0008405D02*
X0002417Y-0008238D01*
X0001917D01*
X0001833Y-0008405D01*
Y-0008572D01*
X0001917Y-0008738D01*
X0002417D01*
X0002500Y-0008905D01*
Y-0009072D01*
X0002417Y-0009238D01*
X0001917D01*
X0001833Y-0009072D01*
X0024687Y-0007238D02*
Y-0006238D01*
X0025021D02*
X0024354D01*
X0023821Y-0006738D02*
X0024071Y-0007238D01*
X0023404Y-0006738D02*
X0023904D01*
X0024071Y-0006572D01*
Y-0006405D01*
X0023904Y-0006238D01*
X0023404D01*
Y-0007238D01*
X0023121Y-0006905D02*
X0022454D01*
X0023121Y-0007238D02*
Y-0006738D01*
X0022871Y-0006238D01*
X0022704D01*
X0022454Y-0006738D01*
Y-0007238D01*
X0022171Y-0006738D02*
X0021504D01*
X0022171Y-0007238D02*
Y-0006238D01*
X0021504Y-0007238D02*
Y-0006238D01*
X0021221Y-0007072D02*
X0021137Y-0007238D01*
X0020637D01*
X0020554Y-0007072D01*
Y-0006405D01*
X0020637Y-0006238D01*
X0021137D01*
X0021221Y-0006405D01*
X0018946Y-0007238D02*
X0018362D01*
Y-0006238D01*
X0018079Y-0007238D02*
X0017496D01*
Y-0006238D01*
X0017212Y-0007238D02*
X0016879D01*
X0017046D02*
Y-0006238D01*
X0017212D02*
X0016879D01*
X0016179Y-0006738D02*
X0016429Y-0007238D01*
X0015762Y-0006738D02*
X0016262D01*
X0016429Y-0006572D01*
Y-0006405D01*
X0016262Y-0006238D01*
X0015762D01*
Y-0007238D01*
X0014896D02*
Y-0006238D01*
X0014812Y-0007238D02*
X0015312D01*
X0015479Y-0006905D01*
Y-0006572D01*
X0015312Y-0006238D01*
X0014812D01*
X0012450Y0002550D02*
X0012200Y0002300D01*
X0012700D02*
X0012450Y0002550D01*
X0012200Y0002300D02*
X0012700D01*
X0012450Y0004000D02*
X0012200Y0003750D01*
X0012700D02*
X0012450Y0004000D01*
X0012200Y0003750D02*
X0012700D01*
X0012450Y0005500D02*
X0012200Y0005250D01*
X0012700D02*
X0012450Y0005500D01*
X0012200Y0005250D02*
X0012700D01*
X0012450Y0004000D02*
X0012200Y0003750D01*
X0012700D02*
X0012450Y0004000D01*
X0012200Y0003750D02*
X0012700D01*
X0012450Y0001800D02*
X0012200Y0001550D01*
X0012700D02*
X0012450Y0001800D01*
X0012200Y0001550D02*
X0012700D01*
X0012450Y0002550D02*
X0012200Y0002300D01*
X0012700D02*
X0012450Y0002550D01*
X0012200Y0002300D02*
X0012700D01*
X0012450Y0006650D02*
X0012200Y0006400D01*
X0012700D02*
X0012450Y0006650D01*
X0012200Y0006400D02*
X0012700D01*
X0012450Y0005500D02*
X0012200Y0005250D01*
X0012700D02*
X0012450Y0005500D01*
X0012200Y0005250D02*
X0012700D01*
X0008150Y0007150D02*
X0007900Y0006900D01*
X0008400D02*
X0008150Y0007150D01*
X0007900Y0006900D02*
X0008400D01*
X0008150Y0005650D02*
X0007900Y0005400D01*
X0008400D02*
X0008150Y0005650D01*
X0007900Y0005400D02*
X0008400D01*
X0008150Y0005650D02*
X0007900Y0005400D01*
X0008400D02*
X0008150Y0005650D01*
X0007900Y0005400D02*
X0008400D01*
X0008150Y0004150D02*
X0007900Y0003900D01*
X0008400D02*
X0008150Y0004150D01*
X0007900Y0003900D02*
X0008400D01*
X0008150Y0004150D02*
X0007900Y0003900D01*
X0008400D02*
X0008150Y0004150D01*
X0007900Y0003900D02*
X0008400D01*
X0008150Y0002650D02*
X0007900Y0002400D01*
X0008400D02*
X0008150Y0002650D01*
X0007900Y0002400D02*
X0008400D01*
X0008150Y0001900D02*
X0007900Y0001650D01*
X0008400D02*
X0008150Y0001900D01*
X0007900Y0001650D02*
X0008400D01*
X0008150Y0002650D02*
X0007900Y0002400D01*
X0008400D02*
X0008150Y0002650D01*
X0007900Y0002400D02*
X0008400D01*
X0007650Y0008650D02*
X0007400Y0008400D01*
X0007900D02*
X0007650Y0008650D01*
X0007400Y0008400D02*
X0007900D01*
X0008150Y0007150D02*
X0007900Y0006900D01*
X0008400D02*
X0008150Y0007150D01*
X0007900Y0006900D02*
X0008400D01*
X0007650Y0010800D02*
X0007400Y0010550D01*
X0007900D02*
X0007650Y0010800D01*
X0007400Y0010550D02*
X0007900D01*
X0007650Y0008650D02*
X0007400Y0008400D01*
X0007900D02*
X0007650Y0008650D01*
X0007400Y0008400D02*
X0007900D01*
X0007650Y0008650D02*
X0007400Y0008400D01*
X0007900D02*
X0007650Y0008650D01*
X0007400Y0008400D02*
X0007900D01*
X0007650Y0012400D02*
X0007400Y0012150D01*
X0007900D02*
X0007650Y0012400D01*
X0007400Y0012150D02*
X0007900D01*
X0007650Y0012400D02*
X0007400Y0012150D01*
X0007900D02*
X0007650Y0012400D01*
X0007400Y0012150D02*
X0007900D01*
X0007650Y0014050D02*
X0007400Y0013800D01*
X0007900D02*
X0007650Y0014050D01*
X0007400Y0013800D02*
X0007900D01*
X0007650Y0014050D02*
X0007400Y0013800D01*
X0007900D02*
X0007650Y0014050D01*
X0007400Y0013800D02*
X0007900D01*
X0007650Y0016750D02*
X0007400Y0016500D01*
X0007900D02*
X0007650Y0016750D01*
X0007400Y0016500D02*
X0007900D01*
X0007650Y0016750D02*
X0007400Y0016500D01*
X0007900D02*
X0007650Y0016750D01*
X0007400Y0016500D02*
X0007900D01*
X0007650Y0018800D02*
X0007400Y0018550D01*
X0007900D02*
X0007650Y0018800D01*
X0007400Y0018550D02*
X0007900D01*
X0007650Y0018800D02*
X0007400Y0018550D01*
X0007900D02*
X0007650Y0018800D01*
X0007400Y0018550D02*
X0007900D01*
X0007650Y0020300D02*
X0007400Y0020050D01*
X0007900D02*
X0007650Y0020300D01*
X0007400Y0020050D02*
X0007900D01*
X0007650Y0023300D02*
X0007400Y0023050D01*
X0007900D02*
X0007650Y0023300D01*
X0007400Y0023050D02*
X0007900D01*
X0007650Y0021150D02*
X0007400Y0020900D01*
X0007900D02*
X0007650Y0021150D01*
X0007400Y0020900D02*
X0007900D01*
X0007650Y0021150D02*
X0007400Y0020900D01*
X0007900D02*
X0007650Y0021150D01*
X0007400Y0020900D02*
X0007900D01*
X0007650Y0024100D02*
X0007400Y0023850D01*
X0007900D02*
X0007650Y0024100D01*
X0007400Y0023850D02*
X0007900D01*
X0035600Y0007500D02*
X0035350Y0007250D01*
X0035850D02*
X0035600Y0007500D01*
X0035350Y0007250D02*
X0035850D01*
X0015500Y0001250D02*
X0015250Y0001000D01*
X0015750D02*
X0015500Y0001250D01*
X0015250Y0001000D02*
X0015750D01*
X0042350Y0022150D02*
X0042100Y0021900D01*
X0042600D02*
X0042350Y0022150D01*
X0042100Y0021900D02*
X0042600D01*
X0023250Y0018500D02*
X0023000Y0018250D01*
X0023500D02*
X0023250Y0018500D01*
X0023000Y0018250D02*
X0023500D01*
X0021600Y0018500D02*
X0021350Y0018250D01*
X0021850D02*
X0021600Y0018500D01*
X0021350Y0018250D02*
X0021850D01*
X0014970Y0023680D02*
X0014720Y0023430D01*
X0015220D02*
X0014970Y0023680D01*
X0014720Y0023430D02*
X0015220D01*
X0017620Y0022680D02*
X0017370Y0022430D01*
X0017870D02*
X0017620Y0022680D01*
X0017370Y0022430D02*
X0017870D01*
X0013000Y0008150D02*
X0012750Y0007900D01*
X0013250D02*
X0013000Y0008150D01*
X0012750Y0007900D02*
X0013250D01*
X0014550D02*
X0014300Y0007650D01*
X0014800D02*
X0014550Y0007900D01*
X0014300Y0007650D02*
X0014800D01*
X0012000Y0010150D02*
X0011750Y0009900D01*
X0012250D02*
X0012000Y0010150D01*
X0011750Y0009900D02*
X0012250D01*
X0011800Y0009150D02*
X0011550Y0008900D01*
X0012050D02*
X0011800Y0009150D01*
X0011550Y0008900D02*
X0012050D01*
X0011800Y0009150D02*
X0011550Y0008900D01*
X0012050D02*
X0011800Y0009150D01*
X0011550Y0008900D02*
X0012050D01*
X0013000Y0008150D02*
X0012750Y0007900D01*
X0013250D02*
X0013000Y0008150D01*
X0012750Y0007900D02*
X0013250D01*
X0014550D02*
X0014300Y0007650D01*
X0014800D02*
X0014550Y0007900D01*
X0014300Y0007650D02*
X0014800D01*
X0016050Y0007300D02*
X0015800Y0007050D01*
X0016300D02*
X0016050Y0007300D01*
X0015800Y0007050D02*
X0016300D01*
X0017000Y0007150D02*
X0016750Y0006900D01*
X0017250D02*
X0017000Y0007150D01*
X0016750Y0006900D02*
X0017250D01*
X0017000Y0007150D02*
X0016750Y0006900D01*
X0017250D02*
X0017000Y0007150D01*
X0016750Y0006900D02*
X0017250D01*
X0018000Y0008900D02*
X0017750Y0008650D01*
X0018250D02*
X0018000Y0008900D01*
X0017750Y0008650D02*
X0018250D01*
X0018000Y0008900D02*
X0017750Y0008650D01*
X0018250D02*
X0018000Y0008900D01*
X0017750Y0008650D02*
X0018250D01*
X0020220Y0007120D02*
X0019970Y0006870D01*
X0020470D02*
X0020220Y0007120D01*
X0019970Y0006870D02*
X0020470D01*
X0020220Y0007120D02*
X0019970Y0006870D01*
X0020470D02*
X0020220Y0007120D01*
X0019970Y0006870D02*
X0020470D01*
X0022750Y0002600D02*
X0022500Y0002350D01*
X0023000D02*
X0022750Y0002600D01*
X0022500Y0002350D02*
X0023000D01*
X0015000Y0010650D02*
X0014750Y0010400D01*
X0015250D02*
X0015000Y0010650D01*
X0014750Y0010400D02*
X0015250D01*
X0015000Y0012150D02*
X0014750Y0011900D01*
X0015250D02*
X0015000Y0012150D01*
X0014750Y0011900D02*
X0015250D01*
X0015000Y0012150D02*
X0014750Y0011900D01*
X0015250D02*
X0015000Y0012150D01*
X0014750Y0011900D02*
X0015250D01*
X0015000Y0010650D02*
X0014750Y0010400D01*
X0015250D02*
X0015000Y0010650D01*
X0014750Y0010400D02*
X0015250D01*
X0013180Y0024370D02*
X0012930Y0024120D01*
X0013430D02*
X0013180Y0024370D01*
X0012930Y0024120D02*
X0013430D01*
X0007150Y0024550D02*
X0006900Y0024300D01*
X0007400D02*
X0007150Y0024550D01*
X0006900Y0024300D02*
X0007400D01*
X0031500Y0020150D02*
X0031250Y0019900D01*
X0031750D02*
X0031500Y0020150D01*
X0031250Y0019900D02*
X0031750D01*
X0040220Y0008270D02*
X0039970Y0008020D01*
X0040470D02*
X0040220Y0008270D01*
X0039970Y0008020D02*
X0040470D01*
X0039150Y0008300D02*
X0038900Y0008050D01*
X0039400D02*
X0039150Y0008300D01*
X0038900Y0008050D02*
X0039400D01*
X0040220Y0008270D02*
X0039970Y0008020D01*
X0040470D02*
X0040220Y0008270D01*
X0039970Y0008020D02*
X0040470D01*
X0037000Y0008150D02*
X0036750Y0007900D01*
X0037250D02*
X0037000Y0008150D01*
X0036750Y0007900D02*
X0037250D01*
X0027600Y0017200D02*
X0027350Y0016950D01*
X0027850D02*
X0027600Y0017200D01*
X0027350Y0016950D02*
X0027850D01*
X0014930Y0023120D02*
X0014680Y0022870D01*
X0015180D02*
X0014930Y0023120D01*
X0014680Y0022870D02*
X0015180D01*
X0015500Y0001250D02*
X0015250Y0001000D01*
X0015750D02*
X0015500Y0001250D01*
X0015250Y0001000D02*
X0015750D01*
X0015500Y0003150D02*
X0015250Y0002900D01*
X0015750D02*
X0015500Y0003150D01*
X0015250Y0002900D02*
X0015750D01*
X0015500Y0001250D02*
X0015250Y0001000D01*
X0015750D02*
X0015500Y0001250D01*
X0015250Y0001000D02*
X0015750D01*
X0015500Y0004900D02*
X0015250Y0004650D01*
X0015750D02*
X0015500Y0004900D01*
X0015250Y0004650D02*
X0015750D01*
X0015500Y0003150D02*
X0015250Y0002900D01*
X0015750D02*
X0015500Y0003150D01*
X0015250Y0002900D02*
X0015750D01*
X0014930Y0023120D02*
X0014680Y0022870D01*
X0015180D02*
X0014930Y0023120D01*
X0014680Y0022870D02*
X0015180D01*
X0024000Y0017150D02*
X0023750Y0016900D01*
X0024250D02*
X0024000Y0017150D01*
X0023750Y0016900D02*
X0024250D01*
X0012050Y0014400D02*
X0011800Y0014150D01*
X0012300D02*
X0012050Y0014400D01*
X0011800Y0014150D02*
X0012300D01*
X0012050Y0015150D02*
X0011800Y0014900D01*
X0012300D02*
X0012050Y0015150D01*
X0011800Y0014900D02*
X0012300D01*
X0013700Y0015150D02*
X0013450Y0014900D01*
X0013950D02*
X0013700Y0015150D01*
X0013450Y0014900D02*
X0013950D01*
X0013800Y0014400D02*
X0013550Y0014150D01*
X0014050D02*
X0013800Y0014400D01*
X0013550Y0014150D02*
X0014050D01*
X0013800Y0006600D02*
X0013550Y0006350D01*
X0014050D02*
X0013800Y0006600D01*
X0013550Y0006350D02*
X0014050D01*
X0013800Y0008350D02*
X0013550Y0008100D01*
X0014050D02*
X0013800Y0008350D01*
X0013550Y0008100D02*
X0014050D01*
X0013800Y0009150D02*
X0013550Y0008900D01*
X0014050D02*
X0013800Y0009150D01*
X0013550Y0008900D02*
X0014050D01*
X0013800Y0008350D02*
X0013550Y0008100D01*
X0014050D02*
X0013800Y0008350D01*
X0013550Y0008100D02*
X0014050D01*
X0013800Y0011400D02*
X0013550Y0011150D01*
X0014050D02*
X0013800Y0011400D01*
X0013550Y0011150D02*
X0014050D01*
X0013800Y0009150D02*
X0013550Y0008900D01*
X0014050D02*
X0013800Y0009150D01*
X0013550Y0008900D02*
X0014050D01*
X0040600Y0005050D02*
X0040350Y0004800D01*
X0040850D02*
X0040600Y0005050D01*
X0040350Y0004800D02*
X0040850D01*
X0042100Y0003850D02*
X0041850Y0003600D01*
X0042350D02*
X0042100Y0003850D01*
X0041850Y0003600D02*
X0042350D01*
X0040600Y0006400D02*
X0040350Y0006150D01*
X0040850D02*
X0040600Y0006400D01*
X0040350Y0006150D02*
X0040850D01*
X0040600Y0005050D02*
X0040350Y0004800D01*
X0040850D02*
X0040600Y0005050D01*
X0040350Y0004800D02*
X0040850D01*
X0039050Y0006400D02*
X0038800Y0006150D01*
X0039300D02*
X0039050Y0006400D01*
X0038800Y0006150D02*
X0039300D01*
X0039050Y0006400D02*
X0038800Y0006150D01*
X0039300D02*
X0039050Y0006400D01*
X0038800Y0006150D02*
X0039300D01*
X0042350Y0022150D02*
X0042100Y0021900D01*
X0042600D02*
X0042350Y0022150D01*
X0042100Y0021900D02*
X0042600D01*
X0032250Y0016900D02*
X0032000Y0016650D01*
X0032500D02*
X0032250Y0016900D01*
X0032000Y0016650D02*
X0032500D01*
X0031500Y0020150D02*
X0031250Y0019900D01*
X0031750D02*
X0031500Y0020150D01*
X0031250Y0019900D02*
X0031750D01*
X0032250Y0014350D02*
X0032000Y0014100D01*
X0032500D02*
X0032250Y0014350D01*
X0032000Y0014100D02*
X0032500D01*
X0032250Y0016900D02*
X0032000Y0016650D01*
X0032500D02*
X0032250Y0016900D01*
X0032000Y0016650D02*
X0032500D01*
X0023250Y0018500D02*
X0023000Y0018250D01*
X0023500D02*
X0023250Y0018500D01*
X0023000Y0018250D02*
X0023500D01*
X0023320Y0021370D02*
X0023070Y0021120D01*
X0023570D02*
X0023320Y0021370D01*
X0023070Y0021120D02*
X0023570D01*
X0021600Y0018500D02*
X0021350Y0018250D01*
X0021850D02*
X0021600Y0018500D01*
X0021350Y0018250D02*
X0021850D01*
X0022200Y0014900D02*
X0021950Y0014650D01*
X0022450D02*
X0022200Y0014900D01*
X0021950Y0014650D02*
X0022450D01*
X0018150Y0015900D02*
X0017900Y0015650D01*
X0018400D02*
X0018150Y0015900D01*
X0017900Y0015650D02*
X0018400D01*
X0018250Y0014250D02*
X0018000Y0014000D01*
X0018500D02*
X0018250Y0014250D01*
X0018000Y0014000D02*
X0018500D01*
X0014748Y0015898D02*
X0014498Y0015648D01*
X0014998D02*
X0014748Y0015898D01*
X0014498Y0015648D02*
X0014998D01*
X0011950Y0017150D02*
X0011700Y0016900D01*
X0012200D02*
X0011950Y0017150D01*
X0011700Y0016900D02*
X0012200D01*
X0014748Y0015898D02*
X0014498Y0015648D01*
X0014998D02*
X0014748Y0015898D01*
X0014498Y0015648D02*
X0014998D01*
X0030750Y0014350D02*
X0030500Y0014100D01*
X0031000D02*
X0030750Y0014350D01*
X0030500Y0014100D02*
X0031000D01*
X0032250Y0014350D02*
X0032000Y0014100D01*
X0032500D02*
X0032250Y0014350D01*
X0032000Y0014100D02*
X0032500D01*
X0014950Y0015350D02*
X0014700Y0015100D01*
X0015200D02*
X0014950Y0015350D01*
X0014700Y0015100D02*
X0015200D01*
X0026850Y0024750D02*
X0026600Y0024500D01*
X0027100D02*
X0026850Y0024750D01*
X0026600Y0024500D02*
X0027100D01*
X0031500Y0020150D02*
X0031250Y0019900D01*
X0031750D02*
X0031500Y0020150D01*
X0031250Y0019900D02*
X0031750D01*
X0018250Y0014250D02*
X0018000Y0014000D01*
X0018500D02*
X0018250Y0014250D01*
X0018000Y0014000D02*
X0018500D01*
X0022200Y0014900D02*
X0021950Y0014650D01*
X0022450D02*
X0022200Y0014900D01*
X0021950Y0014650D02*
X0022450D01*
X0015020Y0024370D02*
X0014770Y0024120D01*
X0015270D02*
X0015020Y0024370D01*
X0014770Y0024120D02*
X0015270D01*
X0013180Y0024370D02*
X0012930Y0024120D01*
X0013430D02*
X0013180Y0024370D01*
X0012930Y0024120D02*
X0013430D01*
X0014950Y0013950D02*
X0014700Y0013700D01*
X0015200D02*
X0014950Y0013950D01*
X0014700Y0013700D02*
X0015200D01*
X0013020Y0023120D02*
X0012770Y0022870D01*
X0013270D02*
X0013020Y0023120D01*
X0012770Y0022870D02*
X0013270D01*
X0013180Y0024370D02*
X0012930Y0024120D01*
X0013430D02*
X0013180Y0024370D01*
X0012930Y0024120D02*
X0013430D01*
X0000750Y0011950D02*
X0000500Y0011700D01*
X0001000D02*
X0000750Y0011950D01*
X0000500Y0011700D02*
X0001000D01*
X0003900Y0007200D02*
X0003650Y0006950D01*
X0004150D02*
X0003900Y0007200D01*
X0003650Y0006950D02*
X0004150D01*
X0028400Y0009250D02*
X0028150Y0009000D01*
X0028650D02*
X0028400Y0009250D01*
X0028150Y0009000D02*
X0028650D01*
X0023766Y0014884D02*
X0023516Y0014634D01*
X0024016D02*
X0023766Y0014884D01*
X0023516Y0014634D02*
X0024016D01*
X0021500Y0009900D02*
X0021250Y0009650D01*
X0021750D02*
X0021500Y0009900D01*
X0021250Y0009650D02*
X0021750D01*
X0021500Y0015200D02*
X0021250Y0014950D01*
X0021750D02*
X0021500Y0015200D01*
X0021250Y0014950D02*
X0021750D01*
X0021500Y0011650D02*
X0021250Y0011400D01*
X0021750D02*
X0021500Y0011650D01*
X0021250Y0011400D02*
X0021750D01*
X0021500Y0015200D02*
X0021250Y0014950D01*
X0021750D02*
X0021500Y0015200D01*
X0021250Y0014950D02*
X0021750D01*
X0021500Y0015200D02*
X0021250Y0014950D01*
X0021750D02*
X0021500Y0015200D01*
X0021250Y0014950D02*
X0021750D01*
X0021800Y0017300D02*
X0021550Y0017050D01*
X0022050D02*
X0021800Y0017300D01*
X0021550Y0017050D02*
X0022050D01*
X0014970Y0023680D02*
X0014720Y0023430D01*
X0015220D02*
X0014970Y0023680D01*
X0014720Y0023430D02*
X0015220D01*
X0015020Y0024370D02*
X0014770Y0024120D01*
X0015270D02*
X0015020Y0024370D01*
X0014770Y0024120D02*
X0015270D01*
X0021600Y0018500D02*
X0021350Y0018250D01*
X0021850D02*
X0021600Y0018500D01*
X0021350Y0018250D02*
X0021850D01*
X0017620Y0022680D02*
X0017370Y0022430D01*
X0017870D02*
X0017620Y0022680D01*
X0017370Y0022430D02*
X0017870D01*
X0014748Y0015898D02*
X0014498Y0015648D01*
X0014998D02*
X0014748Y0015898D01*
X0014498Y0015648D02*
X0014998D01*
X0014950Y0013950D02*
X0014700Y0013700D01*
X0015200D02*
X0014950Y0013950D01*
X0014700Y0013700D02*
X0015200D01*
X0011500Y0020650D02*
X0011250Y0020400D01*
X0011750D02*
X0011500Y0020650D01*
X0011250Y0020400D02*
X0011750D01*
Y0022900D02*
X0011500Y0022650D01*
X0012000D02*
X0011750Y0022900D01*
X0011500Y0022650D02*
X0012000D01*
X0018150Y0015900D02*
X0017900Y0015650D01*
X0018400D02*
X0018150Y0015900D01*
X0017900Y0015650D02*
X0018400D01*
X0016750Y0015950D02*
X0016500Y0015700D01*
X0017000D02*
X0016750Y0015950D01*
X0016500Y0015700D02*
X0017000D01*
X0024050Y0018100D02*
X0023800Y0017850D01*
X0024300D02*
X0024050Y0018100D01*
X0023800Y0017850D02*
X0024300D01*
X0020600Y0018100D02*
X0020350Y0017850D01*
X0020850D02*
X0020600Y0018100D01*
X0020350Y0017850D02*
X0020850D01*
X0041800Y0015150D02*
X0041550Y0014900D01*
X0042050D02*
X0041800Y0015150D01*
X0041550Y0014900D02*
X0042050D01*
X0040800Y0015150D02*
X0040550Y0014900D01*
X0041050D02*
X0040800Y0015150D01*
X0040550Y0014900D02*
X0041050D01*
X0035200Y0020200D02*
X0034950Y0019950D01*
X0035450D02*
X0035200Y0020200D01*
X0034950Y0019950D02*
X0035450D01*
X0032050Y0022150D02*
X0031800Y0021900D01*
X0032300D02*
X0032050Y0022150D01*
X0031800Y0021900D02*
X0032300D01*
X0011750Y0022900D02*
X0011500Y0022650D01*
X0012000D02*
X0011750Y0022900D01*
X0011500Y0022650D02*
X0012000D01*
X0011750Y0023850D02*
X0011500Y0023600D01*
X0012000D02*
X0011750Y0023850D01*
X0011500Y0023600D02*
X0012000D01*
X0024000Y0013700D02*
X0023750Y0013450D01*
X0024250D02*
X0024000Y0013700D01*
X0023750Y0013450D02*
X0024250D01*
X0012050Y0011800D02*
X0011800Y0011550D01*
X0012300D02*
X0012050Y0011800D01*
X0011800Y0011550D02*
X0012300D01*
X0033850Y0004000D02*
X0033600Y0003750D01*
X0034100D02*
X0033850Y0004000D01*
X0033600Y0003750D02*
X0034100D01*
X0016750Y0013550D02*
X0016500Y0013300D01*
X0017000D02*
X0016750Y0013550D01*
X0016500Y0013300D02*
X0017000D01*
X0016750Y0015400D02*
X0016500Y0015150D01*
X0017000D02*
X0016750Y0015400D01*
X0016500Y0015150D02*
X0017000D01*
X0028900Y0005850D02*
X0028650Y0005600D01*
X0029150D02*
X0028900Y0005850D01*
X0028650Y0005600D02*
X0029150D01*
X0033900Y0007550D02*
X0033650Y0007300D01*
X0034150D02*
X0033900Y0007550D01*
X0033650Y0007300D02*
X0034150D01*
X0033900Y0005700D02*
X0033650Y0005450D01*
X0034150D02*
X0033900Y0005700D01*
X0033650Y0005450D02*
X0034150D01*
X0011500Y0019200D02*
X0011250Y0018950D01*
X0011750D02*
X0011500Y0019200D01*
X0011250Y0018950D02*
X0011750D01*
X0011500Y0020650D02*
X0011250Y0020400D01*
X0011750D02*
X0011500Y0020650D01*
X0011250Y0020400D02*
X0011750D01*
X0004950Y0004900D02*
X0004700Y0004650D01*
X0005200D02*
X0004950Y0004900D01*
X0004700Y0004650D02*
X0005200D01*
X0007600Y0003900D02*
X0007350Y0003650D01*
X0007850D02*
X0007600Y0003900D01*
X0007350Y0003650D02*
X0007850D01*
X0028850Y0007450D02*
X0028600Y0007200D01*
X0029100D02*
X0028850Y0007450D01*
X0028600Y0007200D02*
X0029100D01*
X0018700Y0011750D02*
X0018450Y0011500D01*
X0018950D02*
X0018700Y0011750D01*
X0018450Y0011500D02*
X0018950D01*
X0041250Y0018400D02*
X0041000Y0018150D01*
X0041500D02*
X0041250Y0018400D01*
X0041000Y0018150D02*
X0041500D01*
X0039608Y0022892D02*
X0039358Y0022642D01*
X0039858D02*
X0039608Y0022892D01*
X0039358Y0022642D02*
X0039858D01*
X0027200Y0009350D02*
X0026950Y0009100D01*
X0027450D02*
X0027200Y0009350D01*
X0026950Y0009100D02*
X0027450D01*
X0033900Y0013150D02*
X0033650Y0012900D01*
X0034150D02*
X0033900Y0013150D01*
X0033650Y0012900D02*
X0034150D01*
X0032700Y0020050D02*
X0032450Y0019800D01*
X0032950D02*
X0032700Y0020050D01*
X0032450Y0019800D02*
X0032950D01*
X0015000Y0010650D02*
X0014750Y0010400D01*
X0015250D02*
X0015000Y0010650D01*
X0014750Y0010400D02*
X0015250D01*
X0016050Y0009450D02*
X0015800Y0009200D01*
X0016300D02*
X0016050Y0009450D01*
X0015800Y0009200D02*
X0016300D01*
X0017700Y0015350D02*
X0017450Y0015100D01*
X0017950D02*
X0017700Y0015350D01*
X0017450Y0015100D02*
X0017950D01*
X0021800Y0006350D02*
X0021550Y0006100D01*
X0022050D02*
X0021800Y0006350D01*
X0021550Y0006100D02*
X0022050D01*
X0028850Y0004050D02*
X0028600Y0003800D01*
X0029100D02*
X0028850Y0004050D01*
X0028600Y0003800D02*
X0029100D01*
X0004800Y0013900D02*
X0004550Y0013650D01*
X0005050D02*
X0004800Y0013900D01*
X0004550Y0013650D02*
X0005050D01*
X0007700Y0007350D02*
X0007450Y0007100D01*
X0007950D02*
X0007700Y0007350D01*
X0007450Y0007100D02*
X0007950D01*
X0004850Y0010900D02*
X0004600Y0010650D01*
X0005100D02*
X0004850Y0010900D01*
X0004600Y0010650D02*
X0005100D01*
X0005400Y0020650D02*
X0005150Y0020400D01*
X0005650D02*
X0005400Y0020650D01*
X0005150Y0020400D02*
X0005650D01*
X0003000Y0015400D02*
X0002750Y0015150D01*
X0003250D02*
X0003000Y0015400D01*
X0002750Y0015150D02*
X0003250D01*
X0004500Y0020800D02*
X0004250Y0020550D01*
X0004750D02*
X0004500Y0020800D01*
X0004250Y0020550D02*
X0004750D01*
X0005350Y0021300D02*
X0005100Y0021050D01*
X0005600D02*
X0005350Y0021300D01*
X0005100Y0021050D02*
X0005600D01*
X0006200Y0012650D02*
X0005950Y0012400D01*
X0006450D02*
X0006200Y0012650D01*
X0005950Y0012400D02*
X0006450D01*
X0016850Y0010150D02*
X0016600Y0009900D01*
X0017100D02*
X0016850Y0010150D01*
X0016600Y0009900D02*
X0017100D01*
X0016850Y0009200D02*
X0016600Y0008950D01*
X0017100D02*
X0016850Y0009200D01*
X0016600Y0008950D02*
X0017100D01*
X0027650Y0019270D02*
X0027400Y0019020D01*
X0027900D02*
X0027650Y0019270D01*
X0027400Y0019020D02*
X0027900D01*
X0028300Y0013650D02*
X0028050Y0013400D01*
X0028550D02*
X0028300Y0013650D01*
X0028050Y0013400D02*
X0028550D01*
X0007650Y0020300D02*
X0007400Y0020050D01*
X0007900D02*
X0007650Y0020300D01*
X0007400Y0020050D02*
X0007900D01*
X0007650Y0021150D02*
X0007400Y0020900D01*
X0007900D02*
X0007650Y0021150D01*
X0007400Y0020900D02*
X0007900D01*
X0005400Y0007900D02*
X0005150Y0007650D01*
X0005650D02*
X0005400Y0007900D01*
X0005150Y0007650D02*
X0005650D01*
X0003000Y0011400D02*
X0002750Y0011150D01*
X0003250D02*
X0003000Y0011400D01*
X0002750Y0011150D02*
X0003250D01*
X0004850Y0023900D02*
X0004600Y0023650D01*
X0005100D02*
X0004850Y0023900D01*
X0004600Y0023650D02*
X0005100D01*
X0004950Y0014900D02*
X0004700Y0014650D01*
X0005200D02*
X0004950Y0014900D01*
X0004700Y0014650D02*
X0005200D01*
X0027600Y0019650D02*
X0027350Y0019400D01*
X0027850D02*
X0027600Y0019650D01*
X0027350Y0019400D02*
X0027850D01*
X0030250Y0020150D02*
X0030000Y0019900D01*
X0030500D02*
X0030250Y0020150D01*
X0030000Y0019900D02*
X0030500D01*
X0012050Y0013550D02*
X0011800Y0013300D01*
X0012300D02*
X0012050Y0013550D01*
X0011800Y0013300D02*
X0012300D01*
X0004400Y0005700D02*
X0004150Y0005450D01*
X0004650D02*
X0004400Y0005700D01*
X0004150Y0005450D02*
X0004650D01*
X0001350Y0005700D02*
X0001100Y0005450D01*
X0001600D02*
X0001350Y0005700D01*
X0001100Y0005450D02*
X0001600D01*
X0017120Y0016370D02*
X0016870Y0016120D01*
X0017370D02*
X0017120Y0016370D01*
X0016870Y0016120D02*
X0017370D01*
X0017120Y0012680D02*
X0016870Y0012430D01*
X0017370D02*
X0017120Y0012680D01*
X0016870Y0012430D02*
X0017370D01*
X0005000Y0018150D02*
X0004750Y0017900D01*
X0005250D02*
X0005000Y0018150D01*
X0004750Y0017900D02*
X0005250D01*
X0005000Y0016900D02*
X0004750Y0016650D01*
X0005250D02*
X0005000Y0016900D01*
X0004750Y0016650D02*
X0005250D01*
X0005800Y0018800D02*
X0005550Y0018550D01*
X0006050D02*
X0005800Y0018800D01*
X0005550Y0018550D02*
X0006050D01*
X0004900Y0009900D02*
X0004650Y0009650D01*
X0005150D02*
X0004900Y0009900D01*
X0004650Y0009650D02*
X0005150D01*
X0004700Y0007950D02*
X0004450Y0007700D01*
X0004950D02*
X0004700Y0007950D01*
X0004450Y0007700D02*
X0004950D01*
X0001200Y0016400D02*
X0000950Y0016150D01*
X0001450D02*
X0001200Y0016400D01*
X0000950Y0016150D02*
X0001450D01*
X0003900Y0007200D02*
X0003650Y0006950D01*
X0004150D02*
X0003900Y0007200D01*
X0003650Y0006950D02*
X0004150D01*
X0000750Y0011950D02*
X0000500Y0011700D01*
X0001000D02*
X0000750Y0011950D01*
X0000500Y0011700D02*
X0001000D01*
X0002825Y-0021055D02*
Y-0021255D01*
X0002975Y-0020905D02*
X0002825Y-0021055D01*
X0003175Y-0020905D02*
X0002975D01*
X0003325Y-0021055D02*
X0003175Y-0020905D01*
X0003325Y-0021255D02*
Y-0021055D01*
X0003175Y-0021405D02*
X0003325Y-0021255D01*
X0002975Y-0021405D02*
X0003175D01*
X0002825Y-0021255D02*
X0002975Y-0021405D01*
X0002825Y-0019405D02*
Y-0019655D01*
X0003075Y-0019405D02*
X0002825D01*
X0003075Y-0019905D02*
Y-0019405D01*
X0003325Y-0019905D02*
X0003075D01*
X0003325Y-0019655D02*
Y-0019905D01*
X0002825Y-0019655D02*
X0003325D01*
X0002825Y-0017905D02*
Y-0018405D01*
X0003325Y-0017905D02*
X0002825D01*
X0003325Y-0018405D02*
Y-0017905D01*
X0002825Y-0018405D02*
X0003325D01*
Y-0018155D02*
X0002825D01*
X0003075Y-0017905D02*
Y-0018405D01*
X0002825Y-0016405D02*
Y-0016905D01*
X0003325Y-0016405D02*
X0002825D01*
X0003325Y-0016905D02*
Y-0016405D01*
X0002825Y-0016905D02*
X0003325D01*
Y-0016405D02*
X0002825Y-0016905D01*
X0003325D02*
X0002825Y-0016405D01*
X0003075Y-0014905D02*
X0002825Y-0015155D01*
X0003325D02*
X0003075Y-0014905D01*
Y-0015405D02*
X0003325Y-0015155D01*
X0002825D02*
X0003075Y-0015405D01*
X0003325Y-0013655D02*
X0002825D01*
X0003075Y-0013405D02*
Y-0013905D01*
X0003325Y-0011905D02*
X0002825Y-0012405D01*
X0003325D02*
X0002825Y-0011905D01*
X0003075Y-0010505D02*
X0002825Y-0010755D01*
X0003325D02*
X0003075Y-0010505D01*
X0002825Y-0010755D02*
X0003325D01*
X0038550Y-0023955D02*
X0001200D01*
X0038500Y-0023905D02*
X0001250D01*
X0038500Y-0021905D02*
X0001250D01*
X0038500Y-0020405D02*
X0001250D01*
X0038500Y-0018905D02*
X0001250D01*
X0038500Y-0017405D02*
X0001250D01*
X0038500Y-0015905D02*
X0001250D01*
X0038500Y-0014405D02*
X0001250D01*
X0038500Y-0012905D02*
X0001250D01*
X0038500Y-0011405D02*
X0001250D01*
X0038500Y-0009905D02*
X0001250D01*
X0038500Y-0009855D02*
X0001250D01*
X0038500Y-0007905D02*
X0001250D01*
X0038500Y-0007855D02*
X0001250D01*
X0038500Y-0005905D02*
X0001250D01*
X0038550Y-0005855D02*
X0001200D01*
X0038550Y-0023905D02*
Y-0005905D01*
X0038500Y-0023905D02*
Y-0005905D01*
X0026958Y-0023905D02*
Y-0007905D01*
X0021408Y-0023905D02*
Y-0007905D01*
X0013342Y-0021905D02*
Y-0007905D01*
X0004950Y-0021905D02*
Y-0007905D01*
X0004900Y-0021905D02*
Y-0007905D01*
X0001200Y-0023905D02*
Y-0005905D01*
X0001250Y-0023905D02*
Y-0005905D01*
X0038500Y0011650D02*
X0038250Y0011400D01*
X0038750D02*
X0038500Y0011650D01*
X0038250Y0011400D02*
X0038750D01*
X0039500Y0011650D02*
X0039250Y0011400D01*
X0039750D02*
X0039500Y0011650D01*
X0039250Y0011400D02*
X0039750D01*
X0040500Y0011650D02*
X0040250Y0011400D01*
X0040750D02*
X0040500Y0011650D01*
X0040250Y0011400D02*
X0040750D01*
X0040500Y0010650D02*
X0040250Y0010400D01*
X0040750D02*
X0040500Y0010650D01*
X0040250Y0010400D02*
X0040750D01*
X0039500Y0010650D02*
X0039250Y0010400D01*
X0039750D02*
X0039500Y0010650D01*
X0039250Y0010400D02*
X0039750D01*
X0038500Y0010650D02*
X0038250Y0010400D01*
X0038750D02*
X0038500Y0010650D01*
X0038250Y0010400D02*
X0038750D01*
X0037500Y0010650D02*
X0037250Y0010400D01*
X0037750D02*
X0037500Y0010650D01*
X0037250Y0010400D02*
X0037750D01*
X0037500Y0011650D02*
X0037250Y0011400D01*
X0037750D02*
X0037500Y0011650D01*
X0037250Y0011400D02*
X0037750D01*
X0040500Y0012650D02*
X0040250Y0012400D01*
X0040750D02*
X0040500Y0012650D01*
X0040250Y0012400D02*
X0040750D01*
X0039500Y0012650D02*
X0039250Y0012400D01*
X0039750D02*
X0039500Y0012650D01*
X0039250Y0012400D02*
X0039750D01*
X0038500Y0012650D02*
X0038250Y0012400D01*
X0038750D02*
X0038500Y0012650D01*
X0038250Y0012400D02*
X0038750D01*
X0037500Y0012650D02*
X0037250Y0012400D01*
X0037750D02*
X0037500Y0012650D01*
X0037250Y0012400D02*
X0037750D01*
X0040500Y0013650D02*
X0040250Y0013400D01*
X0040750D02*
X0040500Y0013650D01*
X0040250Y0013400D02*
X0040750D01*
X0039500Y0013650D02*
X0039250Y0013400D01*
X0039750D02*
X0039500Y0013650D01*
X0039250Y0013400D02*
X0039750D01*
X0038500Y0013650D02*
X0038250Y0013400D01*
X0038750D02*
X0038500Y0013650D01*
X0038250Y0013400D02*
X0038750D01*
X0037500Y0013650D02*
X0037250Y0013400D01*
X0037750D02*
X0037500Y0013650D01*
X0037250Y0013400D02*
X0037750D01*
X0014930Y0014400D02*
X0014680Y0014150D01*
X0015180D02*
X0014930Y0014400D01*
X0014680Y0014150D02*
X0015180D01*
X0039750Y0003000D02*
X0039500Y0002750D01*
X0040000D02*
X0039750Y0003000D01*
Y0002500D02*
X0040000Y0002750D01*
X0039500D02*
X0039750Y0002500D01*
X0038750Y0003000D02*
X0038500Y0002750D01*
X0039000D02*
X0038750Y0003000D01*
Y0002500D02*
X0039000Y0002750D01*
X0038500D02*
X0038750Y0002500D01*
X0037750Y0003000D02*
X0037500Y0002750D01*
X0038000D02*
X0037750Y0003000D01*
Y0002500D02*
X0038000Y0002750D01*
X0037500D02*
X0037750Y0002500D01*
X0030258Y0012218D02*
Y0011718D01*
X0030758Y0012218D02*
X0030258D01*
X0030758Y0011718D02*
Y0012218D01*
X0030258Y0011718D02*
X0030758D01*
Y0012218D02*
X0030258Y0011718D01*
X0030758D02*
X0030258Y0012218D01*
Y0011234D02*
Y0010734D01*
X0030758Y0011234D02*
X0030258D01*
X0030758Y0010734D02*
Y0011234D01*
X0030258Y0010734D02*
X0030758D01*
Y0011234D02*
X0030258Y0010734D01*
X0030758D02*
X0030258Y0011234D01*
Y0010250D02*
Y0009750D01*
X0030758Y0010250D02*
X0030258D01*
X0030758Y0009750D02*
Y0010250D01*
X0030258Y0009750D02*
X0030758D01*
Y0010250D02*
X0030258Y0009750D01*
X0030758D02*
X0030258Y0010250D01*
Y0009266D02*
Y0008766D01*
X0030758Y0009266D02*
X0030258D01*
X0030758Y0008766D02*
Y0009266D01*
X0030258Y0008766D02*
X0030758D01*
Y0009266D02*
X0030258Y0008766D01*
X0030758D02*
X0030258Y0009266D01*
Y0008281D02*
Y0007781D01*
X0030758Y0008281D02*
X0030258D01*
X0030758Y0007781D02*
Y0008281D01*
X0030258Y0007781D02*
X0030758D01*
Y0008281D02*
X0030258Y0007781D01*
X0030758D02*
X0030258Y0008281D01*
X0031242D02*
Y0007781D01*
X0031742Y0008281D02*
X0031242D01*
X0031742Y0007781D02*
Y0008281D01*
X0031242Y0007781D02*
X0031742D01*
Y0008281D02*
X0031242Y0007781D01*
X0031742D02*
X0031242Y0008281D01*
X0031770Y0008774D02*
Y0008274D01*
X0032270Y0008774D02*
X0031770D01*
X0032270Y0008274D02*
Y0008774D01*
X0031770Y0008274D02*
X0032270D01*
Y0008524D02*
X0031770D01*
X0032020Y0008774D02*
Y0008274D01*
X0031242Y0012218D02*
Y0011718D01*
X0031742Y0012218D02*
X0031242D01*
X0031742Y0011718D02*
Y0012218D01*
X0031242Y0011718D02*
X0031742D01*
Y0012218D02*
X0031242Y0011718D01*
X0031742D02*
X0031242Y0012218D01*
Y0011234D02*
Y0010734D01*
X0031742Y0011234D02*
X0031242D01*
X0031742Y0010734D02*
Y0011234D01*
X0031242Y0010734D02*
X0031742D01*
Y0011234D02*
X0031242Y0010734D01*
X0031742D02*
X0031242Y0011234D01*
Y0010250D02*
Y0009750D01*
X0031742Y0010250D02*
X0031242D01*
X0031742Y0009750D02*
Y0010250D01*
X0031242Y0009750D02*
X0031742D01*
Y0010250D02*
X0031242Y0009750D01*
X0031742D02*
X0031242Y0010250D01*
Y0009266D02*
Y0008766D01*
X0031742Y0009266D02*
X0031242D01*
X0031742Y0008766D02*
Y0009266D01*
X0031242Y0008766D02*
X0031742D01*
Y0009266D02*
X0031242Y0008766D01*
X0031742D02*
X0031242Y0009266D01*
X0037508Y0018492D02*
Y0017992D01*
X0038008Y0018492D02*
X0037508D01*
X0038008Y0017992D02*
Y0018492D01*
X0037508Y0017992D02*
X0038008D01*
Y0018492D02*
X0037508Y0017992D01*
X0038008D02*
X0037508Y0018492D01*
Y0017508D02*
Y0017008D01*
X0038008Y0017508D02*
X0037508D01*
X0038008Y0017008D02*
Y0017508D01*
X0037508Y0017008D02*
X0038008D01*
Y0017508D02*
X0037508Y0017008D01*
X0038008D02*
X0037508Y0017508D01*
X0038378Y0016653D02*
Y0016403D01*
X0038628Y0016653D02*
X0038378D01*
X0038628Y0016153D02*
Y0016653D01*
X0038878Y0016153D02*
X0038628D01*
X0038878Y0016403D02*
Y0016153D01*
X0038378Y0016403D02*
X0038878D01*
X0038492Y0017508D02*
Y0017008D01*
X0038992Y0017508D02*
X0038492D01*
X0038992Y0017008D02*
Y0017508D01*
X0038492Y0017008D02*
X0038992D01*
Y0017508D02*
X0038492Y0017008D01*
X0038992D02*
X0038492Y0017508D01*
Y0018492D02*
Y0017992D01*
X0038992Y0018492D02*
X0038492D01*
X0038992Y0017992D02*
Y0018492D01*
X0038492Y0017992D02*
X0038992D01*
Y0018492D02*
X0038492Y0017992D01*
X0038992D02*
X0038492Y0018492D01*
X0038378Y0019346D02*
Y0019096D01*
X0038628Y0019346D02*
X0038378D01*
X0038628Y0018846D02*
Y0019346D01*
X0038878Y0018846D02*
X0038628D01*
X0038878Y0019096D02*
Y0018846D01*
X0038378Y0019096D02*
X0038878D01*
X0030258Y0005468D02*
Y0004968D01*
X0030758Y0005468D02*
X0030258D01*
X0030758Y0004968D02*
Y0005468D01*
X0030258Y0004968D02*
X0030758D01*
Y0005468D02*
X0030258Y0004968D01*
X0030758D02*
X0030258Y0005468D01*
Y0004484D02*
Y0003984D01*
X0030758Y0004484D02*
X0030258D01*
X0030758Y0003984D02*
Y0004484D01*
X0030258Y0003984D02*
X0030758D01*
Y0004484D02*
X0030258Y0003984D01*
X0030758D02*
X0030258Y0004484D01*
Y0003500D02*
Y0003000D01*
X0030758Y0003500D02*
X0030258D01*
X0030758Y0003000D02*
Y0003500D01*
X0030258Y0003000D02*
X0030758D01*
Y0003500D02*
X0030258Y0003000D01*
X0030758D02*
X0030258Y0003500D01*
Y0002516D02*
Y0002016D01*
X0030758Y0002516D02*
X0030258D01*
X0030758Y0002016D02*
Y0002516D01*
X0030258Y0002016D02*
X0030758D01*
Y0002516D02*
X0030258Y0002016D01*
X0030758D02*
X0030258Y0002516D01*
Y0001531D02*
Y0001031D01*
X0030758Y0001531D02*
X0030258D01*
X0030758Y0001031D02*
Y0001531D01*
X0030258Y0001031D02*
X0030758D01*
Y0001531D02*
X0030258Y0001031D01*
X0030758D02*
X0030258Y0001531D01*
X0031242D02*
Y0001031D01*
X0031742Y0001531D02*
X0031242D01*
X0031742Y0001031D02*
Y0001531D01*
X0031242Y0001031D02*
X0031742D01*
Y0001531D02*
X0031242Y0001031D01*
X0031742D02*
X0031242Y0001531D01*
X0031770Y0002024D02*
Y0001524D01*
X0032270Y0002024D02*
X0031770D01*
X0032270Y0001524D02*
Y0002024D01*
X0031770Y0001524D02*
X0032270D01*
Y0001774D02*
X0031770D01*
X0032020Y0002024D02*
Y0001524D01*
X0031242Y0005468D02*
Y0004968D01*
X0031742Y0005468D02*
X0031242D01*
X0031742Y0004968D02*
Y0005468D01*
X0031242Y0004968D02*
X0031742D01*
Y0005468D02*
X0031242Y0004968D01*
X0031742D02*
X0031242Y0005468D01*
Y0004484D02*
Y0003984D01*
X0031742Y0004484D02*
X0031242D01*
X0031742Y0003984D02*
Y0004484D01*
X0031242Y0003984D02*
X0031742D01*
Y0004484D02*
X0031242Y0003984D01*
X0031742D02*
X0031242Y0004484D01*
Y0003500D02*
Y0003000D01*
X0031742Y0003500D02*
X0031242D01*
X0031742Y0003000D02*
Y0003500D01*
X0031242Y0003000D02*
X0031742D01*
Y0003500D02*
X0031242Y0003000D01*
X0031742D02*
X0031242Y0003500D01*
Y0002516D02*
Y0002016D01*
X0031742Y0002516D02*
X0031242D01*
X0031742Y0002016D02*
Y0002516D01*
X0031242Y0002016D02*
X0031742D01*
Y0002516D02*
X0031242Y0002016D01*
X0031742D02*
X0031242Y0002516D01*
X0019910Y0005771D02*
X0019660Y0005521D01*
X0020160D02*
X0019910Y0005771D01*
Y0005271D02*
X0020160Y0005521D01*
X0019660D02*
X0019910Y0005271D01*
Y0004590D02*
X0019660Y0004340D01*
X0020160D02*
X0019910Y0004590D01*
Y0004090D02*
X0020160Y0004340D01*
X0019660D02*
X0019910Y0004090D01*
Y0003410D02*
X0019660Y0003160D01*
X0020160D02*
X0019910Y0003410D01*
Y0002910D02*
X0020160Y0003160D01*
X0019660D02*
X0019910Y0002910D01*
Y0002228D02*
X0019660Y0001978D01*
X0020160D02*
X0019910Y0002228D01*
Y0001728D02*
X0020160Y0001978D01*
X0019660D02*
X0019910Y0001728D01*
X0021710Y0000797D02*
X0021210D01*
X0021460Y0001047D02*
Y0000547D01*
X0021710Y0006703D02*
X0021210D01*
X0021460Y0006953D02*
Y0006453D01*
X0021090Y0005771D02*
X0020840Y0005521D01*
X0021340D02*
X0021090Y0005771D01*
Y0005271D02*
X0021340Y0005521D01*
X0020840D02*
X0021090Y0005271D01*
Y0004590D02*
X0020840Y0004340D01*
X0021340D02*
X0021090Y0004590D01*
Y0004090D02*
X0021340Y0004340D01*
X0020840D02*
X0021090Y0004090D01*
Y0003410D02*
X0020840Y0003160D01*
X0021340D02*
X0021090Y0003410D01*
Y0002910D02*
X0021340Y0003160D01*
X0020840D02*
X0021090Y0002910D01*
Y0002228D02*
X0020840Y0001978D01*
X0021340D02*
X0021090Y0002228D01*
Y0001728D02*
X0021340Y0001978D01*
X0020840D02*
X0021090Y0001728D01*
X0037508Y0022992D02*
Y0022492D01*
X0038008Y0022992D02*
X0037508D01*
X0038008Y0022492D02*
Y0022992D01*
X0037508Y0022492D02*
X0038008D01*
Y0022992D02*
X0037508Y0022492D01*
X0038008D02*
X0037508Y0022992D01*
Y0022008D02*
Y0021508D01*
X0038008Y0022008D02*
X0037508D01*
X0038008Y0021508D02*
Y0022008D01*
X0037508Y0021508D02*
X0038008D01*
Y0022008D02*
X0037508Y0021508D01*
X0038008D02*
X0037508Y0022008D01*
X0038378Y0021153D02*
Y0020903D01*
X0038628Y0021153D02*
X0038378D01*
X0038628Y0020653D02*
Y0021153D01*
X0038878Y0020653D02*
X0038628D01*
X0038878Y0020903D02*
Y0020653D01*
X0038378Y0020903D02*
X0038878D01*
X0038492Y0022008D02*
Y0021508D01*
X0038992Y0022008D02*
X0038492D01*
X0038992Y0021508D02*
Y0022008D01*
X0038492Y0021508D02*
X0038992D01*
Y0022008D02*
X0038492Y0021508D01*
X0038992D02*
X0038492Y0022008D01*
Y0022992D02*
Y0022492D01*
X0038992Y0022992D02*
X0038492D01*
X0038992Y0022492D02*
Y0022992D01*
X0038492Y0022492D02*
X0038992D01*
Y0022992D02*
X0038492Y0022492D01*
X0038992D02*
X0038492Y0022992D01*
X0038378Y0023846D02*
Y0023596D01*
X0038628Y0023846D02*
X0038378D01*
X0038628Y0023346D02*
Y0023846D01*
X0038878Y0023346D02*
X0038628D01*
X0038878Y0023596D02*
Y0023346D01*
X0038378Y0023596D02*
X0038878D01*
X0032758Y0023484D02*
Y0022984D01*
X0033258Y0023484D02*
X0032758D01*
X0033258Y0022984D02*
Y0023484D01*
X0032758Y0022984D02*
X0033258D01*
Y0023484D02*
X0032758Y0022984D01*
X0033258D02*
X0032758Y0023484D01*
Y0022500D02*
Y0022000D01*
X0033258Y0022500D02*
X0032758D01*
X0033258Y0022000D02*
Y0022500D01*
X0032758Y0022000D02*
X0033258D01*
Y0022500D02*
X0032758Y0022000D01*
X0033258D02*
X0032758Y0022500D01*
Y0021516D02*
Y0021016D01*
X0033258Y0021516D02*
X0032758D01*
X0033258Y0021016D02*
Y0021516D01*
X0032758Y0021016D02*
X0033258D01*
Y0021516D02*
X0032758Y0021016D01*
X0033258D02*
X0032758Y0021516D01*
X0033628Y0020661D02*
Y0020411D01*
X0033878Y0020661D02*
X0033628D01*
X0033878Y0020161D02*
Y0020661D01*
X0034128Y0020161D02*
X0033878D01*
X0034128Y0020411D02*
Y0020161D01*
X0033628Y0020411D02*
X0034128D01*
X0033742Y0021516D02*
Y0021016D01*
X0034242Y0021516D02*
X0033742D01*
X0034242Y0021016D02*
Y0021516D01*
X0033742Y0021016D02*
X0034242D01*
Y0021516D02*
X0033742Y0021016D01*
X0034242D02*
X0033742Y0021516D01*
Y0022500D02*
Y0022000D01*
X0034242Y0022500D02*
X0033742D01*
X0034242Y0022000D02*
Y0022500D01*
X0033742Y0022000D02*
X0034242D01*
Y0022500D02*
X0033742Y0022000D01*
X0034242D02*
X0033742Y0022500D01*
Y0023484D02*
Y0022984D01*
X0034242Y0023484D02*
X0033742D01*
X0034242Y0022984D02*
Y0023484D01*
X0033742Y0022984D02*
X0034242D01*
Y0023484D02*
X0033742Y0022984D01*
X0034242D02*
X0033742Y0023484D01*
X0033628Y0024338D02*
Y0024088D01*
X0033878Y0024338D02*
X0033628D01*
X0033878Y0023838D02*
Y0024338D01*
X0034128Y0023838D02*
X0033878D01*
X0034128Y0024088D02*
Y0023838D01*
X0033628Y0024088D02*
X0034128D01*
X0019508Y0024211D02*
Y0023711D01*
X0020008Y0024211D02*
X0019508D01*
X0020008Y0023711D02*
Y0024211D01*
X0019508Y0023711D02*
X0020008D01*
Y0024211D02*
X0019508Y0023711D01*
X0020008D02*
X0019508Y0024211D01*
Y0023226D02*
Y0022726D01*
X0020008Y0023226D02*
X0019508D01*
X0020008Y0022726D02*
Y0023226D01*
X0019508Y0022726D02*
X0020008D01*
Y0023226D02*
X0019508Y0022726D01*
X0020008D02*
X0019508Y0023226D01*
Y0022242D02*
Y0021742D01*
X0020008Y0022242D02*
X0019508D01*
X0020008Y0021742D02*
Y0022242D01*
X0019508Y0021742D02*
X0020008D01*
Y0022242D02*
X0019508Y0021742D01*
X0020008D02*
X0019508Y0022242D01*
Y0021258D02*
Y0020758D01*
X0020008Y0021258D02*
X0019508D01*
X0020008Y0020758D02*
Y0021258D01*
X0019508Y0020758D02*
X0020008D01*
Y0021258D02*
X0019508Y0020758D01*
X0020008D02*
X0019508Y0021258D01*
Y0020274D02*
Y0019774D01*
X0020008Y0020274D02*
X0019508D01*
X0020008Y0019774D02*
Y0020274D01*
X0019508Y0019774D02*
X0020008D01*
Y0020274D02*
X0019508Y0019774D01*
X0020008D02*
X0019508Y0020274D01*
Y0019289D02*
Y0018789D01*
X0020008Y0019289D02*
X0019508D01*
X0020008Y0018789D02*
Y0019289D01*
X0019508Y0018789D02*
X0020008D01*
Y0019289D02*
X0019508Y0018789D01*
X0020008D02*
X0019508Y0019289D01*
X0020492D02*
Y0018789D01*
X0020992Y0019289D02*
X0020492D01*
X0020992Y0018789D02*
Y0019289D01*
X0020492Y0018789D02*
X0020992D01*
Y0019289D02*
X0020492Y0018789D01*
X0020992D02*
X0020492Y0019289D01*
X0021020Y0021750D02*
Y0021250D01*
X0021520Y0021750D02*
X0021020D01*
X0021520Y0021250D02*
Y0021750D01*
X0021020Y0021250D02*
X0021520D01*
Y0021500D02*
X0021020D01*
X0021270Y0021750D02*
Y0021250D01*
X0020492Y0024211D02*
Y0023711D01*
X0020992Y0024211D02*
X0020492D01*
X0020992Y0023711D02*
Y0024211D01*
X0020492Y0023711D02*
X0020992D01*
Y0024211D02*
X0020492Y0023711D01*
X0020992D02*
X0020492Y0024211D01*
Y0023226D02*
Y0022726D01*
X0020992Y0023226D02*
X0020492D01*
X0020992Y0022726D02*
Y0023226D01*
X0020492Y0022726D02*
X0020992D01*
Y0023226D02*
X0020492Y0022726D01*
X0020992D02*
X0020492Y0023226D01*
Y0022242D02*
Y0021742D01*
X0020992Y0022242D02*
X0020492D01*
X0020992Y0021742D02*
Y0022242D01*
X0020492Y0021742D02*
X0020992D01*
Y0022242D02*
X0020492Y0021742D01*
X0020992D02*
X0020492Y0022242D01*
Y0021258D02*
Y0020758D01*
X0020992Y0021258D02*
X0020492D01*
X0020992Y0020758D02*
Y0021258D01*
X0020492Y0020758D02*
X0020992D01*
Y0021258D02*
X0020492Y0020758D01*
X0020992D02*
X0020492Y0021258D01*
Y0020274D02*
Y0019774D01*
X0020992Y0020274D02*
X0020492D01*
X0020992Y0019774D02*
Y0020274D01*
X0020492Y0019774D02*
X0020992D01*
Y0020274D02*
X0020492Y0019774D01*
X0020992D02*
X0020492Y0020274D01*
X0024758Y0016953D02*
Y0016453D01*
X0025258Y0016953D02*
X0024758D01*
X0025258Y0016453D02*
Y0016953D01*
X0024758Y0016453D02*
X0025258D01*
Y0016953D02*
X0024758Y0016453D01*
X0025258D02*
X0024758Y0016953D01*
Y0015968D02*
Y0015468D01*
X0025258Y0015968D02*
X0024758D01*
X0025258Y0015468D02*
Y0015968D01*
X0024758Y0015468D02*
X0025258D01*
Y0015968D02*
X0024758Y0015468D01*
X0025258D02*
X0024758Y0015968D01*
Y0014984D02*
Y0014484D01*
X0025258Y0014984D02*
X0024758D01*
X0025258Y0014484D02*
Y0014984D01*
X0024758Y0014484D02*
X0025258D01*
Y0014984D02*
X0024758Y0014484D01*
X0025258D02*
X0024758Y0014984D01*
Y0014000D02*
Y0013500D01*
X0025258Y0014000D02*
X0024758D01*
X0025258Y0013500D02*
Y0014000D01*
X0024758Y0013500D02*
X0025258D01*
Y0014000D02*
X0024758Y0013500D01*
X0025258D02*
X0024758Y0014000D01*
Y0013016D02*
Y0012516D01*
X0025258Y0013016D02*
X0024758D01*
X0025258Y0012516D02*
Y0013016D01*
X0024758Y0012516D02*
X0025258D01*
Y0013016D02*
X0024758Y0012516D01*
X0025258D02*
X0024758Y0013016D01*
Y0012031D02*
Y0011531D01*
X0025258Y0012031D02*
X0024758D01*
X0025258Y0011531D02*
Y0012031D01*
X0024758Y0011531D02*
X0025258D01*
Y0012031D02*
X0024758Y0011531D01*
X0025258D02*
X0024758Y0012031D01*
Y0011047D02*
Y0010547D01*
X0025258Y0011047D02*
X0024758D01*
X0025258Y0010547D02*
Y0011047D01*
X0024758Y0010547D02*
X0025258D01*
Y0011047D02*
X0024758Y0010547D01*
X0025258D02*
X0024758Y0011047D01*
X0025742D02*
Y0010547D01*
X0026242Y0011047D02*
X0025742D01*
X0026242Y0010547D02*
Y0011047D01*
X0025742Y0010547D02*
X0026242D01*
Y0011047D02*
X0025742Y0010547D01*
X0026242D02*
X0025742Y0011047D01*
X0026270Y0011539D02*
Y0011039D01*
X0026770Y0011539D02*
X0026270D01*
X0026770Y0011039D02*
Y0011539D01*
X0026270Y0011039D02*
X0026770D01*
Y0011289D02*
X0026270D01*
X0026520Y0011539D02*
Y0011039D01*
X0025742Y0016953D02*
Y0016453D01*
X0026242Y0016953D02*
X0025742D01*
X0026242Y0016453D02*
Y0016953D01*
X0025742Y0016453D02*
X0026242D01*
Y0016953D02*
X0025742Y0016453D01*
X0026242D02*
X0025742Y0016953D01*
Y0015968D02*
Y0015468D01*
X0026242Y0015968D02*
X0025742D01*
X0026242Y0015468D02*
Y0015968D01*
X0025742Y0015468D02*
X0026242D01*
Y0015968D02*
X0025742Y0015468D01*
X0026242D02*
X0025742Y0015968D01*
Y0014984D02*
Y0014484D01*
X0026242Y0014984D02*
X0025742D01*
X0026242Y0014484D02*
Y0014984D01*
X0025742Y0014484D02*
X0026242D01*
Y0014984D02*
X0025742Y0014484D01*
X0026242D02*
X0025742Y0014984D01*
Y0014000D02*
Y0013500D01*
X0026242Y0014000D02*
X0025742D01*
X0026242Y0013500D02*
Y0014000D01*
X0025742Y0013500D02*
X0026242D01*
Y0014000D02*
X0025742Y0013500D01*
X0026242D02*
X0025742Y0014000D01*
Y0013016D02*
Y0012516D01*
X0026242Y0013016D02*
X0025742D01*
X0026242Y0012516D02*
Y0013016D01*
X0025742Y0012516D02*
X0026242D01*
Y0013016D02*
X0025742Y0012516D01*
X0026242D02*
X0025742Y0013016D01*
Y0012031D02*
Y0011531D01*
X0026242Y0012031D02*
X0025742D01*
X0026242Y0011531D02*
Y0012031D01*
X0025742Y0011531D02*
X0026242D01*
Y0012031D02*
X0025742Y0011531D01*
X0026242D02*
X0025742Y0012031D01*
X0043356Y0020074D02*
X0042856Y0019574D01*
X0043356D02*
X0042856Y0020074D01*
X0044143D02*
X0043643Y0019574D01*
X0044143D02*
X0043643Y0020074D01*
X0043356Y0019287D02*
X0042856Y0018787D01*
X0043356D02*
X0042856Y0019287D01*
X0044143D02*
X0043643Y0018787D01*
X0044143D02*
X0043643Y0019287D01*
X0043356Y0018500D02*
X0042856Y0018000D01*
X0043356D02*
X0042856Y0018500D01*
X0044143D02*
X0043643Y0018000D01*
X0044143D02*
X0043643Y0018500D01*
X0043356Y0017713D02*
X0042856Y0017213D01*
X0043356D02*
X0042856Y0017713D01*
X0044143D02*
X0043643Y0017213D01*
X0044143D02*
X0043643Y0017713D01*
X0043356Y0016925D02*
X0042856Y0016425D01*
X0043356D02*
X0042856Y0016925D01*
X0044143D02*
X0043643Y0016425D01*
X0044143D02*
X0043643Y0016925D01*
X0028008Y0023976D02*
Y0023476D01*
X0028508Y0023976D02*
X0028008D01*
X0028508Y0023476D02*
Y0023976D01*
X0028008Y0023476D02*
X0028508D01*
Y0023976D02*
X0028008Y0023476D01*
X0028508D02*
X0028008Y0023976D01*
Y0022992D02*
Y0022492D01*
X0028508Y0022992D02*
X0028008D01*
X0028508Y0022492D02*
Y0022992D01*
X0028008Y0022492D02*
X0028508D01*
Y0022992D02*
X0028008Y0022492D01*
X0028508D02*
X0028008Y0022992D01*
Y0022008D02*
Y0021508D01*
X0028508Y0022008D02*
X0028008D01*
X0028508Y0021508D02*
Y0022008D01*
X0028008Y0021508D02*
X0028508D01*
Y0022008D02*
X0028008Y0021508D01*
X0028508D02*
X0028008Y0022008D01*
Y0021024D02*
Y0020524D01*
X0028508Y0021024D02*
X0028008D01*
X0028508Y0020524D02*
Y0021024D01*
X0028008Y0020524D02*
X0028508D01*
Y0021024D02*
X0028008Y0020524D01*
X0028508D02*
X0028008Y0021024D01*
X0028992D02*
Y0020524D01*
X0029492Y0021024D02*
X0028992D01*
X0029492Y0020524D02*
Y0021024D01*
X0028992Y0020524D02*
X0029492D01*
Y0021024D02*
X0028992Y0020524D01*
X0029492D02*
X0028992Y0021024D01*
X0029520Y0022500D02*
Y0022000D01*
X0030020Y0022500D02*
X0029520D01*
X0030020Y0022000D02*
Y0022500D01*
X0029520Y0022000D02*
X0030020D01*
Y0022250D02*
X0029520D01*
X0029770Y0022500D02*
Y0022000D01*
X0028992Y0023976D02*
Y0023476D01*
X0029492Y0023976D02*
X0028992D01*
X0029492Y0023476D02*
Y0023976D01*
X0028992Y0023476D02*
X0029492D01*
Y0023976D02*
X0028992Y0023476D01*
X0029492D02*
X0028992Y0023976D01*
Y0022992D02*
Y0022492D01*
X0029492Y0022992D02*
X0028992D01*
X0029492Y0022492D02*
Y0022992D01*
X0028992Y0022492D02*
X0029492D01*
Y0022992D02*
X0028992Y0022492D01*
X0029492D02*
X0028992Y0022992D01*
Y0022008D02*
Y0021508D01*
X0029492Y0022008D02*
X0028992D01*
X0029492Y0021508D02*
Y0022008D01*
X0028992Y0021508D02*
X0029492D01*
Y0022008D02*
X0028992Y0021508D01*
X0029492D02*
X0028992Y0022008D01*
X0043000Y0015346D02*
Y0015096D01*
X0043250Y0015346D02*
X0043000D01*
X0043250Y0014846D02*
Y0015346D01*
X0043500Y0014846D02*
X0043250D01*
X0043500Y0015096D02*
Y0014846D01*
X0043000Y0015096D02*
X0043500D01*
X0043000Y0014492D02*
Y0013992D01*
X0043500Y0014492D02*
X0043000D01*
X0043500Y0013992D02*
Y0014492D01*
X0043000Y0013992D02*
X0043500D01*
Y0014492D02*
X0043000Y0013992D01*
X0043500D02*
X0043000Y0014492D01*
Y0013508D02*
Y0013008D01*
X0043500Y0013508D02*
X0043000D01*
X0043500Y0013008D02*
Y0013508D01*
X0043000Y0013008D02*
X0043500D01*
Y0013508D02*
X0043000Y0013008D01*
X0043500D02*
X0043000Y0013508D01*
Y0012653D02*
Y0012403D01*
X0043250Y0012653D02*
X0043000D01*
X0043250Y0012153D02*
Y0012653D01*
X0043500Y0012153D02*
X0043250D01*
X0043500Y0012403D02*
Y0012153D01*
X0043000Y0012403D02*
X0043500D01*
X0043527Y0014000D02*
Y0013500D01*
X0044027Y0014000D02*
X0043527D01*
X0044027Y0013500D02*
Y0014000D01*
X0043527Y0013500D02*
X0044027D01*
Y0013750D02*
X0043527D01*
X0043777Y0014000D02*
Y0013500D01*
X0024553Y0023722D02*
Y0023522D01*
X0024703Y0023872D02*
X0024553Y0023722D01*
X0024903Y0023872D02*
X0024703D01*
X0025053Y0023722D02*
X0024903Y0023872D01*
X0025053Y0023522D02*
Y0023722D01*
X0024903Y0023372D02*
X0025053Y0023522D01*
X0024703Y0023372D02*
X0024903D01*
X0024553Y0023522D02*
X0024703Y0023372D01*
X0001718Y0002068D02*
Y0001868D01*
X0001868Y0002218D02*
X0001718Y0002068D01*
X0002068Y0002218D02*
X0001868D01*
X0002218Y0002068D02*
X0002068Y0002218D01*
X0002218Y0001868D02*
Y0002068D01*
X0002068Y0001718D02*
X0002218Y0001868D01*
X0001868Y0001718D02*
X0002068D01*
X0001718Y0001868D02*
X0001868Y0001718D01*
X0024553Y0002068D02*
Y0001868D01*
X0024703Y0002218D02*
X0024553Y0002068D01*
X0024903Y0002218D02*
X0024703D01*
X0025053Y0002068D02*
X0024903Y0002218D01*
X0025053Y0001868D02*
Y0002068D01*
X0024903Y0001718D02*
X0025053Y0001868D01*
X0024703Y0001718D02*
X0024903D01*
X0024553Y0001868D02*
X0024703Y0001718D01*
X0043057Y0002068D02*
Y0001868D01*
X0043207Y0002218D02*
X0043057Y0002068D01*
X0043407Y0002218D02*
X0043207D01*
X0043557Y0002068D02*
X0043407Y0002218D01*
X0043557Y0001868D02*
Y0002068D01*
X0043407Y0001718D02*
X0043557Y0001868D01*
X0043207Y0001718D02*
X0043407D01*
X0043057Y0001868D02*
X0043207Y0001718D01*
X0043057Y0023722D02*
Y0023522D01*
X0043207Y0023872D02*
X0043057Y0023722D01*
X0043407Y0023872D02*
X0043207D01*
X0043557Y0023722D02*
X0043407Y0023872D01*
X0043557Y0023522D02*
Y0023722D01*
X0043407Y0023372D02*
X0043557Y0023522D01*
X0043207Y0023372D02*
X0043407D01*
X0043057Y0023522D02*
X0043207Y0023372D01*
X0001718Y0023722D02*
Y0023522D01*
X0001868Y0023872D02*
X0001718Y0023722D01*
X0002068Y0023872D02*
X0001868D01*
X0002218Y0023722D02*
X0002068Y0023872D01*
X0002218Y0023522D02*
Y0023722D01*
X0002068Y0023372D02*
X0002218Y0023522D01*
X0001868Y0023372D02*
X0002068D01*
X0001718Y0023522D02*
X0001868Y0023372D01*
G54D49*
G01X0001250Y0000000D02*
X0000069D01*
Y0025588D01*
X0045341D01*
Y0000000D01*
X0001250D01*
M02*
