*
G04 Mass Parameters ***
*
G04 Image ***
*
%IND:\UTENTI\00.LAVORI IN CORSO\METALTRONICA\22-305-0\22-305-0.SPT*%
%ICAS*%
%MOIN*%
%IPPOS*%
%ASAXBY*%
G74*%FSLAN2X34Y34*%
*
G04 Aperture Definitions ***
*
%ADD10R,0.0380X0.0320*%
%ADD11R,0.0320X0.0380*%
%ADD12R,0.0905X0.0886*%
%ADD13R,0.0510X0.1024*%
%ADD14R,0.0197X0.0315*%
%ADD15R,0.0501X0.0404*%
%ADD16R,0.0404X0.0501*%
%ADD17C,0.2756*%
%ADD18R,0.1220X0.0905*%
%ADD19R,0.1200X0.0600*%
%ADD20C,0.0512*%
%ADD21C,0.0866*%
%ADD22C,0.0669*%
%ADD23O,0.0787X0.0630*%
%ADD24C,0.0610*%
%ADD25R,0.0610X0.0610*%
%ADD26O,0.1181X0.0787*%
%ADD27R,0.0669X0.0669*%
%ADD28C,0.0787*%
%ADD29C,0.0433*%
%ADD30R,0.0787X0.0787*%
%ADD31C,0.0187*%
%ADD32R,0.0710X0.0400*%
%ADD33R,0.0400X0.0710*%
%ADD34R,0.0850X0.1080*%
%ADD35R,0.0354X0.0512*%
%ADD36R,0.0512X0.0354*%
%ADD37R,0.0315X0.0236*%
%ADD38R,0.0512X0.0236*%
%ADD39R,0.3701X0.4252*%
%ADD40R,0.1811X0.0531*%
%ADD41C,0.0800*%
%ADD42C,0.0276*%
%ADD43C,0.0394*%
%ADD44C,0.0050*%
%ADD45C,0.0100*%
%ADD46C,0.0120*%
%ADD47C,0.0250*%
%ADD48C,0.0276*%
%ADD49C,0.0500*%
%ADD50C,0.0150*%
%ADD51C,0.0400*%
%ADD52C,0.0060*%
%ADD53C,0.0276*%
%ADD54C,0.0590*%
%ADD55C,0.0709*%
%ADD56R,0.1772X0.0492*%
%ADD57C,0.0039*%
*
G04 Plot Data ***
*
G54D44*
G01X0043190Y0006463D02*
Y0006215D01*
X0043145Y0006463D02*
Y0006194D01*
X0043100Y0006463D02*
Y0006169D01*
X0043055Y0006463D02*
Y0006141D01*
X0043010Y0006463D02*
Y0006108D01*
X0042965Y0006463D02*
Y0006070D01*
X0042920Y0006463D02*
Y0006025D01*
X0042875Y0006463D02*
Y0005973D01*
X0042830Y0006463D02*
Y0005911D01*
X0042785Y0006463D02*
Y0005843D01*
X0042740Y0006463D02*
Y0005843D01*
X0042695Y0006463D02*
Y0005843D01*
X0042650Y0006463D02*
Y0005843D01*
X0042605Y0006463D02*
Y0005843D01*
X0042560Y0006453D02*
Y0005843D01*
X0044470Y0006423D02*
X0042530D01*
X0044480Y0006378D02*
X0042520D01*
X0044480Y0006333D02*
X0042520D01*
X0044480Y0006288D02*
X0042520D01*
X0043263Y0006243D02*
X0042520D01*
X0043153Y0006198D02*
X0042520D01*
X0043073Y0006153D02*
X0042520D01*
X0043010Y0006108D02*
X0042520D01*
X0042958Y0006063D02*
X0042520D01*
X0042913Y0006018D02*
X0042520D01*
X0042874Y0005973D02*
X0042520D01*
X0042841Y0005928D02*
X0042520D01*
X0044450Y0006446D02*
Y0005843D01*
X0044405Y0006463D02*
Y0005843D01*
X0044360Y0006463D02*
Y0005843D01*
X0044315Y0006463D02*
Y0005843D01*
X0044270Y0006463D02*
Y0005843D01*
X0044225Y0006463D02*
Y0005843D01*
X0044180Y0006463D02*
Y0005890D01*
X0044135Y0006463D02*
Y0005960D01*
X0044090Y0006463D02*
Y0006017D01*
X0044045Y0006463D02*
Y0006065D01*
X0044000Y0006463D02*
Y0006105D01*
X0043955Y0006463D02*
Y0006139D01*
X0043910Y0006463D02*
Y0006169D01*
X0043865Y0006463D02*
Y0006195D01*
X0043820Y0006463D02*
Y0006216D01*
X0043775Y0006463D02*
Y0006235D01*
X0043730Y0006463D02*
Y0006250D01*
X0043685Y0006463D02*
Y0006262D01*
X0043640Y0006463D02*
Y0006271D01*
X0043595Y0006463D02*
Y0006278D01*
X0043550Y0006463D02*
Y0006282D01*
X0043505Y0006463D02*
Y0006283D01*
X0043460Y0006463D02*
Y0006281D01*
X0043415Y0006463D02*
Y0006277D01*
X0043370Y0006463D02*
Y0006270D01*
X0043325Y0006463D02*
Y0006260D01*
X0043280Y0006463D02*
Y0006248D01*
X0043235Y0006463D02*
Y0006233D01*
X0044480Y0006243D02*
X0043751D01*
X0044480Y0006198D02*
X0043858D01*
X0044480Y0006153D02*
X0043935D01*
X0044480Y0006108D02*
X0043996D01*
X0044480Y0006063D02*
X0044047D01*
X0044480Y0006018D02*
X0044089D01*
X0044480Y0005973D02*
X0044126D01*
X0044480Y0005928D02*
X0044157D01*
X0044480Y0005883D02*
X0044184D01*
X0042812D02*
X0042520D01*
X0044200Y0005853D02*
X0044210Y0005843D01*
X0044480D02*
X0044210D01*
X0044480Y0006383D02*
Y0005843D01*
Y0006385D02*
Y0006383D01*
X0044400Y0006463D02*
X0042600D01*
X0042598D01*
X0042520Y0006383D02*
Y0005843D01*
X0042790D02*
X0042520D01*
X0043505Y0006283D02*
X0043500D01*
X0043193Y0004764D02*
Y0004521D01*
X0043148Y0004785D02*
Y0004521D01*
X0043103Y0004809D02*
Y0004521D01*
X0043058Y0004838D02*
Y0004521D01*
X0043013Y0004871D02*
Y0004521D01*
X0042968Y0004910D02*
Y0004521D01*
X0042923Y0004956D02*
Y0004521D01*
X0042878Y0005010D02*
Y0004521D01*
X0042833Y0005077D02*
Y0004521D01*
X0042788Y0005141D02*
Y0004521D01*
X0042743Y0005141D02*
Y0004521D01*
X0042698Y0005141D02*
Y0004521D01*
X0042653Y0005141D02*
Y0004521D01*
X0042608Y0005141D02*
Y0004521D01*
X0042563Y0005141D02*
Y0004531D01*
X0042819Y0005101D02*
X0042523D01*
X0042846Y0005056D02*
X0042523D01*
X0042877Y0005011D02*
X0042523D01*
X0042913Y0004966D02*
X0042523D01*
X0042956Y0004921D02*
X0042523D01*
X0043007Y0004876D02*
X0042523D01*
X0043067Y0004831D02*
X0042523D01*
X0043144Y0004786D02*
X0042523D01*
X0043251Y0004741D02*
X0042523D01*
X0044483Y0004696D02*
X0042523D01*
X0044483Y0004651D02*
X0042523D01*
X0044483Y0004606D02*
X0042523D01*
X0044453Y0005141D02*
Y0004538D01*
X0044408Y0005141D02*
Y0004521D01*
X0044363Y0005141D02*
Y0004521D01*
X0044318Y0005141D02*
Y0004521D01*
X0044273Y0005141D02*
Y0004521D01*
X0044228Y0005141D02*
Y0004521D01*
X0044183Y0005088D02*
Y0004521D01*
X0044138Y0005023D02*
Y0004521D01*
X0044093Y0004969D02*
Y0004521D01*
X0044048Y0004923D02*
Y0004521D01*
X0044003Y0004884D02*
Y0004521D01*
X0043958Y0004850D02*
Y0004521D01*
X0043913Y0004821D02*
Y0004521D01*
X0043868Y0004795D02*
Y0004521D01*
X0043823Y0004773D02*
Y0004521D01*
X0043778Y0004755D02*
Y0004521D01*
X0043733Y0004739D02*
Y0004521D01*
X0043688Y0004726D02*
Y0004521D01*
X0043643Y0004716D02*
Y0004521D01*
X0043598Y0004709D02*
Y0004521D01*
X0043553Y0004704D02*
Y0004521D01*
X0043508Y0004701D02*
Y0004521D01*
X0043463Y0004702D02*
Y0004521D01*
X0043418Y0004705D02*
Y0004521D01*
X0043373Y0004711D02*
Y0004521D01*
X0043328Y0004720D02*
Y0004521D01*
X0043283Y0004731D02*
Y0004521D01*
X0043238Y0004746D02*
Y0004521D01*
X0044483Y0005101D02*
X0044190D01*
X0044483Y0005056D02*
X0044162D01*
X0044483Y0005011D02*
X0044128D01*
X0044483Y0004966D02*
X0044090D01*
X0044483Y0004921D02*
X0044045D01*
X0044483Y0004876D02*
X0043993D01*
X0044483Y0004831D02*
X0043929D01*
X0044483Y0004786D02*
X0043850D01*
X0044483Y0004741D02*
X0043739D01*
X0044473Y0004561D02*
X0042533D01*
X0043503Y0004701D02*
X0043498D01*
X0044483Y0005141D02*
X0044213D01*
X0044483D02*
Y0004601D01*
Y0004600D01*
X0044403Y0004521D02*
X0042603D01*
X0042601D01*
X0042523Y0005141D02*
Y0004601D01*
X0042793Y0005141D02*
X0042523D01*
X0042793D02*
X0042803Y0005131D01*
G01X0044480Y0006385D02*
G03X0044402Y0006463I0000078J0000000D01*
G03X0044400Y0006463I0000000J0000078D01*
G01X0042598D02*
G03X0042520Y0006385I0000000J0000078D01*
G03X0042520Y0006383I0000078J0000000D01*
G01X0043500Y0006283D02*
G03X0042790Y0005843I0000017J0000820D01*
G01X0044200Y0005853D02*
G03X0043505Y0006283I0000695J0000346D01*
G01X0042803Y0005131D02*
G03X0043498Y0004701I0000695J0000346D01*
G01X0043503D02*
G03X0044213Y0005141I0000017J0000821D01*
G01X0044405Y0004521D02*
G03X0044484Y0004600I0000000J0000079D01*
G01X0044403Y0004521D02*
G03X0044405Y0004521I0000002J0000079D01*
G01X0042523Y0004600D02*
G03X0042601Y0004522I0000078J0000000D01*
G01X0042523Y0004601D02*
G03X0042523Y0004600I0000078J0000001D01*
G54D57*
G01X0040620Y0010003D02*
X0039006D01*
X0040620Y0009972D02*
X0039006D01*
X0040620Y0011862D02*
Y0009972D01*
Y0011862D02*
X0039006D01*
Y0009972D01*
X0040594Y0011862D02*
Y0009972D01*
X0040558Y0011862D02*
Y0009972D01*
X0040523Y0011862D02*
Y0009972D01*
X0040488Y0011862D02*
Y0009972D01*
X0040452Y0011862D02*
Y0009972D01*
X0040417Y0011862D02*
Y0009972D01*
X0040381Y0011862D02*
Y0009972D01*
X0040346Y0011862D02*
Y0009972D01*
X0040311Y0011862D02*
Y0009972D01*
X0040275Y0011862D02*
Y0009972D01*
X0040240Y0011862D02*
Y0009972D01*
X0040205Y0011862D02*
Y0009972D01*
X0040169Y0011862D02*
Y0009972D01*
X0040134Y0011862D02*
Y0009972D01*
X0040098Y0011862D02*
Y0009972D01*
X0040063Y0011862D02*
Y0009972D01*
X0040028Y0011862D02*
Y0009972D01*
X0039992Y0011862D02*
Y0009972D01*
X0039957Y0011862D02*
Y0009972D01*
X0039921Y0011862D02*
Y0009972D01*
X0039886Y0011862D02*
Y0009972D01*
X0039851Y0011862D02*
Y0009972D01*
X0039815Y0011862D02*
Y0009972D01*
X0039780Y0011862D02*
Y0009972D01*
X0039744Y0011862D02*
Y0009972D01*
X0039709Y0011862D02*
Y0009972D01*
X0039674Y0011862D02*
Y0009972D01*
X0039638Y0011862D02*
Y0009972D01*
X0039603Y0011862D02*
Y0009972D01*
X0039567Y0011862D02*
Y0009972D01*
X0039532Y0011862D02*
Y0009972D01*
X0039497Y0011862D02*
Y0009972D01*
X0039461Y0011862D02*
Y0009972D01*
X0039426Y0011862D02*
Y0009972D01*
X0039390Y0011862D02*
Y0009972D01*
X0039355Y0011862D02*
Y0009972D01*
X0039320Y0011862D02*
Y0009972D01*
X0039284Y0011862D02*
Y0009972D01*
X0039249Y0011862D02*
Y0009972D01*
X0039213Y0011862D02*
Y0009972D01*
X0039178Y0011862D02*
Y0009972D01*
X0039143Y0011862D02*
Y0009972D01*
X0039107Y0011862D02*
Y0009972D01*
X0039072Y0011862D02*
Y0009972D01*
X0039036Y0011862D02*
Y0009972D01*
X0040620Y0011844D02*
X0039006D01*
X0040620Y0011808D02*
X0039006D01*
X0040620Y0011773D02*
X0039006D01*
X0040620Y0011738D02*
X0039006D01*
X0040620Y0011702D02*
X0039006D01*
X0040620Y0011667D02*
X0039006D01*
X0040620Y0011631D02*
X0039006D01*
X0040620Y0011596D02*
X0039006D01*
X0040620Y0011561D02*
X0039006D01*
X0040620Y0011525D02*
X0039006D01*
X0040620Y0011490D02*
X0039006D01*
X0040620Y0011454D02*
X0039006D01*
X0040620Y0011419D02*
X0039006D01*
X0040620Y0011384D02*
X0039006D01*
X0040620Y0011348D02*
X0039006D01*
X0040620Y0011313D02*
X0039006D01*
X0040620Y0011277D02*
X0039006D01*
X0040620Y0011242D02*
X0039006D01*
X0040620Y0011207D02*
X0039006D01*
X0040620Y0011171D02*
X0039006D01*
X0040620Y0011136D02*
X0039006D01*
X0040620Y0011100D02*
X0039006D01*
X0040620Y0011065D02*
X0039006D01*
X0040620Y0011030D02*
X0039006D01*
X0040620Y0010994D02*
X0039006D01*
X0040620Y0010959D02*
X0039006D01*
X0040620Y0010923D02*
X0039006D01*
X0040620Y0010888D02*
X0039006D01*
X0040620Y0010853D02*
X0039006D01*
X0040620Y0010817D02*
X0039006D01*
X0040620Y0010782D02*
X0039006D01*
X0040620Y0010746D02*
X0039006D01*
X0040620Y0010711D02*
X0039006D01*
X0040620Y0010676D02*
X0039006D01*
X0040620Y0010640D02*
X0039006D01*
X0040620Y0010605D02*
X0039006D01*
X0040620Y0010569D02*
X0039006D01*
X0040620Y0010534D02*
X0039006D01*
X0040620Y0010499D02*
X0039006D01*
X0040620Y0010463D02*
X0039006D01*
X0040620Y0010428D02*
X0039006D01*
X0040620Y0010392D02*
X0039006D01*
X0040620Y0010357D02*
X0039006D01*
X0040620Y0010322D02*
X0039006D01*
X0040620Y0010286D02*
X0039006D01*
X0040620Y0010251D02*
X0039006D01*
X0040620Y0010215D02*
X0039006D01*
X0040620Y0010180D02*
X0039006D01*
X0040620Y0010145D02*
X0039006D01*
X0040620Y0010109D02*
X0039006D01*
X0040620Y0010074D02*
X0039006D01*
X0040620Y0010039D02*
X0039006D01*
X0038730Y0010003D02*
X0037116D01*
Y0011862D02*
Y0009972D01*
X0038730Y0011862D02*
X0037116D01*
X0038730D02*
Y0009972D01*
X0037116D01*
X0038704Y0011862D02*
Y0009972D01*
X0038669Y0011862D02*
Y0009972D01*
X0038633Y0011862D02*
Y0009972D01*
X0038598Y0011862D02*
Y0009972D01*
X0038563Y0011862D02*
Y0009972D01*
X0038527Y0011862D02*
Y0009972D01*
X0038492Y0011862D02*
Y0009972D01*
X0038456Y0011862D02*
Y0009972D01*
X0038421Y0011862D02*
Y0009972D01*
X0038386Y0011862D02*
Y0009972D01*
X0038350Y0011862D02*
Y0009972D01*
X0038315Y0011862D02*
Y0009972D01*
X0038279Y0011862D02*
Y0009972D01*
X0038244Y0011862D02*
Y0009972D01*
X0038209Y0011862D02*
Y0009972D01*
X0038173Y0011862D02*
Y0009972D01*
X0038138Y0011862D02*
Y0009972D01*
X0038102Y0011862D02*
Y0009972D01*
X0038067Y0011862D02*
Y0009972D01*
X0038032Y0011862D02*
Y0009972D01*
X0037996Y0011862D02*
Y0009972D01*
X0037961Y0011862D02*
Y0009972D01*
X0037925Y0011862D02*
Y0009972D01*
X0037890Y0011862D02*
Y0009972D01*
X0037855Y0011862D02*
Y0009972D01*
X0037819Y0011862D02*
Y0009972D01*
X0037784Y0011862D02*
Y0009972D01*
X0037749Y0011862D02*
Y0009972D01*
X0037713Y0011862D02*
Y0009972D01*
X0037678Y0011862D02*
Y0009972D01*
X0037642Y0011862D02*
Y0009972D01*
X0037607Y0011862D02*
Y0009972D01*
X0037572Y0011862D02*
Y0009972D01*
X0037536Y0011862D02*
Y0009972D01*
X0037501Y0011862D02*
Y0009972D01*
X0037465Y0011862D02*
Y0009972D01*
X0037430Y0011862D02*
Y0009972D01*
X0037395Y0011862D02*
Y0009972D01*
X0037359Y0011862D02*
Y0009972D01*
X0037324Y0011862D02*
Y0009972D01*
X0037288Y0011862D02*
Y0009972D01*
X0037253Y0011862D02*
Y0009972D01*
X0037218Y0011862D02*
Y0009972D01*
X0037182Y0011862D02*
Y0009972D01*
X0037147Y0011862D02*
Y0009972D01*
X0038730Y0011844D02*
X0037116D01*
X0038730Y0011808D02*
X0037116D01*
X0038730Y0011773D02*
X0037116D01*
X0038730Y0011738D02*
X0037116D01*
X0038730Y0011702D02*
X0037116D01*
X0038730Y0011667D02*
X0037116D01*
X0038730Y0011631D02*
X0037116D01*
X0038730Y0011596D02*
X0037116D01*
X0038730Y0011561D02*
X0037116D01*
X0038730Y0011525D02*
X0037116D01*
X0038730Y0011490D02*
X0037116D01*
X0038730Y0011454D02*
X0037116D01*
X0038730Y0011419D02*
X0037116D01*
X0038730Y0011384D02*
X0037116D01*
X0038730Y0011348D02*
X0037116D01*
X0038730Y0011313D02*
X0037116D01*
X0038730Y0011277D02*
X0037116D01*
X0038730Y0011242D02*
X0037116D01*
X0038730Y0011207D02*
X0037116D01*
X0038730Y0011171D02*
X0037116D01*
X0038730Y0011136D02*
X0037116D01*
X0038730Y0011100D02*
X0037116D01*
X0038730Y0011065D02*
X0037116D01*
X0038730Y0011030D02*
X0037116D01*
X0038730Y0010994D02*
X0037116D01*
X0038730Y0010959D02*
X0037116D01*
X0038730Y0010923D02*
X0037116D01*
X0038730Y0010888D02*
X0037116D01*
X0038730Y0010853D02*
X0037116D01*
X0038730Y0010817D02*
X0037116D01*
X0038730Y0010782D02*
X0037116D01*
X0038730Y0010746D02*
X0037116D01*
X0038730Y0010711D02*
X0037116D01*
X0038730Y0010676D02*
X0037116D01*
X0038730Y0010640D02*
X0037116D01*
X0038730Y0010605D02*
X0037116D01*
X0038730Y0010569D02*
X0037116D01*
X0038730Y0010534D02*
X0037116D01*
X0038730Y0010499D02*
X0037116D01*
X0038730Y0010463D02*
X0037116D01*
X0038730Y0010428D02*
X0037116D01*
X0038730Y0010392D02*
X0037116D01*
X0038730Y0010357D02*
X0037116D01*
X0038730Y0010322D02*
X0037116D01*
X0038730Y0010286D02*
X0037116D01*
X0038730Y0010251D02*
X0037116D01*
X0038730Y0010215D02*
X0037116D01*
X0038730Y0010180D02*
X0037116D01*
X0038730Y0010145D02*
X0037116D01*
X0038730Y0010109D02*
X0037116D01*
X0038730Y0010074D02*
X0037116D01*
X0038730Y0010039D02*
X0037116D01*
X0038730Y0012168D02*
X0037116D01*
Y0014027D02*
Y0012138D01*
X0038730Y0014027D02*
X0037116D01*
X0038730D02*
Y0012138D01*
X0037116D01*
X0038704Y0014027D02*
Y0012138D01*
X0038669Y0014027D02*
Y0012138D01*
X0038633Y0014027D02*
Y0012138D01*
X0038598Y0014027D02*
Y0012138D01*
X0038563Y0014027D02*
Y0012138D01*
X0038527Y0014027D02*
Y0012138D01*
X0038492Y0014027D02*
Y0012138D01*
X0038456Y0014027D02*
Y0012138D01*
X0038421Y0014027D02*
Y0012138D01*
X0038386Y0014027D02*
Y0012138D01*
X0038350Y0014027D02*
Y0012138D01*
X0038315Y0014027D02*
Y0012138D01*
X0038279Y0014027D02*
Y0012138D01*
X0038244Y0014027D02*
Y0012138D01*
X0038209Y0014027D02*
Y0012138D01*
X0038173Y0014027D02*
Y0012138D01*
X0038138Y0014027D02*
Y0012138D01*
X0038102Y0014027D02*
Y0012138D01*
X0038067Y0014027D02*
Y0012138D01*
X0038032Y0014027D02*
Y0012138D01*
X0037996Y0014027D02*
Y0012138D01*
X0037961Y0014027D02*
Y0012138D01*
X0037925Y0014027D02*
Y0012138D01*
X0037890Y0014027D02*
Y0012138D01*
X0037855Y0014027D02*
Y0012138D01*
X0037819Y0014027D02*
Y0012138D01*
X0037784Y0014027D02*
Y0012138D01*
X0037749Y0014027D02*
Y0012138D01*
X0037713Y0014027D02*
Y0012138D01*
X0037678Y0014027D02*
Y0012138D01*
X0037642Y0014027D02*
Y0012138D01*
X0037607Y0014027D02*
Y0012138D01*
X0037572Y0014027D02*
Y0012138D01*
X0037536Y0014027D02*
Y0012138D01*
X0037501Y0014027D02*
Y0012138D01*
X0037465Y0014027D02*
Y0012138D01*
X0037430Y0014027D02*
Y0012138D01*
X0037395Y0014027D02*
Y0012138D01*
X0037359Y0014027D02*
Y0012138D01*
X0037324Y0014027D02*
Y0012138D01*
X0037288Y0014027D02*
Y0012138D01*
X0037253Y0014027D02*
Y0012138D01*
X0037218Y0014027D02*
Y0012138D01*
X0037182Y0014027D02*
Y0012138D01*
X0037147Y0014027D02*
Y0012138D01*
X0038730Y0014009D02*
X0037116D01*
X0038730Y0013974D02*
X0037116D01*
X0038730Y0013938D02*
X0037116D01*
X0038730Y0013903D02*
X0037116D01*
X0038730Y0013867D02*
X0037116D01*
X0038730Y0013832D02*
X0037116D01*
X0038730Y0013797D02*
X0037116D01*
X0038730Y0013761D02*
X0037116D01*
X0038730Y0013726D02*
X0037116D01*
X0038730Y0013690D02*
X0037116D01*
X0038730Y0013655D02*
X0037116D01*
X0038730Y0013620D02*
X0037116D01*
X0038730Y0013584D02*
X0037116D01*
X0038730Y0013549D02*
X0037116D01*
X0038730Y0013513D02*
X0037116D01*
X0038730Y0013478D02*
X0037116D01*
X0038730Y0013443D02*
X0037116D01*
X0038730Y0013407D02*
X0037116D01*
X0038730Y0013372D02*
X0037116D01*
X0038730Y0013337D02*
X0037116D01*
X0038730Y0013301D02*
X0037116D01*
X0038730Y0013266D02*
X0037116D01*
X0038730Y0013230D02*
X0037116D01*
X0038730Y0013195D02*
X0037116D01*
X0038730Y0013160D02*
X0037116D01*
X0038730Y0013124D02*
X0037116D01*
X0038730Y0013089D02*
X0037116D01*
X0038730Y0013053D02*
X0037116D01*
X0038730Y0013018D02*
X0037116D01*
X0038730Y0012983D02*
X0037116D01*
X0038730Y0012947D02*
X0037116D01*
X0038730Y0012912D02*
X0037116D01*
X0038730Y0012876D02*
X0037116D01*
X0038730Y0012841D02*
X0037116D01*
X0038730Y0012806D02*
X0037116D01*
X0038730Y0012770D02*
X0037116D01*
X0038730Y0012735D02*
X0037116D01*
X0038730Y0012699D02*
X0037116D01*
X0038730Y0012664D02*
X0037116D01*
X0038730Y0012629D02*
X0037116D01*
X0038730Y0012593D02*
X0037116D01*
X0038730Y0012558D02*
X0037116D01*
X0038730Y0012522D02*
X0037116D01*
X0038730Y0012487D02*
X0037116D01*
X0038730Y0012452D02*
X0037116D01*
X0038730Y0012416D02*
X0037116D01*
X0038730Y0012381D02*
X0037116D01*
X0038730Y0012345D02*
X0037116D01*
X0038730Y0012310D02*
X0037116D01*
X0038730Y0012275D02*
X0037116D01*
X0038730Y0012239D02*
X0037116D01*
X0038730Y0012204D02*
X0037116D01*
X0040620Y0012168D02*
X0039006D01*
X0040620Y0014027D02*
Y0012138D01*
X0039006D01*
Y0014027D02*
Y0012138D01*
X0040620Y0014027D02*
X0039006D01*
X0040594D02*
Y0012138D01*
X0040558Y0014027D02*
Y0012138D01*
X0040523Y0014027D02*
Y0012138D01*
X0040488Y0014027D02*
Y0012138D01*
X0040452Y0014027D02*
Y0012138D01*
X0040417Y0014027D02*
Y0012138D01*
X0040381Y0014027D02*
Y0012138D01*
X0040346Y0014027D02*
Y0012138D01*
X0040311Y0014027D02*
Y0012138D01*
X0040275Y0014027D02*
Y0012138D01*
X0040240Y0014027D02*
Y0012138D01*
X0040205Y0014027D02*
Y0012138D01*
X0040169Y0014027D02*
Y0012138D01*
X0040134Y0014027D02*
Y0012138D01*
X0040098Y0014027D02*
Y0012138D01*
X0040063Y0014027D02*
Y0012138D01*
X0040028Y0014027D02*
Y0012138D01*
X0039992Y0014027D02*
Y0012138D01*
X0039957Y0014027D02*
Y0012138D01*
X0039921Y0014027D02*
Y0012138D01*
X0039886Y0014027D02*
Y0012138D01*
X0039851Y0014027D02*
Y0012138D01*
X0039815Y0014027D02*
Y0012138D01*
X0039780Y0014027D02*
Y0012138D01*
X0039744Y0014027D02*
Y0012138D01*
X0039709Y0014027D02*
Y0012138D01*
X0039674Y0014027D02*
Y0012138D01*
X0039638Y0014027D02*
Y0012138D01*
X0039603Y0014027D02*
Y0012138D01*
X0039567Y0014027D02*
Y0012138D01*
X0039532Y0014027D02*
Y0012138D01*
X0039497Y0014027D02*
Y0012138D01*
X0039461Y0014027D02*
Y0012138D01*
X0039426Y0014027D02*
Y0012138D01*
X0039390Y0014027D02*
Y0012138D01*
X0039355Y0014027D02*
Y0012138D01*
X0039320Y0014027D02*
Y0012138D01*
X0039284Y0014027D02*
Y0012138D01*
X0039249Y0014027D02*
Y0012138D01*
X0039213Y0014027D02*
Y0012138D01*
X0039178Y0014027D02*
Y0012138D01*
X0039143Y0014027D02*
Y0012138D01*
X0039107Y0014027D02*
Y0012138D01*
X0039072Y0014027D02*
Y0012138D01*
X0039036Y0014027D02*
Y0012138D01*
X0040620Y0014009D02*
X0039006D01*
X0040620Y0013974D02*
X0039006D01*
X0040620Y0013938D02*
X0039006D01*
X0040620Y0013903D02*
X0039006D01*
X0040620Y0013867D02*
X0039006D01*
X0040620Y0013832D02*
X0039006D01*
X0040620Y0013797D02*
X0039006D01*
X0040620Y0013761D02*
X0039006D01*
X0040620Y0013726D02*
X0039006D01*
X0040620Y0013690D02*
X0039006D01*
X0040620Y0013655D02*
X0039006D01*
X0040620Y0013620D02*
X0039006D01*
X0040620Y0013584D02*
X0039006D01*
X0040620Y0013549D02*
X0039006D01*
X0040620Y0013513D02*
X0039006D01*
X0040620Y0013478D02*
X0039006D01*
X0040620Y0013443D02*
X0039006D01*
X0040620Y0013407D02*
X0039006D01*
X0040620Y0013372D02*
X0039006D01*
X0040620Y0013337D02*
X0039006D01*
X0040620Y0013301D02*
X0039006D01*
X0040620Y0013266D02*
X0039006D01*
X0040620Y0013230D02*
X0039006D01*
X0040620Y0013195D02*
X0039006D01*
X0040620Y0013160D02*
X0039006D01*
X0040620Y0013124D02*
X0039006D01*
X0040620Y0013089D02*
X0039006D01*
X0040620Y0013053D02*
X0039006D01*
X0040620Y0013018D02*
X0039006D01*
X0040620Y0012983D02*
X0039006D01*
X0040620Y0012947D02*
X0039006D01*
X0040620Y0012912D02*
X0039006D01*
X0040620Y0012876D02*
X0039006D01*
X0040620Y0012841D02*
X0039006D01*
X0040620Y0012806D02*
X0039006D01*
X0040620Y0012770D02*
X0039006D01*
X0040620Y0012735D02*
X0039006D01*
X0040620Y0012699D02*
X0039006D01*
X0040620Y0012664D02*
X0039006D01*
X0040620Y0012629D02*
X0039006D01*
X0040620Y0012593D02*
X0039006D01*
X0040620Y0012558D02*
X0039006D01*
X0040620Y0012522D02*
X0039006D01*
X0040620Y0012487D02*
X0039006D01*
X0040620Y0012452D02*
X0039006D01*
X0040620Y0012416D02*
X0039006D01*
X0040620Y0012381D02*
X0039006D01*
X0040620Y0012345D02*
X0039006D01*
X0040620Y0012310D02*
X0039006D01*
X0040620Y0012275D02*
X0039006D01*
X0040620Y0012239D02*
X0039006D01*
X0040620Y0012204D02*
X0039006D01*
G54D10*
X0015500Y0009530D03*
Y0008970D03*
X0012500Y0009280D03*
Y0008720D03*
Y0010220D03*
Y0010780D03*
X0016250Y0011030D03*
Y0010470D03*
X0012500Y0011970D03*
Y0012530D03*
X0016250D03*
Y0011970D03*
X0012500Y0013470D03*
Y0014030D03*
X0027500Y0011530D03*
Y0010970D03*
X0016250Y0014280D03*
Y0013720D03*
Y0015780D03*
Y0015220D03*
X0012000Y0015720D03*
Y0016280D03*
X0030250Y0014030D03*
Y0013470D03*
X0028750Y0014030D03*
Y0013470D03*
X0018250Y0021970D03*
Y0022530D03*
X0012750Y0006970D03*
Y0007530D03*
X0014750Y0006470D03*
Y0007030D03*
X0012500Y0023530D03*
Y0022970D03*
X0014500D03*
Y0023530D03*
X0012500Y0024780D03*
Y0024220D03*
X0014500Y0024780D03*
Y0024220D03*
X0021250Y0017220D03*
Y0017780D03*
X0015500Y0006470D03*
Y0007030D03*
X0017500Y0006470D03*
Y0007030D03*
X0015500Y0010470D03*
Y0011030D03*
Y0011970D03*
Y0012530D03*
Y0013720D03*
Y0014280D03*
Y0015780D03*
Y0015220D03*
X0022750Y0001780D03*
Y0001220D03*
X0041500Y0003530D03*
Y0002970D03*
X0024000Y0021220D03*
Y0021780D03*
G54D11*
X0022720Y0012000D03*
X0023280D03*
X0037530Y0007500D03*
X0036970D03*
X0018030Y0010000D03*
X0017470D03*
X0022720Y0011000D03*
X0023280D03*
X0022720Y0010250D03*
X0023280D03*
X0018030Y0009250D03*
X0017470D03*
X0007280Y0012500D03*
X0006720D03*
X0007280Y0001500D03*
X0006720D03*
X0035220Y0015000D03*
X0035780D03*
X0007280Y0004750D03*
X0006720D03*
X0007280Y0006750D03*
X0006720D03*
X0005470D03*
X0006030D03*
X0005470Y0004750D03*
X0006030D03*
X0022720Y0015500D03*
X0023280D03*
Y0016250D03*
X0022720D03*
Y0014000D03*
X0023280D03*
X0007280Y0017000D03*
X0006720D03*
X0022720Y0012750D03*
X0023280D03*
X0007280Y0021500D03*
X0006720D03*
X0006220Y0024750D03*
X0006780D03*
X0023280Y0014750D03*
X0022720D03*
X0020780Y0007500D03*
X0020220D03*
X0013780Y0024750D03*
X0013220D03*
X0023280Y0017000D03*
X0022720D03*
X0016780Y0006500D03*
X0016220D03*
X0013780Y0023500D03*
X0013220D03*
X0014030Y0007000D03*
X0013470D03*
X0023280Y0017750D03*
X0022720D03*
X0037530Y0006750D03*
X0036970D03*
X0040220Y0007500D03*
X0040780D03*
X0014030Y0007750D03*
X0013470D03*
X0042720Y0021500D03*
X0043280D03*
G54D12*
X0041714Y0004750D03*
X0039785D03*
X0041714Y0006250D03*
X0039785D03*
G54D13*
X0037600Y0004750D03*
X0038900D03*
G54D14*
X0022000Y0010106D03*
Y0010894D03*
X0008000Y0010644D03*
Y0009856D03*
Y0015644D03*
Y0014856D03*
X0012000Y0000856D03*
Y0001644D03*
Y0003856D03*
Y0004644D03*
Y0005356D03*
Y0006144D03*
Y0006856D03*
Y0007644D03*
Y0002356D03*
Y0003144D03*
X0008000Y0012394D03*
Y0011606D03*
Y0013894D03*
Y0013106D03*
X0022000Y0012106D03*
Y0012894D03*
X0008000Y0020144D03*
Y0019356D03*
Y0024644D03*
Y0023856D03*
Y0023144D03*
Y0022356D03*
X0012000Y0019856D03*
Y0020644D03*
X0008000Y0018644D03*
Y0017856D03*
G54D15*
X0017750Y0011900D03*
Y0011100D03*
X0017000Y0011900D03*
Y0011100D03*
G54D16*
X0039150Y0007500D03*
X0038350D03*
G54D18*
X0043000Y0008043D03*
Y0010957D03*
G54D19*
X0002114Y0008250D03*
X0003886Y0008750D03*
X0002114Y0009250D03*
X0003886Y0009750D03*
X0002114Y0010250D03*
X0003886Y0010750D03*
X0002114Y0011250D03*
X0003886Y0011750D03*
X0002114Y0012250D03*
X0003886Y0012750D03*
X0002114Y0013250D03*
X0003886Y0013750D03*
X0002114Y0014250D03*
X0003886Y0014750D03*
X0002114Y0015250D03*
X0003886Y0015750D03*
X0002114Y0016250D03*
X0003886Y0016750D03*
X0002114Y0017250D03*
X0003886Y0017750D03*
G54D32*
X0030250Y0018090D03*
Y0019410D03*
X0031500Y0018090D03*
Y0019410D03*
X0032750Y0018090D03*
Y0019410D03*
X0029000Y0018090D03*
Y0019410D03*
G54D33*
X0007160Y0009000D03*
X0005840D03*
X0022590Y0008750D03*
X0023910D03*
X0007160Y0010250D03*
X0005840D03*
Y0014750D03*
X0007160D03*
X0013340Y0001500D03*
X0014660D03*
X0005840Y0002500D03*
X0007160D03*
X0013340Y0004000D03*
X0014660D03*
X0013340Y0005250D03*
X0014660D03*
X0005840Y0005750D03*
X0007160D03*
X0016090Y0008000D03*
X0017410D03*
X0005840Y0007750D03*
X0007160D03*
X0013340Y0002750D03*
X0014660D03*
X0005840Y0003750D03*
X0007160D03*
Y0011500D03*
X0005840D03*
X0007160Y0013500D03*
X0005840D03*
X0007160Y0016000D03*
X0005840D03*
X0014160Y0018250D03*
X0012840D03*
X0007160Y0019250D03*
X0005840D03*
X0014160Y0022000D03*
X0012840D03*
X0007160Y0023750D03*
X0005840D03*
X0014160Y0020750D03*
X0012840D03*
X0007160Y0022500D03*
X0005840D03*
X0012840Y0019500D03*
X0014160D03*
X0005840Y0020500D03*
X0007160D03*
X0014160Y0017000D03*
X0012840D03*
X0007160Y0018000D03*
X0005840D03*
G54D34*
X0028870Y0003000D03*
X0027130D03*
X0028870Y0004750D03*
X0027130D03*
X0023880D03*
X0025620D03*
X0018120D03*
X0016380D03*
X0018120Y0003000D03*
X0016380D03*
X0023880Y0006500D03*
X0025620D03*
X0018120Y0001250D03*
X0016380D03*
X0028870Y0006500D03*
X0027130D03*
X0033880D03*
X0035620D03*
X0033880Y0004750D03*
X0035620D03*
X0028870Y0001250D03*
X0027130D03*
X0033880D03*
X0035620D03*
X0033880Y0003000D03*
X0035620D03*
G54D35*
X0030250Y0014760D03*
X0030750D03*
Y0017240D03*
X0030250D03*
X0031750Y0014760D03*
X0032250D03*
Y0017240D03*
X0031750D03*
X0028750Y0014760D03*
X0029250D03*
Y0017240D03*
X0028750D03*
G54D36*
X0011240Y0008500D03*
Y0009000D03*
X0008760D03*
Y0008500D03*
X0021240Y0010500D03*
Y0011000D03*
X0018760D03*
Y0010500D03*
X0008760D03*
Y0010000D03*
X0011240D03*
Y0010500D03*
X0018760Y0009250D03*
Y0008750D03*
X0021240D03*
Y0009250D03*
X0011240Y0001000D03*
Y0001500D03*
X0008760D03*
Y0001000D03*
X0011240Y0005500D03*
Y0006000D03*
X0008760D03*
Y0005500D03*
X0011240Y0004000D03*
Y0004500D03*
X0008760D03*
Y0004000D03*
X0011240Y0007000D03*
Y0007500D03*
X0008760D03*
Y0007000D03*
X0011240Y0002500D03*
Y0003000D03*
X0008760D03*
Y0002500D03*
X0018760Y0016250D03*
Y0015750D03*
X0021240D03*
Y0016250D03*
X0008760Y0012000D03*
Y0011500D03*
X0011240D03*
Y0012000D03*
X0018760Y0014500D03*
Y0014000D03*
X0021240D03*
Y0014500D03*
X0008760Y0013500D03*
Y0013000D03*
X0011240D03*
Y0013500D03*
Y0016500D03*
Y0017000D03*
X0008760D03*
Y0016500D03*
X0021240Y0012250D03*
Y0012750D03*
X0018760D03*
Y0012250D03*
X0008760Y0020000D03*
Y0019500D03*
X0011240D03*
Y0020000D03*
X0008760Y0024500D03*
Y0024000D03*
X0011240D03*
Y0024500D03*
X0008760Y0023000D03*
Y0022500D03*
X0011240D03*
Y0023000D03*
Y0021000D03*
Y0021500D03*
X0008760D03*
Y0021000D03*
Y0018500D03*
Y0018000D03*
X0011240D03*
Y0018500D03*
G54D37*
X0014250Y0009000D03*
Y0009374D03*
Y0009748D03*
X0013230D03*
Y0009000D03*
X0013250Y0011250D03*
Y0010876D03*
Y0010502D03*
X0014270D03*
Y0011250D03*
X0013250Y0012750D03*
Y0012376D03*
Y0012002D03*
X0014270D03*
Y0012750D03*
X0013250Y0014250D03*
Y0013876D03*
Y0013502D03*
X0014270D03*
Y0014250D03*
X0014250Y0015000D03*
Y0015374D03*
Y0015748D03*
X0013230D03*
Y0015000D03*
G54D38*
X0008898Y0015500D03*
Y0014500D03*
X0011102D03*
Y0015500D03*
G54D56*
X0035266Y0013000D03*
Y0011000D03*
M02*
