*
G04 Mass Parameters ***
*
G04 Image ***
*
%IND:\UTENTI\00.LAVORI IN CORSO\METALTRONICA\22-305-0\22-305-0.SMB*%
%ICAS*%
%MOIN*%
%IPPOS*%
%ASAXBY*%
G74*%FSLAN2X34Y34*%
*
G04 Aperture Definitions ***
*
%ADD10R,0.0380X0.0320*%
%ADD11R,0.0320X0.0380*%
%ADD12R,0.0905X0.0886*%
%ADD13R,0.0510X0.1024*%
%ADD14R,0.0197X0.0315*%
%ADD15R,0.0501X0.0404*%
%ADD16R,0.0404X0.0501*%
%ADD17C,0.2756*%
%ADD18R,0.1220X0.0905*%
%ADD19R,0.1200X0.0600*%
%ADD20C,0.0512*%
%ADD21C,0.0866*%
%ADD22C,0.0669*%
%ADD23O,0.0787X0.0630*%
%ADD24C,0.0610*%
%ADD25R,0.0610X0.0610*%
%ADD26O,0.1181X0.0787*%
%ADD27R,0.0669X0.0669*%
%ADD28C,0.0787*%
%ADD29C,0.0433*%
%ADD30R,0.0787X0.0787*%
%ADD31C,0.0187*%
%ADD32R,0.0710X0.0400*%
%ADD33R,0.0400X0.0710*%
%ADD34R,0.0850X0.1080*%
%ADD35R,0.0354X0.0512*%
%ADD36R,0.0512X0.0354*%
%ADD37R,0.0315X0.0236*%
%ADD38R,0.0512X0.0236*%
%ADD39R,0.3701X0.4252*%
%ADD40R,0.1811X0.0531*%
%ADD41C,0.0800*%
%ADD42C,0.0276*%
%ADD43C,0.0394*%
%ADD44C,0.0050*%
%ADD45C,0.0100*%
%ADD46C,0.0120*%
%ADD47C,0.0250*%
%ADD48C,0.0276*%
%ADD49C,0.0500*%
%ADD50C,0.0150*%
%ADD51C,0.0400*%
%ADD52C,0.0060*%
%ADD53C,0.0276*%
%ADD54C,0.0590*%
%ADD55C,0.0709*%
*
G04 Plot Data ***
*
G54D45*
G01X0041150Y0009840D02*
X0036850D01*
X0041150Y0009800D02*
X0036850D01*
X0041150Y0014300D02*
Y0009800D01*
Y0014300D02*
X0036850D01*
Y0009800D01*
X0041120Y0014300D02*
Y0009800D01*
X0041030Y0014300D02*
Y0009800D01*
X0040940Y0014300D02*
Y0009800D01*
X0040850Y0014300D02*
Y0009800D01*
X0040760Y0014300D02*
Y0009800D01*
X0040670Y0014300D02*
Y0009800D01*
X0040580Y0014300D02*
Y0009800D01*
X0040490Y0014300D02*
Y0009800D01*
X0040400Y0014300D02*
Y0009800D01*
X0040310Y0014300D02*
Y0009800D01*
X0040220Y0014300D02*
Y0009800D01*
X0040130Y0014300D02*
Y0009800D01*
X0040040Y0014300D02*
Y0009800D01*
X0039950Y0014300D02*
Y0009800D01*
X0039860Y0014300D02*
Y0009800D01*
X0039770Y0014300D02*
Y0009800D01*
X0039680Y0014300D02*
Y0009800D01*
X0039590Y0014300D02*
Y0009800D01*
X0039500Y0014300D02*
Y0009800D01*
X0039410Y0014300D02*
Y0009800D01*
X0039320Y0014300D02*
Y0009800D01*
X0039230Y0014300D02*
Y0009800D01*
X0039140Y0014300D02*
Y0009800D01*
X0039050Y0014300D02*
Y0009800D01*
X0038960Y0014300D02*
Y0009800D01*
X0038870Y0014300D02*
Y0009800D01*
X0038780Y0014300D02*
Y0009800D01*
X0038690Y0014300D02*
Y0009800D01*
X0038600Y0014300D02*
Y0009800D01*
X0038510Y0014300D02*
Y0009800D01*
X0038420Y0014300D02*
Y0009800D01*
X0038330Y0014300D02*
Y0009800D01*
X0038240Y0014300D02*
Y0009800D01*
X0038150Y0014300D02*
Y0009800D01*
X0038060Y0014300D02*
Y0009800D01*
X0037970Y0014300D02*
Y0009800D01*
X0037880Y0014300D02*
Y0009800D01*
X0037790Y0014300D02*
Y0009800D01*
X0037700Y0014300D02*
Y0009800D01*
X0037610Y0014300D02*
Y0009800D01*
X0037520Y0014300D02*
Y0009800D01*
X0037430Y0014300D02*
Y0009800D01*
X0037340Y0014300D02*
Y0009800D01*
X0037250Y0014300D02*
Y0009800D01*
X0037160Y0014300D02*
Y0009800D01*
X0037070Y0014300D02*
Y0009800D01*
X0036980Y0014300D02*
Y0009800D01*
X0036890Y0014300D02*
Y0009800D01*
X0041150Y0014250D02*
X0036850D01*
X0041150Y0014160D02*
X0036850D01*
X0041150Y0014070D02*
X0036850D01*
X0041150Y0013980D02*
X0036850D01*
X0041150Y0013890D02*
X0036850D01*
X0041150Y0013800D02*
X0036850D01*
X0041150Y0013710D02*
X0036850D01*
X0041150Y0013620D02*
X0036850D01*
X0041150Y0013530D02*
X0036850D01*
X0041150Y0013440D02*
X0036850D01*
X0041150Y0013350D02*
X0036850D01*
X0041150Y0013260D02*
X0036850D01*
X0041150Y0013170D02*
X0036850D01*
X0041150Y0013080D02*
X0036850D01*
X0041150Y0012990D02*
X0036850D01*
X0041150Y0012900D02*
X0036850D01*
X0041150Y0012810D02*
X0036850D01*
X0041150Y0012720D02*
X0036850D01*
X0041150Y0012630D02*
X0036850D01*
X0041150Y0012540D02*
X0036850D01*
X0041150Y0012450D02*
X0036850D01*
X0041150Y0012360D02*
X0036850D01*
X0041150Y0012270D02*
X0036850D01*
X0041150Y0012180D02*
X0036850D01*
X0041150Y0012090D02*
X0036850D01*
X0041150Y0012000D02*
X0036850D01*
X0041150Y0011910D02*
X0036850D01*
X0041150Y0011820D02*
X0036850D01*
X0041150Y0011730D02*
X0036850D01*
X0041150Y0011640D02*
X0036850D01*
X0041150Y0011550D02*
X0036850D01*
X0041150Y0011460D02*
X0036850D01*
X0041150Y0011370D02*
X0036850D01*
X0041150Y0011280D02*
X0036850D01*
X0041150Y0011190D02*
X0036850D01*
X0041150Y0011100D02*
X0036850D01*
X0041150Y0011010D02*
X0036850D01*
X0041150Y0010920D02*
X0036850D01*
X0041150Y0010830D02*
X0036850D01*
X0041150Y0010740D02*
X0036850D01*
X0041150Y0010650D02*
X0036850D01*
X0041150Y0010560D02*
X0036850D01*
X0041150Y0010470D02*
X0036850D01*
X0041150Y0010380D02*
X0036850D01*
X0041150Y0010290D02*
X0036850D01*
X0041150Y0010200D02*
X0036850D01*
X0041150Y0010110D02*
X0036850D01*
X0041150Y0010020D02*
X0036850D01*
X0041150Y0009930D02*
X0036850D01*
G54D17*
X0024803Y0023622D03*
X0001968Y0001968D03*
X0024803D03*
X0043307D03*
Y0023622D03*
X0001968D03*
G54D21*
X0043250Y0015096D03*
Y0012403D03*
G54D22*
X0037758Y0018242D03*
Y0017258D03*
X0038742Y0018242D03*
X0037758Y0022742D03*
Y0021758D03*
X0038742Y0022742D03*
X0033008Y0023234D03*
Y0022250D03*
Y0021266D03*
X0033992Y0022250D03*
Y0023234D03*
G54D23*
X0030508Y0011968D03*
Y0010984D03*
Y0010000D03*
Y0009016D03*
Y0008031D03*
X0031492D03*
Y0011968D03*
Y0010984D03*
Y0010000D03*
Y0009016D03*
X0030508Y0005218D03*
Y0004234D03*
Y0003250D03*
Y0002266D03*
Y0001281D03*
X0031492D03*
Y0005218D03*
Y0004234D03*
Y0003250D03*
Y0002266D03*
X0019758Y0023961D03*
Y0022976D03*
Y0021992D03*
Y0021008D03*
Y0020024D03*
Y0019039D03*
X0020742D03*
Y0023961D03*
Y0022976D03*
Y0021992D03*
Y0021008D03*
Y0020024D03*
X0025008Y0016703D03*
Y0015718D03*
Y0014734D03*
Y0013750D03*
Y0012766D03*
Y0011781D03*
Y0010797D03*
X0025992D03*
Y0016703D03*
Y0015718D03*
Y0014734D03*
Y0013750D03*
Y0012766D03*
Y0011781D03*
X0028258Y0023726D03*
Y0022742D03*
Y0021758D03*
Y0020774D03*
X0029242D03*
Y0023726D03*
Y0022742D03*
Y0021758D03*
G54D24*
X0043893Y0019824D03*
X0043106Y0019037D03*
X0043893D03*
X0043106Y0018250D03*
X0043893D03*
X0043106Y0017463D03*
X0043893D03*
X0043106Y0016675D03*
X0043893D03*
G54D25*
X0043106Y0019824D03*
G54D26*
X0038628Y0016403D03*
Y0019096D03*
Y0020903D03*
Y0023596D03*
X0033878Y0020411D03*
Y0024088D03*
G54D27*
X0038742Y0017258D03*
Y0021758D03*
X0033992Y0021266D03*
G54D28*
X0019910Y0005521D03*
Y0004340D03*
Y0003160D03*
X0021090Y0005521D03*
Y0004340D03*
Y0003160D03*
Y0001978D03*
G54D30*
X0019910D03*
G54D41*
X0039750Y0002750D03*
X0038750D03*
X0037750D03*
G54D55*
X0043250Y0014242D03*
Y0013258D03*
M02*
