*
G04 Mass Parameters ***
*
G04 Image ***
*
%IND:\UTENTI\00.LAVORI IN CORSO\METALTRONICA\22-305-0\22-305-0.SST*%
%ICAS*%
%MOIN*%
%IPPOS*%
%ASAXBY*%
G74*%FSLAN2X34Y34*%
*
G04 Aperture Definitions ***
*
%ADD10R,0.0380X0.0320*%
%ADD11R,0.0320X0.0380*%
%ADD12R,0.0905X0.0886*%
%ADD13R,0.0510X0.1024*%
%ADD14R,0.0197X0.0315*%
%ADD15R,0.0501X0.0404*%
%ADD16R,0.0404X0.0501*%
%ADD17C,0.2756*%
%ADD18R,0.1220X0.0905*%
%ADD19R,0.1200X0.0600*%
%ADD20C,0.0512*%
%ADD21C,0.0866*%
%ADD22C,0.0669*%
%ADD23O,0.0787X0.0630*%
%ADD24C,0.0610*%
%ADD25R,0.0610X0.0610*%
%ADD26O,0.1181X0.0787*%
%ADD27R,0.0669X0.0669*%
%ADD28C,0.0787*%
%ADD29C,0.0433*%
%ADD30R,0.0787X0.0787*%
%ADD31C,0.0187*%
%ADD32R,0.0710X0.0400*%
%ADD33R,0.0400X0.0710*%
%ADD34R,0.0850X0.1080*%
%ADD35R,0.0354X0.0512*%
%ADD36R,0.0512X0.0354*%
%ADD37R,0.0315X0.0236*%
%ADD38R,0.0512X0.0236*%
%ADD39R,0.3701X0.4252*%
%ADD40R,0.1811X0.0531*%
%ADD41C,0.0800*%
%ADD42C,0.0276*%
%ADD43C,0.0394*%
%ADD44C,0.0050*%
%ADD45C,0.0100*%
%ADD46C,0.0120*%
%ADD47C,0.0250*%
%ADD48C,0.0276*%
%ADD49C,0.0500*%
%ADD50C,0.0150*%
%ADD51C,0.0400*%
%ADD52C,0.0060*%
%ADD53C,0.0276*%
%ADD54C,0.0590*%
%ADD55C,0.0709*%
%ADD56R,0.1772X0.0492*%
%ADD57C,0.0039*%
%ADD58C,0.0079*%
%ADD59C,0.0059*%
%ADD60C,0.0078*%
*
G04 Plot Data ***
*
G54D44*
G01X0042380Y0006603D02*
Y0004373D01*
X0044600D01*
Y0006603D01*
X0042380D01*
G54D45*
G01X0016192Y0022458D02*
Y0022792D01*
X0015942Y0022458D02*
X0016442D01*
X0015942Y0022792D02*
X0016442D01*
X0016025Y0023033D02*
X0015942Y0023075D01*
Y0023325D01*
X0016025Y0023367D01*
X0016358D01*
X0016442Y0023325D01*
Y0023075D01*
X0016358Y0023033D01*
Y0023608D02*
X0016442Y0023650D01*
Y0023900D01*
X0016358Y0023942D01*
X0016275D01*
X0016192Y0023900D01*
Y0023650D01*
X0016108Y0023608D01*
X0016025D01*
X0015942Y0023650D01*
Y0023900D01*
X0016025Y0023942D01*
X0016992Y0022625D02*
X0017242D01*
X0017492Y0022458D02*
X0017242Y0022583D01*
Y0022667D01*
X0017492Y0022792D01*
X0017408Y0023033D02*
X0017492Y0023075D01*
Y0023325D01*
X0017408Y0023367D01*
X0017325D01*
X0017242Y0023325D01*
Y0023075D01*
X0017158Y0023033D01*
X0017075D01*
X0016992Y0023075D01*
Y0023325D01*
X0017075Y0023367D01*
X0017408Y0023608D02*
X0017492Y0023650D01*
Y0023900D01*
X0017408Y0023942D01*
X0017325D01*
X0017242Y0023900D01*
Y0023650D01*
X0017158Y0023608D01*
X0017075D01*
X0016992Y0023650D01*
Y0023900D01*
X0017075Y0023942D01*
X0017158Y0024183D02*
Y0024517D01*
X0016992Y0024183D02*
X0017242D01*
X0017492Y0024308D01*
Y0024392D01*
X0017242Y0024517D01*
X0016992D01*
X0017750Y0019590D02*
X0016850D01*
X0017750Y0019500D02*
X0016850D01*
X0017750Y0019410D02*
X0016850D01*
X0017750Y0019320D02*
X0016850D01*
X0017750Y0019230D02*
X0016850D01*
X0017750Y0019140D02*
X0016850D01*
X0017750Y0019050D02*
X0016850D01*
X0017750Y0018960D02*
X0016850D01*
X0017750Y0018870D02*
X0016850D01*
X0017750Y0018780D02*
X0016850D01*
X0017750Y0018690D02*
X0016850D01*
X0017750Y0018600D02*
X0016850D01*
X0017750Y0018510D02*
X0016850D01*
X0017750Y0018420D02*
X0016850D01*
X0017750Y0018330D02*
X0016850D01*
X0017750Y0018240D02*
X0016850D01*
X0017750Y0018150D02*
X0016850D01*
X0017750Y0018060D02*
X0016850D01*
X0017750Y0017970D02*
X0016850D01*
X0017750Y0017880D02*
X0016850D01*
X0017750Y0017790D02*
X0016850D01*
X0017750Y0017700D02*
X0016850D01*
X0017750Y0017610D02*
X0016850D01*
X0017750Y0017520D02*
X0016850D01*
X0017750Y0017430D02*
X0016850D01*
X0017750Y0021840D02*
X0016850D01*
X0017750Y0021750D02*
X0016850D01*
X0017750Y0021660D02*
X0016850D01*
X0017750Y0021570D02*
X0016850D01*
X0017750Y0021480D02*
X0016850D01*
X0017750Y0021390D02*
X0016850D01*
X0017750Y0021300D02*
X0016850D01*
X0017750Y0021210D02*
X0016850D01*
X0017750Y0021120D02*
X0016850D01*
X0017750Y0021030D02*
X0016850D01*
X0017750Y0020940D02*
X0016850D01*
X0017750Y0020850D02*
X0016850D01*
X0017750Y0020760D02*
X0016850D01*
X0017750Y0020670D02*
X0016850D01*
X0017750Y0020580D02*
X0016850D01*
X0017750Y0020490D02*
X0016850D01*
X0017750Y0020400D02*
X0016850D01*
X0017750Y0020310D02*
X0016850D01*
X0017750Y0020220D02*
X0016850D01*
X0017750Y0020130D02*
X0016850D01*
X0017750Y0020040D02*
X0016850D01*
X0017750Y0019950D02*
X0016850D01*
X0017750Y0019860D02*
X0016850D01*
X0017750Y0019770D02*
X0016850D01*
X0017750Y0019680D02*
X0016850D01*
X0017750Y0017340D02*
X0016850D01*
X0017750Y0017300D02*
X0016850D01*
X0017750Y0022250D02*
Y0017300D01*
Y0022250D02*
X0016850D01*
Y0017300D01*
X0017700Y0022250D02*
Y0017300D01*
X0017610Y0022250D02*
Y0017300D01*
X0017520Y0022250D02*
Y0017300D01*
X0017430Y0022250D02*
Y0017300D01*
X0017340Y0022250D02*
Y0017300D01*
X0017250Y0022250D02*
Y0017300D01*
X0017160Y0022250D02*
Y0017300D01*
X0017070Y0022250D02*
Y0017300D01*
X0016980Y0022250D02*
Y0017300D01*
X0016890Y0022250D02*
Y0017300D01*
X0017750Y0022200D02*
X0016850D01*
X0017750Y0022110D02*
X0016850D01*
X0017750Y0022020D02*
X0016850D01*
X0017750Y0021930D02*
X0016850D01*
X0016650Y0019590D02*
X0015750D01*
X0016650Y0019500D02*
X0015750D01*
X0016650Y0019410D02*
X0015750D01*
X0016650Y0019320D02*
X0015750D01*
X0016650Y0019230D02*
X0015750D01*
X0016650Y0019140D02*
X0015750D01*
X0016650Y0019050D02*
X0015750D01*
X0016650Y0018960D02*
X0015750D01*
X0016650Y0018870D02*
X0015750D01*
X0016650Y0018780D02*
X0015750D01*
X0016650Y0018690D02*
X0015750D01*
X0016650Y0018600D02*
X0015750D01*
X0016650Y0018510D02*
X0015750D01*
X0016650Y0018420D02*
X0015750D01*
X0016650Y0018330D02*
X0015750D01*
X0016650Y0018240D02*
X0015750D01*
X0016650Y0018150D02*
X0015750D01*
X0016650Y0018060D02*
X0015750D01*
X0016650Y0017970D02*
X0015750D01*
X0016650Y0017880D02*
X0015750D01*
X0016650Y0017790D02*
X0015750D01*
X0016650Y0017700D02*
X0015750D01*
X0016650Y0017610D02*
X0015750D01*
X0016650Y0017520D02*
X0015750D01*
X0016650Y0017430D02*
X0015750D01*
X0016650Y0021840D02*
X0015750D01*
X0016650Y0021750D02*
X0015750D01*
X0016650Y0021660D02*
X0015750D01*
X0016650Y0021570D02*
X0015750D01*
X0016650Y0021480D02*
X0015750D01*
X0016650Y0021390D02*
X0015750D01*
X0016650Y0021300D02*
X0015750D01*
X0016650Y0021210D02*
X0015750D01*
X0016650Y0021120D02*
X0015750D01*
X0016650Y0021030D02*
X0015750D01*
X0016650Y0020940D02*
X0015750D01*
X0016650Y0020850D02*
X0015750D01*
X0016650Y0020760D02*
X0015750D01*
X0016650Y0020670D02*
X0015750D01*
X0016650Y0020580D02*
X0015750D01*
X0016650Y0020490D02*
X0015750D01*
X0016650Y0020400D02*
X0015750D01*
X0016650Y0020310D02*
X0015750D01*
X0016650Y0020220D02*
X0015750D01*
X0016650Y0020130D02*
X0015750D01*
X0016650Y0020040D02*
X0015750D01*
X0016650Y0019950D02*
X0015750D01*
X0016650Y0019860D02*
X0015750D01*
X0016650Y0019770D02*
X0015750D01*
X0016650Y0019680D02*
X0015750D01*
X0016650Y0017340D02*
X0015750D01*
Y0022250D02*
Y0017300D01*
X0016650Y0022250D02*
X0015750D01*
X0016650D02*
Y0017300D01*
X0015750D01*
X0016600Y0022250D02*
Y0017300D01*
X0016510Y0022250D02*
Y0017300D01*
X0016420Y0022250D02*
Y0017300D01*
X0016330Y0022250D02*
Y0017300D01*
X0016240Y0022250D02*
Y0017300D01*
X0016150Y0022250D02*
Y0017300D01*
X0016060Y0022250D02*
Y0017300D01*
X0015970Y0022250D02*
Y0017300D01*
X0015880Y0022250D02*
Y0017300D01*
X0015790Y0022250D02*
Y0017300D01*
X0016650Y0022200D02*
X0015750D01*
X0016650Y0022110D02*
X0015750D01*
X0016650Y0022020D02*
X0015750D01*
X0016650Y0021930D02*
X0015750D01*
X0001583Y0007771D02*
X0001750Y0007321D01*
X0001400D01*
X0001710Y0007429D02*
Y0007321D01*
X0001620Y0007672D02*
Y0007321D01*
X0001530Y0007640D02*
Y0007321D01*
X0001440Y0007419D02*
Y0007321D01*
X0001602Y0007721D02*
X0001563D01*
X0001635Y0007631D02*
X0001526D01*
X0001668Y0007541D02*
X0001489D01*
X0001702Y0007451D02*
X0001453D01*
X0001735Y0007361D02*
X0001416D01*
X0001583Y0007771D02*
X0001400Y0007321D01*
X0004050Y0018900D02*
Y0007100D01*
X0001950D01*
Y0018900D01*
X0004050D02*
X0001950D01*
G54D52*
G01X0044342Y0007917D02*
X0044425Y0008000D01*
X0044508Y0008042D01*
X0044675D01*
X0044758Y0008000D01*
X0044842Y0007917D01*
Y0007833D01*
X0044758Y0007750D01*
X0044675Y0007708D01*
X0044508D01*
X0044425Y0007750D01*
X0044342Y0007833D01*
Y0007917D01*
X0044592Y0008203D02*
Y0008537D01*
X0044425Y0009032D02*
X0044342Y0008990D01*
Y0008740D01*
X0044425Y0008698D01*
X0044592D01*
X0044675Y0008782D01*
Y0009032D01*
X0044842D01*
Y0008698D01*
X0044342Y0009402D02*
X0044425Y0009485D01*
X0044508Y0009527D01*
X0044675D01*
X0044758Y0009485D01*
X0044842Y0009402D01*
Y0009318D01*
X0044758Y0009235D01*
X0044675Y0009193D01*
X0044508D01*
X0044425Y0009235D01*
X0044342Y0009318D01*
Y0009402D01*
X0044425Y0010022D02*
X0044342Y0009938D01*
Y0009772D01*
X0044425Y0009688D01*
X0044508D01*
X0044675Y0009855D01*
X0044842Y0009688D01*
Y0010022D01*
X0044592Y0010183D02*
Y0010517D01*
X0044342Y0010678D02*
Y0011012D01*
X0044675Y0010678D01*
X0044758D01*
X0044842Y0010720D01*
Y0010970D01*
X0044758Y0011012D01*
X0044342Y0011173D02*
Y0011507D01*
X0044675Y0011173D01*
X0044758D01*
X0044842Y0011215D01*
Y0011465D01*
X0044758Y0011507D01*
X0015010Y0024214D02*
X0015410Y0024074D01*
Y0024261D01*
X0015010Y0024404D02*
Y0024591D01*
X0015277Y0024404D01*
X0015344D01*
X0015410Y0024428D01*
Y0024568D01*
X0015344Y0024591D01*
X0015077Y0024734D02*
X0015010Y0024758D01*
Y0024898D01*
X0015077Y0024921D01*
X0015344D01*
X0015410Y0024898D01*
Y0024758D01*
X0015344Y0024734D01*
X0023711Y0016879D02*
X0024111Y0016739D01*
Y0016926D01*
X0023711Y0017069D02*
Y0017233D01*
X0024111D01*
X0021861Y0015786D02*
Y0015973D01*
X0022128Y0015786D01*
X0022194D01*
X0022261Y0015809D01*
Y0015949D01*
X0022194Y0015973D01*
X0021928Y0016303D02*
X0021861Y0016256D01*
Y0016163D01*
X0021928Y0016116D01*
X0021994D01*
X0022128Y0016209D01*
X0022261Y0016116D01*
Y0016303D01*
X0022061Y0016516D02*
X0021861Y0016446D01*
X0022061Y0016633D02*
Y0016493D01*
X0022128Y0016446D01*
X0022194D01*
X0022261Y0016493D01*
Y0016633D01*
X0021861D01*
X0014473Y0007532D02*
Y0007625D01*
Y0007579D02*
X0014873D01*
X0014806Y0007625D01*
X0014539Y0008002D02*
X0014473Y0007955D01*
Y0007862D01*
X0014539Y0007815D01*
X0014606D01*
X0014739Y0007909D01*
X0014873Y0007815D01*
Y0008002D01*
X0014539Y0008145D02*
X0014473Y0008169D01*
Y0008309D01*
X0014539Y0008332D01*
X0014806D01*
X0014873Y0008309D01*
Y0008169D01*
X0014806Y0008145D01*
X0018073Y0020822D02*
X0018139Y0020869D01*
X0018206Y0020892D01*
X0018339D01*
X0018406Y0020869D01*
X0018473Y0020822D01*
Y0020775D01*
X0018406Y0020729D01*
X0018339Y0020705D01*
X0018206D01*
X0018139Y0020729D01*
X0018073Y0020775D01*
Y0020822D01*
Y0021035D02*
Y0021129D01*
Y0021082D02*
X0018473D01*
X0018406Y0021129D01*
X0018073Y0021319D02*
Y0021482D01*
X0018473D01*
X0014061Y0006173D02*
X0013874D01*
X0014061Y0006439D01*
Y0006506D01*
X0014038Y0006573D01*
X0013898D01*
X0013874Y0006506D01*
X0013731Y0006173D02*
X0013568D01*
Y0006573D01*
X0016777Y0013811D02*
X0016710Y0013788D01*
Y0013648D01*
X0016777Y0013624D01*
X0016910D01*
X0016977Y0013671D01*
Y0013811D01*
X0017110D01*
Y0013624D01*
X0016710Y0013954D02*
Y0014141D01*
X0016977Y0013954D01*
X0017044D01*
X0017110Y0013978D01*
Y0014118D01*
X0017044Y0014141D01*
X0016910Y0014354D02*
X0016710Y0014284D01*
X0016910Y0014471D02*
Y0014331D01*
X0016977Y0014284D01*
X0017044D01*
X0017110Y0014331D01*
Y0014471D01*
X0016710D01*
X0006071Y0021323D02*
X0005978D01*
X0006024D02*
Y0021723D01*
X0005978Y0021656D01*
X0005788Y0021323D02*
X0005694D01*
X0005741D02*
Y0021723D01*
X0005694Y0021656D01*
X0005434Y0021523D02*
X0005504Y0021323D01*
X0005318Y0021523D02*
X0005458D01*
X0005504Y0021589D01*
Y0021656D01*
X0005458Y0021723D01*
X0005318D01*
Y0021323D01*
X0007728Y0004523D02*
X0007661Y0004499D01*
Y0004359D01*
X0007728Y0004336D01*
X0007861D01*
X0007928Y0004383D01*
Y0004523D01*
X0008061D01*
Y0004336D01*
X0007794Y0004666D02*
Y0004853D01*
X0008061Y0004759D01*
Y0004713D01*
X0007661D01*
X0007861Y0005066D02*
X0007661Y0004996D01*
X0007861Y0005183D02*
Y0005043D01*
X0007928Y0004996D01*
X0007994D01*
X0008061Y0005043D01*
Y0005183D01*
X0007661D01*
X0013226Y0006122D02*
X0013039D01*
X0013226Y0006389D01*
Y0006455D01*
X0013203Y0006522D01*
X0013063D01*
X0013039Y0006455D01*
X0012709Y0006189D02*
X0012756Y0006122D01*
X0012849D01*
X0012896Y0006189D01*
Y0006255D01*
X0012803Y0006389D01*
X0012896Y0006522D01*
X0012709D01*
X0012566Y0006189D02*
X0012543Y0006122D01*
X0012403D01*
X0012379Y0006189D01*
Y0006455D01*
X0012403Y0006522D01*
X0012543D01*
X0012566Y0006455D01*
X0005755Y0024560D02*
X0005569D01*
X0005755Y0024827D01*
Y0024894D01*
X0005732Y0024960D01*
X0005592D01*
X0005569Y0024894D01*
X0005425Y0024560D02*
X0005332D01*
X0005379D02*
Y0024960D01*
X0005332Y0024894D01*
X0005142Y0024560D02*
X0004979D01*
Y0024960D01*
X0023855Y0015074D02*
Y0015260D01*
X0024122Y0015167D01*
Y0015120D01*
X0023722D01*
X0023789Y0015590D02*
X0023722Y0015544D01*
Y0015450D01*
X0023789Y0015404D01*
X0023855D01*
X0023989Y0015497D01*
X0024122Y0015404D01*
Y0015590D01*
X0023922Y0015804D02*
X0023722Y0015734D01*
X0023922Y0015920D02*
Y0015780D01*
X0023989Y0015734D01*
X0024055D01*
X0024122Y0015780D01*
Y0015920D01*
X0023722D01*
X0012023Y0016755D02*
X0012089Y0016732D01*
X0012156D01*
X0012223Y0016755D01*
Y0016895D01*
X0012156Y0016919D01*
X0012089D01*
X0012023Y0016895D01*
Y0016755D01*
X0011956Y0016732D01*
X0011889D01*
X0011823Y0016755D01*
Y0016895D01*
X0011889Y0016919D01*
X0011956D01*
X0012023Y0016895D01*
X0011823Y0017062D02*
Y0017155D01*
Y0017109D02*
X0012223D01*
X0012156Y0017155D01*
X0012023Y0017415D02*
X0011823Y0017345D01*
X0012023Y0017532D02*
Y0017392D01*
X0012089Y0017345D01*
X0012156D01*
X0012223Y0017392D01*
Y0017532D01*
X0011823D01*
X0006098Y0001273D02*
X0006051Y0001339D01*
X0006028Y0001406D01*
Y0001539D01*
X0006051Y0001606D01*
X0006098Y0001673D01*
X0006144D01*
X0006191Y0001606D01*
X0006214Y0001539D01*
Y0001406D01*
X0006191Y0001339D01*
X0006144Y0001273D01*
X0006098D01*
X0005698Y0001339D02*
X0005721Y0001273D01*
X0005861D01*
X0005884Y0001339D01*
Y0001473D01*
X0005838Y0001539D01*
X0005698D01*
Y0001673D01*
X0005884D01*
X0005484Y0001473D02*
X0005554Y0001273D01*
X0005368Y0001473D02*
X0005508D01*
X0005554Y0001539D01*
Y0001606D01*
X0005508Y0001673D01*
X0005368D01*
Y0001273D01*
X0015173Y0022959D02*
Y0023099D01*
X0015239Y0023122D01*
X0015306D01*
X0015373Y0023099D01*
Y0022959D01*
X0015306Y0022935D01*
X0015239D01*
X0014973Y0023029D01*
Y0023265D02*
Y0023452D01*
X0015239Y0023265D01*
X0015306D01*
X0015373Y0023289D01*
Y0023429D01*
X0015306Y0023452D01*
X0015039Y0023595D02*
X0014973Y0023619D01*
Y0023759D01*
X0015039Y0023782D01*
X0015306D01*
X0015373Y0023759D01*
Y0023619D01*
X0015306Y0023595D01*
X0008959Y0010747D02*
X0009099Y0011147D01*
X0008913D01*
X0008769Y0010747D02*
X0008583D01*
X0008769Y0011014D01*
Y0011080D01*
X0008746Y0011147D01*
X0008606D01*
X0008583Y0011080D01*
X0008439Y0011147D02*
Y0010814D01*
X0008416Y0010747D01*
X0008276D01*
X0008253Y0010814D01*
Y0011147D01*
X0011873Y0010199D02*
Y0010059D01*
X0011806Y0010035D01*
X0011739D01*
X0011673Y0010059D01*
Y0010199D01*
X0011739Y0010222D01*
X0011806D01*
X0012073Y0010129D01*
X0011739Y0010552D02*
X0011673Y0010529D01*
Y0010389D01*
X0011739Y0010365D01*
X0011873D01*
X0011939Y0010412D01*
Y0010552D01*
X0012073D01*
Y0010365D01*
X0011873Y0010765D02*
X0011673Y0010695D01*
X0011873Y0010882D02*
Y0010742D01*
X0011939Y0010695D01*
X0012006D01*
X0012073Y0010742D01*
Y0010882D01*
X0011673D01*
X0042950Y0003681D02*
X0042763D01*
X0042950Y0003948D01*
Y0004015D01*
X0042927Y0004081D01*
X0042787D01*
X0042763Y0004015D01*
X0042620Y0003681D02*
X0042527D01*
X0042573D02*
Y0004081D01*
X0042527Y0004015D01*
X0042337Y0003748D02*
X0042313Y0003681D01*
X0042173D01*
X0042150Y0003748D01*
Y0004015D01*
X0042173Y0004081D01*
X0042313D01*
X0042337Y0004015D01*
X0013161Y0008189D02*
Y0008329D01*
X0013228Y0008353D01*
X0013294D01*
X0013361Y0008329D01*
Y0008189D01*
X0013294Y0008166D01*
X0013228D01*
X0012961Y0008259D01*
X0013028Y0008496D02*
X0012961Y0008519D01*
Y0008659D01*
X0013028Y0008683D01*
X0013294D01*
X0013361Y0008659D01*
Y0008519D01*
X0013294Y0008496D01*
X0007785Y0008996D02*
X0007719Y0008973D01*
Y0008833D01*
X0007785Y0008810D01*
X0007919D01*
X0007985Y0008856D01*
Y0008996D01*
X0008119D01*
Y0008810D01*
X0007719Y0009140D02*
Y0009233D01*
Y0009186D02*
X0008119D01*
X0008052Y0009233D01*
X0007719Y0009586D02*
X0008119D01*
X0007719Y0009610D02*
Y0009470D01*
X0007852Y0009423D01*
X0007985D01*
X0008119Y0009470D01*
Y0009610D01*
X0035120Y0007566D02*
X0035143Y0007499D01*
X0035283D01*
X0035307Y0007566D01*
Y0007699D01*
X0035260Y0007766D01*
X0035120D01*
Y0007899D01*
X0035307D01*
X0034977Y0007832D02*
X0034953Y0007899D01*
X0034813D01*
X0034790Y0007832D01*
Y0007766D01*
X0034813Y0007699D01*
X0034953D01*
X0034977Y0007632D01*
Y0007566D01*
X0034953Y0007499D01*
X0034813D01*
X0034790Y0007566D01*
X0034647Y0007899D02*
Y0007766D01*
X0034553Y0007499D01*
X0034460Y0007766D01*
Y0007899D01*
X0034223Y0007499D02*
Y0007899D01*
X0034317D02*
X0034130D01*
X0007999Y0007947D02*
X0008066Y0007994D01*
X0008133Y0008017D01*
X0008266D01*
X0008333Y0007994D01*
X0008399Y0007947D01*
Y0007900D01*
X0008333Y0007854D01*
X0008266Y0007830D01*
X0008133D01*
X0008066Y0007854D01*
X0007999Y0007900D01*
Y0007947D01*
X0008066Y0008347D02*
X0007999Y0008300D01*
Y0008207D01*
X0008066Y0008160D01*
X0008133D01*
X0008266Y0008254D01*
X0008399Y0008160D01*
Y0008347D01*
Y0008490D02*
X0008066D01*
X0007999Y0008514D01*
Y0008654D01*
X0008066Y0008677D01*
X0008399D01*
X0030504Y0020170D02*
X0030644D01*
X0030668Y0020103D01*
Y0020036D01*
X0030644Y0019970D01*
X0030504D01*
X0030481Y0020036D01*
Y0020103D01*
X0030574Y0020370D01*
X0030268Y0020170D02*
X0030338Y0019970D01*
X0030151Y0020170D02*
X0030291D01*
X0030338Y0020236D01*
Y0020303D01*
X0030291Y0020370D01*
X0030151D01*
Y0019970D01*
X0041789Y0021440D02*
X0041722Y0021394D01*
Y0021300D01*
X0041789Y0021254D01*
X0041855D01*
X0041989Y0021347D01*
X0042122Y0021254D01*
Y0021440D01*
X0041789Y0021584D02*
X0041722Y0021607D01*
Y0021747D01*
X0041789Y0021770D01*
X0042055D01*
X0042122Y0021747D01*
Y0021607D01*
X0042055Y0021584D01*
X0012364Y0005090D02*
Y0005183D01*
Y0005137D02*
X0012764D01*
X0012698Y0005183D01*
X0012364Y0005373D02*
Y0005467D01*
Y0005420D02*
X0012764D01*
X0012698Y0005467D01*
X0012364Y0005820D02*
X0012764D01*
X0012364Y0005843D02*
Y0005703D01*
X0012498Y0005657D01*
X0012631D01*
X0012764Y0005703D01*
Y0005843D01*
X0016076Y0005805D02*
X0015889D01*
X0015983Y0006072D01*
X0016029D01*
Y0005672D01*
X0015746D02*
X0015559D01*
X0015746Y0005939D01*
Y0006005D01*
X0015723Y0006072D01*
X0015583D01*
X0015559Y0006005D01*
X0015416Y0005739D02*
X0015393Y0005672D01*
X0015253D01*
X0015229Y0005739D01*
Y0006005D01*
X0015253Y0006072D01*
X0015393D01*
X0015416Y0006005D01*
X0023922Y0010547D02*
Y0010687D01*
X0023989Y0010710D01*
X0024055D01*
X0024122Y0010687D01*
Y0010547D01*
X0024055Y0010524D01*
X0023989D01*
X0023722Y0010617D01*
X0023789Y0011040D02*
X0023722Y0011017D01*
Y0010877D01*
X0023789Y0010854D01*
X0023922D01*
X0023989Y0010900D01*
Y0011040D01*
X0024122D01*
Y0010854D01*
X0023922Y0011254D02*
X0023722Y0011184D01*
X0023922Y0011370D02*
Y0011230D01*
X0023989Y0011184D01*
X0024055D01*
X0024122Y0011230D01*
Y0011370D01*
X0023722D01*
X0015353Y0000484D02*
X0015493Y0000884D01*
X0015306D01*
X0015163Y0000817D02*
X0015140Y0000884D01*
X0015000D01*
X0014976Y0000817D01*
Y0000751D01*
X0015000Y0000684D01*
X0015140D01*
X0015163Y0000617D01*
Y0000551D01*
X0015140Y0000484D01*
X0015000D01*
X0014976Y0000551D01*
X0014833Y0000884D02*
Y0000751D01*
X0014740Y0000484D01*
X0014646Y0000751D01*
Y0000884D01*
X0014410Y0000484D02*
Y0000884D01*
X0014503D02*
X0014316D01*
X0014610Y0008991D02*
X0014677Y0009038D01*
X0014744Y0009061D01*
X0014877D01*
X0014944Y0009038D01*
X0015010Y0008991D01*
Y0008944D01*
X0014944Y0008898D01*
X0014877Y0008874D01*
X0014744D01*
X0014677Y0008898D01*
X0014610Y0008944D01*
Y0008991D01*
X0014810Y0009368D02*
Y0009228D01*
X0014744Y0009204D01*
X0014677D01*
X0014610Y0009228D01*
Y0009368D01*
X0014677Y0009391D01*
X0014744D01*
X0015010Y0009298D01*
X0014810Y0009604D02*
X0014610Y0009534D01*
X0014810Y0009721D02*
Y0009581D01*
X0014877Y0009534D01*
X0014944D01*
X0015010Y0009581D01*
Y0009721D01*
X0014610D01*
X0014604Y0015140D02*
X0014671Y0015187D01*
X0014737Y0015210D01*
X0014871D01*
X0014937Y0015187D01*
X0015004Y0015140D01*
Y0015093D01*
X0014937Y0015047D01*
X0014871Y0015023D01*
X0014737D01*
X0014671Y0015047D01*
X0014604Y0015093D01*
Y0015140D01*
Y0015353D02*
Y0015447D01*
Y0015400D02*
X0015004D01*
X0014937Y0015447D01*
X0015004Y0015637D02*
X0014671D01*
X0014604Y0015660D01*
Y0015800D01*
X0014671Y0015823D01*
X0015004D01*
X0016077Y0009411D02*
X0016010Y0009388D01*
Y0009248D01*
X0016077Y0009224D01*
X0016210D01*
X0016277Y0009271D01*
Y0009411D01*
X0016410D01*
Y0009224D01*
X0016077Y0009741D02*
X0016010Y0009718D01*
Y0009578D01*
X0016077Y0009554D01*
X0016210D01*
X0016277Y0009601D01*
Y0009741D01*
X0016410D01*
Y0009554D01*
X0016210Y0009954D02*
X0016010Y0009884D01*
X0016210Y0010071D02*
Y0009931D01*
X0016277Y0009884D01*
X0016344D01*
X0016410Y0009931D01*
Y0010071D01*
X0016010D01*
X0042653Y0007031D02*
X0042560D01*
X0042607D02*
Y0007431D01*
X0042560Y0007365D01*
X0042370Y0007031D02*
X0042277D01*
X0042323D02*
Y0007431D01*
X0042277Y0007365D01*
X0042087Y0007098D02*
X0042063Y0007031D01*
X0041923D01*
X0041900Y0007098D01*
Y0007365D01*
X0041923Y0007431D01*
X0042063D01*
X0042087Y0007365D01*
X0015377Y0016441D02*
X0015310Y0016418D01*
Y0016278D01*
X0015377Y0016254D01*
X0015510D01*
X0015577Y0016301D01*
Y0016441D01*
X0015710D01*
Y0016254D01*
X0015377Y0016584D02*
X0015310Y0016608D01*
Y0016748D01*
X0015377Y0016771D01*
X0015644D01*
X0015710Y0016748D01*
Y0016608D01*
X0015644Y0016584D01*
X0009047Y0017286D02*
X0008954D01*
X0009001D02*
Y0017686D01*
X0008954Y0017619D01*
X0008764Y0017286D02*
X0008671D01*
X0008717D02*
Y0017686D01*
X0008671Y0017619D01*
X0008481Y0017686D02*
Y0017353D01*
X0008457Y0017286D01*
X0008317D01*
X0008294Y0017353D01*
Y0017686D01*
X0016548Y0007123D02*
X0016688D01*
X0016711Y0007056D01*
Y0006989D01*
X0016688Y0006923D01*
X0016548D01*
X0016524Y0006989D01*
Y0007056D01*
X0016618Y0007323D01*
X0016381Y0006923D02*
X0016218D01*
Y0007323D01*
X0007744Y0006386D02*
Y0006573D01*
X0008011Y0006479D01*
Y0006433D01*
X0007611D01*
X0007744Y0006716D02*
Y0006903D01*
X0008011Y0006809D01*
Y0006763D01*
X0007611D01*
X0007811Y0007116D02*
X0007611Y0007046D01*
X0007811Y0007233D02*
Y0007093D01*
X0007878Y0007046D01*
X0007944D01*
X0008011Y0007093D01*
Y0007233D01*
X0007611D01*
X0027836Y0015836D02*
Y0015929D01*
Y0015883D02*
X0028236D01*
X0028169Y0015929D01*
X0028236Y0016119D02*
X0027903D01*
X0027836Y0016143D01*
Y0016283D01*
X0027903Y0016306D01*
X0028236D01*
X0041204Y0009274D02*
Y0009367D01*
Y0009320D02*
X0041604D01*
X0041537Y0009367D01*
X0041404Y0009627D02*
X0041204Y0009557D01*
X0041404Y0009744D02*
Y0009604D01*
X0041471Y0009557D01*
X0041537D01*
X0041604Y0009604D01*
Y0009744D01*
X0041204D01*
X0041404Y0009934D02*
Y0010074D01*
X0041204D02*
X0041604D01*
Y0009887D01*
X0002767Y0019130D02*
Y0019223D01*
Y0019177D02*
X0003167D01*
X0003100Y0019223D01*
X0002900Y0019577D02*
X0002833D01*
X0002767Y0019553D01*
Y0019460D01*
X0002833Y0019437D01*
X0003167D01*
Y0019413D02*
Y0019507D01*
X0044017Y0013137D02*
Y0013230D01*
Y0013183D02*
X0044417D01*
X0044350Y0013230D01*
X0041967Y0013533D02*
Y0013720D01*
X0042233Y0013533D01*
X0042300D01*
X0042367Y0013557D01*
Y0013697D01*
X0042300Y0013720D01*
X0042100Y0014027D02*
X0042033D01*
X0041967Y0014003D01*
Y0013910D01*
X0042033Y0013887D01*
X0042367D01*
Y0013863D02*
Y0013957D01*
X0016060Y0016341D02*
X0016127Y0016388D01*
X0016194Y0016411D01*
X0016327D01*
X0016394Y0016388D01*
X0016460Y0016341D01*
Y0016294D01*
X0016394Y0016248D01*
X0016327Y0016224D01*
X0016194D01*
X0016127Y0016248D01*
X0016060Y0016294D01*
Y0016341D01*
Y0016554D02*
Y0016741D01*
X0016327Y0016554D01*
X0016394D01*
X0016460Y0016578D01*
Y0016718D01*
X0016394Y0016741D01*
X0016260Y0016954D02*
X0016060Y0016884D01*
X0016260Y0017071D02*
Y0016931D01*
X0016327Y0016884D01*
X0016394D01*
X0016460Y0016931D01*
Y0017071D01*
X0016060D01*
X0040372Y0008137D02*
X0040439Y0008184D01*
X0040505Y0008207D01*
X0040639D01*
X0040705Y0008184D01*
X0040772Y0008137D01*
Y0008090D01*
X0040705Y0008044D01*
X0040639Y0008020D01*
X0040505D01*
X0040439Y0008044D01*
X0040372Y0008090D01*
Y0008137D01*
Y0008350D02*
Y0008444D01*
Y0008397D02*
X0040772D01*
X0040705Y0008444D01*
X0040439Y0008634D02*
X0040372Y0008657D01*
Y0008797D01*
X0040439Y0008820D01*
X0040705D01*
X0040772Y0008797D01*
Y0008657D01*
X0040705Y0008634D01*
X0019738Y0007523D02*
X0019598D01*
X0019574Y0007589D01*
Y0007656D01*
X0019598Y0007723D01*
X0019738D01*
X0019761Y0007656D01*
Y0007589D01*
X0019668Y0007323D01*
X0019431D02*
X0019268D01*
Y0007723D01*
X0008839Y0012547D02*
X0008979D01*
X0009003Y0012480D01*
Y0012414D01*
X0008979Y0012347D01*
X0008839D01*
X0008816Y0012414D01*
Y0012480D01*
X0008909Y0012747D01*
X0008673Y0012347D02*
X0008579D01*
X0008626D02*
Y0012747D01*
X0008579Y0012680D01*
X0008389Y0012747D02*
Y0012414D01*
X0008366Y0012347D01*
X0008226D01*
X0008203Y0012414D01*
Y0012747D01*
X0032357Y0008127D02*
Y0008220D01*
Y0008173D02*
X0032757D01*
X0032690Y0008220D01*
X0032350Y0012817D02*
X0032163D01*
X0032350Y0013083D01*
Y0013150D01*
X0032327Y0013217D01*
X0032187D01*
X0032163Y0013150D01*
X0032020Y0012817D02*
X0031927D01*
X0031973D02*
Y0013217D01*
X0031927Y0013150D01*
X0031573Y0012950D02*
Y0012883D01*
X0031597Y0012817D01*
X0031690D01*
X0031713Y0012883D01*
Y0013217D01*
X0031737D02*
X0031643D01*
X0009153Y0013847D02*
X0008966D01*
X0009153Y0014114D01*
Y0014180D01*
X0009129Y0014247D01*
X0008989D01*
X0008966Y0014180D01*
X0008823Y0013847D02*
X0008729D01*
X0008776D02*
Y0014247D01*
X0008729Y0014180D01*
X0008539Y0014247D02*
Y0013914D01*
X0008516Y0013847D01*
X0008376D01*
X0008353Y0013914D01*
Y0014247D01*
X0022217Y0002606D02*
Y0002746D01*
X0022283Y0002770D01*
X0022350D01*
X0022417Y0002746D01*
Y0002606D01*
X0022350Y0002583D01*
X0022283D01*
X0022017Y0002676D01*
X0022150Y0003076D02*
X0022083D01*
X0022017Y0003053D01*
Y0002960D01*
X0022083Y0002936D01*
X0022417D01*
Y0002913D02*
Y0003006D01*
X0014762Y0013480D02*
Y0013666D01*
X0015029Y0013573D01*
Y0013526D01*
X0014629D01*
Y0013810D02*
Y0013903D01*
Y0013856D02*
X0015029D01*
X0014962Y0013903D01*
X0015029Y0014093D02*
X0014696D01*
X0014629Y0014116D01*
Y0014256D01*
X0014696Y0014280D01*
X0015029D01*
X0004870Y0007492D02*
X0005270Y0007352D01*
Y0007539D01*
X0004936Y0007869D02*
X0004870Y0007822D01*
Y0007729D01*
X0004936Y0007682D01*
X0005003D01*
X0005136Y0007775D01*
X0005270Y0007682D01*
Y0007869D01*
X0005070Y0008082D02*
X0004870Y0008012D01*
X0005070Y0008199D02*
Y0008059D01*
X0005136Y0008012D01*
X0005203D01*
X0005270Y0008059D01*
Y0008199D01*
X0004870D01*
X0012354Y0007883D02*
X0012308Y0007950D01*
X0012284Y0008017D01*
Y0008150D01*
X0012308Y0008217D01*
X0012354Y0008283D01*
X0012401D01*
X0012448Y0008217D01*
X0012471Y0008150D01*
Y0008017D01*
X0012448Y0007950D01*
X0012401Y0007883D01*
X0012354D01*
X0012141D02*
X0012048D01*
X0012094D02*
Y0008283D01*
X0012048Y0008217D01*
X0011694Y0007883D02*
Y0008283D01*
X0011671Y0007883D02*
X0011811D01*
X0011858Y0008017D01*
Y0008150D01*
X0011811Y0008283D01*
X0011671D01*
X0015370Y0002565D02*
Y0002425D01*
X0015303Y0002402D01*
X0015236D01*
X0015170Y0002425D01*
Y0002565D01*
X0015236Y0002589D01*
X0015303D01*
X0015570Y0002495D01*
X0015236Y0002919D02*
X0015170Y0002872D01*
Y0002779D01*
X0015236Y0002732D01*
X0015303D01*
X0015436Y0002825D01*
X0015570Y0002732D01*
Y0002919D01*
X0015370Y0003132D02*
X0015170Y0003062D01*
X0015370Y0003249D02*
Y0003109D01*
X0015436Y0003062D01*
X0015503D01*
X0015570Y0003109D01*
Y0003249D01*
X0015170D01*
X0022673Y0003946D02*
Y0004039D01*
Y0003992D02*
X0023073D01*
X0023007Y0004039D01*
X0022673Y0004229D02*
Y0004322D01*
Y0004276D02*
X0023073D01*
X0023007Y0004322D01*
Y0004512D02*
X0023073Y0004536D01*
Y0004676D01*
X0023007Y0004699D01*
X0022940D01*
X0022873Y0004676D01*
Y0004536D01*
X0022807Y0004512D01*
X0022740D01*
X0022673Y0004536D01*
Y0004676D01*
X0022740Y0004699D01*
X0023073Y0004842D02*
X0022940D01*
X0022673Y0004936D01*
X0022940Y0005029D01*
X0023073D01*
X0022673Y0005266D02*
X0023073D01*
Y0005172D02*
Y0005359D01*
X0018011Y0007986D02*
Y0008173D01*
X0018278Y0007986D01*
X0018344D01*
X0018411Y0008009D01*
Y0008149D01*
X0018344Y0008173D01*
X0018078Y0008503D02*
X0018011Y0008479D01*
Y0008339D01*
X0018078Y0008316D01*
X0018211D01*
X0018278Y0008363D01*
Y0008503D01*
X0018411D01*
Y0008316D01*
X0018211Y0008716D02*
X0018011Y0008646D01*
X0018211Y0008833D02*
Y0008693D01*
X0018278Y0008646D01*
X0018344D01*
X0018411Y0008693D01*
Y0008833D01*
X0018011D01*
X0006218Y0012273D02*
X0006124D01*
X0006171D02*
Y0012673D01*
X0006124Y0012606D01*
X0005748Y0012339D02*
X0005771Y0012273D01*
X0005911D01*
X0005934Y0012339D01*
Y0012473D01*
X0005888Y0012539D01*
X0005748D01*
Y0012673D01*
X0005934D01*
X0005534Y0012473D02*
X0005604Y0012273D01*
X0005418Y0012473D02*
X0005558D01*
X0005604Y0012539D01*
Y0012606D01*
X0005558Y0012673D01*
X0005418D01*
Y0012273D01*
X0004936Y0003589D02*
X0004870Y0003565D01*
Y0003425D01*
X0004936Y0003402D01*
X0005070D01*
X0005136Y0003449D01*
Y0003589D01*
X0005270D01*
Y0003402D01*
X0004936Y0003919D02*
X0004870Y0003872D01*
Y0003779D01*
X0004936Y0003732D01*
X0005003D01*
X0005136Y0003825D01*
X0005270Y0003732D01*
Y0003919D01*
X0005070Y0004132D02*
X0004870Y0004062D01*
X0005070Y0004249D02*
Y0004109D01*
X0005136Y0004062D01*
X0005203D01*
X0005270Y0004109D01*
Y0004249D01*
X0004870D01*
X0004914Y0011104D02*
Y0011198D01*
Y0011151D02*
X0005314D01*
X0005247Y0011198D01*
X0004980Y0011574D02*
X0004914Y0011528D01*
Y0011434D01*
X0004980Y0011388D01*
X0005047D01*
X0005180Y0011481D01*
X0005314Y0011388D01*
Y0011574D01*
X0005114Y0011788D02*
X0004914Y0011718D01*
X0005114Y0011904D02*
Y0011764D01*
X0005180Y0011718D01*
X0005247D01*
X0005314Y0011764D01*
Y0011904D01*
X0004914D01*
X0036467Y0017297D02*
Y0017390D01*
Y0017343D02*
X0036867D01*
X0036800Y0017390D01*
X0036467Y0017580D02*
Y0017673D01*
Y0017627D02*
X0036867D01*
X0036800Y0017673D01*
X0036600Y0018027D02*
X0036533D01*
X0036467Y0018003D01*
Y0017910D01*
X0036533Y0017887D01*
X0036867D01*
Y0017863D02*
Y0017957D01*
X0039667Y0016387D02*
Y0016480D01*
Y0016433D02*
X0040067D01*
X0040000Y0016480D01*
X0008169Y0011250D02*
X0008192Y0011316D01*
Y0011383D01*
X0008169Y0011450D01*
X0008029D01*
X0008005Y0011383D01*
Y0011316D01*
X0008029Y0011250D01*
X0008169D01*
X0008192Y0011183D01*
Y0011116D01*
X0008169Y0011050D01*
X0008029D01*
X0008005Y0011116D01*
Y0011183D01*
X0008029Y0011250D01*
X0007699Y0011050D02*
Y0011450D01*
X0007675Y0011050D02*
X0007815D01*
X0007862Y0011183D01*
Y0011316D01*
X0007815Y0011450D01*
X0007675D01*
X0015073Y0011622D02*
X0015096Y0011689D01*
Y0011755D01*
X0015073Y0011822D01*
X0014933D01*
X0014909Y0011755D01*
Y0011689D01*
X0014933Y0011622D01*
X0015073D01*
X0015096Y0011555D01*
Y0011489D01*
X0015073Y0011422D01*
X0014933D01*
X0014909Y0011489D01*
Y0011555D01*
X0014933Y0011622D01*
X0014766Y0011489D02*
X0014743Y0011422D01*
X0014603D01*
X0014579Y0011489D01*
Y0011755D01*
X0014603Y0011822D01*
X0014743D01*
X0014766Y0011755D01*
X0037178Y0008223D02*
X0037111Y0008176D01*
Y0008083D01*
X0037178Y0008036D01*
X0037244D01*
X0037378Y0008129D01*
X0037511Y0008036D01*
Y0008223D01*
X0037311Y0008529D02*
Y0008389D01*
X0037244Y0008366D01*
X0037178D01*
X0037111Y0008389D01*
Y0008529D01*
X0037178Y0008553D01*
X0037244D01*
X0037511Y0008459D01*
X0037311Y0008766D02*
X0037111Y0008696D01*
X0037311Y0008883D02*
Y0008743D01*
X0037378Y0008696D01*
X0037444D01*
X0037511Y0008743D01*
Y0008883D01*
X0037111D01*
X0027776Y0002521D02*
X0027710Y0002474D01*
Y0002381D01*
X0027776Y0002334D01*
X0027843D01*
X0027976Y0002427D01*
X0028110Y0002334D01*
Y0002521D01*
X0027710Y0002664D02*
Y0002757D01*
Y0002711D02*
X0028110D01*
X0028043Y0002757D01*
Y0002947D02*
X0028110Y0002971D01*
Y0003111D01*
X0028043Y0003134D01*
X0027976D01*
X0027910Y0003111D01*
Y0002971D01*
X0027843Y0002947D01*
X0027776D01*
X0027710Y0002971D01*
Y0003111D01*
X0027776Y0003134D01*
X0028110Y0003277D02*
X0027976D01*
X0027710Y0003371D01*
X0027976Y0003464D01*
X0028110D01*
X0027710Y0003701D02*
X0028110D01*
Y0003607D02*
Y0003794D01*
X0005114Y0013221D02*
Y0013081D01*
X0005047Y0013058D01*
X0004980D01*
X0004914Y0013081D01*
Y0013221D01*
X0004980Y0013244D01*
X0005047D01*
X0005314Y0013151D01*
X0004914Y0013388D02*
Y0013574D01*
X0005180Y0013388D01*
X0005247D01*
X0005314Y0013411D01*
Y0013551D01*
X0005247Y0013574D01*
X0005114Y0013788D02*
X0004914Y0013718D01*
X0005114Y0013904D02*
Y0013764D01*
X0005180Y0013718D01*
X0005247D01*
X0005314Y0013764D01*
Y0013904D01*
X0004914D01*
X0031668Y0020103D02*
X0031481D01*
X0031574Y0020370D01*
X0031621D01*
Y0019970D01*
X0031268Y0020170D02*
X0031338Y0019970D01*
X0031151Y0020170D02*
X0031291D01*
X0031338Y0020236D01*
Y0020303D01*
X0031291Y0020370D01*
X0031151D01*
Y0019970D01*
X0029477Y0013741D02*
X0029410Y0013718D01*
Y0013578D01*
X0029477Y0013554D01*
X0029610D01*
X0029677Y0013601D01*
Y0013741D01*
X0029810D01*
Y0013554D01*
X0029610Y0013954D02*
X0029410Y0013884D01*
X0029610Y0014071D02*
Y0013931D01*
X0029677Y0013884D01*
X0029744D01*
X0029810Y0013931D01*
Y0014071D01*
X0029410D01*
X0020473Y0017149D02*
Y0017009D01*
X0020406Y0016985D01*
X0020339D01*
X0020273Y0017009D01*
Y0017149D01*
X0020339Y0017172D01*
X0020406D01*
X0020673Y0017079D01*
X0020273Y0017315D02*
Y0017502D01*
X0020539Y0017315D01*
X0020606D01*
X0020673Y0017339D01*
Y0017479D01*
X0020606Y0017502D01*
X0020339Y0017645D02*
X0020273Y0017669D01*
Y0017809D01*
X0020339Y0017832D01*
X0020606D01*
X0020673Y0017809D01*
Y0017669D01*
X0020606Y0017645D01*
X0015334Y0021861D02*
X0015357Y0021794D01*
X0015497D01*
X0015520Y0021861D01*
Y0021994D01*
X0015474Y0022061D01*
X0015334D01*
Y0022194D01*
X0015520D01*
X0015190Y0021794D02*
X0015097D01*
X0015144D02*
Y0022194D01*
X0015097Y0022128D01*
X0014837Y0021994D02*
X0014907Y0021794D01*
X0014720Y0021994D02*
X0014860D01*
X0014907Y0022061D01*
Y0022128D01*
X0014860Y0022194D01*
X0014720D01*
Y0021794D01*
X0005070Y0002315D02*
Y0002175D01*
X0005003Y0002152D01*
X0004936D01*
X0004870Y0002175D01*
Y0002315D01*
X0004936Y0002339D01*
X0005003D01*
X0005270Y0002245D01*
X0005003Y0002482D02*
Y0002669D01*
X0005270Y0002575D01*
Y0002529D01*
X0004870D01*
X0005070Y0002882D02*
X0004870Y0002812D01*
X0005070Y0002999D02*
Y0002859D01*
X0005136Y0002812D01*
X0005203D01*
X0005270Y0002859D01*
Y0002999D01*
X0004870D01*
X0031307Y0000377D02*
Y0000470D01*
Y0000423D02*
X0031707D01*
X0031640Y0000470D01*
X0031133Y0006117D02*
X0031087Y0006183D01*
X0031063Y0006250D01*
Y0006383D01*
X0031087Y0006450D01*
X0031133Y0006517D01*
X0031180D01*
X0031227Y0006450D01*
X0031250Y0006383D01*
Y0006250D01*
X0031227Y0006183D01*
X0031180Y0006117D01*
X0031133D01*
X0030920D02*
X0030827D01*
X0030873D02*
Y0006517D01*
X0030827Y0006450D01*
X0030473Y0006250D02*
Y0006183D01*
X0030497Y0006117D01*
X0030590D01*
X0030613Y0006183D01*
Y0006517D01*
X0030637D02*
X0030543D01*
X0015220Y0001192D02*
X0015620Y0001052D01*
Y0001239D01*
X0015353Y0001382D02*
Y0001569D01*
X0015620Y0001475D01*
Y0001429D01*
X0015220D01*
X0015420Y0001782D02*
X0015220Y0001712D01*
X0015420Y0001899D02*
Y0001759D01*
X0015486Y0001712D01*
X0015553D01*
X0015620Y0001759D01*
Y0001899D01*
X0015220D01*
X0035350Y0011530D02*
Y0011717D01*
X0035617Y0011623D01*
Y0011577D01*
X0035217D01*
Y0011860D02*
Y0012047D01*
X0035483Y0011860D01*
X0035550D01*
X0035617Y0011883D01*
Y0012023D01*
X0035550Y0012047D01*
X0035617Y0012190D02*
X0035283D01*
X0035217Y0012213D01*
Y0012353D01*
X0035283Y0012377D01*
X0035617D01*
X0012431Y0001080D02*
X0012364Y0001033D01*
Y0000940D01*
X0012431Y0000893D01*
X0012498D01*
X0012631Y0000987D01*
X0012764Y0000893D01*
Y0001080D01*
X0012364Y0001223D02*
Y0001317D01*
Y0001270D02*
X0012764D01*
X0012698Y0001317D01*
X0012364Y0001670D02*
X0012764D01*
X0012364Y0001693D02*
Y0001553D01*
X0012498Y0001507D01*
X0012631D01*
X0012764Y0001553D01*
Y0001693D01*
X0018610Y0005641D02*
Y0005781D01*
X0018676Y0005804D01*
X0018743D01*
X0018810Y0005781D01*
Y0005641D01*
X0018743Y0005617D01*
X0018676D01*
X0018410Y0005711D01*
X0018743Y0005947D02*
X0018810Y0005971D01*
Y0006111D01*
X0018743Y0006134D01*
X0018676D01*
X0018610Y0006111D01*
Y0005971D01*
X0018543Y0005947D01*
X0018476D01*
X0018410Y0005971D01*
Y0006111D01*
X0018476Y0006134D01*
X0018810Y0006277D02*
X0018676D01*
X0018410Y0006371D01*
X0018676Y0006464D01*
X0018810D01*
X0018410Y0006701D02*
X0018810D01*
Y0006607D02*
Y0006794D01*
X0023972Y0013597D02*
Y0013737D01*
X0024039Y0013760D01*
X0024105D01*
X0024172Y0013737D01*
Y0013597D01*
X0024105Y0013574D01*
X0024039D01*
X0023772Y0013667D01*
Y0013904D02*
Y0014090D01*
X0024039Y0013904D01*
X0024105D01*
X0024172Y0013927D01*
Y0014067D01*
X0024105Y0014090D01*
X0023972Y0014304D02*
X0023772Y0014234D01*
X0023972Y0014420D02*
Y0014280D01*
X0024039Y0014234D01*
X0024105D01*
X0024172Y0014280D01*
Y0014420D01*
X0023772D01*
X0004859Y0006560D02*
X0004812Y0006627D01*
X0004789Y0006694D01*
Y0006827D01*
X0004812Y0006894D01*
X0004859Y0006960D01*
X0004905D01*
X0004952Y0006894D01*
X0004975Y0006827D01*
Y0006694D01*
X0004952Y0006627D01*
X0004905Y0006560D01*
X0004859D01*
X0004645Y0006694D02*
X0004459D01*
X0004552Y0006960D01*
X0004599D01*
Y0006560D01*
X0004245Y0006760D02*
X0004315Y0006560D01*
X0004129Y0006760D02*
X0004269D01*
X0004315Y0006827D01*
Y0006894D01*
X0004269Y0006960D01*
X0004129D01*
Y0006560D01*
X0023855Y0011624D02*
Y0011810D01*
X0024122Y0011717D01*
Y0011670D01*
X0023722D01*
X0023922Y0012117D02*
Y0011977D01*
X0023855Y0011954D01*
X0023789D01*
X0023722Y0011977D01*
Y0012117D01*
X0023789Y0012140D01*
X0023855D01*
X0024122Y0012047D01*
X0023922Y0012354D02*
X0023722Y0012284D01*
X0023922Y0012470D02*
Y0012330D01*
X0023989Y0012284D01*
X0024055D01*
X0024122Y0012330D01*
Y0012470D01*
X0023722D01*
X0022873Y0005906D02*
X0022940Y0005882D01*
X0023007D01*
X0023073Y0005906D01*
Y0006046D01*
X0023007Y0006069D01*
X0022940D01*
X0022873Y0006046D01*
Y0005906D01*
X0022807Y0005882D01*
X0022740D01*
X0022673Y0005906D01*
Y0006046D01*
X0022740Y0006069D01*
X0022807D01*
X0022873Y0006046D01*
X0023007Y0006212D02*
X0023073Y0006236D01*
Y0006376D01*
X0023007Y0006399D01*
X0022940D01*
X0022873Y0006376D01*
Y0006236D01*
X0022807Y0006212D01*
X0022740D01*
X0022673Y0006236D01*
Y0006376D01*
X0022740Y0006399D01*
X0023073Y0006542D02*
X0022940D01*
X0022673Y0006636D01*
X0022940Y0006729D01*
X0023073D01*
X0022673Y0006966D02*
X0023073D01*
Y0006872D02*
Y0007059D01*
X0004991Y0023367D02*
Y0023554D01*
X0005258Y0023460D01*
Y0023414D01*
X0004858D01*
Y0023697D02*
Y0023790D01*
Y0023744D02*
X0005258D01*
X0005191Y0023790D01*
X0005058Y0024050D02*
X0004858Y0023980D01*
X0005058Y0024167D02*
Y0024027D01*
X0005125Y0023980D01*
X0005191D01*
X0005258Y0024027D01*
Y0024167D01*
X0004858D01*
X0008187Y0002119D02*
X0008254Y0002096D01*
X0008321D01*
X0008387Y0002119D01*
Y0002259D01*
X0008321Y0002283D01*
X0008254D01*
X0008187Y0002259D01*
Y0002119D01*
X0008121Y0002096D01*
X0008054D01*
X0007987Y0002119D01*
Y0002259D01*
X0008054Y0002283D01*
X0008121D01*
X0008187Y0002259D01*
X0007987Y0002426D02*
Y0002519D01*
Y0002473D02*
X0008387D01*
X0008321Y0002519D01*
X0008387Y0002709D02*
X0008054D01*
X0007987Y0002733D01*
Y0002873D01*
X0008054Y0002896D01*
X0008387D01*
X0014983Y0014722D02*
X0015123D01*
X0015146Y0014655D01*
Y0014589D01*
X0015123Y0014522D01*
X0014983D01*
X0014959Y0014589D01*
Y0014655D01*
X0015053Y0014922D01*
X0014816Y0014589D02*
X0014793Y0014522D01*
X0014653D01*
X0014629Y0014589D01*
Y0014855D01*
X0014653Y0014922D01*
X0014793D01*
X0014816Y0014855D01*
X0011810Y0008598D02*
X0011877Y0008574D01*
X0011944D01*
X0012010Y0008598D01*
Y0008738D01*
X0011944Y0008761D01*
X0011877D01*
X0011810Y0008738D01*
Y0008598D01*
X0011744Y0008574D01*
X0011677D01*
X0011610Y0008598D01*
Y0008738D01*
X0011677Y0008761D01*
X0011744D01*
X0011810Y0008738D01*
X0011677Y0009091D02*
X0011610Y0009068D01*
Y0008928D01*
X0011677Y0008904D01*
X0011810D01*
X0011877Y0008951D01*
Y0009091D01*
X0012010D01*
Y0008904D01*
X0011810Y0009304D02*
X0011610Y0009234D01*
X0011810Y0009421D02*
Y0009281D01*
X0011877Y0009234D01*
X0011944D01*
X0012010Y0009281D01*
Y0009421D01*
X0011610D01*
X0015264Y0017194D02*
X0015287Y0017261D01*
Y0017328D01*
X0015264Y0017394D01*
X0015124D01*
X0015100Y0017328D01*
Y0017261D01*
X0015124Y0017194D01*
X0015264D01*
X0015287Y0017128D01*
Y0017061D01*
X0015264Y0016994D01*
X0015124D01*
X0015100Y0017061D01*
Y0017128D01*
X0015124Y0017194D01*
X0014887D02*
X0014957Y0016994D01*
X0014770Y0017194D02*
X0014910D01*
X0014957Y0017261D01*
Y0017328D01*
X0014910Y0017394D01*
X0014770D01*
Y0016994D01*
X0008806Y0022047D02*
X0008946D01*
X0008969Y0021980D01*
Y0021914D01*
X0008946Y0021847D01*
X0008806D01*
X0008783Y0021914D01*
Y0021980D01*
X0008876Y0022247D01*
X0008639D02*
Y0021914D01*
X0008616Y0021847D01*
X0008476D01*
X0008453Y0021914D01*
Y0022247D01*
X0015430Y0018044D02*
X0015570Y0018444D01*
X0015384D01*
X0015240Y0018044D02*
X0015147D01*
X0015194D02*
Y0018444D01*
X0015147Y0018378D01*
X0014887Y0018244D02*
X0014957Y0018044D01*
X0014770Y0018244D02*
X0014910D01*
X0014957Y0018311D01*
Y0018378D01*
X0014910Y0018444D01*
X0014770D01*
Y0018044D01*
X0027776Y0000854D02*
X0027710Y0000807D01*
Y0000714D01*
X0027776Y0000667D01*
X0027843D01*
X0027976Y0000761D01*
X0028110Y0000667D01*
Y0000854D01*
X0028043Y0000997D02*
X0028110Y0001021D01*
Y0001161D01*
X0028043Y0001184D01*
X0027976D01*
X0027910Y0001161D01*
Y0001021D01*
X0027843Y0000997D01*
X0027776D01*
X0027710Y0001021D01*
Y0001161D01*
X0027776Y0001184D01*
X0028110Y0001327D02*
X0027976D01*
X0027710Y0001421D01*
X0027976Y0001514D01*
X0028110D01*
X0027710Y0001751D02*
X0028110D01*
Y0001657D02*
Y0001844D01*
X0041260Y0002054D02*
Y0002241D01*
X0041527Y0002054D01*
X0041594D01*
X0041660Y0002078D01*
Y0002218D01*
X0041594Y0002241D01*
X0041327Y0002384D02*
X0041260Y0002408D01*
Y0002548D01*
X0041327Y0002571D01*
X0041594D01*
X0041660Y0002548D01*
Y0002408D01*
X0041594Y0002384D01*
X0013688Y0024123D02*
X0013711Y0024189D01*
Y0024256D01*
X0013688Y0024323D01*
X0013548D01*
X0013524Y0024256D01*
Y0024189D01*
X0013548Y0024123D01*
X0013688D01*
X0013711Y0024056D01*
Y0023989D01*
X0013688Y0023923D01*
X0013548D01*
X0013524Y0023989D01*
Y0024056D01*
X0013548Y0024123D01*
X0013381Y0023923D02*
X0013218D01*
Y0024323D01*
X0025717Y0009837D02*
Y0009930D01*
Y0009883D02*
X0026117D01*
X0026050Y0009930D01*
X0025183Y0017870D02*
X0025117Y0017847D01*
Y0017707D01*
X0025183Y0017683D01*
X0025317D01*
X0025383Y0017730D01*
Y0017870D01*
X0025517D01*
Y0017683D01*
X0025250Y0018177D02*
X0025183D01*
X0025117Y0018153D01*
Y0018060D01*
X0025183Y0018037D01*
X0025517D01*
Y0018013D02*
Y0018107D01*
X0007952Y0015960D02*
Y0016146D01*
X0008219Y0016053D01*
Y0016006D01*
X0007819D01*
Y0016290D02*
Y0016383D01*
Y0016336D02*
X0008219D01*
X0008152Y0016383D01*
X0007819Y0016736D02*
X0008219D01*
X0007819Y0016760D02*
Y0016620D01*
X0007952Y0016573D01*
X0008085D01*
X0008219Y0016620D01*
Y0016760D01*
X0015460Y0019289D02*
X0015413Y0019355D01*
X0015390Y0019422D01*
Y0019555D01*
X0015413Y0019622D01*
X0015460Y0019689D01*
X0015506D01*
X0015553Y0019622D01*
X0015576Y0019555D01*
Y0019422D01*
X0015553Y0019355D01*
X0015506Y0019289D01*
X0015460D01*
X0015246D02*
X0015153D01*
X0015200D02*
Y0019689D01*
X0015153Y0019622D01*
X0014893Y0019489D02*
X0014963Y0019289D01*
X0014776Y0019489D02*
X0014916D01*
X0014963Y0019555D01*
Y0019622D01*
X0014916Y0019689D01*
X0014776D01*
Y0019289D01*
X0004980Y0010044D02*
X0004914Y0009998D01*
Y0009904D01*
X0004980Y0009858D01*
X0005047D01*
X0005180Y0009951D01*
X0005314Y0009858D01*
Y0010044D01*
X0004980Y0010374D02*
X0004914Y0010351D01*
Y0010211D01*
X0004980Y0010188D01*
X0005114D01*
X0005180Y0010234D01*
Y0010374D01*
X0005314D01*
Y0010188D01*
X0005114Y0010588D02*
X0004914Y0010518D01*
X0005114Y0010704D02*
Y0010564D01*
X0005180Y0010518D01*
X0005247D01*
X0005314Y0010564D01*
Y0010704D01*
X0004914D01*
X0017876Y0012513D02*
X0017809Y0012467D01*
Y0012373D01*
X0017876Y0012327D01*
X0017942D01*
X0018076Y0012420D01*
X0018209Y0012327D01*
Y0012513D01*
X0017809Y0012657D02*
Y0012820D01*
X0018209D01*
X0017809Y0013127D02*
X0018209D01*
X0017809Y0013150D02*
Y0013010D01*
X0017942Y0012963D01*
X0018076D01*
X0018209Y0013010D01*
Y0013150D01*
X0015220Y0007625D02*
X0015286Y0007602D01*
X0015353D01*
X0015420Y0007625D01*
Y0007765D01*
X0015353Y0007789D01*
X0015286D01*
X0015220Y0007765D01*
Y0007625D01*
X0015153Y0007602D01*
X0015086D01*
X0015020Y0007625D01*
Y0007765D01*
X0015086Y0007789D01*
X0015153D01*
X0015220Y0007765D01*
X0015086Y0008119D02*
X0015020Y0008072D01*
Y0007979D01*
X0015086Y0007932D01*
X0015153D01*
X0015286Y0008025D01*
X0015420Y0007932D01*
Y0008119D01*
X0015220Y0008332D02*
X0015020Y0008262D01*
X0015220Y0008449D02*
Y0008309D01*
X0015286Y0008262D01*
X0015353D01*
X0015420Y0008309D01*
Y0008449D01*
X0015020D01*
X0005114Y0018968D02*
Y0018828D01*
X0005047Y0018804D01*
X0004980D01*
X0004914Y0018828D01*
Y0018968D01*
X0004980Y0018991D01*
X0005047D01*
X0005314Y0018898D01*
X0004914Y0019134D02*
Y0019228D01*
Y0019181D02*
X0005314D01*
X0005247Y0019228D01*
X0005114Y0019488D02*
X0004914Y0019418D01*
X0005114Y0019604D02*
Y0019464D01*
X0005180Y0019418D01*
X0005247D01*
X0005314Y0019464D01*
Y0019604D01*
X0004914D01*
X0033831Y0018636D02*
X0033878Y0018570D01*
X0033971D01*
X0034018Y0018636D01*
Y0018703D01*
X0033924Y0018836D01*
X0034018Y0018970D01*
X0033831D01*
X0033618Y0018770D02*
X0033688Y0018570D01*
X0033501Y0018770D02*
X0033641D01*
X0033688Y0018836D01*
Y0018903D01*
X0033641Y0018970D01*
X0033501D01*
Y0018570D01*
X0015236Y0003739D02*
X0015170Y0003692D01*
Y0003599D01*
X0015236Y0003552D01*
X0015303D01*
X0015436Y0003645D01*
X0015570Y0003552D01*
Y0003739D01*
X0015303Y0003882D02*
Y0004069D01*
X0015570Y0003975D01*
Y0003929D01*
X0015170D01*
X0015370Y0004282D02*
X0015170Y0004212D01*
X0015370Y0004399D02*
Y0004259D01*
X0015436Y0004212D01*
X0015503D01*
X0015570Y0004259D01*
Y0004399D01*
X0015170D01*
X0023178Y0018289D02*
X0023201Y0018223D01*
X0023341D01*
X0023364Y0018289D01*
Y0018423D01*
X0023318Y0018489D01*
X0023178D01*
Y0018623D01*
X0023364D01*
X0023034Y0018223D02*
X0022848D01*
X0023034Y0018489D01*
Y0018556D01*
X0023011Y0018623D01*
X0022871D01*
X0022848Y0018556D01*
X0022704Y0018289D02*
X0022681Y0018223D01*
X0022541D01*
X0022518Y0018289D01*
Y0018556D01*
X0022541Y0018623D01*
X0022681D01*
X0022704Y0018556D01*
X0014334Y0008463D02*
X0014194D01*
X0014171Y0008530D01*
Y0008597D01*
X0014194Y0008663D01*
X0014334D01*
X0014357Y0008597D01*
Y0008530D01*
X0014264Y0008263D01*
X0014027D02*
X0013841D01*
X0014027Y0008530D01*
Y0008597D01*
X0014004Y0008663D01*
X0013864D01*
X0013841Y0008597D01*
X0013697Y0008663D02*
Y0008330D01*
X0013674Y0008263D01*
X0013534D01*
X0013511Y0008330D01*
Y0008663D01*
X0041289Y0000506D02*
Y0000599D01*
Y0000553D02*
X0041689D01*
X0041623Y0000599D01*
X0041356Y0000976D02*
X0041289Y0000929D01*
Y0000836D01*
X0041356Y0000789D01*
X0041423D01*
X0041556Y0000883D01*
X0041689Y0000789D01*
Y0000976D01*
Y0001119D02*
X0041356D01*
X0041289Y0001143D01*
Y0001283D01*
X0041356Y0001306D01*
X0041689D01*
X0008874Y0020403D02*
X0008897Y0020336D01*
X0009037D01*
X0009061Y0020403D01*
Y0020536D01*
X0009014Y0020603D01*
X0008874D01*
Y0020736D01*
X0009061D01*
X0008731D02*
Y0020403D01*
X0008707Y0020336D01*
X0008567D01*
X0008544Y0020403D01*
Y0020736D01*
X0013474Y0022739D02*
X0013521Y0022673D01*
X0013614D01*
X0013661Y0022739D01*
Y0022806D01*
X0013568Y0022939D01*
X0013661Y0023073D01*
X0013474D01*
X0013331Y0022673D02*
X0013168D01*
Y0023073D01*
X0032807Y0004532D02*
Y0004719D01*
X0033073Y0004626D01*
Y0004579D01*
X0032673D01*
X0033007Y0004862D02*
X0033073Y0004886D01*
Y0005026D01*
X0033007Y0005049D01*
X0032940D01*
X0032873Y0005026D01*
Y0004886D01*
X0032807Y0004862D01*
X0032740D01*
X0032673Y0004886D01*
Y0005026D01*
X0032740Y0005049D01*
X0033073Y0005192D02*
X0032940D01*
X0032673Y0005286D01*
X0032940Y0005379D01*
X0033073D01*
X0032673Y0005616D02*
X0033073D01*
Y0005522D02*
Y0005709D01*
X0032836Y0015789D02*
Y0015976D01*
X0033103Y0015789D01*
X0033169D01*
X0033236Y0015813D01*
Y0015953D01*
X0033169Y0015976D01*
X0033236Y0016119D02*
X0032903D01*
X0032836Y0016143D01*
Y0016283D01*
X0032903Y0016306D01*
X0033236D01*
X0005020Y0020255D02*
Y0020395D01*
X0005086Y0020419D01*
X0005153D01*
X0005220Y0020395D01*
Y0020255D01*
X0005153Y0020232D01*
X0005086D01*
X0004820Y0020325D01*
X0005020Y0020632D02*
X0004820Y0020562D01*
X0005020Y0020749D02*
Y0020609D01*
X0005086Y0020562D01*
X0005153D01*
X0005220Y0020609D01*
Y0020749D01*
X0004820D01*
X0034572Y0014647D02*
Y0014787D01*
X0034639Y0014810D01*
X0034705D01*
X0034772Y0014787D01*
Y0014647D01*
X0034705Y0014624D01*
X0034639D01*
X0034372Y0014717D01*
X0034505Y0014954D02*
Y0015140D01*
X0034772Y0015047D01*
Y0015000D01*
X0034372D01*
X0034572Y0015354D02*
X0034372Y0015284D01*
X0034572Y0015470D02*
Y0015330D01*
X0034639Y0015284D01*
X0034705D01*
X0034772Y0015330D01*
Y0015470D01*
X0034372D01*
X0005120Y0014275D02*
X0005186Y0014252D01*
X0005253D01*
X0005320Y0014275D01*
Y0014415D01*
X0005253Y0014439D01*
X0005186D01*
X0005120Y0014415D01*
Y0014275D01*
X0005053Y0014252D01*
X0004986D01*
X0004920Y0014275D01*
Y0014415D01*
X0004986Y0014439D01*
X0005053D01*
X0005120Y0014415D01*
X0005053Y0014582D02*
Y0014769D01*
X0005320Y0014675D01*
Y0014629D01*
X0004920D01*
X0005120Y0014982D02*
X0004920Y0014912D01*
X0005120Y0015099D02*
Y0014959D01*
X0005186Y0014912D01*
X0005253D01*
X0005320Y0014959D01*
Y0015099D01*
X0004920D01*
X0014696Y0012366D02*
X0014629Y0012343D01*
Y0012203D01*
X0014696Y0012180D01*
X0014829D01*
X0014896Y0012226D01*
Y0012366D01*
X0015029D01*
Y0012180D01*
X0014629Y0012510D02*
Y0012603D01*
Y0012556D02*
X0015029D01*
X0014962Y0012603D01*
X0015029Y0012793D02*
X0014696D01*
X0014629Y0012816D01*
Y0012956D01*
X0014696Y0012980D01*
X0015029D01*
X0011810Y0023998D02*
X0011877Y0023974D01*
X0011944D01*
X0012010Y0023998D01*
Y0024138D01*
X0011944Y0024161D01*
X0011877D01*
X0011810Y0024138D01*
Y0023998D01*
X0011744Y0023974D01*
X0011677D01*
X0011610Y0023998D01*
Y0024138D01*
X0011677Y0024161D01*
X0011744D01*
X0011810Y0024138D01*
X0011610Y0024304D02*
Y0024491D01*
X0011877Y0024304D01*
X0011944D01*
X0012010Y0024328D01*
Y0024468D01*
X0011944Y0024491D01*
X0011677Y0024634D02*
X0011610Y0024658D01*
Y0024798D01*
X0011677Y0024821D01*
X0011944D01*
X0012010Y0024798D01*
Y0024658D01*
X0011944Y0024634D01*
X0007352Y0024493D02*
Y0024680D01*
X0007619Y0024586D01*
Y0024540D01*
X0007219D01*
Y0024986D02*
X0007619D01*
X0007219Y0025010D02*
Y0024870D01*
X0007352Y0024823D01*
X0007485D01*
X0007619Y0024870D01*
Y0025010D01*
X0012514Y0002500D02*
Y0002640D01*
X0012581Y0002663D01*
X0012648D01*
X0012714Y0002640D01*
Y0002500D01*
X0012648Y0002477D01*
X0012581D01*
X0012314Y0002570D01*
Y0002970D02*
X0012714D01*
X0012314Y0002993D02*
Y0002853D01*
X0012448Y0002807D01*
X0012581D01*
X0012714Y0002853D01*
Y0002993D01*
X0023823Y0022212D02*
Y0022305D01*
Y0022259D02*
X0024223D01*
X0024156Y0022305D01*
X0023889Y0022495D02*
X0023823Y0022519D01*
Y0022659D01*
X0023889Y0022682D01*
X0024156D01*
X0024223Y0022659D01*
Y0022519D01*
X0024156Y0022495D01*
X0005097Y0017744D02*
X0005237Y0018144D01*
X0005050D01*
X0004837Y0017944D02*
X0004907Y0017744D01*
X0004720Y0017944D02*
X0004860D01*
X0004907Y0018011D01*
Y0018078D01*
X0004860Y0018144D01*
X0004720D01*
Y0017744D01*
X0004952Y0004710D02*
X0004812D01*
X0004789Y0004777D01*
Y0004844D01*
X0004812Y0004910D01*
X0004952D01*
X0004975Y0004844D01*
Y0004777D01*
X0004882Y0004510D01*
X0004459Y0004577D02*
X0004505Y0004510D01*
X0004599D01*
X0004645Y0004577D01*
Y0004644D01*
X0004552Y0004777D01*
X0004645Y0004910D01*
X0004459D01*
X0004245Y0004710D02*
X0004315Y0004510D01*
X0004129Y0004710D02*
X0004269D01*
X0004315Y0004777D01*
Y0004844D01*
X0004269Y0004910D01*
X0004129D01*
Y0004510D01*
X0007987Y0003466D02*
X0008054Y0003513D01*
X0008121Y0003536D01*
X0008254D01*
X0008321Y0003513D01*
X0008387Y0003466D01*
Y0003419D01*
X0008321Y0003373D01*
X0008254Y0003349D01*
X0008121D01*
X0008054Y0003373D01*
X0007987Y0003419D01*
Y0003466D01*
Y0003679D02*
Y0003866D01*
X0008254Y0003679D01*
X0008321D01*
X0008387Y0003703D01*
Y0003843D01*
X0008321Y0003866D01*
X0008387Y0004009D02*
X0008054D01*
X0007987Y0004033D01*
Y0004173D01*
X0008054Y0004196D01*
X0008387D01*
X0043760Y0006890D02*
X0043667D01*
X0043713D02*
Y0007290D01*
X0043667Y0007223D01*
X0043477Y0006890D02*
X0043313D01*
Y0007290D01*
X0004914Y0015604D02*
Y0015698D01*
Y0015651D02*
X0005314D01*
X0005247Y0015698D01*
X0004914Y0015888D02*
Y0016074D01*
X0005180Y0015888D01*
X0005247D01*
X0005314Y0015911D01*
Y0016051D01*
X0005247Y0016074D01*
X0005114Y0016288D02*
X0004914Y0016218D01*
X0005114Y0016404D02*
Y0016264D01*
X0005180Y0016218D01*
X0005247D01*
X0005314Y0016264D01*
Y0016404D01*
X0004914D01*
X0016660Y0012441D02*
X0016727Y0012488D01*
X0016794Y0012511D01*
X0016927D01*
X0016994Y0012488D01*
X0017060Y0012441D01*
Y0012394D01*
X0016994Y0012348D01*
X0016927Y0012324D01*
X0016794D01*
X0016727Y0012348D01*
X0016660Y0012394D01*
Y0012441D01*
X0016727Y0012841D02*
X0016660Y0012794D01*
Y0012701D01*
X0016727Y0012654D01*
X0016794D01*
X0016927Y0012748D01*
X0017060Y0012654D01*
Y0012841D01*
X0016860Y0013054D02*
X0016660Y0012984D01*
X0016860Y0013171D02*
Y0013031D01*
X0016927Y0012984D01*
X0016994D01*
X0017060Y0013031D01*
Y0013171D01*
X0016660D01*
X0021663Y0008114D02*
X0021686Y0008047D01*
X0021826D01*
X0021849Y0008114D01*
Y0008247D01*
X0021803Y0008314D01*
X0021663D01*
Y0008447D01*
X0021849D01*
X0021519Y0008047D02*
X0021333D01*
X0021519Y0008314D01*
Y0008380D01*
X0021496Y0008447D01*
X0021356D01*
X0021333Y0008380D01*
X0021189Y0008447D02*
Y0008114D01*
X0021166Y0008047D01*
X0021026D01*
X0021003Y0008114D01*
Y0008447D01*
X0017846Y0015697D02*
X0018246Y0015557D01*
Y0015744D01*
X0017846Y0015887D02*
Y0015980D01*
Y0015934D02*
X0018246D01*
X0018179Y0015980D01*
X0018246Y0016170D02*
X0017913D01*
X0017846Y0016194D01*
Y0016334D01*
X0017913Y0016357D01*
X0018246D01*
X0022844Y0002354D02*
Y0002541D01*
X0023110Y0002448D01*
Y0002401D01*
X0022710D01*
X0022777Y0002684D02*
X0022710Y0002708D01*
Y0002848D01*
X0022777Y0002871D01*
X0023044D01*
X0023110Y0002848D01*
Y0002708D01*
X0023044Y0002684D01*
X0007819Y0017090D02*
Y0017183D01*
Y0017136D02*
X0008219D01*
X0008152Y0017183D01*
X0007819Y0017536D02*
X0008219D01*
X0007819Y0017560D02*
Y0017420D01*
X0007952Y0017373D01*
X0008085D01*
X0008219Y0017420D01*
Y0017560D01*
X0017913Y0014094D02*
X0017846Y0014047D01*
Y0013954D01*
X0017913Y0013907D01*
X0017979D01*
X0018113Y0014000D01*
X0018246Y0013907D01*
Y0014094D01*
X0017846Y0014237D02*
Y0014330D01*
Y0014284D02*
X0018246D01*
X0018179Y0014330D01*
X0018246Y0014520D02*
X0017913D01*
X0017846Y0014544D01*
Y0014684D01*
X0017913Y0014707D01*
X0018246D01*
X0022258Y0009633D02*
X0022398D01*
X0022421Y0009567D01*
Y0009500D01*
X0022398Y0009433D01*
X0022258D01*
X0022234Y0009500D01*
Y0009567D01*
X0022328Y0009833D01*
X0022091Y0009433D02*
X0021998D01*
X0022044D02*
Y0009833D01*
X0021998Y0009767D01*
X0021644Y0009433D02*
Y0009833D01*
X0021621Y0009433D02*
X0021761D01*
X0021808Y0009567D01*
Y0009700D01*
X0021761Y0009833D01*
X0021621D01*
X0028510Y0012551D02*
Y0012644D01*
Y0012598D02*
X0028910D01*
X0028844Y0012644D01*
X0028710Y0012904D02*
X0028510Y0012834D01*
X0028710Y0013021D02*
Y0012881D01*
X0028777Y0012834D01*
X0028844D01*
X0028910Y0012881D01*
Y0013021D01*
X0028510D01*
X0004870Y0005399D02*
Y0005492D01*
Y0005445D02*
X0005270D01*
X0005203Y0005492D01*
X0005003Y0005682D02*
Y0005869D01*
X0005270Y0005775D01*
Y0005729D01*
X0004870D01*
X0005070Y0006082D02*
X0004870Y0006012D01*
X0005070Y0006199D02*
Y0006059D01*
X0005136Y0006012D01*
X0005203D01*
X0005270Y0006059D01*
Y0006199D01*
X0004870D01*
X0023335Y0009410D02*
X0023475Y0009810D01*
X0023289D01*
X0022959Y0009477D02*
X0022982Y0009410D01*
X0023122D01*
X0023145Y0009477D01*
Y0009610D01*
X0023099Y0009677D01*
X0022959D01*
Y0009810D01*
X0023145D01*
X0022745Y0009610D02*
X0022815Y0009410D01*
X0022629Y0009610D02*
X0022769D01*
X0022815Y0009677D01*
Y0009744D01*
X0022769Y0009810D01*
X0022629D01*
Y0009410D01*
X0007885Y0020630D02*
X0007819Y0020606D01*
Y0020466D01*
X0007885Y0020443D01*
X0008019D01*
X0008085Y0020490D01*
Y0020630D01*
X0008219D01*
Y0020443D01*
X0007819Y0020936D02*
X0008219D01*
X0007819Y0020960D02*
Y0020820D01*
X0007952Y0020773D01*
X0008085D01*
X0008219Y0020820D01*
Y0020960D01*
X0026376Y0003434D02*
X0026190D01*
X0026376Y0003701D01*
Y0003767D01*
X0026353Y0003834D01*
X0026213D01*
X0026190Y0003767D01*
X0026046Y0003434D02*
X0025953D01*
X0026000D02*
Y0003834D01*
X0025953Y0003767D01*
X0025763D02*
X0025740Y0003834D01*
X0025600D01*
X0025576Y0003767D01*
Y0003701D01*
X0025600Y0003634D01*
X0025740D01*
X0025763Y0003567D01*
Y0003501D01*
X0025740Y0003434D01*
X0025600D01*
X0025576Y0003501D01*
X0025433Y0003834D02*
Y0003701D01*
X0025340Y0003434D01*
X0025246Y0003701D01*
Y0003834D01*
X0025010Y0003434D02*
Y0003834D01*
X0025103D02*
X0024916D01*
X0031767Y0022923D02*
X0032167Y0022783D01*
Y0022970D01*
X0031900Y0023277D02*
X0031833D01*
X0031767Y0023253D01*
Y0023160D01*
X0031833Y0023137D01*
X0032167D01*
Y0023113D02*
Y0023207D01*
X0034917Y0020837D02*
Y0020930D01*
Y0020883D02*
X0035317D01*
X0035250Y0020930D01*
X0027033Y0022070D02*
X0026967Y0022023D01*
Y0021930D01*
X0027033Y0021883D01*
X0027100D01*
X0027233Y0021977D01*
X0027367Y0021883D01*
Y0022070D01*
X0027100Y0022377D02*
X0027033D01*
X0026967Y0022353D01*
Y0022260D01*
X0027033Y0022237D01*
X0027367D01*
Y0022213D02*
Y0022307D01*
X0030067Y0020837D02*
Y0020930D01*
Y0020883D02*
X0030467D01*
X0030400Y0020930D01*
X0022074Y0011633D02*
X0022214D01*
X0022238Y0011567D01*
Y0011500D01*
X0022214Y0011433D01*
X0022074D01*
X0022051Y0011500D01*
Y0011567D01*
X0022144Y0011833D01*
X0021744Y0011433D02*
Y0011833D01*
X0021721Y0011433D02*
X0021861D01*
X0021908Y0011567D01*
Y0011700D01*
X0021861Y0011833D01*
X0021721D01*
X0019317Y0009836D02*
X0019341Y0009903D01*
Y0009969D01*
X0019317Y0010036D01*
X0019177D01*
X0019154Y0009969D01*
Y0009903D01*
X0019177Y0009836D01*
X0019317D01*
X0019341Y0009769D01*
Y0009703D01*
X0019317Y0009636D01*
X0019177D01*
X0019154Y0009703D01*
Y0009769D01*
X0019177Y0009836D01*
X0019011Y0009636D02*
X0018824D01*
X0019011Y0009903D01*
Y0009969D01*
X0018987Y0010036D01*
X0018847D01*
X0018824Y0009969D01*
X0018681Y0010036D02*
Y0009703D01*
X0018657Y0009636D01*
X0018517D01*
X0018494Y0009703D01*
Y0010036D01*
X0028080Y0007684D02*
X0028220D01*
X0028243Y0007617D01*
Y0007551D01*
X0028220Y0007484D01*
X0028080D01*
X0028056Y0007551D01*
Y0007617D01*
X0028150Y0007884D01*
X0027913Y0007817D02*
X0027890Y0007884D01*
X0027750D01*
X0027726Y0007817D01*
Y0007751D01*
X0027750Y0007684D01*
X0027890D01*
X0027913Y0007617D01*
Y0007551D01*
X0027890Y0007484D01*
X0027750D01*
X0027726Y0007551D01*
X0027583Y0007884D02*
Y0007751D01*
X0027490Y0007484D01*
X0027396Y0007751D01*
Y0007884D01*
X0027160Y0007484D02*
Y0007884D01*
X0027253D02*
X0027066D01*
X0008237Y0006819D02*
Y0006959D01*
X0008304Y0006983D01*
X0008371D01*
X0008437Y0006959D01*
Y0006819D01*
X0008371Y0006796D01*
X0008304D01*
X0008037Y0006889D01*
Y0007126D02*
Y0007219D01*
Y0007173D02*
X0008437D01*
X0008371Y0007219D01*
X0008437Y0007409D02*
X0008104D01*
X0008037Y0007433D01*
Y0007573D01*
X0008104Y0007596D01*
X0008437D01*
X0017209Y0012327D02*
Y0012513D01*
X0017476Y0012327D01*
X0017542D01*
X0017609Y0012350D01*
Y0012490D01*
X0017542Y0012513D01*
X0017209Y0012657D02*
Y0012820D01*
X0017609D01*
X0017209Y0013127D02*
X0017609D01*
X0017209Y0013150D02*
Y0013010D01*
X0017342Y0012963D01*
X0017476D01*
X0017609Y0013010D01*
Y0013150D01*
X0038573Y0008011D02*
Y0008197D01*
X0038840Y0008104D01*
Y0008057D01*
X0038440D01*
Y0008341D02*
Y0008504D01*
X0038840D01*
X0038440Y0008811D02*
X0038840D01*
X0038440Y0008834D02*
Y0008694D01*
X0038573Y0008647D01*
X0038707D01*
X0038840Y0008694D01*
Y0008834D01*
X0018937Y0011786D02*
X0018797D01*
X0018774Y0011853D01*
Y0011919D01*
X0018797Y0011986D01*
X0018937D01*
X0018961Y0011919D01*
Y0011853D01*
X0018867Y0011586D01*
X0018631Y0011986D02*
Y0011653D01*
X0018607Y0011586D01*
X0018467D01*
X0018444Y0011653D01*
Y0011986D01*
X0011660Y0022991D02*
X0011727Y0023038D01*
X0011794Y0023061D01*
X0011927D01*
X0011994Y0023038D01*
X0012060Y0022991D01*
Y0022944D01*
X0011994Y0022898D01*
X0011927Y0022874D01*
X0011794D01*
X0011727Y0022898D01*
X0011660Y0022944D01*
Y0022991D01*
X0011727Y0023391D02*
X0011660Y0023344D01*
Y0023251D01*
X0011727Y0023204D01*
X0011794D01*
X0011927Y0023298D01*
X0012060Y0023204D01*
Y0023391D01*
X0011727Y0023534D02*
X0011660Y0023558D01*
Y0023698D01*
X0011727Y0023721D01*
X0011994D01*
X0012060Y0023698D01*
Y0023558D01*
X0011994Y0023534D01*
X0015334Y0020661D02*
X0015380Y0020594D01*
X0015474D01*
X0015520Y0020661D01*
Y0020728D01*
X0015427Y0020861D01*
X0015520Y0020994D01*
X0015334D01*
X0015190Y0020594D02*
X0015097D01*
X0015144D02*
Y0020994D01*
X0015097Y0020928D01*
X0014837Y0020794D02*
X0014907Y0020594D01*
X0014720Y0020794D02*
X0014860D01*
X0014907Y0020861D01*
Y0020928D01*
X0014860Y0020994D01*
X0014720D01*
Y0020594D01*
X0007937Y0005346D02*
Y0005439D01*
Y0005393D02*
X0008337D01*
X0008271Y0005439D01*
X0007937Y0005629D02*
Y0005816D01*
X0008204Y0005629D01*
X0008271D01*
X0008337Y0005653D01*
Y0005793D01*
X0008271Y0005816D01*
X0008337Y0005959D02*
X0008004D01*
X0007937Y0005983D01*
Y0006123D01*
X0008004Y0006146D01*
X0008337D01*
X0031103Y0014276D02*
X0031036Y0014229D01*
Y0014136D01*
X0031103Y0014089D01*
X0031169D01*
X0031303Y0014183D01*
X0031436Y0014089D01*
Y0014276D01*
Y0014419D02*
X0031103D01*
X0031036Y0014443D01*
Y0014583D01*
X0031103Y0014606D01*
X0031436D01*
X0041730Y0019234D02*
Y0019421D01*
X0041996Y0019328D01*
Y0019281D01*
X0041596D01*
X0041730Y0019728D02*
X0041663D01*
X0041596Y0019704D01*
Y0019611D01*
X0041663Y0019588D01*
X0041996D01*
Y0019564D02*
Y0019658D01*
X0012364Y0003843D02*
Y0004030D01*
X0012631Y0003843D01*
X0012698D01*
X0012764Y0003867D01*
Y0004007D01*
X0012698Y0004030D01*
X0012364Y0004173D02*
Y0004267D01*
Y0004220D02*
X0012764D01*
X0012698Y0004267D01*
X0012364Y0004620D02*
X0012764D01*
X0012364Y0004643D02*
Y0004503D01*
X0012498Y0004457D01*
X0012631D01*
X0012764Y0004503D01*
Y0004643D01*
X0014829Y0010496D02*
Y0010356D01*
X0014762Y0010333D01*
X0014696D01*
X0014629Y0010356D01*
Y0010496D01*
X0014696Y0010520D01*
X0014762D01*
X0015029Y0010426D01*
X0014629Y0010663D02*
Y0010850D01*
X0014896Y0010663D01*
X0014962D01*
X0015029Y0010686D01*
Y0010826D01*
X0014962Y0010850D01*
X0015029Y0010993D02*
X0014696D01*
X0014629Y0011016D01*
Y0011156D01*
X0014696Y0011180D01*
X0015029D01*
X0036473Y0003779D02*
Y0003872D01*
Y0003826D02*
X0036873D01*
X0036807Y0003872D01*
Y0004062D02*
X0036873Y0004086D01*
Y0004226D01*
X0036807Y0004249D01*
X0036740D01*
X0036673Y0004226D01*
Y0004086D01*
X0036607Y0004062D01*
X0036540D01*
X0036473Y0004086D01*
Y0004226D01*
X0036540Y0004249D01*
X0036873Y0004392D02*
X0036740D01*
X0036473Y0004486D01*
X0036740Y0004579D01*
X0036873D01*
X0036473Y0004816D02*
X0036873D01*
Y0004722D02*
Y0004909D01*
X0017710Y0005634D02*
X0017663Y0005701D01*
X0017640Y0005767D01*
Y0005901D01*
X0017663Y0005967D01*
X0017710Y0006034D01*
X0017756D01*
X0017803Y0005967D01*
X0017826Y0005901D01*
Y0005767D01*
X0017803Y0005701D01*
X0017756Y0005634D01*
X0017710D01*
X0017496D02*
X0017403D01*
X0017450D02*
Y0006034D01*
X0017403Y0005967D01*
X0017213D02*
X0017190Y0006034D01*
X0017050D01*
X0017026Y0005967D01*
Y0005901D01*
X0017050Y0005834D01*
X0017190D01*
X0017213Y0005767D01*
Y0005701D01*
X0017190Y0005634D01*
X0017050D01*
X0017026Y0005701D01*
X0016883Y0006034D02*
Y0005901D01*
X0016790Y0005634D01*
X0016696Y0005901D01*
Y0006034D01*
X0016460Y0005634D02*
Y0006034D01*
X0016553D02*
X0016366D01*
X0004864Y0022104D02*
Y0022291D01*
X0005130Y0022104D01*
X0005197D01*
X0005264Y0022128D01*
Y0022268D01*
X0005197Y0022291D01*
X0004864Y0022434D02*
Y0022528D01*
Y0022481D02*
X0005264D01*
X0005197Y0022528D01*
X0005064Y0022788D02*
X0004864Y0022718D01*
X0005064Y0022904D02*
Y0022764D01*
X0005130Y0022718D01*
X0005197D01*
X0005264Y0022764D01*
Y0022904D01*
X0004864D01*
X0011689Y0012122D02*
X0011623Y0012075D01*
Y0011982D01*
X0011689Y0011935D01*
X0011756D01*
X0011889Y0012029D01*
X0012023Y0011935D01*
Y0012122D01*
X0011689Y0012452D02*
X0011623Y0012405D01*
Y0012312D01*
X0011689Y0012265D01*
X0011756D01*
X0011889Y0012359D01*
X0012023Y0012265D01*
Y0012452D01*
X0011823Y0012665D02*
X0011623Y0012595D01*
X0011823Y0012782D02*
Y0012642D01*
X0011889Y0012595D01*
X0011956D01*
X0012023Y0012642D01*
Y0012782D01*
X0011623D01*
X0032673Y0000682D02*
Y0000869D01*
X0032940Y0000682D01*
X0033007D01*
X0033073Y0000706D01*
Y0000846D01*
X0033007Y0000869D01*
Y0001012D02*
X0033073Y0001036D01*
Y0001176D01*
X0033007Y0001199D01*
X0032940D01*
X0032873Y0001176D01*
Y0001036D01*
X0032807Y0001012D01*
X0032740D01*
X0032673Y0001036D01*
Y0001176D01*
X0032740Y0001199D01*
X0033073Y0001342D02*
X0032940D01*
X0032673Y0001436D01*
X0032940Y0001529D01*
X0033073D01*
X0032673Y0001766D02*
X0033073D01*
Y0001672D02*
Y0001859D01*
X0017989Y0006472D02*
X0017923Y0006425D01*
Y0006332D01*
X0017989Y0006285D01*
X0018056D01*
X0018189Y0006379D01*
X0018323Y0006285D01*
Y0006472D01*
X0017923Y0006615D02*
Y0006802D01*
X0018189Y0006615D01*
X0018256D01*
X0018323Y0006639D01*
Y0006779D01*
X0018256Y0006802D01*
X0017989Y0006945D02*
X0017923Y0006969D01*
Y0007109D01*
X0017989Y0007132D01*
X0018256D01*
X0018323Y0007109D01*
Y0006969D01*
X0018256Y0006945D01*
X0008946Y0018997D02*
X0008969Y0019064D01*
Y0019130D01*
X0008946Y0019197D01*
X0008806D01*
X0008783Y0019130D01*
Y0019064D01*
X0008806Y0018997D01*
X0008946D01*
X0008969Y0018930D01*
Y0018864D01*
X0008946Y0018797D01*
X0008806D01*
X0008783Y0018864D01*
Y0018930D01*
X0008806Y0018997D01*
X0008639Y0019197D02*
Y0018864D01*
X0008616Y0018797D01*
X0008476D01*
X0008453Y0018864D01*
Y0019197D01*
X0028268Y0018570D02*
X0028081D01*
X0028268Y0018836D01*
Y0018903D01*
X0028244Y0018970D01*
X0028104D01*
X0028081Y0018903D01*
X0027868Y0018770D02*
X0027938Y0018570D01*
X0027751Y0018770D02*
X0027891D01*
X0027938Y0018836D01*
Y0018903D01*
X0027891Y0018970D01*
X0027751D01*
Y0018570D01*
X0012238Y0019183D02*
X0012051D01*
X0012238Y0019450D01*
Y0019517D01*
X0012214Y0019583D01*
X0012074D01*
X0012051Y0019517D01*
X0011744Y0019183D02*
Y0019583D01*
X0011721Y0019183D02*
X0011861D01*
X0011908Y0019317D01*
Y0019450D01*
X0011861Y0019583D01*
X0011721D01*
X0028010Y0010914D02*
X0028410Y0010774D01*
Y0010961D01*
X0028010Y0011104D02*
Y0011291D01*
X0028277Y0011104D01*
X0028344D01*
X0028410Y0011128D01*
Y0011268D01*
X0028344Y0011291D01*
X0028210Y0011504D02*
X0028010Y0011434D01*
X0028210Y0011621D02*
Y0011481D01*
X0028277Y0011434D01*
X0028344D01*
X0028410Y0011481D01*
Y0011621D01*
X0028010D01*
X0021527Y0018947D02*
Y0019040D01*
Y0018993D02*
X0021927D01*
X0021860Y0019040D01*
X0021867Y0023797D02*
Y0023657D01*
X0021800Y0023633D01*
X0021733D01*
X0021667Y0023657D01*
Y0023797D01*
X0021733Y0023820D01*
X0021800D01*
X0022067Y0023727D01*
X0021800Y0024127D02*
X0021733D01*
X0021667Y0024103D01*
Y0024010D01*
X0021733Y0023987D01*
X0022067D01*
Y0023963D02*
Y0024057D01*
X0024603Y0008352D02*
Y0008539D01*
X0024870Y0008445D01*
Y0008399D01*
X0024470D01*
X0024536Y0008869D02*
X0024470Y0008845D01*
Y0008705D01*
X0024536Y0008682D01*
X0024670D01*
X0024736Y0008729D01*
Y0008869D01*
X0024870D01*
Y0008682D01*
X0024670Y0009082D02*
X0024470Y0009012D01*
X0024670Y0009199D02*
Y0009059D01*
X0024736Y0009012D01*
X0024803D01*
X0024870Y0009059D01*
Y0009199D01*
X0024470D01*
X0038768Y0006656D02*
X0038581D01*
X0038674Y0006923D01*
X0038721D01*
Y0006523D01*
X0038438D02*
X0038344D01*
X0038391D02*
Y0006923D01*
X0038344Y0006856D01*
X0038154Y0006589D02*
X0038131Y0006523D01*
X0037991D01*
X0037968Y0006589D01*
Y0006856D01*
X0037991Y0006923D01*
X0038131D01*
X0038154Y0006856D01*
X0036667Y0022057D02*
X0036733Y0022033D01*
X0036800D01*
X0036867Y0022057D01*
Y0022197D01*
X0036800Y0022220D01*
X0036733D01*
X0036667Y0022197D01*
Y0022057D01*
X0036600Y0022033D01*
X0036533D01*
X0036467Y0022057D01*
Y0022197D01*
X0036533Y0022220D01*
X0036600D01*
X0036667Y0022197D01*
X0036600Y0022527D02*
X0036533D01*
X0036467Y0022503D01*
Y0022410D01*
X0036533Y0022387D01*
X0036867D01*
Y0022363D02*
Y0022457D01*
X0039667Y0020887D02*
Y0020980D01*
Y0020933D02*
X0040067D01*
X0040000Y0020980D01*
X0011823Y0013309D02*
X0011889Y0013285D01*
X0011956D01*
X0012023Y0013309D01*
Y0013449D01*
X0011956Y0013472D01*
X0011889D01*
X0011823Y0013449D01*
Y0013309D01*
X0011756Y0013285D01*
X0011689D01*
X0011623Y0013309D01*
Y0013449D01*
X0011689Y0013472D01*
X0011756D01*
X0011823Y0013449D01*
X0011623Y0013615D02*
Y0013802D01*
X0011889Y0013615D01*
X0011956D01*
X0012023Y0013639D01*
Y0013779D01*
X0011956Y0013802D01*
X0011823Y0014015D02*
X0011623Y0013945D01*
X0011823Y0014132D02*
Y0013992D01*
X0011889Y0013945D01*
X0011956D01*
X0012023Y0013992D01*
Y0014132D01*
X0011623D01*
X0006264Y0016823D02*
X0006078D01*
X0006264Y0017089D01*
Y0017156D01*
X0006241Y0017223D01*
X0006101D01*
X0006078Y0017156D01*
X0005934Y0016823D02*
X0005748D01*
X0005934Y0017089D01*
Y0017156D01*
X0005911Y0017223D01*
X0005771D01*
X0005748Y0017156D01*
X0005534Y0017023D02*
X0005604Y0016823D01*
X0005418Y0017023D02*
X0005558D01*
X0005604Y0017089D01*
Y0017156D01*
X0005558Y0017223D01*
X0005418D01*
Y0016823D01*
X0015170Y0004652D02*
Y0004839D01*
X0015436Y0004652D01*
X0015503D01*
X0015570Y0004675D01*
Y0004815D01*
X0015503Y0004839D01*
X0015303Y0004982D02*
Y0005169D01*
X0015570Y0005075D01*
Y0005029D01*
X0015170D01*
X0015370Y0005382D02*
X0015170Y0005312D01*
X0015370Y0005499D02*
Y0005359D01*
X0015436Y0005312D01*
X0015503D01*
X0015570Y0005359D01*
Y0005499D01*
X0015170D01*
X0015656Y0012872D02*
X0015796Y0013272D01*
X0015609D01*
X0015466Y0012939D02*
X0015443Y0012872D01*
X0015303D01*
X0015279Y0012939D01*
Y0013205D01*
X0015303Y0013272D01*
X0015443D01*
X0015466Y0013205D01*
X0004864Y0008608D02*
Y0008794D01*
X0005130Y0008608D01*
X0005197D01*
X0005264Y0008631D01*
Y0008771D01*
X0005197Y0008794D01*
X0005064Y0009101D02*
Y0008961D01*
X0004997Y0008938D01*
X0004930D01*
X0004864Y0008961D01*
Y0009101D01*
X0004930Y0009124D01*
X0004997D01*
X0005264Y0009031D01*
X0005064Y0009338D02*
X0004864Y0009268D01*
X0005064Y0009454D02*
Y0009314D01*
X0005130Y0009268D01*
X0005197D01*
X0005264Y0009314D01*
Y0009454D01*
X0004864D01*
X0011479Y0024797D02*
X0011619Y0025197D01*
X0011433D01*
X0011289D02*
Y0024864D01*
X0011266Y0024797D01*
X0011126D01*
X0011103Y0024864D01*
Y0025197D01*
X0011519Y0018880D02*
X0011333D01*
X0011426Y0019147D01*
X0011473D01*
Y0018747D01*
X0011189Y0019147D02*
Y0018814D01*
X0011166Y0018747D01*
X0011026D01*
X0011003Y0018814D01*
Y0019147D01*
X0038484Y0005546D02*
X0038530Y0005479D01*
X0038624D01*
X0038670Y0005546D01*
Y0005612D01*
X0038577Y0005746D01*
X0038670Y0005879D01*
X0038484D01*
X0038340Y0005479D02*
X0038247D01*
X0038294D02*
Y0005879D01*
X0038247Y0005812D01*
X0038057Y0005546D02*
X0038034Y0005479D01*
X0037894D01*
X0037870Y0005546D01*
Y0005812D01*
X0037894Y0005879D01*
X0038034D01*
X0038057Y0005812D01*
X0008052Y0014150D02*
X0008192Y0014550D01*
X0008005D01*
X0007699Y0014150D02*
Y0014550D01*
X0007675Y0014150D02*
X0007815D01*
X0007862Y0014283D01*
Y0014416D01*
X0007815Y0014550D01*
X0007675D01*
X0007885Y0021730D02*
X0007819Y0021683D01*
Y0021590D01*
X0007885Y0021543D01*
X0007952D01*
X0008085Y0021636D01*
X0008219Y0021543D01*
Y0021730D01*
X0007819Y0022036D02*
X0008219D01*
X0007819Y0022060D02*
Y0021920D01*
X0007952Y0021873D01*
X0008085D01*
X0008219Y0021920D01*
Y0022060D01*
X0007987Y0000799D02*
Y0000986D01*
X0008254Y0000799D01*
X0008321D01*
X0008387Y0000823D01*
Y0000963D01*
X0008321Y0000986D01*
X0007987Y0001129D02*
Y0001316D01*
X0008254Y0001129D01*
X0008321D01*
X0008387Y0001153D01*
Y0001293D01*
X0008321Y0001316D01*
X0008387Y0001459D02*
X0008054D01*
X0007987Y0001483D01*
Y0001623D01*
X0008054Y0001646D01*
X0008387D01*
X0008963Y0014864D02*
X0009009Y0014797D01*
X0009103D01*
X0009149Y0014864D01*
Y0014930D01*
X0009056Y0015064D01*
X0009149Y0015197D01*
X0008963D01*
X0008819Y0014797D02*
X0008633D01*
X0008819Y0015064D01*
Y0015130D01*
X0008796Y0015197D01*
X0008656D01*
X0008633Y0015130D01*
X0008489Y0015197D02*
Y0014864D01*
X0008466Y0014797D01*
X0008326D01*
X0008303Y0014864D01*
Y0015197D01*
X0023355Y0013410D02*
X0023215D01*
X0023192Y0013477D01*
Y0013544D01*
X0023215Y0013610D01*
X0023355D01*
X0023379Y0013544D01*
Y0013477D01*
X0023285Y0013210D01*
X0023049D02*
X0022955D01*
X0023002D02*
Y0013610D01*
X0022955Y0013544D01*
X0022695Y0013410D02*
X0022765Y0013210D01*
X0022579Y0013410D02*
X0022719D01*
X0022765Y0013477D01*
Y0013544D01*
X0022719Y0013610D01*
X0022579D01*
Y0013210D01*
X0016661Y0009683D02*
Y0009776D01*
Y0009729D02*
X0017061D01*
X0016994Y0009776D01*
X0016861Y0010129D02*
Y0009989D01*
X0016794Y0009966D01*
X0016728D01*
X0016661Y0009989D01*
Y0010129D01*
X0016728Y0010153D01*
X0016794D01*
X0017061Y0010059D01*
X0016861Y0010366D02*
X0016661Y0010296D01*
X0016861Y0010483D02*
Y0010343D01*
X0016928Y0010296D01*
X0016994D01*
X0017061Y0010343D01*
Y0010483D01*
X0016661D01*
X0021811Y0014403D02*
Y0014496D01*
Y0014449D02*
X0022211D01*
X0022144Y0014496D01*
X0021811Y0014686D02*
Y0014779D01*
Y0014733D02*
X0022211D01*
X0022144Y0014779D01*
X0021811Y0014969D02*
Y0015133D01*
X0022211D01*
X0014325Y0008075D02*
X0013175D01*
Y0007430D01*
X0014325D01*
Y0008075D01*
X0008157Y0009975D02*
X0008197D01*
Y0010525D01*
X0008157D01*
X0007843D02*
X0007803D01*
Y0009975D01*
X0007843D01*
X0008197Y0010407D02*
Y0010368D01*
X0007803D01*
Y0010407D01*
X0008197D01*
X0033886Y0005714D02*
X0035600Y0005713D01*
X0036245D01*
Y0007287D01*
X0033440Y0007290D01*
X0033260Y0007110D01*
Y0005850D01*
X0033430Y0005710D01*
X0033886Y0005714D01*
X0033350Y0006384D02*
X0033280D01*
X0033350Y0006330D02*
X0033280D01*
X0033350Y0006276D02*
X0033280D01*
X0033350Y0006222D02*
X0033280D01*
X0033350Y0006168D02*
X0033280D01*
X0033350Y0006114D02*
X0033280D01*
X0033350Y0006060D02*
X0033280D01*
X0033350Y0006006D02*
X0033280D01*
X0033350Y0005952D02*
X0033280D01*
X0033350Y0005898D02*
X0033280D01*
X0033350Y0005844D02*
X0033287D01*
X0033350Y0006978D02*
X0033280D01*
X0033350Y0006924D02*
X0033280D01*
X0033350Y0006870D02*
X0033280D01*
X0033350Y0006816D02*
X0033280D01*
X0033350Y0006762D02*
X0033280D01*
X0033350Y0006708D02*
X0033280D01*
X0033350Y0006654D02*
X0033280D01*
X0033350Y0006600D02*
X0033280D01*
X0033350Y0006546D02*
X0033280D01*
X0033350Y0006492D02*
X0033280D01*
X0033350Y0006438D02*
X0033280D01*
Y0007110D02*
Y0005850D01*
X0033340Y0005800D01*
X0033360Y0005770D01*
X0033380Y0005750D01*
X0033320Y0007150D02*
Y0005817D01*
X0033350Y0007140D02*
X0033310D01*
X0033350Y0007086D02*
X0033280D01*
X0033350Y0007032D02*
X0033280D01*
X0033340Y0005790D02*
X0033380Y0005750D01*
X0033350Y0005800D02*
X0033340Y0005790D01*
X0033350Y0007180D02*
Y0005800D01*
Y0007180D02*
X0033280Y0007110D01*
X0033606Y0005820D02*
X0033493D01*
X0033584Y0005889D02*
Y0005790D01*
X0033530Y0005896D02*
Y0005783D01*
X0033599Y0005874D02*
X0033500D01*
X0034430Y0005730D02*
Y0007280D01*
X0011379Y0008128D02*
X0011251D01*
X0011338Y0008226D02*
Y0008092D01*
X0011284Y0008223D02*
Y0008095D01*
X0011382Y0008182D02*
X0011248D01*
X0030800Y0017700D02*
X0029700D01*
Y0019800D01*
X0030800D01*
Y0017700D01*
X0042425Y0021175D02*
X0043575D01*
Y0021820D01*
X0042425D01*
Y0021175D01*
X0011843Y0006025D02*
X0011803D01*
Y0005475D01*
X0011843D01*
X0012157D02*
X0012197D01*
Y0006025D01*
X0012157D01*
X0011803Y0005593D02*
Y0005632D01*
X0012197D01*
Y0005593D01*
X0011803D01*
X0015825Y0006175D02*
Y0007325D01*
X0015180D01*
Y0006175D01*
X0015825D01*
X0022425Y0010675D02*
X0023575D01*
Y0011320D01*
X0022425D01*
Y0010675D01*
X0018114Y0002036D02*
X0016400Y0002037D01*
X0015755D01*
Y0000463D01*
X0018560Y0000460D01*
X0018740Y0000640D01*
Y0001900D01*
X0018570Y0002040D01*
X0018114Y0002036D01*
X0018720Y0001204D02*
X0018650D01*
X0018720Y0001150D02*
X0018650D01*
X0018720Y0001096D02*
X0018650D01*
X0018720Y0001042D02*
X0018650D01*
X0018720Y0000988D02*
X0018650D01*
X0018720Y0000934D02*
X0018650D01*
X0018720Y0000880D02*
X0018650D01*
X0018720Y0000826D02*
X0018650D01*
X0018720Y0000772D02*
X0018650D01*
X0018720Y0000718D02*
X0018650D01*
X0018720Y0000664D02*
X0018650D01*
X0018720Y0001798D02*
X0018650D01*
X0018720Y0001744D02*
X0018650D01*
X0018720Y0001690D02*
X0018650D01*
X0018720Y0001636D02*
X0018650D01*
X0018720Y0001582D02*
X0018650D01*
X0018720Y0001528D02*
X0018650D01*
X0018720Y0001474D02*
X0018650D01*
X0018720Y0001420D02*
X0018650D01*
X0018720Y0001366D02*
X0018650D01*
X0018720Y0001312D02*
X0018650D01*
X0018720Y0001258D02*
X0018650D01*
X0018720Y0001900D02*
Y0000640D01*
X0018660Y0001950D02*
X0018720Y0001900D01*
X0018640Y0001980D02*
X0018660Y0001950D01*
X0018620Y0002000D02*
X0018640Y0001980D01*
X0018714Y0001905D02*
Y0000634D01*
X0018660Y0001950D02*
Y0000580D01*
X0018713Y0001906D02*
X0018650D01*
X0018720Y0001852D02*
X0018650D01*
X0018690Y0000610D02*
X0018650D01*
X0018620Y0002000D02*
X0018660Y0001960D01*
X0018650Y0001950D01*
Y0000570D01*
X0018720Y0000640D02*
X0018650Y0000570D01*
X0018506Y0001890D02*
X0018393D01*
X0018484Y0001959D02*
Y0001860D01*
X0018430Y0001966D02*
Y0001853D01*
X0018499Y0001944D02*
X0018400D01*
X0017570Y0002020D02*
Y0000470D01*
X0015175Y0009825D02*
Y0008675D01*
X0015820D01*
Y0009825D01*
X0015175D01*
X0007575Y0007075D02*
X0006425D01*
Y0006430D01*
X0007575D01*
Y0007075D01*
X0013000Y0014750D02*
X0014500D01*
Y0016000D01*
X0013000D01*
Y0014750D01*
X0015925Y0011325D02*
Y0010175D01*
X0016570D01*
Y0011325D01*
X0015925D01*
X0041931Y0006762D02*
Y0006880D01*
X0039569D01*
Y0006762D01*
X0041200Y0006259D02*
X0041075D01*
X0041200Y0006205D02*
X0041075D01*
X0041200Y0006151D02*
X0041075D01*
X0041200Y0006097D02*
X0041075D01*
X0041200Y0006043D02*
X0041075D01*
X0041200Y0005989D02*
X0041075D01*
X0041200Y0005935D02*
X0041075D01*
X0041200Y0005881D02*
X0041075D01*
X0041200Y0005827D02*
X0041075D01*
X0041200Y0005773D02*
X0041075D01*
X0041200Y0005719D02*
X0041075D01*
X0041200Y0006853D02*
X0041075D01*
X0041200Y0006799D02*
X0041075D01*
X0041200Y0006745D02*
X0041075D01*
X0041200Y0006691D02*
X0041075D01*
X0041200Y0006637D02*
X0041075D01*
X0041200Y0006583D02*
X0041075D01*
X0041200Y0006529D02*
X0041075D01*
X0041200Y0006475D02*
X0041075D01*
X0041200Y0006421D02*
X0041075D01*
X0041200Y0006367D02*
X0041075D01*
X0041200Y0006313D02*
X0041075D01*
X0041200Y0005665D02*
X0041075D01*
X0041200Y0006875D02*
X0041075D01*
Y0005625D01*
X0041200D02*
X0041075D01*
X0041200Y0006875D02*
Y0005625D01*
X0041169Y0006875D02*
Y0005625D01*
X0041115Y0006875D02*
Y0005625D01*
X0041931Y0005738D02*
Y0005620D01*
X0039569D01*
Y0005738D01*
X0042176Y0006831D02*
X0042079D01*
X0042172Y0006861D02*
Y0006819D01*
X0042118Y0006889D02*
Y0006792D01*
X0042148Y0006885D02*
X0042107D01*
X0015175Y0016075D02*
Y0014925D01*
X0015820D01*
Y0016075D01*
X0015175D01*
X0011379Y0016128D02*
X0011251D01*
X0011338Y0016226D02*
Y0016092D01*
X0011284Y0016223D02*
Y0016095D01*
X0011382Y0016182D02*
X0011248D01*
X0017075Y0006825D02*
X0015925D01*
Y0006180D01*
X0017075D01*
Y0006825D01*
X0021075Y0007825D02*
X0019925D01*
Y0007180D01*
X0021075D01*
Y0007825D01*
X0028473Y0014654D02*
X0028345D01*
X0028432Y0014752D02*
Y0014618D01*
X0028378Y0014749D02*
Y0014621D01*
X0028476Y0014708D02*
X0028342D01*
X0007575Y0012825D02*
X0006425D01*
Y0012180D01*
X0007575D01*
Y0012825D01*
X0042724Y0014919D02*
Y0015455D01*
X0042565D01*
Y0014919D01*
X0043935D01*
Y0014774D01*
X0044258D01*
Y0014616D01*
X0044726D01*
Y0012884D01*
X0044258D01*
Y0012726D01*
X0044833D01*
Y0014774D01*
X0044258D01*
X0042724Y0012581D02*
Y0012045D01*
X0043776D01*
X0043935D01*
Y0012581D01*
X0042565D01*
Y0012045D01*
X0042724D01*
X0044258Y0012884D02*
X0043681D01*
Y0012821D01*
X0042819D01*
Y0014679D01*
X0043681D01*
Y0014616D01*
Y0014274D01*
Y0013805D01*
X0043335D01*
X0043098D01*
Y0013695D01*
X0043335D01*
Y0013805D01*
X0043681Y0012884D02*
Y0013226D01*
Y0013695D01*
X0043335D01*
X0043681Y0014274D02*
X0043791D01*
Y0013226D01*
X0043681D01*
X0044833Y0014774D02*
X0045061D01*
Y0012726D01*
X0044833D01*
X0044258Y0014616D02*
X0043681D01*
X0043776Y0014919D02*
Y0015455D01*
X0043935D01*
Y0014919D01*
X0043375Y0013133D02*
Y0013383D01*
X0043125D01*
X0043184Y0013324D01*
Y0013192D01*
X0043125Y0013133D01*
X0043375D01*
X0043316Y0013192D01*
X0043184D01*
X0043125Y0013383D02*
Y0013133D01*
X0043316Y0014308D02*
X0043375Y0014367D01*
Y0014117D01*
X0043316Y0014176D01*
Y0014308D01*
X0043184D01*
X0043125Y0014367D01*
Y0014117D01*
X0043184Y0014176D01*
Y0014308D01*
X0043125Y0014117D02*
X0043375D01*
X0043316Y0014176D02*
X0043184D01*
X0043125Y0014367D02*
X0043375D01*
X0043776Y0012581D02*
Y0012045D01*
X0044258Y0012726D02*
X0043935D01*
Y0012581D01*
X0043098Y0013805D02*
X0042819D01*
X0043098Y0013695D02*
X0042819D01*
X0043375Y0013383D02*
X0043316Y0013324D01*
Y0013192D01*
Y0013324D02*
X0043184D01*
X0043776Y0015455D02*
X0042724D01*
X0042565Y0012581D02*
Y0014919D01*
X0015925Y0016075D02*
Y0014925D01*
X0016570D01*
Y0016075D01*
X0015925D01*
X0039925Y0007175D02*
X0041075D01*
Y0007820D01*
X0039925D01*
Y0007175D01*
X0029925Y0014325D02*
Y0013175D01*
X0030570D01*
Y0014325D01*
X0029925D01*
X0008748Y0012310D02*
X0008621D01*
X0008708Y0012407D02*
Y0012274D01*
X0008654Y0012404D02*
Y0012277D01*
X0008751Y0012364D02*
X0008618D01*
X0032504Y0009134D02*
Y0008976D01*
X0032177D01*
Y0007354D01*
X0029823D01*
Y0012646D01*
X0032177D01*
Y0011024D01*
X0032504D01*
Y0010866D01*
X0032968D01*
Y0009134D01*
X0032504D01*
X0031923D01*
Y0009453D01*
X0030077Y0012405D02*
Y0011531D01*
X0030939D01*
Y0011890D01*
X0031061D01*
Y0011531D01*
X0031923D01*
Y0012405D01*
X0030077D01*
X0031923Y0010437D02*
X0031061D01*
Y0009563D01*
X0031923D01*
Y0010437D01*
Y0009134D02*
Y0008579D01*
X0031061D01*
Y0009453D01*
X0032031D01*
Y0010547D01*
X0031061D01*
Y0011421D01*
X0031923D01*
Y0010866D01*
X0032504D01*
X0030383Y0007906D02*
X0030633D01*
Y0008156D01*
X0030383D01*
Y0007906D01*
X0030442Y0007965D01*
X0030574D01*
Y0008097D01*
X0030442D01*
Y0007965D01*
X0031558Y0008097D02*
X0031617Y0008156D01*
Y0007906D01*
X0031558Y0007965D01*
Y0008097D01*
X0031426D01*
X0031367Y0008156D01*
Y0007906D01*
X0031426Y0007965D01*
Y0008097D01*
X0031367Y0007906D02*
X0031617D01*
X0030633D02*
X0030574Y0007965D01*
X0030633Y0008156D02*
X0030574Y0008097D01*
X0030383Y0008156D02*
X0030442Y0008097D01*
Y0011902D02*
X0030383Y0011843D01*
Y0012093D01*
X0030442Y0012034D01*
Y0011902D01*
X0030574D01*
X0030633Y0011843D01*
Y0012093D01*
X0030574Y0012034D01*
Y0011902D01*
X0030442Y0012034D02*
X0030574D01*
X0031558D02*
X0031617Y0012093D01*
Y0011843D01*
X0031558Y0011902D01*
Y0012034D01*
X0031426D01*
X0031367Y0012093D01*
Y0011843D01*
X0031426Y0011902D01*
Y0012034D01*
X0030383Y0011843D02*
X0030633D01*
X0031367D02*
X0031617D01*
X0031558Y0011902D02*
X0031426D01*
X0030383Y0012093D02*
X0030633D01*
X0031367D02*
X0031617D01*
X0030939Y0011890D02*
Y0012126D01*
X0031061D01*
Y0011890D01*
X0030939Y0012405D02*
Y0012126D01*
X0031061D02*
Y0012405D01*
X0030383Y0009875D02*
X0030633D01*
Y0010125D01*
X0030574Y0010066D01*
X0030442D01*
X0030383Y0010125D01*
Y0009875D01*
X0030442Y0009934D01*
X0030574D01*
Y0010066D01*
X0030442Y0009934D02*
Y0010066D01*
X0030633Y0009875D02*
X0030574Y0009934D01*
X0031558Y0010066D02*
X0031617Y0010125D01*
Y0009875D01*
X0031558Y0009934D01*
Y0010066D01*
X0031426D01*
X0031367Y0010125D01*
Y0009875D01*
X0031426Y0009934D01*
Y0010066D01*
X0031367Y0009875D02*
X0031617D01*
X0031558Y0009934D02*
X0031426D01*
X0030383Y0010125D02*
X0030633D01*
X0031367D02*
X0031617D01*
X0030383Y0008891D02*
X0030633D01*
Y0009141D01*
X0030574Y0009082D01*
X0030442D01*
X0030383Y0009141D01*
Y0008891D01*
X0030442Y0008950D01*
X0030574D01*
Y0009082D01*
X0030442Y0008950D02*
Y0009082D01*
X0030633Y0008891D02*
X0030574Y0008950D01*
X0031558Y0009082D02*
X0031617Y0009141D01*
Y0008891D01*
X0031558Y0008950D01*
Y0009082D01*
X0031426D01*
X0031367Y0009141D01*
Y0008891D01*
X0031426Y0008950D01*
Y0009082D01*
X0031367Y0008891D02*
X0031617D01*
X0031558Y0008950D02*
X0031426D01*
X0030383Y0009141D02*
X0030633D01*
X0031367D02*
X0031617D01*
X0030383Y0010859D02*
X0030633D01*
Y0011109D01*
X0030574Y0011050D01*
X0030442D01*
X0030383Y0011109D01*
Y0010859D01*
X0030442Y0010918D01*
X0030574D01*
Y0011050D01*
X0030442Y0010918D02*
Y0011050D01*
X0030633Y0010859D02*
X0030574Y0010918D01*
X0031558Y0011050D02*
X0031617Y0011109D01*
Y0010859D01*
X0031558Y0010918D01*
Y0011050D01*
X0031426D01*
X0031367Y0011109D01*
Y0010859D01*
X0031426Y0010918D01*
Y0011050D01*
X0031367Y0010859D02*
X0031617D01*
X0031558Y0010918D02*
X0031426D01*
X0030383Y0011109D02*
X0030633D01*
X0031367D02*
X0031617D01*
X0033224Y0008976D02*
X0033079D01*
Y0011024D01*
X0033224D01*
X0033303Y0010945D02*
Y0009040D01*
X0032504Y0008976D02*
X0033079D01*
X0032504Y0011024D02*
X0033079D01*
X0031923Y0010547D02*
Y0010866D01*
Y0008468D02*
X0031061D01*
Y0007594D01*
X0031923D01*
Y0008468D01*
X0030077Y0011421D02*
Y0010547D01*
X0030939D01*
Y0011421D01*
X0030077D01*
Y0010437D02*
Y0009563D01*
X0030939D01*
Y0010437D01*
X0030077D01*
Y0009453D02*
Y0008579D01*
X0030939D01*
Y0009453D01*
X0030077D01*
Y0008468D02*
Y0007594D01*
X0030939D01*
Y0008468D01*
X0030077D01*
X0031558Y0007965D02*
X0031426D01*
X0031367Y0008156D02*
X0031617D01*
X0008748Y0013810D02*
X0008621D01*
X0008708Y0013907D02*
Y0013774D01*
X0008654Y0013904D02*
Y0013777D01*
X0008751Y0013864D02*
X0008618D01*
X0019524Y0006279D02*
X0019138D01*
Y0006456D01*
Y0006460D01*
X0019287Y0006830D01*
X0019524D01*
Y0006279D01*
X0021531D01*
Y0006830D01*
X0020921D01*
Y0006279D01*
X0019138Y0004872D02*
X0018937D01*
Y0005265D01*
X0019138D01*
Y0004872D01*
Y0002628D01*
Y0002234D01*
Y0001221D01*
X0019524D01*
X0021531D01*
Y0000669D01*
X0020921D01*
X0020714D01*
X0020262D01*
X0020055D01*
Y0001221D01*
X0019138D02*
Y0001043D01*
X0018937D01*
Y0000571D01*
X0021838D01*
Y0000669D01*
X0021531D01*
Y0006279D02*
X0021838D01*
Y0006830D01*
X0021531D01*
X0021838Y0004025D02*
X0022390D01*
Y0003474D01*
X0021838D01*
Y0004025D01*
Y0006279D01*
X0019138Y0005265D02*
Y0006279D01*
Y0001043D02*
Y0001040D01*
X0019287Y0000669D01*
X0019524D01*
X0020055D01*
X0019524Y0006830D02*
X0020055D01*
X0020262D01*
Y0006279D01*
Y0006830D02*
X0020714D01*
Y0006279D01*
X0019784Y0002104D02*
Y0001852D01*
X0020036D01*
Y0002104D01*
X0019784D01*
Y0005395D02*
X0020036D01*
Y0005647D01*
X0019784D01*
Y0005395D01*
X0021216D02*
Y0005647D01*
X0020964D01*
Y0005395D01*
X0021216D01*
X0019784Y0004466D02*
Y0004214D01*
X0020036D01*
Y0004466D01*
X0019784D01*
X0020964Y0004214D02*
X0021216D01*
Y0004466D01*
X0020964D01*
Y0004214D01*
X0019784Y0003286D02*
Y0003034D01*
X0020036D01*
Y0003286D01*
X0019784D01*
X0020964Y0003034D02*
X0021216D01*
Y0003286D01*
X0020964D01*
Y0003034D01*
X0019138Y0006456D02*
X0018937D01*
Y0006929D01*
X0021838D01*
Y0006830D01*
X0020964Y0002104D02*
Y0001852D01*
X0021216D01*
Y0002104D01*
X0020964D01*
X0020398Y0005021D02*
Y0006021D01*
X0019398D01*
Y0005297D01*
X0019673Y0005021D01*
X0020398D01*
X0019398Y0003840D02*
X0020398D01*
Y0004840D01*
X0019673D01*
X0019398Y0004565D01*
Y0003840D01*
X0020578Y0004565D02*
Y0003840D01*
X0021578D01*
Y0004840D01*
X0020854D01*
X0020578Y0004565D01*
X0021578Y0002660D02*
Y0003660D01*
X0020578D01*
Y0002935D01*
X0020854Y0002660D01*
X0021578D01*
X0020398D02*
Y0003660D01*
X0019398D01*
Y0002935D01*
X0019673Y0002660D01*
X0020398D01*
X0019398Y0001478D02*
X0020398D01*
Y0002478D01*
X0019673D01*
X0019398Y0002203D01*
Y0001478D01*
X0020578D02*
X0021578D01*
Y0002478D01*
X0020854D01*
X0020578Y0002203D01*
Y0001478D01*
X0019138Y0002234D02*
X0018937D01*
Y0002628D01*
X0019138D01*
X0020578Y0006021D02*
Y0005021D01*
X0021578D01*
Y0006021D01*
X0020578D01*
X0021838Y0000669D02*
Y0001221D01*
Y0003474D01*
X0020714Y0001221D02*
Y0000669D01*
X0020262D02*
Y0001221D01*
X0020921D02*
Y0000669D01*
X0019524D02*
Y0001221D01*
X0021838D02*
X0021531D01*
X0020055Y0006279D02*
Y0006830D01*
X0020714D02*
X0020921D01*
X0014500Y0014500D02*
X0013000D01*
Y0013250D01*
X0014500D01*
Y0014500D01*
X0005450Y0007200D02*
Y0008300D01*
X0007550D01*
Y0007200D01*
X0005450D01*
X0011843Y0007525D02*
X0011803D01*
Y0006975D01*
X0011843D01*
X0012157D02*
X0012197D01*
Y0007525D01*
X0012157D01*
X0011803Y0007093D02*
Y0007132D01*
X0012197D01*
Y0007093D01*
X0011803D01*
X0012950Y0002200D02*
Y0003300D01*
X0015050D01*
Y0002200D01*
X0012950D01*
X0023886Y0003964D02*
X0025600Y0003963D01*
X0026245D01*
Y0005537D01*
X0023440Y0005540D01*
X0023260Y0005360D01*
Y0004100D01*
X0023430Y0003960D01*
X0023886Y0003964D01*
X0023350Y0004634D02*
X0023280D01*
X0023350Y0004580D02*
X0023280D01*
X0023350Y0004526D02*
X0023280D01*
X0023350Y0004472D02*
X0023280D01*
X0023350Y0004418D02*
X0023280D01*
X0023350Y0004364D02*
X0023280D01*
X0023350Y0004310D02*
X0023280D01*
X0023350Y0004256D02*
X0023280D01*
X0023350Y0004202D02*
X0023280D01*
X0023350Y0004148D02*
X0023280D01*
X0023350Y0004094D02*
X0023287D01*
X0023350Y0005228D02*
X0023280D01*
X0023350Y0005174D02*
X0023280D01*
X0023350Y0005120D02*
X0023280D01*
X0023350Y0005066D02*
X0023280D01*
X0023350Y0005012D02*
X0023280D01*
X0023350Y0004958D02*
X0023280D01*
X0023350Y0004904D02*
X0023280D01*
X0023350Y0004850D02*
X0023280D01*
X0023350Y0004796D02*
X0023280D01*
X0023350Y0004742D02*
X0023280D01*
X0023350Y0004688D02*
X0023280D01*
Y0005360D02*
Y0004100D01*
X0023340Y0004050D01*
X0023360Y0004020D01*
X0023380Y0004000D01*
X0023320Y0005400D02*
Y0004067D01*
X0023350Y0005390D02*
X0023310D01*
X0023350Y0005336D02*
X0023280D01*
X0023350Y0005282D02*
X0023280D01*
X0023340Y0004040D02*
X0023380Y0004000D01*
X0023350Y0004050D02*
X0023340Y0004040D01*
X0023350Y0005430D02*
Y0004050D01*
Y0005430D02*
X0023280Y0005360D01*
X0023606Y0004070D02*
X0023493D01*
X0023584Y0004139D02*
Y0004040D01*
X0023530Y0004146D02*
Y0004033D01*
X0023599Y0004124D02*
X0023500D01*
X0024430Y0003980D02*
Y0005530D01*
X0018575Y0021675D02*
Y0022825D01*
X0017930D01*
Y0021675D01*
X0018575D01*
X0021575Y0016925D02*
Y0018075D01*
X0020930D01*
Y0016925D01*
X0021575D01*
X0005450Y0003200D02*
Y0004300D01*
X0007550D01*
Y0003200D01*
X0005450D01*
X0007550Y0012050D02*
Y0010950D01*
X0005450D01*
Y0012050D01*
X0007550D01*
X0039191Y0018919D02*
Y0019455D01*
X0037813D02*
X0037577D01*
Y0018919D01*
Y0016581D02*
Y0016045D01*
X0037813D01*
X0039191D01*
X0037813Y0016581D02*
Y0016045D01*
X0040218Y0016884D02*
Y0018616D01*
X0039750D01*
X0039173D01*
Y0018679D01*
X0038311D01*
Y0017805D01*
X0039173D01*
Y0018274D01*
X0039283D01*
Y0017226D01*
X0039173D01*
Y0017695D01*
X0038311D01*
Y0017337D01*
X0038189D01*
Y0017695D01*
X0037327D01*
Y0016821D01*
X0039173D01*
Y0016884D01*
X0039750D01*
X0040218D01*
X0039191Y0016581D02*
Y0016045D01*
X0039427D01*
Y0016581D01*
X0037073D01*
Y0018919D01*
X0039427D01*
Y0019455D01*
X0039191D01*
X0037813D01*
Y0018919D01*
X0037824Y0018308D02*
X0037883Y0018367D01*
X0037633D01*
Y0018117D01*
X0037692Y0018176D01*
X0037824D01*
Y0018308D01*
X0037692D01*
Y0018176D01*
X0037883Y0018367D02*
Y0018117D01*
X0037824Y0018176D01*
X0038808Y0018308D02*
X0038867Y0018367D01*
Y0018117D01*
X0038808Y0018176D01*
Y0018308D01*
X0038676D01*
X0038617Y0018367D01*
Y0018117D01*
X0038676Y0018176D01*
Y0018308D01*
X0037633Y0018117D02*
X0037883D01*
X0038617D02*
X0038867D01*
X0038808Y0018176D02*
X0038676D01*
X0038617Y0018367D02*
X0038867D01*
X0038311Y0016821D02*
Y0017100D01*
X0038189D01*
Y0017337D01*
X0038311D02*
Y0017100D01*
X0037633Y0017133D02*
X0037883D01*
Y0017383D01*
X0037824Y0017324D01*
X0037692D01*
X0037633Y0017383D01*
Y0017133D01*
X0037692Y0017192D01*
X0037824D01*
Y0017324D01*
X0037692Y0017192D02*
Y0017324D01*
X0037883Y0017133D02*
X0037824Y0017192D01*
X0038808Y0017324D02*
X0038867Y0017383D01*
Y0017133D01*
X0038808Y0017192D01*
Y0017324D01*
X0038676D01*
X0038617Y0017383D01*
Y0017133D01*
X0038676Y0017192D01*
Y0017324D01*
X0038617Y0017133D02*
X0038867D01*
X0038808Y0017192D02*
X0038676D01*
X0037633Y0017383D02*
X0037883D01*
X0038617D02*
X0038867D01*
X0038189Y0016821D02*
Y0017100D01*
X0040474Y0016726D02*
X0040325D01*
Y0018774D01*
X0040474D01*
X0040553Y0018695D02*
X0040550Y0016800D01*
X0039427Y0016581D02*
Y0016726D01*
X0039750D01*
X0040325D01*
X0039750Y0018616D02*
Y0018774D01*
X0040325D01*
X0037633Y0018367D02*
X0037692Y0018308D01*
X0039173Y0016884D02*
Y0017226D01*
Y0018274D02*
Y0018616D01*
X0037327Y0018679D02*
Y0017805D01*
X0038189D01*
Y0018679D01*
X0037327D01*
X0039427Y0018919D02*
Y0018774D01*
X0039750D01*
Y0016884D02*
Y0016726D01*
X0008157Y0011725D02*
X0008197D01*
Y0012275D01*
X0008157D01*
X0007843D02*
X0007803D01*
Y0011725D01*
X0007843D01*
X0008197Y0012157D02*
Y0012118D01*
X0007803D01*
Y0012157D01*
X0008197D01*
X0015825Y0010175D02*
Y0011325D01*
X0015180D01*
Y0010175D01*
X0015825D01*
X0037825Y0007825D02*
X0036675D01*
Y0007180D01*
X0037825D01*
Y0007825D01*
X0028864Y0003786D02*
X0027150Y0003787D01*
X0026505D01*
Y0002213D01*
X0029310Y0002210D01*
X0029490Y0002390D01*
Y0003650D01*
X0029320Y0003790D01*
X0028864Y0003786D01*
X0029470Y0002954D02*
X0029400D01*
X0029470Y0002900D02*
X0029400D01*
X0029470Y0002846D02*
X0029400D01*
X0029470Y0002792D02*
X0029400D01*
X0029470Y0002738D02*
X0029400D01*
X0029470Y0002684D02*
X0029400D01*
X0029470Y0002630D02*
X0029400D01*
X0029470Y0002576D02*
X0029400D01*
X0029470Y0002522D02*
X0029400D01*
X0029470Y0002468D02*
X0029400D01*
X0029470Y0002414D02*
X0029400D01*
X0029470Y0003548D02*
X0029400D01*
X0029470Y0003494D02*
X0029400D01*
X0029470Y0003440D02*
X0029400D01*
X0029470Y0003386D02*
X0029400D01*
X0029470Y0003332D02*
X0029400D01*
X0029470Y0003278D02*
X0029400D01*
X0029470Y0003224D02*
X0029400D01*
X0029470Y0003170D02*
X0029400D01*
X0029470Y0003116D02*
X0029400D01*
X0029470Y0003062D02*
X0029400D01*
X0029470Y0003008D02*
X0029400D01*
X0029470Y0003650D02*
Y0002390D01*
X0029410Y0003700D02*
X0029470Y0003650D01*
X0029390Y0003730D02*
X0029410Y0003700D01*
X0029370Y0003750D02*
X0029390Y0003730D01*
X0029464Y0003655D02*
Y0002384D01*
X0029410Y0003700D02*
Y0002330D01*
X0029463Y0003656D02*
X0029400D01*
X0029470Y0003602D02*
X0029400D01*
X0029440Y0002360D02*
X0029400D01*
X0029370Y0003750D02*
X0029410Y0003710D01*
X0029400Y0003700D01*
Y0002320D01*
X0029470Y0002390D02*
X0029400Y0002320D01*
X0029256Y0003640D02*
X0029143D01*
X0029234Y0003709D02*
Y0003610D01*
X0029180Y0003716D02*
Y0003603D01*
X0029249Y0003694D02*
X0029150D01*
X0028320Y0003770D02*
Y0002220D01*
X0007550Y0014050D02*
Y0012950D01*
X0005450D01*
Y0014050D01*
X0007550D01*
X0032050Y0017700D02*
X0030950D01*
Y0019800D01*
X0032050D01*
Y0017700D01*
X0022425Y0013675D02*
X0023575D01*
Y0014320D01*
X0022425D01*
Y0013675D01*
Y0011675D02*
X0023575D01*
Y0012320D01*
X0022425D01*
Y0011675D01*
X0012175Y0009575D02*
Y0008425D01*
X0012820D01*
Y0009575D01*
X0012175D01*
X0014075Y0025075D02*
X0012925D01*
Y0024430D01*
X0014075D01*
Y0025075D01*
Y0023825D02*
X0012925D01*
Y0023180D01*
X0014075D01*
Y0023825D01*
X0014550Y0022550D02*
Y0021450D01*
X0012450D01*
Y0022550D01*
X0014550D01*
X0005450Y0001950D02*
Y0003050D01*
X0007550D01*
Y0001950D01*
X0005450D01*
X0032504Y0002384D02*
Y0002226D01*
X0032177D01*
Y0000604D01*
X0029823D01*
Y0005896D01*
X0032177D01*
Y0004274D01*
X0032504D01*
Y0004116D01*
X0032968D01*
Y0002384D01*
X0032504D01*
X0031923D01*
Y0002703D01*
X0030077Y0005655D02*
Y0004781D01*
X0030939D01*
Y0005140D01*
X0031061D01*
Y0004781D01*
X0031923D01*
Y0005655D01*
X0030077D01*
X0031923Y0003687D02*
X0031061D01*
Y0002813D01*
X0031923D01*
Y0003687D01*
Y0002384D02*
Y0001829D01*
X0031061D01*
Y0002703D01*
X0032031D01*
Y0003797D01*
X0031061D01*
Y0004671D01*
X0031923D01*
Y0004116D01*
X0032504D01*
X0030383Y0001156D02*
X0030633D01*
Y0001406D01*
X0030383D01*
Y0001156D01*
X0030442Y0001215D01*
X0030574D01*
Y0001347D01*
X0030442D01*
Y0001215D01*
X0031558Y0001347D02*
X0031617Y0001406D01*
Y0001156D01*
X0031558Y0001215D01*
Y0001347D01*
X0031426D01*
X0031367Y0001406D01*
Y0001156D01*
X0031426Y0001215D01*
Y0001347D01*
X0031367Y0001156D02*
X0031617D01*
X0030633D02*
X0030574Y0001215D01*
X0030633Y0001406D02*
X0030574Y0001347D01*
X0030383Y0001406D02*
X0030442Y0001347D01*
Y0005152D02*
X0030383Y0005093D01*
Y0005343D01*
X0030442Y0005284D01*
Y0005152D01*
X0030574D01*
X0030633Y0005093D01*
Y0005343D01*
X0030574Y0005284D01*
Y0005152D01*
X0030442Y0005284D02*
X0030574D01*
X0031558D02*
X0031617Y0005343D01*
Y0005093D01*
X0031558Y0005152D01*
Y0005284D01*
X0031426D01*
X0031367Y0005343D01*
Y0005093D01*
X0031426Y0005152D01*
Y0005284D01*
X0030383Y0005093D02*
X0030633D01*
X0031367D02*
X0031617D01*
X0031558Y0005152D02*
X0031426D01*
X0030383Y0005343D02*
X0030633D01*
X0031367D02*
X0031617D01*
X0030939Y0005140D02*
Y0005376D01*
X0031061D01*
Y0005140D01*
X0030939Y0005655D02*
Y0005376D01*
X0031061D02*
Y0005655D01*
X0030383Y0003125D02*
X0030633D01*
Y0003375D01*
X0030574Y0003316D01*
X0030442D01*
X0030383Y0003375D01*
Y0003125D01*
X0030442Y0003184D01*
X0030574D01*
Y0003316D01*
X0030442Y0003184D02*
Y0003316D01*
X0030633Y0003125D02*
X0030574Y0003184D01*
X0031558Y0003316D02*
X0031617Y0003375D01*
Y0003125D01*
X0031558Y0003184D01*
Y0003316D01*
X0031426D01*
X0031367Y0003375D01*
Y0003125D01*
X0031426Y0003184D01*
Y0003316D01*
X0031367Y0003125D02*
X0031617D01*
X0031558Y0003184D02*
X0031426D01*
X0030383Y0003375D02*
X0030633D01*
X0031367D02*
X0031617D01*
X0030383Y0002141D02*
X0030633D01*
Y0002391D01*
X0030574Y0002332D01*
X0030442D01*
X0030383Y0002391D01*
Y0002141D01*
X0030442Y0002200D01*
X0030574D01*
Y0002332D01*
X0030442Y0002200D02*
Y0002332D01*
X0030633Y0002141D02*
X0030574Y0002200D01*
X0031558Y0002332D02*
X0031617Y0002391D01*
Y0002141D01*
X0031558Y0002200D01*
Y0002332D01*
X0031426D01*
X0031367Y0002391D01*
Y0002141D01*
X0031426Y0002200D01*
Y0002332D01*
X0031367Y0002141D02*
X0031617D01*
X0031558Y0002200D02*
X0031426D01*
X0030383Y0002391D02*
X0030633D01*
X0031367D02*
X0031617D01*
X0030383Y0004109D02*
X0030633D01*
Y0004359D01*
X0030574Y0004300D01*
X0030442D01*
X0030383Y0004359D01*
Y0004109D01*
X0030442Y0004168D01*
X0030574D01*
Y0004300D01*
X0030442Y0004168D02*
Y0004300D01*
X0030633Y0004109D02*
X0030574Y0004168D01*
X0031558Y0004300D02*
X0031617Y0004359D01*
Y0004109D01*
X0031558Y0004168D01*
Y0004300D01*
X0031426D01*
X0031367Y0004359D01*
Y0004109D01*
X0031426Y0004168D01*
Y0004300D01*
X0031367Y0004109D02*
X0031617D01*
X0031558Y0004168D02*
X0031426D01*
X0030383Y0004359D02*
X0030633D01*
X0031367D02*
X0031617D01*
X0033224Y0002226D02*
X0033079D01*
Y0004274D01*
X0033224D01*
X0033303Y0004195D02*
Y0002290D01*
X0032504Y0002226D02*
X0033079D01*
X0032504Y0004274D02*
X0033079D01*
X0031923Y0003797D02*
Y0004116D01*
Y0001718D02*
X0031061D01*
Y0000844D01*
X0031923D01*
Y0001718D01*
X0030077Y0004671D02*
Y0003797D01*
X0030939D01*
Y0004671D01*
X0030077D01*
Y0003687D02*
Y0002813D01*
X0030939D01*
Y0003687D01*
X0030077D01*
Y0002703D02*
Y0001829D01*
X0030939D01*
Y0002703D01*
X0030077D01*
Y0001718D02*
Y0000844D01*
X0030939D01*
Y0001718D01*
X0030077D01*
X0031558Y0001215D02*
X0031426D01*
X0031367Y0001406D02*
X0031617D01*
X0012950Y0000950D02*
Y0002050D01*
X0015050D01*
Y0000950D01*
X0012950D01*
X0012175Y0025075D02*
Y0023925D01*
X0012820D01*
Y0025075D01*
X0012175D01*
X0036407Y0012208D02*
Y0013895D01*
X0036439Y0013872D01*
X0036443Y0013876D01*
X0036411Y0013899D01*
Y0013911D01*
X0036494Y0013968D01*
Y0013964D01*
Y0013968D01*
X0040045D01*
Y0013938D01*
X0039868Y0013876D01*
X0039829Y0013637D02*
X0036463D01*
X0036443Y0013876D01*
X0039868D01*
X0039872Y0013872D01*
X0039832Y0013637D02*
Y0010363D01*
X0039872Y0010128D02*
X0039868Y0010124D01*
X0036443D01*
X0036463Y0010363D01*
X0039829D01*
X0039868Y0010124D02*
X0040045Y0010062D01*
Y0010031D01*
X0036494D01*
Y0010036D01*
Y0010032D01*
X0036411Y0010089D01*
Y0010099D01*
Y0010101D01*
X0036407Y0010105D01*
Y0011793D01*
Y0012207D01*
X0036191D01*
Y0012266D01*
X0035896D01*
Y0011734D01*
X0036191D01*
Y0011793D01*
X0036407D01*
Y0010093D02*
X0036411Y0010089D01*
Y0013911D02*
X0036407Y0013907D01*
Y0013895D01*
X0036411Y0013899D01*
X0039872Y0013872D02*
X0040049Y0013934D01*
Y0013929D01*
Y0010071D01*
Y0010066D01*
X0040045Y0010062D01*
X0040049Y0010066D01*
Y0010062D01*
Y0010066D01*
X0039872Y0010128D01*
X0040045Y0013938D02*
X0040049Y0013934D01*
Y0013938D01*
Y0013934D01*
X0040048Y0013929D01*
X0040364D01*
X0040443Y0013180D01*
Y0010820D01*
X0040364Y0010071D01*
X0040047D01*
X0036407Y0011148D02*
X0036191D01*
Y0011207D01*
X0035876D01*
Y0011148D01*
X0035845D01*
Y0010734D01*
X0035451D01*
X0035312D01*
X0035281Y0010766D01*
X0035196Y0010852D01*
X0034557D01*
Y0011148D01*
X0035281D01*
X0035451D01*
Y0010734D01*
X0035281Y0011148D02*
Y0010766D01*
X0035451Y0011148D02*
X0035845D01*
Y0010734D02*
X0035876D01*
Y0010675D01*
X0036191D01*
Y0010734D01*
X0036407D01*
Y0013266D02*
X0036191D01*
Y0013325D01*
X0035876D01*
Y0013266D01*
X0035845D01*
Y0012852D01*
X0035451D01*
X0035281D01*
X0034557D01*
Y0013148D01*
X0035196D01*
X0035281Y0013234D01*
Y0012852D01*
Y0013234D02*
X0035312Y0013266D01*
X0035451D01*
X0035845D01*
X0035451Y0012852D02*
Y0013266D01*
X0036407Y0012852D02*
X0036191D01*
Y0012793D01*
X0035876D01*
Y0012852D01*
X0035845D01*
X0036439Y0010128D02*
X0036443Y0010124D01*
X0036411Y0010101D01*
X0036407D01*
Y0010105D01*
X0036439Y0010128D01*
X0036459Y0010363D01*
Y0013637D01*
X0036439Y0013872D01*
X0036490Y0010036D02*
Y0010034D01*
Y0013964D03*
X0011843Y0001525D02*
X0011803D01*
Y0000975D01*
X0011843D01*
X0012157D02*
X0012197D01*
Y0001525D01*
X0012157D01*
X0011803Y0001093D02*
Y0001132D01*
X0012197D01*
Y0001093D01*
X0011803D01*
X0018114Y0003786D02*
X0016400Y0003787D01*
X0015755D01*
Y0002213D01*
X0018560Y0002210D01*
X0018740Y0002390D01*
Y0003650D01*
X0018570Y0003790D01*
X0018114Y0003786D01*
X0018720Y0002954D02*
X0018650D01*
X0018720Y0002900D02*
X0018650D01*
X0018720Y0002846D02*
X0018650D01*
X0018720Y0002792D02*
X0018650D01*
X0018720Y0002738D02*
X0018650D01*
X0018720Y0002684D02*
X0018650D01*
X0018720Y0002630D02*
X0018650D01*
X0018720Y0002576D02*
X0018650D01*
X0018720Y0002522D02*
X0018650D01*
X0018720Y0002468D02*
X0018650D01*
X0018720Y0002414D02*
X0018650D01*
X0018720Y0003548D02*
X0018650D01*
X0018720Y0003494D02*
X0018650D01*
X0018720Y0003440D02*
X0018650D01*
X0018720Y0003386D02*
X0018650D01*
X0018720Y0003332D02*
X0018650D01*
X0018720Y0003278D02*
X0018650D01*
X0018720Y0003224D02*
X0018650D01*
X0018720Y0003170D02*
X0018650D01*
X0018720Y0003116D02*
X0018650D01*
X0018720Y0003062D02*
X0018650D01*
X0018720Y0003008D02*
X0018650D01*
X0018720Y0003650D02*
Y0002390D01*
X0018660Y0003700D02*
X0018720Y0003650D01*
X0018640Y0003730D02*
X0018660Y0003700D01*
X0018620Y0003750D02*
X0018640Y0003730D01*
X0018714Y0003655D02*
Y0002384D01*
X0018660Y0003700D02*
Y0002330D01*
X0018713Y0003656D02*
X0018650D01*
X0018720Y0003602D02*
X0018650D01*
X0018690Y0002360D02*
X0018650D01*
X0018620Y0003750D02*
X0018660Y0003710D01*
X0018650Y0003700D01*
Y0002320D01*
X0018720Y0002390D02*
X0018650Y0002320D01*
X0018506Y0003640D02*
X0018393D01*
X0018484Y0003709D02*
Y0003610D01*
X0018430Y0003716D02*
Y0003603D01*
X0018499Y0003694D02*
X0018400D01*
X0017570Y0003770D02*
Y0002220D01*
X0005175Y0004425D02*
X0006325D01*
Y0005070D01*
X0005175D01*
Y0004425D01*
X0014325Y0007325D02*
X0013175D01*
Y0006680D01*
X0014325D01*
Y0007325D01*
X0015925Y0012825D02*
Y0011675D01*
X0016570D01*
Y0012825D01*
X0015925D01*
X0023886Y0005714D02*
X0025600Y0005713D01*
X0026245D01*
Y0007287D01*
X0023440Y0007290D01*
X0023260Y0007110D01*
Y0005850D01*
X0023430Y0005710D01*
X0023886Y0005714D01*
X0023350Y0006384D02*
X0023280D01*
X0023350Y0006330D02*
X0023280D01*
X0023350Y0006276D02*
X0023280D01*
X0023350Y0006222D02*
X0023280D01*
X0023350Y0006168D02*
X0023280D01*
X0023350Y0006114D02*
X0023280D01*
X0023350Y0006060D02*
X0023280D01*
X0023350Y0006006D02*
X0023280D01*
X0023350Y0005952D02*
X0023280D01*
X0023350Y0005898D02*
X0023280D01*
X0023350Y0005844D02*
X0023287D01*
X0023350Y0006978D02*
X0023280D01*
X0023350Y0006924D02*
X0023280D01*
X0023350Y0006870D02*
X0023280D01*
X0023350Y0006816D02*
X0023280D01*
X0023350Y0006762D02*
X0023280D01*
X0023350Y0006708D02*
X0023280D01*
X0023350Y0006654D02*
X0023280D01*
X0023350Y0006600D02*
X0023280D01*
X0023350Y0006546D02*
X0023280D01*
X0023350Y0006492D02*
X0023280D01*
X0023350Y0006438D02*
X0023280D01*
Y0007110D02*
Y0005850D01*
X0023340Y0005800D01*
X0023360Y0005770D01*
X0023380Y0005750D01*
X0023320Y0007150D02*
Y0005817D01*
X0023350Y0007140D02*
X0023310D01*
X0023350Y0007086D02*
X0023280D01*
X0023350Y0007032D02*
X0023280D01*
X0023340Y0005790D02*
X0023380Y0005750D01*
X0023350Y0005800D02*
X0023340Y0005790D01*
X0023350Y0007180D02*
Y0005800D01*
Y0007180D02*
X0023280Y0007110D01*
X0023606Y0005820D02*
X0023493D01*
X0023584Y0005889D02*
Y0005790D01*
X0023530Y0005896D02*
Y0005783D01*
X0023599Y0005874D02*
X0023500D01*
X0024430Y0005730D02*
Y0007280D01*
X0007550Y0024300D02*
Y0023200D01*
X0005450D01*
Y0024300D01*
X0007550D01*
X0011379Y0002128D02*
X0011251D01*
X0011338Y0002226D02*
Y0002092D01*
X0011284Y0002223D02*
Y0002095D01*
X0011382Y0002182D02*
X0011248D01*
X0015825Y0013425D02*
Y0014575D01*
X0015180D01*
Y0013425D01*
X0015825D01*
X0022425Y0009925D02*
X0023575D01*
Y0010570D01*
X0022425D01*
Y0009925D01*
X0012175Y0023825D02*
Y0022675D01*
X0012820D01*
Y0023825D01*
X0012175D01*
X0014550Y0017550D02*
Y0016450D01*
X0012450D01*
Y0017550D01*
X0014550D01*
X0027175Y0011825D02*
Y0010675D01*
X0027820D01*
Y0011825D01*
X0027175D01*
X0008748Y0023310D02*
X0008621D01*
X0008708Y0023407D02*
Y0023274D01*
X0008654Y0023404D02*
Y0023277D01*
X0008751Y0023364D02*
X0008618D01*
X0014550Y0018800D02*
Y0017700D01*
X0012450D01*
Y0018800D01*
X0014550D01*
X0028864Y0002036D02*
X0027150Y0002037D01*
X0026505D01*
Y0000463D01*
X0029310Y0000460D01*
X0029490Y0000640D01*
Y0001900D01*
X0029320Y0002040D01*
X0028864Y0002036D01*
X0029470Y0001204D02*
X0029400D01*
X0029470Y0001150D02*
X0029400D01*
X0029470Y0001096D02*
X0029400D01*
X0029470Y0001042D02*
X0029400D01*
X0029470Y0000988D02*
X0029400D01*
X0029470Y0000934D02*
X0029400D01*
X0029470Y0000880D02*
X0029400D01*
X0029470Y0000826D02*
X0029400D01*
X0029470Y0000772D02*
X0029400D01*
X0029470Y0000718D02*
X0029400D01*
X0029470Y0000664D02*
X0029400D01*
X0029470Y0001798D02*
X0029400D01*
X0029470Y0001744D02*
X0029400D01*
X0029470Y0001690D02*
X0029400D01*
X0029470Y0001636D02*
X0029400D01*
X0029470Y0001582D02*
X0029400D01*
X0029470Y0001528D02*
X0029400D01*
X0029470Y0001474D02*
X0029400D01*
X0029470Y0001420D02*
X0029400D01*
X0029470Y0001366D02*
X0029400D01*
X0029470Y0001312D02*
X0029400D01*
X0029470Y0001258D02*
X0029400D01*
X0029470Y0001900D02*
Y0000640D01*
X0029410Y0001950D02*
X0029470Y0001900D01*
X0029390Y0001980D02*
X0029410Y0001950D01*
X0029370Y0002000D02*
X0029390Y0001980D01*
X0029464Y0001905D02*
Y0000634D01*
X0029410Y0001950D02*
Y0000580D01*
X0029463Y0001906D02*
X0029400D01*
X0029470Y0001852D02*
X0029400D01*
X0029440Y0000610D02*
X0029400D01*
X0029370Y0002000D02*
X0029410Y0001960D01*
X0029400Y0001950D01*
Y0000570D01*
X0029470Y0000640D02*
X0029400Y0000570D01*
X0029256Y0001890D02*
X0029143D01*
X0029234Y0001959D02*
Y0001860D01*
X0029180Y0001966D02*
Y0001853D01*
X0029249Y0001944D02*
X0029150D01*
X0028320Y0002020D02*
Y0000470D01*
X0041175Y0003825D02*
Y0002675D01*
X0041820D01*
Y0003825D01*
X0041175D01*
X0007575Y0017325D02*
X0006425D01*
Y0016680D01*
X0007575D01*
Y0017325D01*
X0027004Y0012884D02*
Y0012726D01*
X0026677D01*
Y0010120D01*
X0024323D01*
Y0017380D01*
X0026677D01*
Y0014774D01*
X0027004D01*
Y0014616D01*
X0027468D01*
Y0012884D01*
X0027004D01*
X0026423D01*
Y0013203D01*
X0025439Y0016624D02*
Y0016266D01*
X0024577D01*
Y0017140D01*
X0026423D01*
Y0016266D01*
X0025561D01*
Y0016624D01*
Y0016860D01*
X0025439D01*
Y0016624D01*
X0025561D01*
X0026423Y0014187D02*
X0025561D01*
Y0013313D01*
X0026423D01*
Y0014187D01*
Y0012884D02*
Y0012329D01*
X0025561D01*
Y0013203D01*
X0026531D01*
Y0014297D01*
X0025561D01*
Y0015171D01*
X0026423D01*
Y0014616D01*
X0027004D01*
X0024883Y0010672D02*
X0025133D01*
Y0010922D01*
X0024883D01*
Y0010672D01*
X0024942Y0010731D01*
X0025074D01*
Y0010863D01*
X0024942D01*
Y0010731D01*
X0026058Y0010863D02*
X0026117Y0010922D01*
Y0010672D01*
X0026058Y0010731D01*
Y0010863D01*
X0025926D01*
X0025867Y0010922D01*
Y0010672D01*
X0025926Y0010731D01*
Y0010863D01*
X0025867Y0010672D02*
X0026117D01*
X0025133D02*
X0025074Y0010731D01*
X0025133Y0010922D02*
X0025074Y0010863D01*
X0024883Y0010922D02*
X0024942Y0010863D01*
Y0016637D02*
X0024883Y0016578D01*
Y0016828D01*
X0024942Y0016769D01*
Y0016637D01*
X0025074D01*
X0025133Y0016578D01*
Y0016828D01*
X0025074Y0016769D01*
Y0016637D01*
X0024942Y0016769D02*
X0025074D01*
X0026058D02*
X0026117Y0016828D01*
Y0016578D01*
X0026058Y0016637D01*
Y0016769D01*
X0025926D01*
X0025867Y0016828D01*
Y0016578D01*
X0025926Y0016637D01*
Y0016769D01*
X0024883Y0016578D02*
X0025133D01*
X0025867D02*
X0026117D01*
X0026058Y0016637D02*
X0025926D01*
X0024883Y0016828D02*
X0025133D01*
X0025867D02*
X0026117D01*
X0025439Y0016860D02*
Y0017140D01*
X0025561D02*
Y0016860D01*
X0024883Y0015593D02*
X0025133D01*
Y0015843D01*
X0025074Y0015784D01*
X0024942D01*
X0024883Y0015843D01*
Y0015593D01*
X0024942Y0015652D01*
X0025074D01*
Y0015784D01*
X0024942Y0015652D02*
Y0015784D01*
X0025133Y0015593D02*
X0025074Y0015652D01*
X0026058Y0015784D02*
X0026117Y0015843D01*
Y0015593D01*
X0026058Y0015652D01*
Y0015784D01*
X0025926D01*
X0025867Y0015843D01*
Y0015593D01*
X0025926Y0015652D01*
Y0015784D01*
X0025867Y0015593D02*
X0026117D01*
X0026058Y0015652D02*
X0025926D01*
X0024883Y0015843D02*
X0025133D01*
X0025867D02*
X0026117D01*
X0024883Y0013625D02*
X0025133D01*
Y0013875D01*
X0025074Y0013816D01*
X0024942D01*
X0024883Y0013875D01*
Y0013625D01*
X0024942Y0013684D01*
X0025074D01*
Y0013816D01*
X0024942Y0013684D02*
Y0013816D01*
X0025133Y0013625D02*
X0025074Y0013684D01*
X0026058Y0013816D02*
X0026117Y0013875D01*
Y0013625D01*
X0026058Y0013684D01*
Y0013816D01*
X0025926D01*
X0025867Y0013875D01*
Y0013625D01*
X0025926Y0013684D01*
Y0013816D01*
X0025867Y0013625D02*
X0026117D01*
X0026058Y0013684D02*
X0025926D01*
X0024883Y0013875D02*
X0025133D01*
X0025867D02*
X0026117D01*
X0024883Y0012641D02*
X0025133D01*
Y0012891D01*
X0025074Y0012832D01*
X0024942D01*
X0024883Y0012891D01*
Y0012641D01*
X0024942Y0012700D01*
X0025074D01*
Y0012832D01*
X0024942Y0012700D02*
Y0012832D01*
X0025133Y0012641D02*
X0025074Y0012700D01*
X0026058Y0012832D02*
X0026117Y0012891D01*
Y0012641D01*
X0026058Y0012700D01*
Y0012832D01*
X0025926D01*
X0025867Y0012891D01*
Y0012641D01*
X0025926Y0012700D01*
Y0012832D01*
X0025867Y0012641D02*
X0026117D01*
X0026058Y0012700D02*
X0025926D01*
X0024883Y0012891D02*
X0025133D01*
X0025867D02*
X0026117D01*
X0024883Y0014609D02*
X0025133D01*
Y0014859D01*
X0025074Y0014800D01*
X0024942D01*
X0024883Y0014859D01*
Y0014609D01*
X0024942Y0014668D01*
X0025074D01*
Y0014800D01*
X0024942Y0014668D02*
Y0014800D01*
X0025133Y0014609D02*
X0025074Y0014668D01*
X0026058Y0014800D02*
X0026117Y0014859D01*
Y0014609D01*
X0026058Y0014668D01*
Y0014800D01*
X0025926D01*
X0025867Y0014859D01*
Y0014609D01*
X0025926Y0014668D01*
Y0014800D01*
X0025867Y0014609D02*
X0026117D01*
X0026058Y0014668D02*
X0025926D01*
X0024883Y0014859D02*
X0025133D01*
X0025867D02*
X0026117D01*
X0027724Y0012726D02*
X0027579D01*
Y0014774D01*
X0027724D01*
X0027803Y0014695D02*
Y0012810D01*
X0027004Y0012726D02*
X0027579D01*
X0027004Y0014774D02*
X0027579D01*
X0026423Y0014297D02*
Y0014616D01*
X0024883Y0011656D02*
X0025133D01*
Y0011906D01*
X0025074Y0011847D01*
X0024942D01*
X0024883Y0011906D01*
Y0011656D01*
X0024942Y0011715D01*
X0025074D01*
Y0011847D01*
X0024942Y0011715D02*
Y0011847D01*
X0025133Y0011656D02*
X0025074Y0011715D01*
X0026058Y0011847D02*
X0026117Y0011906D01*
Y0011656D01*
X0026058Y0011715D01*
Y0011847D01*
X0025926D01*
X0025867Y0011906D01*
Y0011656D01*
X0025926Y0011715D01*
Y0011847D01*
X0025867Y0011656D02*
X0026117D01*
X0026058Y0011715D02*
X0025926D01*
X0024883Y0011906D02*
X0025133D01*
X0025867D02*
X0026117D01*
X0026423Y0011234D02*
X0025561D01*
Y0010360D01*
X0026423D01*
Y0011234D01*
X0024577Y0016155D02*
Y0015281D01*
X0025439D01*
Y0016155D01*
X0024577D01*
X0026423D02*
X0025561D01*
Y0015281D01*
X0026423D01*
Y0016155D01*
X0024577Y0015171D02*
Y0014297D01*
X0025439D01*
Y0015171D01*
X0024577D01*
Y0014187D02*
Y0013313D01*
X0025439D01*
Y0014187D01*
X0024577D01*
Y0013203D02*
Y0012329D01*
X0025439D01*
Y0013203D01*
X0024577D01*
Y0012218D02*
Y0011344D01*
X0025439D01*
Y0012218D01*
X0024577D01*
X0026423D02*
X0025561D01*
Y0011344D01*
X0026423D01*
Y0012218D01*
X0024577Y0011234D02*
Y0010360D01*
X0025439D01*
Y0011234D01*
X0024577D01*
X0026058Y0010731D02*
X0025926D01*
X0025867Y0010922D02*
X0026117D01*
X0008157Y0014975D02*
X0008197D01*
Y0015525D01*
X0008157D01*
X0007843D02*
X0007803D01*
Y0014975D01*
X0007843D01*
X0008197Y0015407D02*
Y0015368D01*
X0007803D01*
Y0015407D01*
X0008197D01*
X0012450Y0018950D02*
Y0020050D01*
X0014550D01*
Y0018950D01*
X0012450D01*
X0007550Y0010800D02*
Y0009700D01*
X0005450D01*
Y0010800D01*
X0007550D01*
X0017500Y0012200D02*
X0018000D01*
X0018100Y0012100D01*
Y0010800D01*
X0017400D01*
Y0012100D01*
X0017500Y0012200D01*
X0017400Y0011600D02*
X0018100D01*
X0015700Y0007450D02*
Y0008550D01*
X0017800D01*
Y0007450D01*
X0015700D01*
X0007550Y0019800D02*
Y0018700D01*
X0005450D01*
Y0019800D01*
X0007550D01*
X0033300Y0017700D02*
X0032200D01*
Y0019800D01*
X0033300D01*
Y0017700D01*
X0012950Y0003450D02*
Y0004550D01*
X0015050D01*
Y0003450D01*
X0012950D01*
X0015925Y0014575D02*
Y0013425D01*
X0016570D01*
Y0014575D01*
X0015925D01*
X0013000Y0008750D02*
X0014500D01*
Y0010000D01*
X0013000D01*
Y0008750D01*
X0011379Y0020628D02*
X0011251D01*
X0011338Y0020726D02*
Y0020592D01*
X0011284Y0020723D02*
Y0020595D01*
X0011382Y0020682D02*
X0011248D01*
X0018325Y0009575D02*
X0017175D01*
Y0008930D01*
X0018325D01*
Y0009575D01*
X0033886Y0003964D02*
X0035600Y0003963D01*
X0036245D01*
Y0005537D01*
X0033440Y0005540D01*
X0033260Y0005360D01*
Y0004100D01*
X0033430Y0003960D01*
X0033886Y0003964D01*
X0033350Y0004634D02*
X0033280D01*
X0033350Y0004580D02*
X0033280D01*
X0033350Y0004526D02*
X0033280D01*
X0033350Y0004472D02*
X0033280D01*
X0033350Y0004418D02*
X0033280D01*
X0033350Y0004364D02*
X0033280D01*
X0033350Y0004310D02*
X0033280D01*
X0033350Y0004256D02*
X0033280D01*
X0033350Y0004202D02*
X0033280D01*
X0033350Y0004148D02*
X0033280D01*
X0033350Y0004094D02*
X0033287D01*
X0033350Y0005228D02*
X0033280D01*
X0033350Y0005174D02*
X0033280D01*
X0033350Y0005120D02*
X0033280D01*
X0033350Y0005066D02*
X0033280D01*
X0033350Y0005012D02*
X0033280D01*
X0033350Y0004958D02*
X0033280D01*
X0033350Y0004904D02*
X0033280D01*
X0033350Y0004850D02*
X0033280D01*
X0033350Y0004796D02*
X0033280D01*
X0033350Y0004742D02*
X0033280D01*
X0033350Y0004688D02*
X0033280D01*
Y0005360D02*
Y0004100D01*
X0033340Y0004050D01*
X0033360Y0004020D01*
X0033380Y0004000D01*
X0033320Y0005400D02*
Y0004067D01*
X0033350Y0005390D02*
X0033310D01*
X0033350Y0005336D02*
X0033280D01*
X0033350Y0005282D02*
X0033280D01*
X0033340Y0004040D02*
X0033380Y0004000D01*
X0033350Y0004050D02*
X0033340Y0004040D01*
X0033350Y0005430D02*
Y0004050D01*
Y0005430D02*
X0033280Y0005360D01*
X0033606Y0004070D02*
X0033493D01*
X0033584Y0004139D02*
Y0004040D01*
X0033530Y0004146D02*
Y0004033D01*
X0033599Y0004124D02*
X0033500D01*
X0034430Y0003980D02*
Y0005530D01*
X0031473Y0014654D02*
X0031345D01*
X0031432Y0014752D02*
Y0014618D01*
X0031378Y0014749D02*
Y0014621D01*
X0031476Y0014708D02*
X0031342D01*
X0005450Y0019950D02*
Y0021050D01*
X0007550D01*
Y0019950D01*
X0005450D01*
X0034925Y0014675D02*
X0036075D01*
Y0015320D01*
X0034925D01*
Y0014675D01*
X0005450Y0014200D02*
Y0015300D01*
X0007550D01*
Y0014200D01*
X0005450D01*
X0005175Y0006425D02*
X0006325D01*
Y0007070D01*
X0005175D01*
Y0006425D01*
X0014500Y0013000D02*
X0013000D01*
Y0011750D01*
X0014500D01*
Y0013000D01*
X0023575Y0018075D02*
X0022425D01*
Y0017430D01*
X0023575D01*
Y0018075D01*
X0008157Y0023975D02*
X0008197D01*
Y0024525D01*
X0008157D01*
X0007843D02*
X0007803D01*
Y0023975D01*
X0007843D01*
X0008197Y0024407D02*
Y0024368D01*
X0007803D01*
Y0024407D01*
X0008197D01*
X0011843Y0003025D02*
X0011803D01*
Y0002475D01*
X0011843D01*
X0012157D02*
X0012197D01*
Y0003025D01*
X0012157D01*
X0011803Y0002593D02*
Y0002632D01*
X0012197D01*
Y0002593D01*
X0011803D01*
X0024325Y0020925D02*
Y0022075D01*
X0023680D01*
Y0020925D01*
X0024325D01*
X0028425Y0014325D02*
Y0013175D01*
X0029070D01*
Y0014325D01*
X0028425D01*
X0007550Y0018550D02*
Y0017450D01*
X0005450D01*
Y0018550D01*
X0007550D01*
X0013075Y0006675D02*
Y0007825D01*
X0012430D01*
Y0006675D01*
X0013075D01*
X0011379Y0003628D02*
X0011251D01*
X0011338Y0003726D02*
Y0003592D01*
X0011284Y0003723D02*
Y0003595D01*
X0011382Y0003682D02*
X0011248D01*
X0043958Y0004632D02*
X0043952Y0004644D01*
X0043501Y0004533D02*
Y0004520D01*
X0042517Y0004604D02*
Y0006065D01*
X0042537D01*
X0042538Y0004600D01*
X0042606Y0004537D02*
X0044066D01*
Y0004516D01*
X0042606D01*
X0042517Y0004605D02*
X0042521D01*
X0042605Y0004520D02*
X0043114D01*
Y0004676D01*
X0043101D01*
Y0004533D01*
X0042600D01*
X0042534Y0004599D02*
Y0005086D01*
X0042680D01*
X0043105Y0004670D02*
X0043111Y0004682D01*
X0042688Y0005099D02*
X0042521D01*
Y0004605D01*
X0044325Y0005905D02*
Y0005885D01*
X0044486D01*
Y0006123D01*
X0044130Y0006485D01*
X0043904D01*
Y0006309D01*
X0043931Y0006295D01*
X0043952Y0006283D01*
X0044012Y0006245D01*
X0044031Y0006232D01*
X0044087Y0006188D01*
X0044105Y0006172D01*
X0044122Y0006156D01*
X0044139Y0006140D01*
X0044155Y0006123D01*
X0044171Y0006106D01*
X0044187Y0006088D01*
X0044217Y0006052D01*
X0044231Y0006033D01*
X0044283Y0005953D01*
X0044294Y0005933D01*
X0044306Y0005912D01*
X0044316Y0005890D01*
X0044334Y0005899D01*
X0044312Y0005943D01*
X0044300Y0005964D01*
X0044247Y0006045D01*
X0044233Y0006064D01*
X0044153Y0006155D01*
X0044136Y0006171D01*
X0044118Y0006188D01*
X0044100Y0006204D01*
X0044081Y0006219D01*
X0044062Y0006234D01*
X0044003Y0006276D01*
X0043983Y0006289D01*
X0043962Y0006301D01*
X0043941Y0006313D01*
X0043925Y0006321D01*
Y0006465D01*
X0044121D01*
X0044465Y0006115D01*
Y0005905D01*
X0044325D01*
X0044121Y0006465D02*
X0042937D01*
Y0006485D01*
X0044130D01*
X0044465Y0006115D02*
Y0004936D01*
X0044486D01*
Y0006123D01*
X0042966Y0006026D02*
X0042975Y0006036D01*
X0042755Y0006256D01*
X0042746Y0006246D01*
X0042966Y0006026D01*
X0044257Y0004746D02*
X0044066Y0004517D01*
X0043864Y0004719D01*
X0043879Y0004727D01*
X0044196Y0004980D02*
X0044188Y0004970D01*
X0043886Y0004716D02*
X0044065Y0004537D01*
X0044247Y0004754D01*
X0044465Y0004937D01*
X0044286Y0005116D01*
X0044197Y0004971D02*
X0044187Y0004979D01*
X0044282Y0005138D02*
X0044484Y0004936D01*
X0044257Y0004746D01*
X0044247Y0004754D01*
X0044061Y0004531D01*
X0044057Y0004520D01*
X0044481Y0004945D02*
X0044470Y0004941D01*
X0044248Y0004755D01*
X0044256Y0004745D01*
X0044477Y0004929D01*
X0044469Y0004926D01*
X0044075Y0004533D02*
X0044072Y0004525D01*
X0044257Y0004746D01*
X0044252Y0004750D01*
X0044474Y0004935D01*
X0044475Y0004936D01*
X0044066Y0004527D02*
X0044067Y0004528D01*
X0044252Y0004750D01*
X0044247Y0004745D01*
X0044256Y0004755D01*
X0044036Y0004974D01*
X0044027Y0004965D01*
X0044247Y0004745D01*
X0042937Y0006474D02*
X0042936Y0006472D01*
X0042751Y0006251D01*
X0042529Y0006065D01*
X0042528D01*
X0042526Y0006071D01*
X0042534Y0006074D01*
X0042927Y0006468D02*
X0042746Y0006255D01*
X0042756Y0006246D01*
X0042942Y0006469D01*
X0042947Y0006480D01*
X0042522Y0006056D02*
X0042532Y0006059D01*
X0042755Y0006245D01*
X0042747Y0006256D01*
X0042526Y0006071D01*
X0042986Y0006190D02*
X0042981Y0006195D01*
X0042720Y0005863D02*
X0042518Y0006065D01*
X0042747Y0006256D01*
X0042937Y0006484D01*
X0043139Y0006281D01*
X0042980Y0006186D02*
X0042972Y0006196D01*
X0043116Y0006285D02*
X0042937Y0006464D01*
X0042755Y0006246D01*
X0042537Y0006064D01*
X0042717Y0005885D01*
X0042971Y0006187D02*
X0042981Y0006195D01*
X0042986Y0006190D01*
X0044021Y0004806D02*
X0044031Y0004814D01*
X0044030Y0004805D02*
X0044023Y0004815D01*
X0042520Y0005501D02*
X0042534Y0005500D01*
Y0005502D01*
X0042645Y0005953D02*
X0042634Y0005959D01*
X0043045Y0006369D02*
X0043051Y0006357D01*
X0043100Y0006381D01*
X0043117Y0006389D01*
X0043134Y0006396D01*
X0043151Y0006403D01*
X0043168Y0006409D01*
X0043185Y0006416D01*
X0043203Y0006421D01*
X0043221Y0006427D01*
X0043239Y0006432D01*
X0043257Y0006437D01*
X0043275Y0006442D01*
X0043293Y0006446D01*
X0043348Y0006456D01*
X0043367Y0006459D01*
X0043386Y0006461D01*
X0043405Y0006464D01*
X0043501Y0006468D01*
X0043554Y0006467D01*
X0043588Y0006464D01*
X0043606Y0006463D01*
X0043623Y0006461D01*
X0043723Y0006443D01*
X0043739Y0006439D01*
X0043756Y0006434D01*
X0043820Y0006415D01*
X0043835Y0006409D01*
X0043851Y0006403D01*
X0043866Y0006397D01*
X0043912Y0006377D01*
X0043917Y0006389D01*
X0043902Y0006396D01*
X0043871Y0006409D01*
X0043856Y0006415D01*
X0043840Y0006421D01*
X0043824Y0006427D01*
X0043759Y0006447D01*
X0043743Y0006451D01*
X0043726Y0006455D01*
X0043709Y0006459D01*
X0043692Y0006463D01*
X0043659Y0006469D01*
X0043641Y0006471D01*
X0043624Y0006474D01*
X0043607Y0006476D01*
X0043589Y0006477D01*
X0043554Y0006480D01*
X0043501Y0006481D01*
X0043404Y0006476D01*
X0043384Y0006474D01*
X0043365Y0006472D01*
X0043346Y0006469D01*
X0043253Y0006450D01*
X0043235Y0006445D01*
X0043217Y0006439D01*
X0043199Y0006434D01*
X0043181Y0006428D01*
X0043129Y0006408D01*
X0043112Y0006401D01*
X0043095Y0006393D01*
X0043045Y0006369D01*
X0044482Y0005500D02*
X0044469Y0005501D01*
X0044464Y0005404D01*
X0044460Y0005366D01*
X0044457Y0005347D01*
X0044447Y0005292D01*
X0044442Y0005274D01*
X0044438Y0005256D01*
X0044428Y0005220D01*
X0044422Y0005202D01*
X0044416Y0005185D01*
X0044404Y0005150D01*
X0044397Y0005133D01*
X0044382Y0005099D01*
X0044358Y0005050D01*
X0044370Y0005044D01*
X0044394Y0005094D01*
X0044402Y0005111D01*
X0044409Y0005128D01*
X0044429Y0005180D01*
X0044435Y0005198D01*
X0044440Y0005216D01*
X0044446Y0005234D01*
X0044450Y0005252D01*
X0044470Y0005346D01*
X0044473Y0005365D01*
X0044477Y0005403D01*
X0044482Y0005500D01*
X0007550Y0016550D02*
Y0015450D01*
X0005450D01*
Y0016550D01*
X0007550D01*
X0005925Y0024425D02*
X0007075D01*
Y0025070D01*
X0005925D01*
Y0024425D01*
X0022425Y0015175D02*
X0023575D01*
Y0015820D01*
X0022425D01*
Y0015175D01*
X0012325Y0015425D02*
Y0016575D01*
X0011680D01*
Y0015425D01*
X0012325D01*
X0018748Y0009560D02*
X0018621D01*
X0018708Y0009657D02*
Y0009524D01*
X0018654Y0009654D02*
Y0009527D01*
X0018751Y0009614D02*
X0018618D01*
X0018748Y0016560D02*
X0018621D01*
X0018708Y0016657D02*
Y0016524D01*
X0018654Y0016654D02*
Y0016527D01*
X0018751Y0016614D02*
X0018618D01*
X0022425Y0002075D02*
Y0000925D01*
X0023070D01*
Y0002075D01*
X0022425D01*
X0008157Y0017975D02*
X0008197D01*
Y0018525D01*
X0008157D01*
X0007843D02*
X0007803D01*
Y0017975D01*
X0007843D01*
X0008197Y0018407D02*
Y0018368D01*
X0007803D01*
Y0018407D01*
X0008197D01*
X0018748Y0014810D02*
X0018621D01*
X0018708Y0014907D02*
Y0014774D01*
X0018654Y0014904D02*
Y0014777D01*
X0018751Y0014864D02*
X0018618D01*
X0021843Y0010775D02*
X0021803D01*
Y0010225D01*
X0021843D01*
X0022157D02*
X0022197D01*
Y0010775D01*
X0022157D01*
X0021803Y0010343D02*
Y0010382D01*
X0022197D01*
Y0010343D01*
X0021803D01*
X0007575Y0021825D02*
X0006425D01*
Y0021180D01*
X0007575D01*
Y0021825D01*
X0005450Y0005200D02*
Y0006300D01*
X0007550D01*
Y0005200D01*
X0005450D01*
X0007575Y0001825D02*
X0006425D01*
Y0001180D01*
X0007575D01*
Y0001825D01*
X0008157Y0019475D02*
X0008197D01*
Y0020025D01*
X0008157D01*
X0007843D02*
X0007803D01*
Y0019475D01*
X0007843D01*
X0008197Y0019907D02*
Y0019868D01*
X0007803D01*
Y0019907D01*
X0008197D01*
X0028864Y0005536D02*
X0027150Y0005537D01*
X0026505D01*
Y0003963D01*
X0029310Y0003960D01*
X0029490Y0004140D01*
Y0005400D01*
X0029320Y0005540D01*
X0028864Y0005536D01*
X0029470Y0004704D02*
X0029400D01*
X0029470Y0004650D02*
X0029400D01*
X0029470Y0004596D02*
X0029400D01*
X0029470Y0004542D02*
X0029400D01*
X0029470Y0004488D02*
X0029400D01*
X0029470Y0004434D02*
X0029400D01*
X0029470Y0004380D02*
X0029400D01*
X0029470Y0004326D02*
X0029400D01*
X0029470Y0004272D02*
X0029400D01*
X0029470Y0004218D02*
X0029400D01*
X0029470Y0004164D02*
X0029400D01*
X0029470Y0005298D02*
X0029400D01*
X0029470Y0005244D02*
X0029400D01*
X0029470Y0005190D02*
X0029400D01*
X0029470Y0005136D02*
X0029400D01*
X0029470Y0005082D02*
X0029400D01*
X0029470Y0005028D02*
X0029400D01*
X0029470Y0004974D02*
X0029400D01*
X0029470Y0004920D02*
X0029400D01*
X0029470Y0004866D02*
X0029400D01*
X0029470Y0004812D02*
X0029400D01*
X0029470Y0004758D02*
X0029400D01*
X0029470Y0005400D02*
Y0004140D01*
X0029410Y0005450D02*
X0029470Y0005400D01*
X0029390Y0005480D02*
X0029410Y0005450D01*
X0029370Y0005500D02*
X0029390Y0005480D01*
X0029464Y0005405D02*
Y0004134D01*
X0029410Y0005450D02*
Y0004080D01*
X0029463Y0005406D02*
X0029400D01*
X0029470Y0005352D02*
X0029400D01*
X0029440Y0004110D02*
X0029400D01*
X0029370Y0005500D02*
X0029410Y0005460D01*
X0029400Y0005450D01*
Y0004070D01*
X0029470Y0004140D02*
X0029400Y0004070D01*
X0029256Y0005390D02*
X0029143D01*
X0029234Y0005459D02*
Y0005360D01*
X0029180Y0005466D02*
Y0005353D01*
X0029249Y0005444D02*
X0029150D01*
X0028320Y0005520D02*
Y0003970D01*
X0034441Y0020588D02*
Y0020053D01*
X0034677D01*
Y0020588D01*
X0032323D01*
Y0023911D01*
X0034677D01*
Y0023274D01*
X0035000D01*
Y0023116D01*
X0035468D01*
Y0021384D01*
X0035000D01*
X0034423D01*
Y0020829D01*
X0032577D01*
Y0021703D01*
X0033439D01*
Y0021344D01*
X0033561D01*
Y0021703D01*
X0034533D01*
Y0022797D01*
X0033561D01*
Y0023671D01*
X0034423D01*
Y0023116D01*
X0035000D01*
X0033063Y0023911D02*
Y0024447D01*
X0034441D01*
X0034677D01*
Y0023911D01*
X0033074Y0023300D02*
X0033133Y0023359D01*
X0032883D01*
Y0023109D01*
X0032942Y0023168D01*
X0033074D01*
Y0023300D01*
X0032942D01*
Y0023168D01*
X0033133Y0023359D02*
Y0023109D01*
X0033074Y0023168D01*
X0034058Y0023300D02*
X0034117Y0023359D01*
Y0023109D01*
X0034058Y0023168D01*
Y0023300D01*
X0033926D01*
X0033867Y0023359D01*
Y0023109D01*
X0033926Y0023168D01*
Y0023300D01*
X0032883Y0023109D02*
X0033133D01*
X0033867D02*
X0034117D01*
X0034058Y0023168D02*
X0033926D01*
X0033867Y0023359D02*
X0034117D01*
X0033561Y0020829D02*
Y0021108D01*
X0033439D01*
Y0021344D01*
X0033561D02*
Y0021108D01*
X0032883Y0021141D02*
X0033133D01*
Y0021391D01*
X0033074Y0021332D01*
X0032942D01*
X0032883Y0021391D01*
Y0021141D01*
X0032942Y0021200D01*
X0033074D01*
Y0021332D01*
X0032942Y0021200D02*
Y0021332D01*
X0033133Y0021141D02*
X0033074Y0021200D01*
X0034058Y0021332D02*
X0034117Y0021391D01*
Y0021141D01*
X0034058Y0021200D01*
Y0021332D01*
X0033926D01*
X0033867Y0021391D01*
Y0021141D01*
X0033926Y0021200D01*
Y0021332D01*
X0033867Y0021141D02*
X0034117D01*
X0034058Y0021200D02*
X0033926D01*
X0032883Y0021391D02*
X0033133D01*
X0033867D02*
X0034117D01*
X0033439Y0020829D02*
Y0021108D01*
X0035803Y0021310D02*
Y0023195D01*
X0035724Y0023274D02*
X0035575D01*
Y0021226D01*
X0035724D01*
X0034677Y0020588D02*
Y0021226D01*
X0035000D01*
X0035575D01*
X0035000Y0023274D02*
X0035575D01*
X0032883Y0023359D02*
X0032942Y0023300D01*
X0034423Y0021384D02*
Y0021703D01*
Y0022797D02*
Y0023116D01*
X0032883Y0022125D02*
X0033133D01*
Y0022375D01*
X0033074Y0022316D01*
X0032942D01*
X0032883Y0022375D01*
Y0022125D01*
X0032942Y0022184D01*
X0033074D01*
Y0022316D01*
X0032942Y0022184D02*
Y0022316D01*
X0033133Y0022125D02*
X0033074Y0022184D01*
X0034058Y0022316D02*
X0034117Y0022375D01*
Y0022125D01*
X0034058Y0022184D01*
Y0022316D01*
X0033926D01*
X0033867Y0022375D01*
Y0022125D01*
X0033926Y0022184D01*
Y0022316D01*
X0033867Y0022125D02*
X0034117D01*
X0034058Y0022184D02*
X0033926D01*
X0032883Y0022375D02*
X0033133D01*
X0033867D02*
X0034117D01*
X0034423Y0022687D02*
X0033561D01*
Y0021813D01*
X0034423D01*
Y0022687D01*
X0032577Y0023671D02*
Y0022797D01*
X0033439D01*
Y0023671D01*
X0032577D01*
Y0022687D02*
Y0021813D01*
X0033439D01*
Y0022687D01*
X0032577D01*
X0035000Y0021384D02*
Y0021226D01*
X0034441Y0023911D02*
Y0024447D01*
X0033063D02*
X0032827D01*
Y0023911D01*
Y0020588D02*
Y0020053D01*
X0033063D01*
X0034441D01*
X0033063Y0020588D02*
Y0020053D01*
X0027827Y0024163D02*
Y0023289D01*
X0028689D01*
Y0023648D01*
X0028811D01*
Y0023289D01*
X0029673D01*
Y0024163D01*
X0027827D01*
X0030254Y0021384D02*
Y0021226D01*
X0029927D01*
Y0020096D01*
X0027573D01*
Y0024403D01*
X0029927D01*
Y0023274D01*
X0030254D01*
Y0023116D01*
X0030718D01*
Y0021384D01*
X0030254D01*
X0029673D01*
Y0021726D01*
Y0022195D01*
X0028811D01*
Y0021321D01*
X0029673D01*
Y0021384D01*
X0030254Y0023116D02*
X0029673D01*
Y0023179D01*
X0028811D01*
Y0022305D01*
X0029673D01*
Y0022774D01*
X0029781D01*
Y0021726D01*
X0029673D01*
X0028133Y0020649D02*
X0028383D01*
Y0020899D01*
X0028133D01*
Y0020649D01*
X0028192Y0020708D01*
X0028324D01*
Y0020839D01*
X0028192D01*
Y0020708D01*
X0029308Y0020839D02*
X0029367Y0020899D01*
Y0020649D01*
X0029308Y0020708D01*
Y0020839D01*
X0029176D01*
X0029117Y0020899D01*
Y0020649D01*
X0029176Y0020708D01*
Y0020839D01*
X0029117Y0020649D02*
X0029367D01*
X0028383D02*
X0028324Y0020708D01*
X0028383Y0020899D02*
X0028324Y0020839D01*
X0028133Y0020899D02*
X0028192Y0020839D01*
Y0023660D02*
X0028133Y0023601D01*
Y0023851D01*
X0028192Y0023792D01*
Y0023660D01*
X0028324D01*
X0028383Y0023601D01*
Y0023851D01*
X0028324Y0023792D01*
Y0023660D01*
X0028192Y0023792D02*
X0028324D01*
X0029308D02*
X0029367Y0023851D01*
Y0023601D01*
X0029308Y0023660D01*
Y0023792D01*
X0029176D01*
X0029117Y0023851D01*
Y0023601D01*
X0029176Y0023660D01*
Y0023792D01*
X0028133Y0023601D02*
X0028383D01*
X0029117D02*
X0029367D01*
X0029308Y0023660D02*
X0029176D01*
X0028133Y0023851D02*
X0028383D01*
X0029117D02*
X0029367D01*
X0028689Y0023648D02*
Y0023884D01*
X0028811D01*
Y0023648D01*
X0028689Y0024163D02*
Y0023884D01*
X0028811D02*
Y0024163D01*
X0028133Y0021633D02*
X0028383D01*
Y0021883D01*
X0028324Y0021824D01*
X0028192D01*
X0028133Y0021883D01*
Y0021633D01*
X0028192Y0021692D01*
X0028324D01*
Y0021824D01*
X0028192Y0021692D02*
Y0021824D01*
X0028383Y0021633D02*
X0028324Y0021692D01*
X0029308Y0021824D02*
X0029367Y0021883D01*
Y0021633D01*
X0029308Y0021692D01*
Y0021824D01*
X0029176D01*
X0029117Y0021883D01*
Y0021633D01*
X0029176Y0021692D01*
Y0021824D01*
X0029117Y0021633D02*
X0029367D01*
X0029308Y0021692D02*
X0029176D01*
X0028133Y0021883D02*
X0028383D01*
X0029117D02*
X0029367D01*
X0028133Y0022617D02*
X0028383D01*
Y0022867D01*
X0028324Y0022808D01*
X0028192D01*
X0028133Y0022867D01*
Y0022617D01*
X0028192Y0022676D01*
X0028324D01*
Y0022808D01*
X0028192Y0022676D02*
Y0022808D01*
X0028383Y0022617D02*
X0028324Y0022676D01*
X0029308Y0022808D02*
X0029367Y0022867D01*
Y0022617D01*
X0029308Y0022676D01*
Y0022808D01*
X0029176D01*
X0029117Y0022867D01*
Y0022617D01*
X0029176Y0022676D01*
Y0022808D01*
X0029117Y0022617D02*
X0029367D01*
X0029308Y0022676D02*
X0029176D01*
X0028133Y0022867D02*
X0028383D01*
X0029117D02*
X0029367D01*
X0030974Y0021226D02*
X0030829D01*
Y0023274D01*
X0030974D01*
X0031053Y0023195D02*
Y0021305D01*
X0030254Y0021226D02*
X0030829D01*
X0030254Y0023274D02*
X0030829D01*
X0029673Y0022774D02*
Y0023116D01*
Y0021211D02*
X0028811D01*
Y0020337D01*
X0029673D01*
Y0021211D01*
X0027827Y0023179D02*
Y0022305D01*
X0028689D01*
Y0023179D01*
X0027827D01*
Y0022195D02*
Y0021321D01*
X0028689D01*
Y0022195D01*
X0027827D01*
Y0021211D02*
Y0020337D01*
X0028689D01*
Y0021211D01*
X0027827D01*
X0029308Y0020708D02*
X0029176D01*
X0029117Y0020899D02*
X0029367D01*
X0021843Y0012775D02*
X0021803D01*
Y0012225D01*
X0021843D01*
X0022157D02*
X0022197D01*
Y0012775D01*
X0022157D01*
X0021803Y0012343D02*
Y0012382D01*
X0022197D01*
Y0012343D01*
X0021803D01*
X0021379Y0010128D02*
X0021251D01*
X0021338Y0010226D02*
Y0010092D01*
X0021284Y0010223D02*
Y0010095D01*
X0021382Y0010182D02*
X0021248D01*
X0028864Y0007286D02*
X0027150Y0007287D01*
X0026505D01*
Y0005713D01*
X0029310Y0005710D01*
X0029490Y0005890D01*
Y0007150D01*
X0029320Y0007290D01*
X0028864Y0007286D01*
X0029470Y0006454D02*
X0029400D01*
X0029470Y0006400D02*
X0029400D01*
X0029470Y0006346D02*
X0029400D01*
X0029470Y0006292D02*
X0029400D01*
X0029470Y0006238D02*
X0029400D01*
X0029470Y0006184D02*
X0029400D01*
X0029470Y0006130D02*
X0029400D01*
X0029470Y0006076D02*
X0029400D01*
X0029470Y0006022D02*
X0029400D01*
X0029470Y0005968D02*
X0029400D01*
X0029470Y0005914D02*
X0029400D01*
X0029470Y0007048D02*
X0029400D01*
X0029470Y0006994D02*
X0029400D01*
X0029470Y0006940D02*
X0029400D01*
X0029470Y0006886D02*
X0029400D01*
X0029470Y0006832D02*
X0029400D01*
X0029470Y0006778D02*
X0029400D01*
X0029470Y0006724D02*
X0029400D01*
X0029470Y0006670D02*
X0029400D01*
X0029470Y0006616D02*
X0029400D01*
X0029470Y0006562D02*
X0029400D01*
X0029470Y0006508D02*
X0029400D01*
X0029470Y0007150D02*
Y0005890D01*
X0029410Y0007200D02*
X0029470Y0007150D01*
X0029390Y0007230D02*
X0029410Y0007200D01*
X0029370Y0007250D02*
X0029390Y0007230D01*
X0029464Y0007155D02*
Y0005884D01*
X0029410Y0007200D02*
Y0005830D01*
X0029463Y0007156D02*
X0029400D01*
X0029470Y0007102D02*
X0029400D01*
X0029440Y0005860D02*
X0029400D01*
X0029370Y0007250D02*
X0029410Y0007210D01*
X0029400Y0007200D01*
Y0005820D01*
X0029470Y0005890D02*
X0029400Y0005820D01*
X0029256Y0007140D02*
X0029143D01*
X0029234Y0007209D02*
Y0007110D01*
X0029180Y0007216D02*
Y0007103D01*
X0029249Y0007194D02*
X0029150D01*
X0028320Y0007270D02*
Y0005720D01*
X0011379Y0006628D02*
X0011251D01*
X0011338Y0006726D02*
Y0006592D01*
X0011284Y0006723D02*
Y0006595D01*
X0011382Y0006682D02*
X0011248D01*
X0016750Y0012200D02*
X0017250D01*
X0017350Y0012100D01*
Y0010800D01*
X0016650D01*
Y0012100D01*
X0016750Y0012200D01*
X0016650Y0011600D02*
X0017350D01*
X0039450Y0007750D02*
Y0007250D01*
X0039350Y0007150D01*
X0038050D01*
Y0007850D01*
X0039350D01*
X0039450Y0007750D01*
X0038850Y0007850D02*
Y0007150D01*
X0021379Y0011878D02*
X0021251D01*
X0021338Y0011976D02*
Y0011842D01*
X0021284Y0011973D02*
Y0011845D01*
X0021382Y0011932D02*
X0021248D01*
X0014825Y0022675D02*
Y0023825D01*
X0014180D01*
Y0022675D01*
X0014825D01*
X0014550Y0021300D02*
Y0020200D01*
X0012450D01*
Y0021300D01*
X0014550D01*
X0041931Y0005262D02*
Y0005380D01*
X0039569D01*
Y0005262D01*
X0041200Y0004759D02*
X0041075D01*
X0041200Y0004705D02*
X0041075D01*
X0041200Y0004651D02*
X0041075D01*
X0041200Y0004597D02*
X0041075D01*
X0041200Y0004543D02*
X0041075D01*
X0041200Y0004489D02*
X0041075D01*
X0041200Y0004435D02*
X0041075D01*
X0041200Y0004381D02*
X0041075D01*
X0041200Y0004327D02*
X0041075D01*
X0041200Y0004273D02*
X0041075D01*
X0041200Y0004219D02*
X0041075D01*
X0041200Y0005353D02*
X0041075D01*
X0041200Y0005299D02*
X0041075D01*
X0041200Y0005245D02*
X0041075D01*
X0041200Y0005191D02*
X0041075D01*
X0041200Y0005137D02*
X0041075D01*
X0041200Y0005083D02*
X0041075D01*
X0041200Y0005029D02*
X0041075D01*
X0041200Y0004975D02*
X0041075D01*
X0041200Y0004921D02*
X0041075D01*
X0041200Y0004867D02*
X0041075D01*
X0041200Y0004813D02*
X0041075D01*
X0041200Y0004165D02*
X0041075D01*
X0041200Y0005375D02*
X0041075D01*
Y0004125D01*
X0041200D02*
X0041075D01*
X0041200Y0005375D02*
Y0004125D01*
X0041169Y0005375D02*
Y0004125D01*
X0041115Y0005375D02*
Y0004125D01*
X0011379Y0005128D02*
X0011251D01*
X0011338Y0005226D02*
Y0005092D01*
X0011284Y0005223D02*
Y0005095D01*
X0011382Y0005182D02*
X0011248D01*
X0029973Y0014654D02*
X0029845D01*
X0029932Y0014752D02*
Y0014618D01*
X0029878Y0014749D02*
Y0014621D01*
X0029976Y0014708D02*
X0029842D01*
X0022425Y0012425D02*
X0023575D01*
Y0013070D01*
X0022425D01*
Y0012425D01*
X0011843Y0004525D02*
X0011803D01*
Y0003975D01*
X0011843D01*
X0012157D02*
X0012197D01*
Y0004525D01*
X0012157D01*
X0011803Y0004093D02*
Y0004132D01*
X0012197D01*
Y0004093D01*
X0011803D01*
X0014500Y0011500D02*
X0013000D01*
Y0010250D01*
X0014500D01*
Y0011500D01*
X0033886Y0002214D02*
X0035600Y0002213D01*
X0036245D01*
Y0003787D01*
X0033440Y0003790D01*
X0033260Y0003610D01*
Y0002350D01*
X0033430Y0002210D01*
X0033886Y0002214D01*
X0033350Y0002884D02*
X0033280D01*
X0033350Y0002830D02*
X0033280D01*
X0033350Y0002776D02*
X0033280D01*
X0033350Y0002722D02*
X0033280D01*
X0033350Y0002668D02*
X0033280D01*
X0033350Y0002614D02*
X0033280D01*
X0033350Y0002560D02*
X0033280D01*
X0033350Y0002506D02*
X0033280D01*
X0033350Y0002452D02*
X0033280D01*
X0033350Y0002398D02*
X0033280D01*
X0033350Y0002344D02*
X0033287D01*
X0033350Y0003478D02*
X0033280D01*
X0033350Y0003424D02*
X0033280D01*
X0033350Y0003370D02*
X0033280D01*
X0033350Y0003316D02*
X0033280D01*
X0033350Y0003262D02*
X0033280D01*
X0033350Y0003208D02*
X0033280D01*
X0033350Y0003154D02*
X0033280D01*
X0033350Y0003100D02*
X0033280D01*
X0033350Y0003046D02*
X0033280D01*
X0033350Y0002992D02*
X0033280D01*
X0033350Y0002938D02*
X0033280D01*
Y0003610D02*
Y0002350D01*
X0033340Y0002300D01*
X0033360Y0002270D01*
X0033380Y0002250D01*
X0033320Y0003650D02*
Y0002317D01*
X0033350Y0003640D02*
X0033310D01*
X0033350Y0003586D02*
X0033280D01*
X0033350Y0003532D02*
X0033280D01*
X0033340Y0002290D02*
X0033380Y0002250D01*
X0033350Y0002300D02*
X0033340Y0002290D01*
X0033350Y0003680D02*
Y0002300D01*
Y0003680D02*
X0033280Y0003610D01*
X0033606Y0002320D02*
X0033493D01*
X0033584Y0002389D02*
Y0002290D01*
X0033530Y0002396D02*
Y0002283D01*
X0033599Y0002374D02*
X0033500D01*
X0034430Y0002230D02*
Y0003780D01*
X0018114Y0005536D02*
X0016400Y0005537D01*
X0015755D01*
Y0003963D01*
X0018560Y0003960D01*
X0018740Y0004140D01*
Y0005400D01*
X0018570Y0005540D01*
X0018114Y0005536D01*
X0018720Y0004704D02*
X0018650D01*
X0018720Y0004650D02*
X0018650D01*
X0018720Y0004596D02*
X0018650D01*
X0018720Y0004542D02*
X0018650D01*
X0018720Y0004488D02*
X0018650D01*
X0018720Y0004434D02*
X0018650D01*
X0018720Y0004380D02*
X0018650D01*
X0018720Y0004326D02*
X0018650D01*
X0018720Y0004272D02*
X0018650D01*
X0018720Y0004218D02*
X0018650D01*
X0018720Y0004164D02*
X0018650D01*
X0018720Y0005298D02*
X0018650D01*
X0018720Y0005244D02*
X0018650D01*
X0018720Y0005190D02*
X0018650D01*
X0018720Y0005136D02*
X0018650D01*
X0018720Y0005082D02*
X0018650D01*
X0018720Y0005028D02*
X0018650D01*
X0018720Y0004974D02*
X0018650D01*
X0018720Y0004920D02*
X0018650D01*
X0018720Y0004866D02*
X0018650D01*
X0018720Y0004812D02*
X0018650D01*
X0018720Y0004758D02*
X0018650D01*
X0018720Y0005400D02*
Y0004140D01*
X0018660Y0005450D02*
X0018720Y0005400D01*
X0018640Y0005480D02*
X0018660Y0005450D01*
X0018620Y0005500D02*
X0018640Y0005480D01*
X0018714Y0005405D02*
Y0004134D01*
X0018660Y0005450D02*
Y0004080D01*
X0018713Y0005406D02*
X0018650D01*
X0018720Y0005352D02*
X0018650D01*
X0018690Y0004110D02*
X0018650D01*
X0018620Y0005500D02*
X0018660Y0005460D01*
X0018650Y0005450D01*
Y0004070D01*
X0018720Y0004140D02*
X0018650Y0004070D01*
X0018506Y0005390D02*
X0018393D01*
X0018484Y0005459D02*
Y0005360D01*
X0018430Y0005466D02*
Y0005353D01*
X0018499Y0005444D02*
X0018400D01*
X0017570Y0005520D02*
Y0003970D01*
X0041931Y0004238D02*
Y0004120D01*
X0039569D01*
Y0004238D01*
X0042176Y0005331D02*
X0042079D01*
X0042172Y0005361D02*
Y0005319D01*
X0042118Y0005389D02*
Y0005292D01*
X0042148Y0005385D02*
X0042107D01*
X0007550Y0023050D02*
Y0021950D01*
X0005450D01*
Y0023050D01*
X0007550D01*
X0012825Y0011675D02*
Y0012825D01*
X0012180D01*
Y0011675D01*
X0012825D01*
X0033886Y0000464D02*
X0035600Y0000463D01*
X0036245D01*
Y0002037D01*
X0033440Y0002040D01*
X0033260Y0001860D01*
Y0000600D01*
X0033430Y0000460D01*
X0033886Y0000464D01*
X0033350Y0001134D02*
X0033280D01*
X0033350Y0001080D02*
X0033280D01*
X0033350Y0001026D02*
X0033280D01*
X0033350Y0000972D02*
X0033280D01*
X0033350Y0000918D02*
X0033280D01*
X0033350Y0000864D02*
X0033280D01*
X0033350Y0000810D02*
X0033280D01*
X0033350Y0000756D02*
X0033280D01*
X0033350Y0000702D02*
X0033280D01*
X0033350Y0000648D02*
X0033280D01*
X0033350Y0000594D02*
X0033287D01*
X0033350Y0001728D02*
X0033280D01*
X0033350Y0001674D02*
X0033280D01*
X0033350Y0001620D02*
X0033280D01*
X0033350Y0001566D02*
X0033280D01*
X0033350Y0001512D02*
X0033280D01*
X0033350Y0001458D02*
X0033280D01*
X0033350Y0001404D02*
X0033280D01*
X0033350Y0001350D02*
X0033280D01*
X0033350Y0001296D02*
X0033280D01*
X0033350Y0001242D02*
X0033280D01*
X0033350Y0001188D02*
X0033280D01*
Y0001860D02*
Y0000600D01*
X0033340Y0000550D01*
X0033360Y0000520D01*
X0033380Y0000500D01*
X0033320Y0001900D02*
Y0000567D01*
X0033350Y0001890D02*
X0033310D01*
X0033350Y0001836D02*
X0033280D01*
X0033350Y0001782D02*
X0033280D01*
X0033340Y0000540D02*
X0033380Y0000500D01*
X0033350Y0000550D02*
X0033340Y0000540D01*
X0033350Y0001930D02*
Y0000550D01*
Y0001930D02*
X0033280Y0001860D01*
X0033606Y0000570D02*
X0033493D01*
X0033584Y0000639D02*
Y0000540D01*
X0033530Y0000646D02*
Y0000533D01*
X0033599Y0000624D02*
X0033500D01*
X0034430Y0000480D02*
Y0002030D01*
X0017825Y0006175D02*
Y0007325D01*
X0017180D01*
Y0006175D01*
X0017825D01*
X0008748Y0020310D02*
X0008621D01*
X0008708Y0020407D02*
Y0020274D01*
X0008654Y0020404D02*
Y0020277D01*
X0008751Y0020364D02*
X0008618D01*
X0029550Y0017700D02*
X0028450D01*
Y0019800D01*
X0029550D01*
Y0017700D01*
X0011843Y0020525D02*
X0011803D01*
Y0019975D01*
X0011843D01*
X0012157D02*
X0012197D01*
Y0020525D01*
X0012157D01*
X0011803Y0020093D02*
Y0020132D01*
X0012197D01*
Y0020093D01*
X0011803D01*
X0023575Y0015075D02*
X0022425D01*
Y0014430D01*
X0023575D01*
Y0015075D01*
X0019327Y0024398D02*
Y0023524D01*
X0020189D01*
Y0023882D01*
X0020311D01*
Y0023524D01*
X0021173D01*
Y0024398D01*
X0019327D01*
X0021754Y0020634D02*
Y0020476D01*
X0021427D01*
Y0018362D01*
X0019073D01*
Y0024638D01*
X0021427D01*
Y0022524D01*
X0021754D01*
Y0022366D01*
X0022218D01*
Y0020634D01*
X0021754D01*
X0021173D01*
Y0020976D01*
Y0021445D01*
X0020311D01*
Y0020571D01*
X0021173D01*
Y0020634D01*
X0021754Y0022366D02*
X0021173D01*
Y0022429D01*
X0020311D01*
Y0021555D01*
X0021173D01*
Y0022024D01*
X0021281D01*
Y0020976D01*
X0021173D01*
X0019633Y0018914D02*
X0019883D01*
Y0019164D01*
X0019633D01*
Y0018914D01*
X0019692Y0018973D01*
X0019824D01*
Y0019105D01*
X0019692D01*
Y0018973D01*
X0020808Y0019105D02*
X0020867Y0019164D01*
Y0018914D01*
X0020808Y0018973D01*
Y0019105D01*
X0020676D01*
X0020617Y0019164D01*
Y0018914D01*
X0020676Y0018973D01*
Y0019105D01*
X0020617Y0018914D02*
X0020867D01*
X0019883D02*
X0019824Y0018973D01*
X0019883Y0019164D02*
X0019824Y0019105D01*
X0019633Y0019164D02*
X0019692Y0019105D01*
Y0023895D02*
X0019633Y0023836D01*
Y0024086D01*
X0019692Y0024026D01*
Y0023895D01*
X0019824D01*
X0019883Y0023836D01*
Y0024086D01*
X0019824Y0024026D01*
Y0023895D01*
X0019692Y0024026D02*
X0019824D01*
X0020808D02*
X0020867Y0024086D01*
Y0023836D01*
X0020808Y0023895D01*
Y0024026D01*
X0020676D01*
X0020617Y0024086D01*
Y0023836D01*
X0020676Y0023895D01*
Y0024026D01*
X0019633Y0023836D02*
X0019883D01*
X0020617D02*
X0020867D01*
X0020808Y0023895D02*
X0020676D01*
X0019633Y0024086D02*
X0019883D01*
X0020617D02*
X0020867D01*
X0020189Y0023882D02*
Y0024118D01*
X0020311D01*
Y0023882D01*
X0020189Y0024398D02*
Y0024118D01*
X0020311D02*
Y0024398D01*
X0019633Y0022851D02*
X0019883D01*
Y0023101D01*
X0019824Y0023042D01*
X0019692D01*
X0019633Y0023101D01*
Y0022851D01*
X0019692Y0022910D01*
X0019824D01*
Y0023042D01*
X0019692Y0022910D02*
Y0023042D01*
X0019883Y0022851D02*
X0019824Y0022910D01*
X0020808Y0023042D02*
X0020867Y0023101D01*
Y0022851D01*
X0020808Y0022910D01*
Y0023042D01*
X0020676D01*
X0020617Y0023101D01*
Y0022851D01*
X0020676Y0022910D01*
Y0023042D01*
X0020617Y0022851D02*
X0020867D01*
X0020808Y0022910D02*
X0020676D01*
X0019633Y0023101D02*
X0019883D01*
X0020617D02*
X0020867D01*
X0019633Y0020883D02*
X0019883D01*
Y0021133D01*
X0019824Y0021074D01*
X0019692D01*
X0019633Y0021133D01*
Y0020883D01*
X0019692Y0020942D01*
X0019824D01*
Y0021074D01*
X0019692Y0020942D02*
Y0021074D01*
X0019883Y0020883D02*
X0019824Y0020942D01*
X0020808Y0021074D02*
X0020867Y0021133D01*
Y0020883D01*
X0020808Y0020942D01*
Y0021074D01*
X0020676D01*
X0020617Y0021133D01*
Y0020883D01*
X0020676Y0020942D01*
Y0021074D01*
X0020617Y0020883D02*
X0020867D01*
X0020808Y0020942D02*
X0020676D01*
X0019633Y0021133D02*
X0019883D01*
X0020617D02*
X0020867D01*
X0019633Y0021867D02*
X0019883D01*
Y0022117D01*
X0019824Y0022058D01*
X0019692D01*
X0019633Y0022117D01*
Y0021867D01*
X0019692Y0021926D01*
X0019824D01*
Y0022058D01*
X0019692Y0021926D02*
Y0022058D01*
X0019883Y0021867D02*
X0019824Y0021926D01*
X0020808Y0022058D02*
X0020867Y0022117D01*
Y0021867D01*
X0020808Y0021926D01*
Y0022058D01*
X0020676D01*
X0020617Y0022117D01*
Y0021867D01*
X0020676Y0021926D01*
Y0022058D01*
X0020617Y0021867D02*
X0020867D01*
X0020808Y0021926D02*
X0020676D01*
X0019633Y0022117D02*
X0019883D01*
X0020617D02*
X0020867D01*
X0022553Y0020550D02*
Y0022445D01*
X0022474Y0022524D02*
X0022329D01*
Y0020476D01*
X0022474D01*
X0021754D02*
X0022329D01*
X0021754Y0022524D02*
X0022329D01*
X0021173Y0022024D02*
Y0022366D01*
X0019633Y0019899D02*
X0019883D01*
Y0020149D01*
X0019824Y0020089D01*
X0019692D01*
X0019633Y0020149D01*
Y0019899D01*
X0019692Y0019958D01*
X0019824D01*
Y0020089D01*
X0019692Y0019958D02*
Y0020089D01*
X0019883Y0019899D02*
X0019824Y0019958D01*
X0020808Y0020089D02*
X0020867Y0020149D01*
Y0019899D01*
X0020808Y0019958D01*
Y0020089D01*
X0020676D01*
X0020617Y0020149D01*
Y0019899D01*
X0020676Y0019958D01*
Y0020089D01*
X0020617Y0019899D02*
X0020867D01*
X0020808Y0019958D02*
X0020676D01*
X0019633Y0020149D02*
X0019883D01*
X0020617D02*
X0020867D01*
X0021173Y0019476D02*
X0020311D01*
Y0018602D01*
X0021173D01*
Y0019476D01*
X0019327Y0023413D02*
Y0022539D01*
X0020189D01*
Y0023413D01*
X0019327D01*
X0021173D02*
X0020311D01*
Y0022539D01*
X0021173D01*
Y0023413D01*
X0019327Y0022429D02*
Y0021555D01*
X0020189D01*
Y0022429D01*
X0019327D01*
Y0021445D02*
Y0020571D01*
X0020189D01*
Y0021445D01*
X0019327D01*
Y0020461D02*
Y0019587D01*
X0020189D01*
Y0020461D01*
X0019327D01*
X0021173D02*
X0020311D01*
Y0019587D01*
X0021173D01*
Y0020461D01*
X0019327Y0019476D02*
Y0018602D01*
X0020189D01*
Y0019476D01*
X0019327D01*
X0020808Y0018973D02*
X0020676D01*
X0020617Y0019164D02*
X0020867D01*
X0022200Y0008200D02*
Y0009300D01*
X0024300D01*
Y0008200D01*
X0022200D01*
X0037825Y0007075D02*
X0036675D01*
Y0006430D01*
X0037825D01*
Y0007075D01*
X0014175Y0025075D02*
Y0023925D01*
X0014820D01*
Y0025075D01*
X0014175D01*
X0039191Y0023419D02*
Y0023955D01*
X0037813D02*
X0037577D01*
Y0023419D01*
Y0021081D02*
Y0020545D01*
X0037813D01*
X0039191D01*
X0037813Y0021081D02*
Y0020545D01*
X0040218Y0021384D02*
Y0023116D01*
X0039750D01*
X0039173D01*
Y0023179D01*
X0038311D01*
Y0022305D01*
X0039173D01*
Y0022774D01*
X0039283D01*
Y0021726D01*
X0039173D01*
Y0022195D01*
X0038311D01*
Y0021837D01*
X0038189D01*
Y0022195D01*
X0037327D01*
Y0021321D01*
X0039173D01*
Y0021384D01*
X0039750D01*
X0040218D01*
X0039191Y0021081D02*
Y0020545D01*
X0039427D01*
Y0021081D01*
X0037073D01*
Y0023419D01*
X0039427D01*
Y0023955D01*
X0039191D01*
X0037813D01*
Y0023419D01*
X0037824Y0022808D02*
X0037883Y0022867D01*
X0037633D01*
Y0022617D01*
X0037692Y0022676D01*
X0037824D01*
Y0022808D01*
X0037692D01*
Y0022676D01*
X0037883Y0022867D02*
Y0022617D01*
X0037824Y0022676D01*
X0038808Y0022808D02*
X0038867Y0022867D01*
Y0022617D01*
X0038808Y0022676D01*
Y0022808D01*
X0038676D01*
X0038617Y0022867D01*
Y0022617D01*
X0038676Y0022676D01*
Y0022808D01*
X0037633Y0022617D02*
X0037883D01*
X0038617D02*
X0038867D01*
X0038808Y0022676D02*
X0038676D01*
X0038617Y0022867D02*
X0038867D01*
X0038311Y0021321D02*
Y0021600D01*
X0038189D01*
Y0021837D01*
X0038311D02*
Y0021600D01*
X0037633Y0021633D02*
X0037883D01*
Y0021883D01*
X0037824Y0021824D01*
X0037692D01*
X0037633Y0021883D01*
Y0021633D01*
X0037692Y0021692D01*
X0037824D01*
Y0021824D01*
X0037692Y0021692D02*
Y0021824D01*
X0037883Y0021633D02*
X0037824Y0021692D01*
X0038808Y0021824D02*
X0038867Y0021883D01*
Y0021633D01*
X0038808Y0021692D01*
Y0021824D01*
X0038676D01*
X0038617Y0021883D01*
Y0021633D01*
X0038676Y0021692D01*
Y0021824D01*
X0038617Y0021633D02*
X0038867D01*
X0038808Y0021692D02*
X0038676D01*
X0037633Y0021883D02*
X0037883D01*
X0038617D02*
X0038867D01*
X0038189Y0021321D02*
Y0021600D01*
X0040474Y0021226D02*
X0040325D01*
Y0023274D01*
X0040474D01*
X0040553Y0023195D02*
X0040550Y0021300D01*
X0039427Y0021081D02*
Y0021226D01*
X0039750D01*
X0040325D01*
X0039750Y0023116D02*
Y0023274D01*
X0040325D01*
X0037633Y0022867D02*
X0037692Y0022808D01*
X0039173Y0021384D02*
Y0021726D01*
Y0022774D02*
Y0023116D01*
X0037327Y0023179D02*
Y0022305D01*
X0038189D01*
Y0023179D01*
X0037327D01*
X0039427Y0023419D02*
Y0023274D01*
X0039750D01*
Y0021384D02*
Y0021226D01*
X0012825Y0013175D02*
Y0014325D01*
X0012180D01*
Y0013175D01*
X0012825D01*
X0023575Y0017325D02*
X0022425D01*
Y0016680D01*
X0023575D01*
Y0017325D01*
X0012950Y0004700D02*
Y0005800D01*
X0015050D01*
Y0004700D01*
X0012950D01*
X0015825Y0011675D02*
Y0012825D01*
X0015180D01*
Y0011675D01*
X0015825D01*
X0007550Y0009550D02*
Y0008450D01*
X0005450D01*
Y0009550D01*
X0007550D01*
X0023575Y0016575D02*
X0022425D01*
Y0015930D01*
X0023575D01*
Y0016575D01*
X0008748Y0024810D02*
X0008621D01*
X0008708Y0024907D02*
Y0024774D01*
X0008654Y0024904D02*
Y0024777D01*
X0008751Y0024864D02*
X0008618D01*
X0008748Y0018810D02*
X0008621D01*
X0008708Y0018907D02*
Y0018774D01*
X0008654Y0018904D02*
Y0018777D01*
X0008751Y0018864D02*
X0008618D01*
X0039250Y0004300D02*
Y0005350D01*
X0037250D01*
Y0004150D01*
X0039250D01*
Y0004300D01*
X0008157Y0013225D02*
X0008197D01*
Y0013775D01*
X0008157D01*
X0007843D02*
X0007803D01*
Y0013225D01*
X0007843D01*
X0008197Y0013657D02*
Y0013618D01*
X0007803D01*
Y0013657D01*
X0008197D01*
X0008157Y0022475D02*
X0008197D01*
Y0023025D01*
X0008157D01*
X0007843D02*
X0007803D01*
Y0022475D01*
X0007843D01*
X0008197Y0022907D02*
Y0022868D01*
X0007803D01*
Y0022907D01*
X0008197D01*
X0011379Y0000628D02*
X0011251D01*
X0011338Y0000726D02*
Y0000592D01*
X0011284Y0000723D02*
Y0000595D01*
X0011382Y0000682D02*
X0011248D01*
X0009762Y0015609D02*
X0009635D01*
X0009722Y0015707D02*
Y0015573D01*
X0009668Y0015704D02*
Y0015576D01*
X0009765Y0015663D02*
X0009632D01*
X0009329Y0015749D02*
X0009289Y0015709D01*
Y0014174D01*
X0010708D01*
Y0015826D01*
X0009410D01*
X0009329Y0015749D01*
X0009528Y0014213D02*
Y0015826D01*
X0007575Y0005075D02*
X0006425D01*
Y0004430D01*
X0007575D01*
Y0005075D01*
X0018325Y0010325D02*
X0017175D01*
Y0009680D01*
X0018325D01*
Y0010325D01*
X0008748Y0010810D02*
X0008621D01*
X0008708Y0010907D02*
Y0010774D01*
X0008654Y0010904D02*
Y0010777D01*
X0008751Y0010864D02*
X0008618D01*
X0015075Y0006175D02*
Y0007325D01*
X0014430D01*
Y0006175D01*
X0015075D01*
X0012825Y0009925D02*
Y0011075D01*
X0012180D01*
Y0009925D01*
X0012825D01*
G01X0033550Y0005780D02*
G03X0033610Y0005840I0000000J0000060D01*
G01X0033490D02*
G03X0033550Y0005780I0000060J0000000D01*
Y0005900D02*
G03X0033490Y0005840I0000000J0000060D01*
G01X0033610D02*
G03X0033550Y0005900I0000060J0000000D01*
G01X0011315Y0008088D02*
G03X0011386Y0008159I0000000J0000071D01*
G01X0011244D02*
G03X0011315Y0008088I0000071J0000000D01*
Y0008230D02*
G03X0011244Y0008159I0000000J0000071D01*
G01X0011386D02*
G03X0011315Y0008230I0000071J0000000D01*
G01X0018450Y0001850D02*
G03X0018510Y0001910I0000000J0000060D01*
G01X0018390D02*
G03X0018450Y0001850I0000060J0000000D01*
Y0001970D02*
G03X0018390Y0001910I0000000J0000060D01*
G01X0018510D02*
G03X0018450Y0001970I0000060J0000000D01*
G01X0042128Y0006791D02*
G03X0042177Y0006840I0000000J0000049D01*
G01X0042078D02*
G03X0042128Y0006790I0000050J0000000D01*
Y0006890D02*
G03X0042078Y0006840I0000000J0000050D01*
G01X0042177D02*
G03X0042128Y0006889I0000049J0000000D01*
G01X0011315Y0016088D02*
G03X0011386Y0016159I0000000J0000071D01*
G01X0011244D02*
G03X0011315Y0016088I0000071J0000000D01*
Y0016230D02*
G03X0011244Y0016159I0000000J0000071D01*
G01X0011386D02*
G03X0011315Y0016230I0000071J0000000D01*
G01X0028409Y0014614D02*
G03X0028480Y0014685I0000000J0000071D01*
G01X0028338D02*
G03X0028409Y0014614I0000071J0000000D01*
Y0014756D02*
G03X0028338Y0014685I0000000J0000071D01*
G01X0028480D02*
G03X0028409Y0014756I0000071J0000000D01*
G01X0008685Y0012270D02*
G03X0008755Y0012340I0000000J0000070D01*
G01X0008614D02*
G03X0008685Y0012269I0000071J0000000D01*
Y0012411D02*
G03X0008614Y0012340I0000000J0000071D01*
G01X0008755D02*
G03X0008685Y0012410I0000070J0000000D01*
G01X0033303Y0010945D02*
G03X0033224Y0011024I0000079J0000000D01*
G01X0033233Y0008970D02*
G03X0033303Y0009040I0000001J0000071D01*
G01X0008685Y0013770D02*
G03X0008755Y0013840I0000000J0000070D01*
G01X0008614D02*
G03X0008685Y0013769I0000071J0000000D01*
Y0013911D02*
G03X0008614Y0013840I0000000J0000071D01*
G01X0008755D02*
G03X0008685Y0013910I0000070J0000000D01*
G01X0023550Y0004030D02*
G03X0023610Y0004090I0000000J0000060D01*
G01X0023490D02*
G03X0023550Y0004030I0000060J0000000D01*
Y0004150D02*
G03X0023490Y0004090I0000000J0000060D01*
G01X0023610D02*
G03X0023550Y0004150I0000060J0000000D01*
G01X0040553Y0018695D02*
G03X0040474Y0018774I0000079J0000000D01*
G01X0040480Y0016730D02*
G03X0040550Y0016800I0000010J0000080D01*
G01X0029200Y0003600D02*
G03X0029260Y0003660I0000000J0000060D01*
G01X0029140D02*
G03X0029200Y0003600I0000060J0000000D01*
Y0003720D02*
G03X0029140Y0003660I0000000J0000060D01*
G01X0029260D02*
G03X0029200Y0003720I0000060J0000000D01*
G01X0033303Y0004195D02*
G03X0033224Y0004274I0000079J0000000D01*
G01X0033233Y0002220D02*
G03X0033303Y0002290I0000001J0000071D01*
G01X0038228Y0011410D02*
G03X0038818Y0012000I0000000J0000590D01*
G01X0037638D02*
G03X0038228Y0011410I0000590J0000000D01*
Y0012591D02*
G03X0037637Y0012000I0000000J0000591D01*
G01X0038819D02*
G03X0038228Y0012591I0000591J0000000D01*
G01X0039868Y0013876D02*
G03X0039826Y0013689I0000391J0000187D01*
G01X0039825D02*
G03X0039829Y0013637I0000434J0000000D01*
G01X0039872Y0013872D02*
G03X0039830Y0013689I0000378J0000183D01*
G01X0039829D02*
G03X0039832Y0013637I0000421J0000000D01*
Y0010363D02*
G03X0039829Y0010311I0000418J0000052D01*
G03X0039872Y0010128I0000421J0000000D01*
G01X0039829Y0010363D02*
G03X0039826Y0010310I0000430J0000053D01*
G01X0039825D02*
G03X0039868Y0010124I0000434J0000000D01*
G01X0018450Y0003600D02*
G03X0018510Y0003660I0000000J0000060D01*
G01X0018390D02*
G03X0018450Y0003600I0000060J0000000D01*
Y0003720D02*
G03X0018390Y0003660I0000000J0000060D01*
G01X0018510D02*
G03X0018450Y0003720I0000060J0000000D01*
G01X0023550Y0005780D02*
G03X0023610Y0005840I0000000J0000060D01*
G01X0023490D02*
G03X0023550Y0005780I0000060J0000000D01*
Y0005900D02*
G03X0023490Y0005840I0000000J0000060D01*
G01X0023610D02*
G03X0023550Y0005900I0000060J0000000D01*
G01X0011315Y0002088D02*
G03X0011386Y0002159I0000000J0000071D01*
G01X0011244D02*
G03X0011315Y0002088I0000071J0000000D01*
Y0002230D02*
G03X0011244Y0002159I0000000J0000071D01*
G01X0011386D02*
G03X0011315Y0002230I0000071J0000000D01*
G01X0008685Y0023270D02*
G03X0008755Y0023340I0000000J0000070D01*
G01X0008614D02*
G03X0008685Y0023269I0000071J0000000D01*
Y0023411D02*
G03X0008614Y0023340I0000000J0000071D01*
G01X0008755D02*
G03X0008685Y0023410I0000070J0000000D01*
G01X0029200Y0001850D02*
G03X0029260Y0001910I0000000J0000060D01*
G01X0029140D02*
G03X0029200Y0001850I0000060J0000000D01*
Y0001970D02*
G03X0029140Y0001910I0000000J0000060D01*
G01X0029260D02*
G03X0029200Y0001970I0000060J0000000D01*
G01X0027803Y0014695D02*
G03X0027724Y0014774I0000079J0000000D01*
G01X0027803Y0012804D02*
G03X0027803Y0012810I0000074J0000000D01*
G01X0027729Y0012730D02*
G03X0027803Y0012804I0000000J0000074D01*
G01X0027723Y0012730D02*
G03X0027729Y0012730I0000006J0000074D01*
G01X0011315Y0020588D02*
G03X0011386Y0020659I0000000J0000071D01*
G01X0011244D02*
G03X0011315Y0020588I0000071J0000000D01*
Y0020730D02*
G03X0011244Y0020659I0000000J0000071D01*
G01X0011386D02*
G03X0011315Y0020730I0000071J0000000D01*
G01X0033550Y0004030D02*
G03X0033610Y0004090I0000000J0000060D01*
G01X0033490D02*
G03X0033550Y0004030I0000060J0000000D01*
Y0004150D02*
G03X0033490Y0004090I0000000J0000060D01*
G01X0033610D02*
G03X0033550Y0004150I0000060J0000000D01*
G01X0031409Y0014614D02*
G03X0031480Y0014685I0000000J0000071D01*
G01X0031338D02*
G03X0031409Y0014614I0000071J0000000D01*
Y0014756D02*
G03X0031338Y0014685I0000000J0000071D01*
G01X0031480D02*
G03X0031409Y0014756I0000071J0000000D01*
G01X0011315Y0003588D02*
G03X0011386Y0003659I0000000J0000071D01*
G01X0011244D02*
G03X0011315Y0003588I0000071J0000000D01*
Y0003730D02*
G03X0011244Y0003659I0000000J0000071D01*
G01X0011386D02*
G03X0011315Y0003730I0000071J0000000D01*
G01X0043503Y0004533D02*
G03X0043952Y0004644I0000000J0000963D01*
G01X0043501Y0004533D02*
G03X0043503Y0004533I0000002J0000963D01*
G01X0043501Y0004520D02*
G03X0043503Y0004520I0000002J0000977D01*
G03X0043958Y0004632I0000000J0000977D01*
G01X0042538Y0004600D02*
G03X0042606Y0004537I0000068J0000005D01*
G01X0042517Y0004605D02*
G03X0042606Y0004516I0000089J0000000D01*
G01X0042521Y0004605D02*
G03X0042605Y0004520I0000085J0000000D01*
G01X0042534Y0004599D02*
G03X0042600Y0004533I0000072J0000006D01*
G01X0042680Y0005086D02*
G03X0043105Y0004670I0000824J0000416D01*
G01X0042688Y0005099D02*
G03X0043111Y0004682I0000816J0000404D01*
G01X0043879Y0004727D02*
G03X0044017Y0004811I0000376J0000772D01*
G01X0043991Y0004887D02*
G03X0044017Y0004811I0000124J0000000D01*
G01X0044115Y0005011D02*
G03X0043991Y0004887I0000000J0000124D01*
G01X0044196Y0004980D02*
G03X0044115Y0005010I0000081J0000093D01*
G01X0044188Y0004970D02*
G03X0044115Y0004998I0000073J0000083D01*
G03X0044004Y0004887I0000000J0000111D01*
G03X0044036Y0004809I0000111J0000000D01*
G01X0043886Y0004716D02*
G03X0044036Y0004809I0000385J0000786D01*
G01X0044197Y0004971D02*
G03X0044286Y0005116I0000692J0000527D01*
G01X0044187Y0004979D02*
G03X0044282Y0005138I0000689J0000523D01*
G01X0044057Y0004520D02*
G03X0044084Y0004519I0000027J0000398D01*
G03X0044483Y0004918I0000000J0000399D01*
G01X0044482D02*
G03X0044481Y0004945I0000398J0000000D01*
G01X0044469Y0004918D02*
G03X0044469Y0004926I0000385J0000000D01*
G01X0044084Y0004533D02*
G03X0044469Y0004918I0000000J0000385D01*
G01X0044075Y0004533D02*
G03X0044084Y0004533I0000009J0000385D01*
G01X0044476Y0004918D02*
G03X0044475Y0004936I0000392J0000000D01*
G01X0044084Y0004526D02*
G03X0044476Y0004918I0000000J0000392D01*
G01X0044066Y0004527D02*
G03X0044084Y0004527I0000018J0000391D01*
G01X0042527Y0006083D02*
G03X0042528Y0006065I0000392J0000000D01*
G01X0042919Y0006474D02*
G03X0042528Y0006083I0000000J0000391D01*
G01X0042937Y0006474D02*
G03X0042919Y0006474I0000018J0000391D01*
G01X0042534Y0006083D02*
G03X0042534Y0006074I0000385J0000000D01*
G01X0042919Y0006468D02*
G03X0042534Y0006083I0000000J0000385D01*
G01X0042927Y0006468D02*
G03X0042919Y0006468I0000008J0000385D01*
G01X0042947Y0006480D02*
G03X0042919Y0006481I0000028J0000398D01*
G03X0042520Y0006082I0000000J0000399D01*
G01X0042521D02*
G03X0042522Y0006056I0000398J0000000D01*
G01X0043012Y0006114D02*
G03X0042986Y0006190I0000124J0000000D01*
G01X0043012Y0006114D02*
G03X0042981Y0006195I0000124J0000000D01*
G01X0042888Y0005990D02*
G03X0043012Y0006114I0000000J0000124D01*
G01X0042812Y0006016D02*
G03X0042888Y0005990I0000076J0000098D01*
G01X0042812Y0006016D02*
G03X0042720Y0005863I0000692J0000516D01*
G01X0043139Y0006281D02*
G03X0042980Y0006186I0000357J0000771D01*
G01X0043116Y0006285D02*
G03X0042972Y0006196I0000380J0000776D01*
G01X0042809Y0006035D02*
G03X0042717Y0005885I0000694J0000535D01*
G01X0042809Y0006035D02*
G03X0042888Y0006002I0000079J0000079D01*
Y0006003D02*
G03X0042999Y0006114I0000000J0000111D01*
G03X0042971Y0006187I0000111J0000000D01*
G01X0043502Y0006362D02*
G03X0042986Y0006190I0000000J0000861D01*
G01X0044363Y0005501D02*
G03X0043502Y0006362I0000861J0000000D01*
G01X0044191Y0004985D02*
G03X0044363Y0005501I0000689J0000516D01*
G01X0044191Y0004985D02*
G03X0044115Y0005011I0000076J0000098D01*
G03X0043991Y0004887I0000000J0000124D01*
G03X0044021Y0004806I0000124J0000000D01*
G01X0044004Y0004887D02*
G03X0044031Y0004814I0000111J0000000D01*
G01X0044115Y0004998D02*
G03X0044004Y0004887I0000000J0000111D01*
G01X0044193Y0004966D02*
G03X0044115Y0004998I0000078J0000079D01*
G01X0044193Y0004966D02*
G03X0044375Y0005500I0000692J0000534D01*
G01X0044376D02*
G03X0043501Y0006375I0000875J0000000D01*
G03X0042967Y0006192I0000000J0000875D01*
G01X0042999Y0006114D02*
G03X0042967Y0006192I0000112J0000000D01*
G01X0042887Y0006003D02*
G03X0042998Y0006114I0000000J0000111D01*
G01X0042809Y0006035D02*
G03X0042887Y0006003I0000078J0000079D01*
G01X0042809Y0006035D02*
G03X0042627Y0005501I0000692J0000534D01*
G03X0043501Y0004627I0000874J0000000D01*
Y0004626D02*
G03X0044030Y0004805I0000000J0000875D01*
G01X0043501Y0004639D02*
G03X0044023Y0004815I0000000J0000861D01*
G01X0042640Y0005500D02*
G03X0043501Y0004639I0000861J0000000D01*
G01X0042812Y0006016D02*
G03X0042640Y0005500I0000689J0000516D01*
G01X0042812Y0006016D02*
G03X0042888Y0005990I0000076J0000098D01*
G01X0042645Y0005953D02*
G03X0042533Y0005502I0000854J0000451D01*
G01X0042634Y0005959D02*
G03X0042521Y0005502I0000864J0000457D01*
G01X0018685Y0009520D02*
G03X0018755Y0009590I0000000J0000070D01*
G01X0018614D02*
G03X0018685Y0009519I0000071J0000000D01*
Y0009661D02*
G03X0018614Y0009590I0000000J0000071D01*
G01X0018755D02*
G03X0018685Y0009660I0000070J0000000D01*
Y0016520D02*
G03X0018755Y0016590I0000000J0000070D01*
G01X0018614D02*
G03X0018685Y0016519I0000071J0000000D01*
Y0016661D02*
G03X0018614Y0016590I0000000J0000071D01*
G01X0018755D02*
G03X0018685Y0016660I0000070J0000000D01*
Y0014770D02*
G03X0018755Y0014840I0000000J0000070D01*
G01X0018614D02*
G03X0018685Y0014769I0000071J0000000D01*
Y0014911D02*
G03X0018614Y0014840I0000000J0000071D01*
G01X0018755D02*
G03X0018685Y0014910I0000070J0000000D01*
G01X0029200Y0005350D02*
G03X0029260Y0005410I0000000J0000060D01*
G01X0029140D02*
G03X0029200Y0005350I0000060J0000000D01*
Y0005470D02*
G03X0029140Y0005410I0000000J0000060D01*
G01X0029260D02*
G03X0029200Y0005470I0000060J0000000D01*
G01X0035723Y0021230D02*
G03X0035803Y0021310I0000003J0000083D01*
Y0023195D02*
G03X0035724Y0023274I0000079J0000000D01*
G01X0031053Y0023195D02*
G03X0030974Y0023274I0000079J0000000D01*
G01X0031054Y0021292D02*
G03X0031053Y0021305I0000068J0000000D01*
G01X0030986Y0021224D02*
G03X0031054Y0021292I0000000J0000068D01*
G01X0030973Y0021225D02*
G03X0030986Y0021224I0000013J0000067D01*
G01X0021315Y0010088D02*
G03X0021386Y0010159I0000000J0000071D01*
G01X0021244D02*
G03X0021315Y0010088I0000071J0000000D01*
Y0010230D02*
G03X0021244Y0010159I0000000J0000071D01*
G01X0021386D02*
G03X0021315Y0010230I0000071J0000000D01*
G01X0029200Y0007100D02*
G03X0029260Y0007160I0000000J0000060D01*
G01X0029140D02*
G03X0029200Y0007100I0000060J0000000D01*
Y0007220D02*
G03X0029140Y0007160I0000000J0000060D01*
G01X0029260D02*
G03X0029200Y0007220I0000060J0000000D01*
G01X0011315Y0006588D02*
G03X0011386Y0006659I0000000J0000071D01*
G01X0011244D02*
G03X0011315Y0006588I0000071J0000000D01*
Y0006730D02*
G03X0011244Y0006659I0000000J0000071D01*
G01X0011386D02*
G03X0011315Y0006730I0000071J0000000D01*
G01X0021315Y0011838D02*
G03X0021386Y0011909I0000000J0000071D01*
G01X0021244D02*
G03X0021315Y0011838I0000071J0000000D01*
Y0011980D02*
G03X0021244Y0011909I0000000J0000071D01*
G01X0021386D02*
G03X0021315Y0011980I0000071J0000000D01*
G01X0011315Y0005088D02*
G03X0011386Y0005159I0000000J0000071D01*
G01X0011244D02*
G03X0011315Y0005088I0000071J0000000D01*
Y0005230D02*
G03X0011244Y0005159I0000000J0000071D01*
G01X0011386D02*
G03X0011315Y0005230I0000071J0000000D01*
G01X0029909Y0014614D02*
G03X0029980Y0014685I0000000J0000071D01*
G01X0029838D02*
G03X0029909Y0014614I0000071J0000000D01*
Y0014756D02*
G03X0029838Y0014685I0000000J0000071D01*
G01X0029980D02*
G03X0029909Y0014756I0000071J0000000D01*
G01X0033550Y0002280D02*
G03X0033610Y0002340I0000000J0000060D01*
G01X0033490D02*
G03X0033550Y0002280I0000060J0000000D01*
Y0002400D02*
G03X0033490Y0002340I0000000J0000060D01*
G01X0033610D02*
G03X0033550Y0002400I0000060J0000000D01*
G01X0018450Y0005350D02*
G03X0018510Y0005410I0000000J0000060D01*
G01X0018390D02*
G03X0018450Y0005350I0000060J0000000D01*
Y0005470D02*
G03X0018390Y0005410I0000000J0000060D01*
G01X0018510D02*
G03X0018450Y0005470I0000060J0000000D01*
G01X0042128Y0005291D02*
G03X0042177Y0005340I0000000J0000049D01*
G01X0042078D02*
G03X0042128Y0005290I0000050J0000000D01*
Y0005390D02*
G03X0042078Y0005340I0000000J0000050D01*
G01X0042177D02*
G03X0042128Y0005389I0000049J0000000D01*
G01X0033550Y0000530D02*
G03X0033610Y0000590I0000000J0000060D01*
G01X0033490D02*
G03X0033550Y0000530I0000060J0000000D01*
Y0000650D02*
G03X0033490Y0000590I0000000J0000060D01*
G01X0033610D02*
G03X0033550Y0000650I0000060J0000000D01*
G01X0008685Y0020270D02*
G03X0008755Y0020340I0000000J0000070D01*
G01X0008614D02*
G03X0008685Y0020269I0000071J0000000D01*
Y0020411D02*
G03X0008614Y0020340I0000000J0000071D01*
G01X0008755D02*
G03X0008685Y0020410I0000070J0000000D01*
G01X0022483Y0020480D02*
G03X0022553Y0020550I0000004J0000074D01*
Y0022445D02*
G03X0022474Y0022524I0000079J0000000D01*
G01X0040553Y0023195D02*
G03X0040474Y0023274I0000079J0000000D01*
G01X0040480Y0021230D02*
G03X0040550Y0021300I0000010J0000080D01*
G01X0008685Y0024770D02*
G03X0008755Y0024840I0000000J0000070D01*
G01X0008614D02*
G03X0008685Y0024769I0000071J0000000D01*
Y0024911D02*
G03X0008614Y0024840I0000000J0000071D01*
G01X0008755D02*
G03X0008685Y0024910I0000070J0000000D01*
Y0018770D02*
G03X0008755Y0018840I0000000J0000070D01*
G01X0008614D02*
G03X0008685Y0018769I0000071J0000000D01*
Y0018911D02*
G03X0008614Y0018840I0000000J0000071D01*
G01X0008755D02*
G03X0008685Y0018910I0000070J0000000D01*
G01X0011315Y0000588D02*
G03X0011386Y0000659I0000000J0000071D01*
G01X0011244D02*
G03X0011315Y0000588I0000071J0000000D01*
Y0000730D02*
G03X0011244Y0000659I0000000J0000071D01*
G01X0011386D02*
G03X0011315Y0000730I0000071J0000000D01*
G01X0009699Y0015569D02*
G03X0009770Y0015640I0000000J0000071D01*
G01X0009628D02*
G03X0009699Y0015569I0000071J0000000D01*
Y0015711D02*
G03X0009628Y0015640I0000000J0000071D01*
G01X0009769D02*
G03X0009699Y0015710I0000070J0000000D01*
G01X0008685Y0010770D02*
G03X0008755Y0010840I0000000J0000070D01*
G01X0008614D02*
G03X0008685Y0010769I0000071J0000000D01*
Y0010911D02*
G03X0008614Y0010840I0000000J0000071D01*
G01X0008755D02*
G03X0008685Y0010910I0000070J0000000D01*
G54D58*
G01X0010650Y0008160D02*
X0009150D01*
Y0009350D01*
X0010860D01*
Y0008370D01*
X0010650Y0008160D01*
Y0016160D02*
X0009150D01*
Y0017350D01*
X0010860D01*
Y0016370D01*
X0010650Y0016160D01*
X0028410Y0015350D02*
Y0016850D01*
X0029600D01*
Y0015140D01*
X0028620D01*
X0028410Y0015350D01*
X0042292Y0007927D02*
X0041938D01*
Y0011113D01*
X0042292D01*
X0043708Y0011073D02*
X0044062D01*
Y0007927D01*
X0043708D01*
X0002670Y0007500D02*
Y0007100D01*
X0002599Y0007500D02*
Y0007100D01*
X0002529Y0007500D02*
Y0007100D01*
X0002458Y0007250D02*
Y0007100D01*
X0002387Y0007250D02*
Y0007100D01*
X0002316Y0007250D02*
Y0007100D01*
X0002750Y0007449D02*
X0002500D01*
X0002750Y0007379D02*
X0002500D01*
X0002750Y0007308D02*
X0002500D01*
X0003750Y0007237D02*
X0002250D01*
X0003449Y0007500D02*
Y0007100D01*
X0003378Y0007500D02*
Y0007100D01*
X0003307Y0007500D02*
Y0007100D01*
X0003236Y0007250D02*
Y0007100D01*
X0003166Y0007250D02*
Y0007100D01*
X0003095Y0007250D02*
Y0007100D01*
X0003024Y0007250D02*
Y0007100D01*
X0002953Y0007250D02*
Y0007100D01*
X0002883Y0007250D02*
Y0007100D01*
X0002812Y0007250D02*
Y0007100D01*
X0002741Y0007500D02*
Y0007100D01*
X0002750Y0007500D02*
Y0007250D01*
Y0007500D02*
X0002500D01*
Y0007250D01*
X0002250D01*
Y0007100D01*
X0003732Y0007250D02*
Y0007100D01*
X0003661Y0007250D02*
Y0007100D01*
X0003590Y0007250D02*
Y0007100D01*
X0003520Y0007250D02*
Y0007100D01*
X0003500Y0007449D02*
X0003250D01*
X0003500Y0007379D02*
X0003250D01*
X0003500Y0007308D02*
X0003250D01*
X0003750Y0007166D02*
X0002250D01*
X0003750Y0007100D02*
X0002250D01*
X0003750Y0007250D02*
Y0007100D01*
Y0007250D02*
X0003500D01*
Y0007500D02*
Y0007250D01*
Y0007500D02*
X0003250D01*
Y0007250D01*
X0002750D01*
X0003750Y0007100D02*
Y0007850D01*
X0002250D01*
Y0007200D01*
X0002670Y0018917D02*
Y0018517D01*
X0002599Y0018917D02*
Y0018517D01*
X0002529Y0018917D02*
Y0018517D01*
X0002458Y0018917D02*
Y0018767D01*
X0002387Y0018917D02*
Y0018767D01*
X0002316Y0018917D02*
Y0018767D01*
X0003750Y0018866D02*
X0002250D01*
X0003750Y0018795D02*
X0002250D01*
X0002750Y0018724D02*
X0002500D01*
X0002750Y0018654D02*
X0002500D01*
X0003449Y0018917D02*
Y0018517D01*
X0003378Y0018917D02*
Y0018517D01*
X0003307Y0018917D02*
Y0018517D01*
X0003236Y0018917D02*
Y0018767D01*
X0003166Y0018917D02*
Y0018767D01*
X0003095Y0018917D02*
Y0018767D01*
X0003024Y0018917D02*
Y0018767D01*
X0002953Y0018917D02*
Y0018767D01*
X0002883Y0018917D02*
Y0018767D01*
X0002812Y0018917D02*
Y0018767D01*
X0002741Y0018917D02*
Y0018517D01*
X0003250Y0018767D02*
Y0018517D01*
X0003500D02*
X0003250D01*
X0003500Y0018767D02*
Y0018517D01*
X0003750Y0018767D02*
X0003500D01*
X0003750Y0018917D02*
Y0018767D01*
X0003732Y0018917D02*
Y0018767D01*
X0003661Y0018917D02*
Y0018767D01*
X0003590Y0018917D02*
Y0018767D01*
X0003520Y0018917D02*
Y0018767D01*
X0003500Y0018724D02*
X0003250D01*
X0003500Y0018654D02*
X0003250D01*
X0003500Y0018583D02*
X0003250D01*
X0002750D02*
X0002500D01*
X0003750Y0018917D02*
X0002250D01*
Y0018767D01*
X0002500D02*
X0002250D01*
X0002500D02*
Y0018517D01*
X0002750D02*
X0002500D01*
X0002750Y0018767D02*
Y0018517D01*
X0003250Y0018767D02*
X0002750D01*
X0003750Y0018900D02*
Y0018350D01*
X0002250D01*
Y0018900D01*
X0009350Y0012340D02*
X0010850D01*
Y0011150D01*
X0009140D01*
Y0012130D01*
X0009350Y0012340D01*
Y0013840D02*
X0010850D01*
Y0012650D01*
X0009140D01*
Y0013630D01*
X0009350Y0013840D01*
X0010650Y0002160D02*
X0009150D01*
Y0003350D01*
X0010860D01*
Y0002370D01*
X0010650Y0002160D01*
X0009350Y0023340D02*
X0010850D01*
Y0022150D01*
X0009140D01*
Y0023130D01*
X0009350Y0023340D01*
X0041071Y0003537D02*
X0041073Y0003616D01*
X0036429D01*
Y0000508D01*
X0041071D01*
Y0003537D01*
X0040867Y0003436D02*
Y0003166D01*
X0040796Y0003486D02*
Y0003116D01*
X0040726Y0003502D02*
Y0003100D01*
X0040655Y0003491D02*
Y0003110D01*
X0040584Y0003450D02*
Y0003152D01*
X0040854Y0003449D02*
X0040583D01*
X0040904Y0003379D02*
X0040533D01*
X0040919Y0003308D02*
X0040518D01*
X0040909Y0003237D02*
X0040528D01*
X0040868Y0003166D02*
X0040569D01*
X0010650Y0020660D02*
X0009150D01*
Y0021850D01*
X0010860D01*
Y0020870D01*
X0010650Y0020660D01*
X0031410Y0015350D02*
Y0016850D01*
X0032600D01*
Y0015140D01*
X0031620D01*
X0031410Y0015350D01*
X0010650Y0003660D02*
X0009150D01*
Y0004850D01*
X0010860D01*
Y0003870D01*
X0010650Y0003660D01*
X0019350Y0009590D02*
X0020850D01*
Y0008400D01*
X0019140D01*
Y0009380D01*
X0019350Y0009590D01*
Y0016590D02*
X0020850D01*
Y0015400D01*
X0019140D01*
Y0016380D01*
X0019350Y0016590D01*
Y0014840D02*
X0020850D01*
Y0013650D01*
X0019140D01*
Y0014630D01*
X0019350Y0014840D01*
X0020650Y0010160D02*
X0019150D01*
Y0011350D01*
X0020860D01*
Y0010370D01*
X0020650Y0010160D01*
X0010650Y0006660D02*
X0009150D01*
Y0007850D01*
X0010860D01*
Y0006870D01*
X0010650Y0006660D01*
X0020650Y0011910D02*
X0019150D01*
Y0013100D01*
X0020860D01*
Y0012120D01*
X0020650Y0011910D01*
X0010650Y0005160D02*
X0009150D01*
Y0006350D01*
X0010860D01*
Y0005370D01*
X0010650Y0005160D01*
X0029910Y0015350D02*
Y0016850D01*
X0031100D01*
Y0015140D01*
X0030120D01*
X0029910Y0015350D01*
X0009350Y0020340D02*
X0010850D01*
Y0019150D01*
X0009140D01*
Y0020130D01*
X0009350Y0020340D01*
Y0024840D02*
X0010850D01*
Y0023650D01*
X0009140D01*
Y0024630D01*
X0009350Y0024840D01*
Y0018840D02*
X0010850D01*
Y0017650D01*
X0009140D01*
Y0018630D01*
X0009350Y0018840D01*
X0010650Y0000660D02*
X0009150D01*
Y0001850D01*
X0010860D01*
Y0000870D01*
X0010650Y0000660D01*
X0009350Y0010840D02*
X0010850D01*
Y0009650D01*
X0009140D01*
Y0010630D01*
X0009350Y0010840D01*
G01X0040719Y0003100D02*
G03X0040920Y0003301I0000000J0000201D01*
G01X0040518D02*
G03X0040719Y0003100I0000201J0000000D01*
Y0003502D02*
G03X0040518Y0003301I0000000J0000201D01*
G01X0040919D02*
G03X0040719Y0003501I0000200J0000000D01*
G54D59*
G01X0042909Y0018841D02*
X0043303Y0019235D01*
X0044682Y0020149D02*
X0044583D01*
X0044682Y0020319D02*
X0044583D01*
Y0020122D01*
X0044682D02*
X0044583D01*
X0044682Y0020319D02*
Y0020122D01*
X0044664Y0020319D02*
Y0020122D01*
X0044611Y0020319D02*
Y0020122D01*
X0044682Y0020308D02*
X0044583D01*
X0044682Y0020255D02*
X0044583D01*
X0044682Y0020202D02*
X0044583D01*
X0044386Y0015888D02*
Y0020612D01*
X0044682Y0016210D02*
X0044583D01*
X0044682Y0016379D02*
Y0016182D01*
X0044583D01*
Y0016379D02*
Y0016182D01*
X0044682Y0016379D02*
X0044583D01*
X0044664D02*
Y0016182D01*
X0044611Y0016379D02*
Y0016182D01*
X0044682Y0016368D02*
X0044583D01*
X0044682Y0016315D02*
X0044583D01*
X0044682Y0016263D02*
X0044583D01*
X0042909Y0016477D02*
X0043303Y0016871D01*
Y0019235D02*
X0042909D01*
Y0018841D01*
X0043303D01*
Y0019235D01*
X0044344Y0015980D02*
Y0015881D01*
X0044291Y0015980D02*
Y0015881D01*
X0044239Y0015980D02*
Y0015881D01*
X0044186Y0015980D02*
Y0015881D01*
X0044133Y0015980D02*
Y0015881D01*
X0044080Y0015980D02*
Y0015881D01*
X0044027Y0015980D02*
Y0015881D01*
X0043975Y0015980D02*
Y0015881D01*
X0043922Y0015980D02*
Y0015881D01*
X0044386Y0015962D02*
X0043894D01*
X0044386Y0015909D02*
X0043894D01*
X0044386Y0015980D02*
Y0015881D01*
X0043894D01*
Y0015980D02*
Y0015881D01*
X0044386Y0015980D02*
X0043894D01*
X0043303Y0018447D02*
X0042909D01*
Y0018053D01*
X0043303D01*
Y0018447D01*
X0042909Y0018053D02*
X0043303Y0018447D01*
X0042909D02*
X0043303Y0018053D01*
X0043697Y0020023D02*
X0044091Y0019629D01*
Y0019235D02*
X0043697D01*
Y0018841D01*
X0044091D01*
Y0019235D01*
X0043697Y0018841D02*
X0044091Y0019235D01*
X0043697D02*
X0044091Y0018841D01*
Y0018447D02*
X0043697D01*
Y0018053D01*
X0044091D01*
Y0018447D01*
X0043697Y0018053D02*
X0044091Y0018447D01*
Y0017659D02*
X0043697D01*
Y0017265D01*
X0044091D01*
Y0017659D01*
X0043162Y0015980D02*
Y0015881D01*
X0043109Y0015980D02*
Y0015881D01*
X0043057Y0015980D02*
Y0015881D01*
X0043004Y0015980D02*
Y0015881D01*
X0042951Y0015980D02*
Y0015881D01*
X0042898Y0015980D02*
Y0015881D01*
X0042845Y0015980D02*
Y0015881D01*
X0042793Y0015980D02*
Y0015881D01*
X0042740Y0015980D02*
Y0015881D01*
X0043205Y0015962D02*
X0042712D01*
X0043205Y0015909D02*
X0042712D01*
X0043205Y0015980D02*
X0042712D01*
Y0015881D01*
X0043205D02*
X0042712D01*
X0043205Y0015980D02*
Y0015881D01*
X0042399Y0020126D02*
Y0019633D01*
X0042346Y0020126D02*
Y0019633D01*
X0042417Y0020083D02*
X0042318D01*
X0042417Y0020031D02*
X0042318D01*
X0042417Y0019978D02*
X0042318D01*
X0042417Y0019925D02*
X0042318D01*
X0042417Y0019872D02*
X0042318D01*
X0042417Y0019819D02*
X0042318D01*
X0042417Y0019767D02*
X0042318D01*
X0042417Y0019714D02*
X0042318D01*
X0042417Y0019661D02*
X0042318D01*
X0042417Y0020126D02*
X0042318D01*
X0042417D02*
Y0019633D01*
X0042318D01*
Y0020126D02*
Y0019633D01*
X0042909Y0017265D02*
X0043303Y0017659D01*
X0042909D02*
X0043303Y0017265D01*
X0044091Y0020023D02*
X0043697D01*
Y0019629D01*
X0044091D01*
Y0020023D01*
Y0016871D02*
X0043697D01*
Y0016477D01*
X0044091D01*
Y0016871D01*
X0043697Y0016477D02*
X0044091Y0016871D01*
X0043697D02*
X0044091Y0016477D01*
X0042614Y0017659D02*
Y0015888D01*
Y0018841D02*
Y0020612D01*
X0044344Y0020619D02*
Y0020520D01*
X0044291Y0020619D02*
Y0020520D01*
X0044239Y0020619D02*
Y0020520D01*
X0044186Y0020619D02*
Y0020520D01*
X0044133Y0020619D02*
Y0020520D01*
X0044080Y0020619D02*
Y0020520D01*
X0044027Y0020619D02*
Y0020520D01*
X0043975Y0020619D02*
Y0020520D01*
X0043922Y0020619D02*
Y0020520D01*
X0044386Y0020601D02*
X0043894D01*
X0044386Y0020548D02*
X0043894D01*
X0044386Y0020619D02*
Y0020520D01*
X0043894D01*
Y0020619D02*
Y0020520D01*
X0044386Y0020619D02*
X0043894D01*
X0043162D02*
Y0020520D01*
X0043109Y0020619D02*
Y0020520D01*
X0043057Y0020619D02*
Y0020520D01*
X0043004Y0020619D02*
Y0020520D01*
X0042951Y0020619D02*
Y0020520D01*
X0042898Y0020619D02*
Y0020520D01*
X0042845Y0020619D02*
Y0020520D01*
X0042793Y0020619D02*
Y0020520D01*
X0042740Y0020619D02*
Y0020520D01*
X0043205Y0020601D02*
X0042712D01*
X0043205Y0020548D02*
X0042712D01*
X0043205Y0020619D02*
X0042712D01*
Y0020520D01*
X0043205D02*
X0042712D01*
X0043205Y0020619D02*
Y0020520D01*
X0043303Y0017659D02*
X0042909D01*
Y0017265D01*
X0043303D01*
Y0017659D01*
Y0016871D02*
X0042909D01*
Y0016477D01*
X0043303D01*
Y0016871D01*
X0042909Y0019235D02*
X0043303Y0018841D01*
X0043697Y0018447D02*
X0044091Y0018053D01*
X0043697Y0017265D02*
X0044091Y0017659D01*
X0043697D02*
X0044091Y0017265D01*
X0042909Y0016871D02*
X0043303Y0016477D01*
Y0020023D02*
X0042909D01*
Y0019629D01*
X0043303D01*
Y0020023D01*
X0042909Y0019629D02*
X0043303Y0020023D01*
X0042909D02*
X0043303Y0019629D01*
X0043697D02*
X0044091Y0020023D01*
G54D60*
G01X0042319Y0020415D02*
Y0015888D01*
X0044583D01*
Y0020612D01*
X0042319D01*
Y0020415D01*
Y0018840D02*
X0042713D01*
Y0020612D01*
X0042319Y0017660D02*
X0042713D01*
Y0015888D01*
X0044583Y0019826D02*
Y0019432D01*
X0044682D01*
Y0017068D01*
X0044583D01*
M02*
