*
G04 Mass Parameters ***
*
G04 Image ***
*
%IND:\UTENTI\00.LAVORI IN CORSO\METALTRONICA\22-305-0\22-305-0.SMT*%
%ICAS*%
%MOIN*%
%IPPOS*%
%ASAXBY*%
G74*%FSLAN2X34Y34*%
*
G04 Aperture Definitions ***
*
%ADD10R,0.0380X0.0320*%
%ADD11R,0.0320X0.0380*%
%ADD12R,0.0905X0.0886*%
%ADD13R,0.0510X0.1024*%
%ADD14R,0.0197X0.0315*%
%ADD15R,0.0501X0.0404*%
%ADD16R,0.0404X0.0501*%
%ADD17C,0.2756*%
%ADD18R,0.1220X0.0905*%
%ADD19R,0.1200X0.0600*%
%ADD20C,0.0512*%
%ADD21C,0.0866*%
%ADD22C,0.0669*%
%ADD23O,0.0787X0.0630*%
%ADD24C,0.0610*%
%ADD25R,0.0610X0.0610*%
%ADD26O,0.1181X0.0787*%
%ADD27R,0.0669X0.0669*%
%ADD28C,0.0787*%
%ADD29C,0.0433*%
%ADD30R,0.0787X0.0787*%
%ADD31C,0.0187*%
%ADD32R,0.0710X0.0400*%
%ADD33R,0.0400X0.0710*%
%ADD34R,0.0850X0.1080*%
%ADD35R,0.0354X0.0512*%
%ADD36R,0.0512X0.0354*%
%ADD37R,0.0315X0.0236*%
%ADD38R,0.0512X0.0236*%
%ADD39R,0.3701X0.4252*%
%ADD40R,0.1811X0.0531*%
%ADD41C,0.0800*%
%ADD42C,0.0276*%
%ADD43C,0.0394*%
%ADD44C,0.0050*%
%ADD45C,0.0100*%
%ADD46C,0.0120*%
%ADD47C,0.0250*%
%ADD48C,0.0276*%
%ADD49C,0.0500*%
%ADD50C,0.0150*%
%ADD51C,0.0400*%
%ADD52C,0.0060*%
%ADD53C,0.0276*%
%ADD54C,0.0590*%
*
G04 Plot Data ***
*
G54D44*
G01X0043190Y0006473D02*
Y0006225D01*
X0043145Y0006473D02*
Y0006204D01*
X0043100Y0006473D02*
Y0006179D01*
X0043055Y0006473D02*
Y0006151D01*
X0043010Y0006473D02*
Y0006118D01*
X0042965Y0006473D02*
Y0006080D01*
X0042920Y0006473D02*
Y0006035D01*
X0042875Y0006473D02*
Y0005983D01*
X0042830Y0006473D02*
Y0005921D01*
X0042785Y0006473D02*
Y0005853D01*
X0042740Y0006473D02*
Y0005853D01*
X0042695Y0006473D02*
Y0005853D01*
X0042650Y0006473D02*
Y0005853D01*
X0042605Y0006473D02*
Y0005853D01*
X0042560Y0006463D02*
Y0005853D01*
X0044470Y0006433D02*
X0042530D01*
X0044480Y0006388D02*
X0042520D01*
X0044480Y0006343D02*
X0042520D01*
X0044480Y0006298D02*
X0042520D01*
X0043263Y0006253D02*
X0042520D01*
X0043153Y0006208D02*
X0042520D01*
X0043073Y0006163D02*
X0042520D01*
X0043010Y0006118D02*
X0042520D01*
X0042958Y0006073D02*
X0042520D01*
X0042913Y0006028D02*
X0042520D01*
X0042874Y0005983D02*
X0042520D01*
X0042841Y0005938D02*
X0042520D01*
X0044450Y0006456D02*
Y0005853D01*
X0044405Y0006473D02*
Y0005853D01*
X0044360Y0006473D02*
Y0005853D01*
X0044315Y0006473D02*
Y0005853D01*
X0044270Y0006473D02*
Y0005853D01*
X0044225Y0006473D02*
Y0005853D01*
X0044180Y0006473D02*
Y0005900D01*
X0044135Y0006473D02*
Y0005970D01*
X0044090Y0006473D02*
Y0006027D01*
X0044045Y0006473D02*
Y0006075D01*
X0044000Y0006473D02*
Y0006115D01*
X0043955Y0006473D02*
Y0006149D01*
X0043910Y0006473D02*
Y0006179D01*
X0043865Y0006473D02*
Y0006205D01*
X0043820Y0006473D02*
Y0006226D01*
X0043775Y0006473D02*
Y0006245D01*
X0043730Y0006473D02*
Y0006260D01*
X0043685Y0006473D02*
Y0006272D01*
X0043640Y0006473D02*
Y0006281D01*
X0043595Y0006473D02*
Y0006288D01*
X0043550Y0006473D02*
Y0006292D01*
X0043505Y0006473D02*
Y0006293D01*
X0043460Y0006473D02*
Y0006291D01*
X0043415Y0006473D02*
Y0006287D01*
X0043370Y0006473D02*
Y0006280D01*
X0043325Y0006473D02*
Y0006270D01*
X0043280Y0006473D02*
Y0006258D01*
X0043235Y0006473D02*
Y0006243D01*
X0044480Y0006253D02*
X0043751D01*
X0044480Y0006208D02*
X0043858D01*
X0044480Y0006163D02*
X0043935D01*
X0044480Y0006118D02*
X0043996D01*
X0044480Y0006073D02*
X0044047D01*
X0044480Y0006028D02*
X0044089D01*
X0044480Y0005983D02*
X0044126D01*
X0044480Y0005938D02*
X0044157D01*
X0044480Y0005893D02*
X0044184D01*
X0042812D02*
X0042520D01*
X0044200Y0005863D02*
X0044210Y0005853D01*
X0044480D02*
X0044210D01*
X0044480Y0006393D02*
Y0005853D01*
Y0006395D02*
Y0006393D01*
X0044400Y0006473D02*
X0042600D01*
X0042598D01*
X0042520Y0006393D02*
Y0005853D01*
X0042790D02*
X0042520D01*
X0043505Y0006293D02*
X0043500D01*
X0043193Y0004764D02*
Y0004521D01*
X0043148Y0004785D02*
Y0004521D01*
X0043103Y0004809D02*
Y0004521D01*
X0043058Y0004838D02*
Y0004521D01*
X0043013Y0004871D02*
Y0004521D01*
X0042968Y0004910D02*
Y0004521D01*
X0042923Y0004956D02*
Y0004521D01*
X0042878Y0005010D02*
Y0004521D01*
X0042833Y0005077D02*
Y0004521D01*
X0042788Y0005141D02*
Y0004521D01*
X0042743Y0005141D02*
Y0004521D01*
X0042698Y0005141D02*
Y0004521D01*
X0042653Y0005141D02*
Y0004521D01*
X0042608Y0005141D02*
Y0004521D01*
X0042563Y0005141D02*
Y0004531D01*
X0042819Y0005101D02*
X0042523D01*
X0042846Y0005056D02*
X0042523D01*
X0042877Y0005011D02*
X0042523D01*
X0042913Y0004966D02*
X0042523D01*
X0042956Y0004921D02*
X0042523D01*
X0043007Y0004876D02*
X0042523D01*
X0043067Y0004831D02*
X0042523D01*
X0043144Y0004786D02*
X0042523D01*
X0043251Y0004741D02*
X0042523D01*
X0044483Y0004696D02*
X0042523D01*
X0044483Y0004651D02*
X0042523D01*
X0044483Y0004606D02*
X0042523D01*
X0044453Y0005141D02*
Y0004538D01*
X0044408Y0005141D02*
Y0004521D01*
X0044363Y0005141D02*
Y0004521D01*
X0044318Y0005141D02*
Y0004521D01*
X0044273Y0005141D02*
Y0004521D01*
X0044228Y0005141D02*
Y0004521D01*
X0044183Y0005088D02*
Y0004521D01*
X0044138Y0005023D02*
Y0004521D01*
X0044093Y0004969D02*
Y0004521D01*
X0044048Y0004923D02*
Y0004521D01*
X0044003Y0004884D02*
Y0004521D01*
X0043958Y0004850D02*
Y0004521D01*
X0043913Y0004821D02*
Y0004521D01*
X0043868Y0004795D02*
Y0004521D01*
X0043823Y0004773D02*
Y0004521D01*
X0043778Y0004755D02*
Y0004521D01*
X0043733Y0004739D02*
Y0004521D01*
X0043688Y0004726D02*
Y0004521D01*
X0043643Y0004716D02*
Y0004521D01*
X0043598Y0004709D02*
Y0004521D01*
X0043553Y0004704D02*
Y0004521D01*
X0043508Y0004701D02*
Y0004521D01*
X0043463Y0004702D02*
Y0004521D01*
X0043418Y0004705D02*
Y0004521D01*
X0043373Y0004711D02*
Y0004521D01*
X0043328Y0004720D02*
Y0004521D01*
X0043283Y0004731D02*
Y0004521D01*
X0043238Y0004746D02*
Y0004521D01*
X0044483Y0005101D02*
X0044190D01*
X0044483Y0005056D02*
X0044162D01*
X0044483Y0005011D02*
X0044128D01*
X0044483Y0004966D02*
X0044090D01*
X0044483Y0004921D02*
X0044045D01*
X0044483Y0004876D02*
X0043993D01*
X0044483Y0004831D02*
X0043929D01*
X0044483Y0004786D02*
X0043850D01*
X0044483Y0004741D02*
X0043739D01*
X0044473Y0004561D02*
X0042533D01*
X0043503Y0004701D02*
X0043498D01*
X0044483Y0005141D02*
X0044213D01*
X0044483D02*
Y0004601D01*
Y0004600D01*
X0044403Y0004521D02*
X0042603D01*
X0042601D01*
X0042523Y0005141D02*
Y0004601D01*
X0042793Y0005141D02*
X0042523D01*
X0042793D02*
X0042803Y0005131D01*
G01X0044480Y0006395D02*
G03X0044402Y0006473I0000078J0000000D01*
G03X0044400Y0006473I0000000J0000078D01*
G01X0042598D02*
G03X0042520Y0006395I0000000J0000078D01*
G03X0042520Y0006393I0000078J0000000D01*
G01X0043500Y0006293D02*
G03X0042790Y0005853I0000017J0000820D01*
G01X0044200Y0005863D02*
G03X0043505Y0006293I0000695J0000346D01*
G01X0042803Y0005131D02*
G03X0043498Y0004701I0000695J0000346D01*
G01X0043503D02*
G03X0044213Y0005141I0000017J0000821D01*
G01X0044405Y0004521D02*
G03X0044484Y0004600I0000000J0000079D01*
G01X0044403Y0004521D02*
G03X0044405Y0004521I0000002J0000079D01*
G01X0042523Y0004600D02*
G03X0042601Y0004522I0000078J0000000D01*
G01X0042523Y0004601D02*
G03X0042523Y0004600I0000078J0000001D01*
G54D10*
X0015500Y0009530D03*
Y0008970D03*
X0012500Y0009280D03*
Y0008720D03*
Y0010220D03*
Y0010780D03*
X0016250Y0011030D03*
Y0010470D03*
X0012500Y0011970D03*
Y0012530D03*
X0016250D03*
Y0011970D03*
X0012500Y0013470D03*
Y0014030D03*
X0027500Y0011530D03*
Y0010970D03*
X0016250Y0014280D03*
Y0013720D03*
Y0015780D03*
Y0015220D03*
X0012000Y0015720D03*
Y0016280D03*
X0030250Y0014030D03*
Y0013470D03*
X0028750Y0014030D03*
Y0013470D03*
X0018250Y0021970D03*
Y0022530D03*
X0012750Y0006970D03*
Y0007530D03*
X0014750Y0006470D03*
Y0007030D03*
X0012500Y0023530D03*
Y0022970D03*
X0014500D03*
Y0023530D03*
X0012500Y0024780D03*
Y0024220D03*
X0014500Y0024780D03*
Y0024220D03*
X0021250Y0017220D03*
Y0017780D03*
X0015500Y0006470D03*
Y0007030D03*
X0017500Y0006470D03*
Y0007030D03*
X0015500Y0010470D03*
Y0011030D03*
Y0011970D03*
Y0012530D03*
Y0013720D03*
Y0014280D03*
Y0015780D03*
Y0015220D03*
X0022750Y0001780D03*
Y0001220D03*
X0041500Y0003530D03*
Y0002970D03*
X0024000Y0021220D03*
Y0021780D03*
G54D11*
X0022720Y0012000D03*
X0023280D03*
X0037530Y0007500D03*
X0036970D03*
X0018030Y0010000D03*
X0017470D03*
X0022720Y0011000D03*
X0023280D03*
X0022720Y0010250D03*
X0023280D03*
X0018030Y0009250D03*
X0017470D03*
X0007280Y0012500D03*
X0006720D03*
X0007280Y0001500D03*
X0006720D03*
X0035220Y0015000D03*
X0035780D03*
X0007280Y0004750D03*
X0006720D03*
X0007280Y0006750D03*
X0006720D03*
X0005470D03*
X0006030D03*
X0005470Y0004750D03*
X0006030D03*
X0022720Y0015500D03*
X0023280D03*
Y0016250D03*
X0022720D03*
Y0014000D03*
X0023280D03*
X0007280Y0017000D03*
X0006720D03*
X0022720Y0012750D03*
X0023280D03*
X0007280Y0021500D03*
X0006720D03*
X0006220Y0024750D03*
X0006780D03*
X0023280Y0014750D03*
X0022720D03*
X0020780Y0007500D03*
X0020220D03*
X0013780Y0024750D03*
X0013220D03*
X0023280Y0017000D03*
X0022720D03*
X0016780Y0006500D03*
X0016220D03*
X0013780Y0023500D03*
X0013220D03*
X0014030Y0007000D03*
X0013470D03*
X0023280Y0017750D03*
X0022720D03*
X0037530Y0006750D03*
X0036970D03*
X0040220Y0007500D03*
X0040780D03*
X0014030Y0007750D03*
X0013470D03*
X0042720Y0021500D03*
X0043280D03*
G54D12*
X0041714Y0004750D03*
X0039785D03*
X0041714Y0006250D03*
X0039785D03*
G54D13*
X0037600Y0004750D03*
X0038900D03*
G54D14*
X0022000Y0010106D03*
Y0010894D03*
X0008000Y0010644D03*
Y0009856D03*
Y0015644D03*
Y0014856D03*
X0012000Y0000856D03*
Y0001644D03*
Y0003856D03*
Y0004644D03*
Y0005356D03*
Y0006144D03*
Y0006856D03*
Y0007644D03*
Y0002356D03*
Y0003144D03*
X0008000Y0012394D03*
Y0011606D03*
Y0013894D03*
Y0013106D03*
X0022000Y0012106D03*
Y0012894D03*
X0008000Y0020144D03*
Y0019356D03*
Y0024644D03*
Y0023856D03*
Y0023144D03*
Y0022356D03*
X0012000Y0019856D03*
Y0020644D03*
X0008000Y0018644D03*
Y0017856D03*
G54D15*
X0017750Y0011900D03*
Y0011100D03*
X0017000Y0011900D03*
Y0011100D03*
G54D16*
X0039150Y0007500D03*
X0038350D03*
G54D17*
X0024803Y0023622D03*
X0001968Y0001968D03*
X0024803D03*
X0043307D03*
Y0023622D03*
X0001968D03*
G54D18*
X0043000Y0008043D03*
Y0010957D03*
G54D19*
X0002114Y0008250D03*
X0003886Y0008750D03*
X0002114Y0009250D03*
X0003886Y0009750D03*
X0002114Y0010250D03*
X0003886Y0010750D03*
X0002114Y0011250D03*
X0003886Y0011750D03*
X0002114Y0012250D03*
X0003886Y0012750D03*
X0002114Y0013250D03*
X0003886Y0013750D03*
X0002114Y0014250D03*
X0003886Y0014750D03*
X0002114Y0015250D03*
X0003886Y0015750D03*
X0002114Y0016250D03*
X0003886Y0016750D03*
X0002114Y0017250D03*
X0003886Y0017750D03*
G54D21*
X0043250Y0015096D03*
Y0012403D03*
G54D22*
X0037758Y0018242D03*
Y0017258D03*
X0038742Y0018242D03*
X0037758Y0022742D03*
Y0021758D03*
X0038742Y0022742D03*
X0033008Y0023234D03*
Y0022250D03*
Y0021266D03*
X0033992Y0022250D03*
Y0023234D03*
X0043250Y0014242D03*
Y0013258D03*
G54D23*
X0030508Y0011968D03*
Y0010984D03*
Y0010000D03*
Y0009016D03*
Y0008031D03*
X0031492D03*
Y0011968D03*
Y0010984D03*
Y0010000D03*
Y0009016D03*
X0030508Y0005218D03*
Y0004234D03*
Y0003250D03*
Y0002266D03*
Y0001281D03*
X0031492D03*
Y0005218D03*
Y0004234D03*
Y0003250D03*
Y0002266D03*
X0019758Y0023961D03*
Y0022976D03*
Y0021992D03*
Y0021008D03*
Y0020024D03*
Y0019039D03*
X0020742D03*
Y0023961D03*
Y0022976D03*
Y0021992D03*
Y0021008D03*
Y0020024D03*
X0025008Y0016703D03*
Y0015718D03*
Y0014734D03*
Y0013750D03*
Y0012766D03*
Y0011781D03*
Y0010797D03*
X0025992D03*
Y0016703D03*
Y0015718D03*
Y0014734D03*
Y0013750D03*
Y0012766D03*
Y0011781D03*
X0028258Y0023726D03*
Y0022742D03*
Y0021758D03*
Y0020774D03*
X0029242D03*
Y0023726D03*
Y0022742D03*
Y0021758D03*
G54D24*
X0043893Y0019824D03*
X0043106Y0019037D03*
X0043893D03*
X0043106Y0018250D03*
X0043893D03*
X0043106Y0017463D03*
X0043893D03*
X0043106Y0016675D03*
X0043893D03*
G54D25*
X0043106Y0019824D03*
G54D26*
X0038628Y0016403D03*
Y0019096D03*
Y0020903D03*
Y0023596D03*
X0033878Y0020411D03*
Y0024088D03*
G54D27*
X0038742Y0017258D03*
Y0021758D03*
X0033992Y0021266D03*
G54D28*
X0019910Y0005521D03*
Y0004340D03*
Y0003160D03*
X0021090Y0005521D03*
Y0004340D03*
Y0003160D03*
Y0001978D03*
G54D30*
X0019910D03*
G54D32*
X0030250Y0018090D03*
Y0019410D03*
X0031500Y0018090D03*
Y0019410D03*
X0032750Y0018090D03*
Y0019410D03*
X0029000Y0018090D03*
Y0019410D03*
G54D33*
X0007160Y0009000D03*
X0005840D03*
X0022590Y0008750D03*
X0023910D03*
X0007160Y0010250D03*
X0005840D03*
Y0014750D03*
X0007160D03*
X0013340Y0001500D03*
X0014660D03*
X0005840Y0002500D03*
X0007160D03*
X0013340Y0004000D03*
X0014660D03*
X0013340Y0005250D03*
X0014660D03*
X0005840Y0005750D03*
X0007160D03*
X0016090Y0008000D03*
X0017410D03*
X0005840Y0007750D03*
X0007160D03*
X0013340Y0002750D03*
X0014660D03*
X0005840Y0003750D03*
X0007160D03*
Y0011500D03*
X0005840D03*
X0007160Y0013500D03*
X0005840D03*
X0007160Y0016000D03*
X0005840D03*
X0014160Y0018250D03*
X0012840D03*
X0007160Y0019250D03*
X0005840D03*
X0014160Y0022000D03*
X0012840D03*
X0007160Y0023750D03*
X0005840D03*
X0014160Y0020750D03*
X0012840D03*
X0007160Y0022500D03*
X0005840D03*
X0012840Y0019500D03*
X0014160D03*
X0005840Y0020500D03*
X0007160D03*
X0014160Y0017000D03*
X0012840D03*
X0007160Y0018000D03*
X0005840D03*
G54D34*
X0028870Y0003000D03*
X0027130D03*
X0028870Y0004750D03*
X0027130D03*
X0023880D03*
X0025620D03*
X0018120D03*
X0016380D03*
X0018120Y0003000D03*
X0016380D03*
X0023880Y0006500D03*
X0025620D03*
X0018120Y0001250D03*
X0016380D03*
X0028870Y0006500D03*
X0027130D03*
X0033880D03*
X0035620D03*
X0033880Y0004750D03*
X0035620D03*
X0028870Y0001250D03*
X0027130D03*
X0033880D03*
X0035620D03*
X0033880Y0003000D03*
X0035620D03*
G54D35*
X0030250Y0014760D03*
X0030750D03*
Y0017240D03*
X0030250D03*
X0031750Y0014760D03*
X0032250D03*
Y0017240D03*
X0031750D03*
X0028750Y0014760D03*
X0029250D03*
Y0017240D03*
X0028750D03*
G54D36*
X0011240Y0008500D03*
Y0009000D03*
X0008760D03*
Y0008500D03*
X0021240Y0010500D03*
Y0011000D03*
X0018760D03*
Y0010500D03*
X0008760D03*
Y0010000D03*
X0011240D03*
Y0010500D03*
X0018760Y0009250D03*
Y0008750D03*
X0021240D03*
Y0009250D03*
X0011240Y0001000D03*
Y0001500D03*
X0008760D03*
Y0001000D03*
X0011240Y0005500D03*
Y0006000D03*
X0008760D03*
Y0005500D03*
X0011240Y0004000D03*
Y0004500D03*
X0008760D03*
Y0004000D03*
X0011240Y0007000D03*
Y0007500D03*
X0008760D03*
Y0007000D03*
X0011240Y0002500D03*
Y0003000D03*
X0008760D03*
Y0002500D03*
X0018760Y0016250D03*
Y0015750D03*
X0021240D03*
Y0016250D03*
X0008760Y0012000D03*
Y0011500D03*
X0011240D03*
Y0012000D03*
X0018760Y0014500D03*
Y0014000D03*
X0021240D03*
Y0014500D03*
X0008760Y0013500D03*
Y0013000D03*
X0011240D03*
Y0013500D03*
Y0016500D03*
Y0017000D03*
X0008760D03*
Y0016500D03*
X0021240Y0012250D03*
Y0012750D03*
X0018760D03*
Y0012250D03*
X0008760Y0020000D03*
Y0019500D03*
X0011240D03*
Y0020000D03*
X0008760Y0024500D03*
Y0024000D03*
X0011240D03*
Y0024500D03*
X0008760Y0023000D03*
Y0022500D03*
X0011240D03*
Y0023000D03*
Y0021000D03*
Y0021500D03*
X0008760D03*
Y0021000D03*
Y0018500D03*
Y0018000D03*
X0011240D03*
Y0018500D03*
G54D37*
X0014250Y0009000D03*
Y0009374D03*
Y0009748D03*
X0013230D03*
Y0009000D03*
X0013250Y0011250D03*
Y0010876D03*
Y0010502D03*
X0014270D03*
Y0011250D03*
X0013250Y0012750D03*
Y0012376D03*
Y0012002D03*
X0014270D03*
Y0012750D03*
X0013250Y0014250D03*
Y0013876D03*
Y0013502D03*
X0014270D03*
Y0014250D03*
X0014250Y0015000D03*
Y0015374D03*
Y0015748D03*
X0013230D03*
Y0015000D03*
G54D38*
X0008898Y0015500D03*
Y0014500D03*
X0011102D03*
Y0015500D03*
G54D39*
X0038868Y0012000D03*
G54D40*
X0035266Y0013000D03*
Y0011000D03*
G54D41*
X0039750Y0002750D03*
X0038750D03*
X0037750D03*
G54D54*
X0003250Y0003250D03*
X0044750Y0000750D03*
X0000750Y0025000D03*
M02*
