%
T1C0.0079F200S100
X000750Y011800
X001200Y016250
X001350Y005550
X003000Y011250
X003000Y015250
X003900Y007050
X004400Y005550
X004500Y020650
X004700Y007800
X004800Y013750
X004850Y010750
X004850Y023750
X004900Y009750
X004950Y004750
X004950Y014750
X005000Y016750
X005000Y018000
X005350Y021150
X005400Y007750
X005800Y018650
X005400Y020500
X006200Y012500
X007150Y024400
X007600Y003750
X007650Y008500
X007650Y010650
X007650Y012250
X007650Y013900
X007650Y016600
X007650Y018650
X007650Y020150
X007650Y021000
X007650Y023150
X007650Y023950
X007700Y007200
X008150Y001750
X008150Y002500
X008150Y004000
X008150Y005500
X008150Y007000
X011500Y019050
X011500Y020500
X011750Y022750
X011750Y023700
X011800Y009000
X011950Y017000
X012000Y010000
X012050Y011650
X012050Y013400
X012050Y014250
X012050Y015000
X012450Y001650
X012450Y002400
X012450Y003850
X012450Y005350
X012450Y006500
X013000Y008000
X013020Y022970
X013180Y024220
X013700Y015000
X013800Y006450
X013800Y008200
X013800Y009000
X013800Y011250
X013800Y014250
X014550Y007750
X014748Y015748
X014930Y014250
X014950Y013800
X014950Y015200
X014930Y022970
X014970Y023530
X015000Y010500
X015000Y012000
X015020Y024220
X015500Y001100
X015500Y003000
X015500Y004750
X016050Y007150
X016050Y009300
X016750Y013400
X016750Y015250
X016750Y015800
X016850Y009050
X016850Y010000
X017000Y007000
X017120Y012530
X017120Y016220
X017620Y022530
X017700Y015200
X018000Y008750
X018150Y015750
X018250Y014100
X018700Y011600
X020220Y006970
X020600Y017950
X021500Y009750
X021500Y011500
X021500Y015050
X021600Y018350
X021800Y006200
X021800Y017150
X022200Y014750
X022750Y002450
X023250Y018350
X023320Y021220
X023766Y014734
X024000Y013550
X024000Y017000
X024050Y017950
X026850Y024600
X027200Y009200
X027600Y017050
X027600Y019500
X027650Y019120
X028300Y013500
X028400Y009100
X028850Y003900
X028850Y007300
X028900Y005700
X030250Y020000
X030750Y014200
X031500Y020000
X032050Y022000
X032250Y014200
X032250Y016750
X032700Y019900
X033850Y003850
X033900Y005550
X033900Y007400
X033900Y013000
X035200Y020050
X035600Y007350
X037000Y008000
X037500Y010500
X037500Y011500
X037500Y012500
X037500Y013500
X038500Y010500
X038500Y011500
X038500Y012500
X038500Y013500
X039050Y006250
X039150Y008150
X039500Y010500
X039500Y011500
X039500Y012500
X039500Y013500
X039608Y022742
X040220Y008120
X040500Y010500
X040500Y011500
X040500Y012500
X040500Y013500
X040600Y004900
X040600Y006250
X040800Y015000
X041250Y018250
X041800Y015000
X042100Y003700
X042350Y022000
T4C0.0472F200S100
X019758Y019039
X019758Y020024
X019758Y021008
X019758Y021992
X019758Y022976
X019758Y023961
X020742Y019039
X020742Y020024
X020742Y021008
X020742Y021992
X020742Y022976
X020742Y023961
X025008Y010797
X025008Y011781
X025008Y012766
X025008Y013750
X025008Y014734
X025008Y015718
X025008Y016703
X025992Y010797
X025992Y011781
X025992Y012766
X025992Y013750
X025992Y014734
X025992Y015718
X025992Y016703
X028258Y020774
X028258Y021758
X028258Y022742
X028258Y023726
X029242Y020774
X029242Y021758
X029242Y022742
X029242Y023726
X030508Y001281
X030508Y002266
X030508Y003250
X030508Y004234
X030508Y005218
X030508Y008031
X030508Y009016
X030508Y010000
X030508Y010984
X030508Y011968
X031492Y001281
X031492Y002266
X031492Y003250
X031492Y004234
X031492Y005218
X031492Y008031
X031492Y009016
X031492Y010000
X031492Y010984
X031492Y011968
X033008Y021266
X033008Y022250
X033008Y023234
X033992Y021266
X033992Y022250
X033992Y023234
X037758Y017258
X037758Y018242
X038742Y017258
X038742Y018242
X038742Y021758
X037758Y021758
X037758Y022742
X038742Y022742
X043250Y013258
X043250Y014242
T6C0.0630F200S100
X033878Y020411
X033878Y024088
X038628Y016403
X038628Y019096
X038628Y020903
X038628Y023596
X043250Y012403
X043250Y015096
T7C0.1378F200S100
X001968Y001968
X001968Y023622
X024803Y001968
X024803Y023622
X043307Y001968
X043307Y023622
T2C0.0315F200S100
X043106Y016675
X043893Y016675
X043893Y017463
X043106Y017463
X043106Y018250
X043893Y018250
X043893Y019037
X043106Y019037
X043106Y019824
X043893Y019824
T3C0.0433F200S100
X019910Y001978
X021090Y001978
X021090Y003160
X019910Y003160
X019910Y004340
X021090Y004340
X021090Y005521
X019910Y005521
X037750Y002750
X038750Y002750
X039750Y002750
M30
